<svg xmlns="http://www.w3.org/2000/svg" xmlns:xlink="http://www.w3.org/1999/xlink" width="350" zoomAndPan="magnify" viewBox="0 0 262.5 74.999997" height="100" preserveAspectRatio="xMidYMid meet" version="1.0"><defs><g/><clipPath id="ada5466e5d"><path d="M 0.707031 2.132812 L 49 2.132812 L 49 60.984375 L 0.707031 60.984375 Z M 0.707031 2.132812 " clip-rule="nonzero"/></clipPath><clipPath id="fe07887e85"><path d="M 1 18 L 48 18 L 48 60.984375 L 1 60.984375 Z M 1 18 " clip-rule="nonzero"/></clipPath><clipPath id="cb7e786362"><path d="M 0.707031 2.132812 L 49 2.132812 L 49 60.984375 L 0.707031 60.984375 Z M 0.707031 2.132812 " clip-rule="nonzero"/></clipPath><clipPath id="1e7b4f081b"><path d="M 11 2.132812 L 29 2.132812 L 29 25 L 11 25 Z M 11 2.132812 " clip-rule="nonzero"/></clipPath><clipPath id="a1211349b1"><path d="M 51 0.464844 L 248.636719 0.464844 L 248.636719 69.214844 L 51 69.214844 Z M 51 0.464844 " clip-rule="nonzero"/></clipPath><clipPath id="b5cfa61554"><rect x="0" width="198" y="0" height="70"/></clipPath><clipPath id="9c42440814"><path d="M 179 10 L 188 10 L 188 25 L 179 25 Z M 179 10 " clip-rule="nonzero"/></clipPath><clipPath id="1296c0a4a0"><path d="M 182.296875 9.464844 L 191.308594 13.632812 L 185.652344 25.859375 L 176.644531 21.691406 Z M 182.296875 9.464844 " clip-rule="nonzero"/></clipPath><clipPath id="1765d93058"><path d="M 178.375 4.9375 L 197.035156 13.570312 L 188.105469 32.875 L 169.445312 24.242188 Z M 178.375 4.9375 " clip-rule="nonzero"/></clipPath><clipPath id="cb338cd9e1"><path d="M 180 11 L 186 11 L 186 21 L 180 21 Z M 180 11 " clip-rule="nonzero"/></clipPath><clipPath id="9a981c47d3"><path d="M 182.296875 9.464844 L 191.308594 13.632812 L 185.652344 25.859375 L 176.644531 21.691406 Z M 182.296875 9.464844 " clip-rule="nonzero"/></clipPath><clipPath id="2cddb23c52"><path d="M 178.375 4.9375 L 197.035156 13.570312 L 188.105469 32.875 L 169.445312 24.242188 Z M 178.375 4.9375 " clip-rule="nonzero"/></clipPath><clipPath id="f7aaa72078"><path d="M 181 12 L 184 12 L 184 18 L 181 18 Z M 181 12 " clip-rule="nonzero"/></clipPath><clipPath id="fbd39ffb7d"><path d="M 182.296875 9.464844 L 191.308594 13.632812 L 185.652344 25.859375 L 176.644531 21.691406 Z M 182.296875 9.464844 " clip-rule="nonzero"/></clipPath><clipPath id="ad5a9efb5a"><path d="M 178.375 4.9375 L 197.035156 13.570312 L 188.105469 32.875 L 169.445312 24.242188 Z M 178.375 4.9375 " clip-rule="nonzero"/></clipPath><clipPath id="61d57094fc"><path d="M 6.238281 31.457031 L 23 31.457031 L 23 47.761719 L 6.238281 47.761719 Z M 6.238281 31.457031 " clip-rule="nonzero"/></clipPath><clipPath id="5de6284f52"><path d="M 6.238281 31.480469 L 23.492188 31.480469 L 23.492188 47.734375 L 6.238281 47.734375 Z M 6.238281 31.480469 " clip-rule="nonzero"/></clipPath><clipPath id="eef95425d9"><path d="M 26 31.457031 L 43.816406 31.457031 L 43.816406 47.761719 L 26 47.761719 Z M 26 31.457031 " clip-rule="nonzero"/></clipPath><clipPath id="8fcd4f0027"><path d="M 26.433594 31.480469 L 43.679688 31.480469 L 43.679688 47.734375 L 26.433594 47.734375 Z M 26.433594 31.480469 " clip-rule="nonzero"/></clipPath><clipPath id="b9c2221dc1"><rect x="0" width="249" y="0" height="70"/></clipPath></defs><g transform="matrix(1, 0, 0, 1, 6, 2)"><g clip-path="url(#b9c2221dc1)"><g clip-path="url(#ada5466e5d)"><path fill="#30a755" d="M 27.070312 60.367188 C 25.996094 60.496094 24.925781 60.5625 23.867188 60.5625 C 18.738281 60.5625 13.816406 59.058594 9.75 56.207031 C 4.835938 52.761719 1.753906 47.765625 1.070312 42.128906 C 0.386719 36.496094 2.1875 30.90625 6.136719 26.386719 C 8.675781 23.484375 11.910156 21.25 15.558594 19.820312 C 13.707031 16.773438 11.335938 12.546875 11.085938 10.488281 C 11.082031 10.445312 11.09375 10.402344 11.117188 10.367188 C 11.148438 10.320312 11.914062 9.261719 13.789062 9.695312 C 13.847656 9.707031 13.894531 9.75 13.914062 9.808594 C 13.933594 9.867188 15.296875 14.058594 16.777344 17.722656 C 16.902344 12.402344 18.292969 8.339844 20.9375 5.625 C 21.6875 4.851562 22.484375 4.253906 23.269531 3.792969 C 23.289062 3.777344 23.308594 3.765625 23.332031 3.757812 C 26.117188 2.136719 28.757812 2.191406 28.792969 2.195312 C 28.796875 2.195312 28.800781 2.195312 28.804688 2.195312 C 28.808594 2.195312 28.816406 2.195312 28.820312 2.199219 C 28.828125 2.199219 28.832031 2.199219 28.839844 2.203125 C 28.84375 2.203125 28.847656 2.207031 28.851562 2.207031 C 28.859375 2.210938 28.863281 2.210938 28.867188 2.214844 C 28.875 2.21875 28.878906 2.21875 28.882812 2.222656 C 28.886719 2.226562 28.890625 2.230469 28.898438 2.234375 C 28.902344 2.238281 28.90625 2.242188 28.910156 2.246094 C 28.910156 2.246094 28.914062 2.246094 28.914062 2.25 C 28.917969 2.253906 28.917969 2.257812 28.921875 2.257812 C 28.925781 2.261719 28.925781 2.265625 28.929688 2.269531 C 28.929688 2.269531 28.929688 2.269531 28.929688 2.273438 C 28.933594 2.277344 28.9375 2.285156 28.941406 2.289062 C 28.941406 2.292969 28.945312 2.296875 28.949219 2.304688 C 28.949219 2.308594 28.953125 2.316406 28.953125 2.320312 C 28.953125 2.324219 28.957031 2.332031 28.957031 2.335938 C 28.957031 2.339844 28.957031 2.347656 28.960938 2.351562 C 28.960938 2.359375 28.960938 2.363281 28.960938 2.371094 C 28.960938 2.371094 28.960938 2.375 28.960938 2.375 C 28.878906 4.285156 28.664062 5.996094 28.347656 7.527344 C 28.359375 7.582031 28.347656 7.632812 28.316406 7.671875 C 27.9375 9.460938 27.421875 11.003906 26.828125 12.328125 C 26.828125 12.375 26.808594 12.417969 26.773438 12.449219 C 25.933594 14.289062 24.945312 15.707031 23.960938 16.789062 C 23.949219 16.804688 23.9375 16.820312 23.921875 16.832031 C 23.523438 17.269531 23.125 17.652344 22.742188 17.980469 C 22.675781 18.039062 22.609375 18.09375 22.542969 18.148438 C 28.601562 17.550781 34.523438 19.039062 39.28125 22.375 C 44.195312 25.816406 47.277344 30.816406 47.960938 36.449219 C 49.371094 48.070312 39.996094 58.800781 27.070312 60.367188 Z M 27.070312 60.367188 " fill-opacity="1" fill-rule="nonzero"/></g><g clip-path="url(#fe07887e85)"><path fill="#ec671b" d="M 23.863281 60.214844 C 18.765625 60.214844 13.953125 58.730469 9.949219 55.921875 C 5.117188 52.535156 2.085938 47.625 1.414062 42.089844 C 0.746094 36.554688 2.515625 31.058594 6.398438 26.617188 C 8.878906 23.777344 12.113281 21.53125 15.742188 20.121094 C 16.128906 20.753906 16.53125 21.394531 16.933594 22.027344 C 16.328125 22.371094 16.015625 22.722656 15.882812 22.902344 C 15.328125 22.734375 14.726562 22.648438 14.089844 22.648438 C 13.839844 22.648438 13.578125 22.660156 13.316406 22.6875 C 13.269531 22.691406 13.230469 22.714844 13.199219 22.75 C 13.171875 22.789062 13.15625 22.832031 13.160156 22.878906 C 13.171875 22.964844 13.246094 23.035156 13.332031 23.035156 C 13.339844 23.035156 13.34375 23.035156 13.351562 23.035156 C 13.605469 23.007812 13.855469 22.996094 14.097656 22.996094 C 14.746094 22.996094 15.351562 23.085938 15.902344 23.269531 C 16.601562 23.507812 17.074219 23.84375 17.34375 24.085938 C 16.09375 24.183594 14.9375 24.679688 13.898438 25.566406 C 13.863281 25.59375 13.84375 25.636719 13.839844 25.683594 C 13.835938 25.730469 13.851562 25.773438 13.878906 25.808594 C 13.914062 25.847656 13.960938 25.871094 14.011719 25.871094 C 14.054688 25.871094 14.09375 25.855469 14.125 25.828125 C 15.136719 24.964844 16.261719 24.492188 17.476562 24.425781 C 17.539062 24.421875 17.597656 24.421875 17.652344 24.421875 C 17.679688 24.421875 17.707031 24.421875 17.734375 24.421875 C 18.128906 24.433594 18.492188 24.519531 18.820312 24.679688 C 19.585938 25.058594 20.023438 25.769531 20.257812 26.296875 C 20.285156 26.359375 20.347656 26.402344 20.417969 26.402344 C 20.441406 26.402344 20.464844 26.394531 20.488281 26.386719 C 20.574219 26.347656 20.613281 26.246094 20.578125 26.15625 C 20.34375 25.628906 19.90625 24.90625 19.152344 24.464844 C 19.347656 24.199219 19.789062 23.683594 20.519531 23.214844 C 21.195312 22.78125 21.964844 22.492188 22.800781 22.355469 C 23.054688 22.316406 23.324219 22.292969 23.605469 22.292969 C 24.019531 22.292969 24.464844 22.339844 24.925781 22.433594 C 24.9375 22.433594 24.949219 22.4375 24.960938 22.4375 C 25.042969 22.4375 25.113281 22.378906 25.132812 22.296875 C 25.140625 22.25 25.132812 22.203125 25.105469 22.167969 C 25.078125 22.128906 25.039062 22.101562 24.996094 22.09375 C 24.511719 21.996094 24.042969 21.949219 23.605469 21.949219 C 23.304688 21.949219 23.019531 21.96875 22.746094 22.015625 C 21.957031 22.144531 21.226562 22.402344 20.566406 22.78125 C 20.550781 22.464844 20.605469 21.96875 20.933594 21.433594 C 21.183594 21.027344 21.550781 20.660156 22.027344 20.339844 C 22.132812 20.269531 22.242188 20.199219 22.355469 20.132812 C 22.394531 20.109375 22.421875 20.070312 22.433594 20.027344 C 22.445312 19.980469 22.441406 19.933594 22.417969 19.894531 C 22.386719 19.84375 22.328125 19.808594 22.265625 19.808594 C 22.234375 19.808594 22.207031 19.816406 22.179688 19.832031 C 22.0625 19.902344 21.945312 19.976562 21.832031 20.050781 C 21.347656 20.378906 20.964844 20.753906 20.691406 21.167969 C 19.875 21.1875 19.128906 21.28125 18.46875 21.441406 C 18.335938 21.199219 18.191406 20.917969 18.042969 20.609375 C 18.996094 20.328125 20.457031 19.742188 22.027344 18.554688 C 23.074219 18.429688 24.128906 18.367188 25.164062 18.367188 C 30.265625 18.367188 35.078125 19.851562 39.082031 22.65625 C 43.914062 26.046875 46.945312 30.957031 47.617188 36.492188 C 49 47.921875 39.765625 58.480469 27.027344 60.023438 C 25.976562 60.148438 24.914062 60.214844 23.863281 60.214844 Z M 23.863281 60.214844 " fill-opacity="1" fill-rule="nonzero"/><path fill="#ec671b" d="M 27.027344 60.023438 C 20.851562 60.769531 14.789062 59.3125 9.949219 55.921875 C 5.117188 52.535156 2.085938 47.621094 1.414062 42.089844 C 0.746094 36.554688 2.515625 31.058594 6.398438 26.617188 C 8.914062 23.742188 12.121094 21.527344 15.742188 20.121094 C 16.1875 20.851562 16.597656 21.503906 16.933594 22.027344 C 16.328125 22.371094 16.015625 22.722656 15.882812 22.902344 C 15.109375 22.667969 14.25 22.59375 13.316406 22.6875 C 13.222656 22.699219 13.152344 22.78125 13.160156 22.878906 C 13.171875 22.972656 13.257812 23.046875 13.351562 23.035156 C 14.285156 22.9375 15.144531 23.019531 15.898438 23.269531 C 16.609375 23.507812 17.082031 23.851562 17.34375 24.085938 C 16.097656 24.183594 14.9375 24.675781 13.898438 25.5625 C 13.828125 25.625 13.816406 25.738281 13.878906 25.808594 C 13.914062 25.851562 13.964844 25.871094 14.011719 25.871094 C 14.050781 25.871094 14.09375 25.855469 14.125 25.828125 C 15.136719 24.964844 16.261719 24.496094 17.476562 24.425781 C 17.574219 24.421875 17.660156 24.421875 17.734375 24.421875 C 17.734375 24.421875 17.734375 24.421875 17.738281 24.421875 C 18.128906 24.433594 18.492188 24.519531 18.820312 24.683594 C 19.585938 25.058594 20.023438 25.769531 20.257812 26.296875 C 20.289062 26.363281 20.351562 26.402344 20.417969 26.402344 C 20.441406 26.402344 20.464844 26.398438 20.488281 26.386719 C 20.578125 26.347656 20.617188 26.246094 20.578125 26.15625 C 20.335938 25.617188 19.898438 24.902344 19.152344 24.464844 C 19.335938 24.214844 19.78125 23.6875 20.519531 23.21875 C 21.195312 22.785156 21.964844 22.496094 22.800781 22.359375 C 23.433594 22.253906 24.148438 22.28125 24.925781 22.433594 C 25.019531 22.453125 25.113281 22.390625 25.132812 22.296875 C 25.152344 22.203125 25.089844 22.109375 24.996094 22.089844 C 24.175781 21.929688 23.421875 21.902344 22.746094 22.015625 C 21.957031 22.144531 21.222656 22.402344 20.566406 22.78125 C 20.554688 22.496094 20.59375 21.988281 20.9375 21.433594 C 21.183594 21.027344 21.550781 20.660156 22.027344 20.339844 C 22.132812 20.269531 22.246094 20.199219 22.355469 20.132812 C 22.4375 20.082031 22.464844 19.976562 22.417969 19.894531 C 22.367188 19.8125 22.261719 19.785156 22.179688 19.832031 C 22.0625 19.902344 21.945312 19.976562 21.832031 20.050781 C 21.34375 20.378906 20.964844 20.753906 20.691406 21.167969 C 19.878906 21.1875 19.128906 21.277344 18.464844 21.441406 C 18.328125 21.183594 18.1875 20.90625 18.042969 20.609375 C 18.976562 20.332031 20.449219 19.75 22.027344 18.558594 C 23.078125 18.429688 24.125 18.367188 25.164062 18.367188 C 30.222656 18.367188 35.074219 19.847656 39.082031 22.660156 C 43.914062 26.046875 46.945312 30.957031 47.617188 36.492188 C 49 47.921875 39.765625 58.476562 27.027344 60.023438 Z M 27.027344 60.023438 " fill-opacity="1" fill-rule="nonzero"/></g><g clip-path="url(#cb7e786362)"><path fill="#000000" d="M 23.867188 60.5625 C 18.695312 60.5625 13.8125 59.058594 9.75 56.207031 C 4.835938 52.765625 1.75 47.765625 1.070312 42.132812 C 0.386719 36.496094 2.1875 30.90625 6.136719 26.386719 C 8.640625 23.523438 11.898438 21.25 15.558594 19.820312 C 13.652344 16.6875 11.335938 12.527344 11.085938 10.488281 C 11.082031 10.445312 11.09375 10.402344 11.117188 10.367188 C 11.140625 10.335938 11.671875 9.589844 12.933594 9.589844 C 13.203125 9.589844 13.492188 9.625 13.789062 9.691406 C 13.847656 9.707031 13.898438 9.75 13.914062 9.808594 C 13.929688 9.851562 15.292969 14.050781 16.78125 17.722656 C 16.898438 12.402344 18.300781 8.332031 20.9375 5.625 C 21.632812 4.910156 22.414062 4.296875 23.269531 3.792969 C 23.289062 3.773438 23.308594 3.761719 23.332031 3.757812 C 25.945312 2.238281 28.464844 2.191406 28.742188 2.191406 C 28.773438 2.191406 28.789062 2.191406 28.792969 2.191406 L 28.804688 2.195312 C 28.808594 2.195312 28.816406 2.195312 28.820312 2.195312 C 28.824219 2.199219 28.832031 2.199219 28.835938 2.199219 C 28.84375 2.203125 28.851562 2.207031 28.855469 2.207031 C 28.859375 2.207031 28.863281 2.210938 28.867188 2.214844 C 28.875 2.21875 28.878906 2.21875 28.882812 2.222656 C 28.886719 2.226562 28.894531 2.230469 28.898438 2.234375 C 28.902344 2.238281 28.90625 2.242188 28.910156 2.246094 L 28.917969 2.253906 L 28.929688 2.269531 C 28.933594 2.277344 28.9375 2.285156 28.941406 2.289062 C 28.945312 2.296875 28.945312 2.300781 28.949219 2.304688 C 28.949219 2.308594 28.949219 2.3125 28.953125 2.316406 C 28.957031 2.328125 28.957031 2.332031 28.957031 2.335938 C 28.957031 2.339844 28.960938 2.347656 28.960938 2.351562 C 28.960938 2.359375 28.960938 2.363281 28.960938 2.371094 C 28.882812 4.195312 28.675781 5.929688 28.347656 7.527344 C 28.359375 7.578125 28.347656 7.632812 28.316406 7.671875 C 27.960938 9.351562 27.460938 10.917969 26.832031 12.328125 C 26.828125 12.371094 26.808594 12.417969 26.777344 12.449219 C 26.019531 14.105469 25.074219 15.566406 23.960938 16.789062 C 23.953125 16.804688 23.9375 16.820312 23.921875 16.835938 C 23.542969 17.25 23.144531 17.632812 22.742188 17.984375 C 22.675781 18.039062 22.609375 18.09375 22.542969 18.148438 C 23.414062 18.0625 24.296875 18.019531 25.164062 18.019531 C 30.335938 18.019531 35.21875 19.523438 39.28125 22.371094 C 44.195312 25.816406 47.28125 30.816406 47.960938 36.449219 C 49.371094 48.070312 39.996094 58.800781 27.070312 60.367188 C 26.003906 60.496094 24.925781 60.5625 23.867188 60.5625 Z M 15.742188 20.121094 C 12.113281 21.535156 8.882812 23.78125 6.398438 26.617188 C 2.515625 31.0625 0.746094 36.554688 1.414062 42.089844 C 2.085938 47.621094 5.117188 52.535156 9.949219 55.921875 C 13.953125 58.730469 18.765625 60.210938 23.863281 60.210938 C 24.914062 60.210938 25.976562 60.148438 27.027344 60.019531 C 39.765625 58.476562 49 47.921875 47.613281 36.492188 C 46.945312 30.957031 43.914062 26.046875 39.082031 22.660156 C 35.074219 19.851562 30.265625 18.367188 25.164062 18.367188 C 24.128906 18.367188 23.074219 18.433594 22.027344 18.558594 C 20.457031 19.746094 18.996094 20.328125 18.042969 20.609375 C 18.191406 20.917969 18.335938 21.195312 18.46875 21.441406 C 19.128906 21.277344 19.875 21.1875 20.691406 21.167969 C 20.964844 20.753906 21.347656 20.378906 21.832031 20.050781 C 21.945312 19.976562 22.0625 19.902344 22.179688 19.832031 C 22.203125 19.816406 22.234375 19.808594 22.265625 19.808594 C 22.328125 19.808594 22.386719 19.839844 22.417969 19.894531 C 22.441406 19.933594 22.449219 19.980469 22.4375 20.027344 C 22.425781 20.070312 22.394531 20.109375 22.355469 20.132812 C 22.246094 20.199219 22.132812 20.269531 22.027344 20.339844 C 21.550781 20.664062 21.183594 21.03125 20.9375 21.433594 C 20.605469 21.972656 20.550781 22.464844 20.566406 22.78125 C 21.226562 22.402344 21.957031 22.140625 22.746094 22.015625 C 23.019531 21.96875 23.304688 21.945312 23.605469 21.945312 C 24.042969 21.945312 24.511719 21.996094 24.996094 22.089844 C 25.039062 22.101562 25.082031 22.125 25.105469 22.164062 C 25.132812 22.203125 25.140625 22.25 25.132812 22.296875 C 25.117188 22.378906 25.042969 22.4375 24.960938 22.4375 C 24.949219 22.4375 24.9375 22.4375 24.925781 22.433594 C 24.464844 22.34375 24.019531 22.296875 23.605469 22.296875 C 23.324219 22.296875 23.054688 22.316406 22.800781 22.359375 C 21.964844 22.496094 21.195312 22.785156 20.519531 23.21875 C 19.789062 23.683594 19.347656 24.199219 19.152344 24.464844 C 19.90625 24.90625 20.34375 25.628906 20.578125 26.15625 C 20.617188 26.246094 20.578125 26.347656 20.488281 26.386719 C 20.464844 26.398438 20.441406 26.402344 20.417969 26.402344 C 20.347656 26.402344 20.285156 26.359375 20.257812 26.296875 C 20.023438 25.769531 19.585938 25.058594 18.820312 24.683594 C 18.492188 24.519531 18.128906 24.433594 17.738281 24.421875 C 17.707031 24.421875 17.679688 24.421875 17.652344 24.421875 C 17.597656 24.421875 17.539062 24.421875 17.476562 24.425781 C 16.261719 24.496094 15.136719 24.964844 14.125 25.828125 C 14.09375 25.855469 14.054688 25.871094 14.011719 25.871094 C 13.960938 25.871094 13.914062 25.847656 13.878906 25.808594 C 13.847656 25.773438 13.835938 25.730469 13.839844 25.683594 C 13.84375 25.636719 13.863281 25.59375 13.898438 25.5625 C 14.9375 24.679688 16.09375 24.179688 17.34375 24.085938 C 17.074219 23.84375 16.601562 23.507812 15.898438 23.273438 C 15.351562 23.089844 14.742188 22.996094 14.097656 22.996094 C 13.855469 22.996094 13.605469 23.007812 13.351562 23.035156 C 13.34375 23.035156 13.339844 23.035156 13.332031 23.035156 C 13.246094 23.035156 13.167969 22.96875 13.160156 22.878906 C 13.15625 22.832031 13.167969 22.785156 13.199219 22.75 C 13.230469 22.714844 13.269531 22.691406 13.316406 22.6875 C 13.578125 22.660156 13.839844 22.648438 14.089844 22.648438 C 14.726562 22.648438 15.328125 22.734375 15.882812 22.902344 C 16.015625 22.722656 16.328125 22.367188 16.933594 22.027344 C 16.53125 21.398438 16.128906 20.757812 15.742188 20.121094 Z M 12.933594 9.9375 C 12.019531 9.9375 11.5625 10.382812 11.441406 10.519531 C 11.820312 13.175781 15.683594 19.433594 17.328125 22 C 17.355469 22.039062 17.363281 22.089844 17.347656 22.136719 C 17.335938 22.183594 17.304688 22.226562 17.261719 22.246094 C 16.714844 22.527344 16.402344 22.824219 16.234375 23.019531 C 17.15625 23.378906 17.65625 23.878906 17.824219 24.078125 C 18.183594 24.09375 18.523438 24.171875 18.835938 24.304688 C 18.992188 24.082031 19.445312 23.511719 20.234375 22.988281 C 20.195312 22.71875 20.179688 22.167969 20.488281 21.523438 C 19.730469 21.554688 19.035156 21.648438 18.421875 21.8125 C 18.410156 21.816406 18.394531 21.816406 18.378906 21.816406 C 18.316406 21.816406 18.257812 21.785156 18.226562 21.726562 C 18.0625 21.429688 17.886719 21.085938 17.699219 20.703125 C 17.300781 20.808594 17.058594 20.839844 17.03125 20.84375 C 17.023438 20.84375 17.015625 20.84375 17.007812 20.84375 C 16.988281 20.84375 16.96875 20.839844 16.949219 20.832031 C 16.929688 20.828125 16.917969 20.820312 16.902344 20.808594 C 16.886719 20.796875 16.882812 20.792969 16.878906 20.785156 L 16.867188 20.773438 C 16.867188 20.769531 16.863281 20.765625 16.859375 20.761719 L 16.851562 20.746094 C 16.847656 20.738281 16.847656 20.734375 16.84375 20.726562 L 16.839844 20.714844 C 16.835938 20.707031 16.835938 20.695312 16.835938 20.6875 C 16.835938 20.6875 16.832031 20.675781 16.832031 20.675781 C 16.792969 19.988281 16.773438 19.296875 16.769531 18.617188 C 15.300781 15.105469 13.882812 10.832031 13.613281 10.011719 C 13.378906 9.964844 13.148438 9.9375 12.933594 9.9375 Z M 18.480469 17.640625 C 17.886719 18.957031 17.476562 19.960938 17.285156 20.441406 C 18.121094 20.261719 20.300781 19.632812 22.53125 17.703125 C 22.800781 17.46875 23.074219 17.214844 23.339844 16.941406 Z M 17.539062 13.519531 C 17.191406 15.410156 17.058594 17.542969 17.144531 19.863281 C 17.359375 19.335938 17.710938 18.496094 18.179688 17.464844 Z M 20.511719 13.480469 C 19.875 14.6875 19.25 15.960938 18.652344 17.261719 L 23.722656 16.53125 C 24.746094 15.402344 25.628906 14.058594 26.34375 12.546875 Z M 19.492188 8.085938 C 18.722656 9.375 18.132812 10.882812 17.738281 12.566406 L 18.4375 16.894531 C 19.007812 15.664062 19.601562 14.457031 20.210938 13.308594 Z M 23.113281 9.019531 C 22.3125 10.246094 21.507812 11.617188 20.714844 13.09375 L 26.519531 12.167969 C 27.109375 10.847656 27.585938 9.382812 27.929688 7.808594 Z M 23.183594 4.253906 C 22.457031 4.710938 21.785156 5.253906 21.183594 5.871094 C 20.675781 6.394531 20.203125 6.984375 19.78125 7.625 L 20.488281 12.785156 C 21.257812 11.355469 22.042969 10.027344 22.820312 8.832031 Z M 28.59375 2.722656 C 26.910156 3.96875 25.164062 5.941406 23.394531 8.589844 L 28.011719 7.429688 C 28.308594 5.96875 28.507812 4.382812 28.59375 2.722656 Z M 28.222656 2.566406 C 27.300781 2.640625 25.46875 2.925781 23.550781 4.03125 L 23.21875 8.234375 C 24.914062 5.71875 26.597656 3.8125 28.222656 2.566406 Z M 28.222656 2.566406 " fill-opacity="1" fill-rule="nonzero"/><path fill="#000000" d="M 47.960938 36.449219 C 47.277344 30.816406 44.195312 25.816406 39.28125 22.375 C 34.523438 19.039062 28.601562 17.550781 22.542969 18.148438 C 22.609375 18.09375 22.675781 18.039062 22.742188 17.980469 C 23.125 17.652344 23.523438 17.269531 23.921875 16.832031 C 23.9375 16.820312 23.949219 16.804688 23.960938 16.789062 C 24.945312 15.707031 25.933594 14.289062 26.773438 12.449219 C 26.808594 12.417969 26.828125 12.375 26.828125 12.328125 C 27.421875 11.003906 27.9375 9.460938 28.316406 7.671875 C 28.347656 7.632812 28.359375 7.582031 28.347656 7.527344 C 28.664062 5.996094 28.878906 4.285156 28.960938 2.375 C 28.960938 2.375 28.960938 2.371094 28.960938 2.371094 C 28.960938 2.363281 28.960938 2.359375 28.960938 2.351562 C 28.957031 2.347656 28.957031 2.339844 28.957031 2.335938 C 28.957031 2.332031 28.953125 2.324219 28.953125 2.320312 C 28.953125 2.316406 28.949219 2.308594 28.949219 2.304688 C 28.945312 2.296875 28.941406 2.292969 28.941406 2.289062 C 28.9375 2.285156 28.933594 2.277344 28.929688 2.273438 C 28.929688 2.269531 28.929688 2.269531 28.929688 2.269531 C 28.925781 2.265625 28.925781 2.261719 28.921875 2.257812 C 28.917969 2.257812 28.917969 2.253906 28.914062 2.25 C 28.914062 2.246094 28.910156 2.246094 28.910156 2.246094 C 28.90625 2.242188 28.902344 2.238281 28.898438 2.234375 C 28.890625 2.230469 28.886719 2.226562 28.882812 2.222656 C 28.878906 2.21875 28.875 2.21875 28.867188 2.214844 C 28.863281 2.210938 28.859375 2.210938 28.851562 2.207031 C 28.847656 2.207031 28.84375 2.203125 28.835938 2.203125 C 28.832031 2.199219 28.828125 2.199219 28.820312 2.199219 C 28.816406 2.195312 28.808594 2.195312 28.804688 2.195312 C 28.800781 2.195312 28.796875 2.195312 28.792969 2.195312 C 28.757812 2.191406 26.117188 2.136719 23.332031 3.757812 C 23.308594 3.765625 23.289062 3.777344 23.269531 3.792969 C 22.484375 4.253906 21.6875 4.851562 20.9375 5.625 C 18.292969 8.339844 16.902344 12.402344 16.777344 17.722656 C 15.296875 14.058594 13.933594 9.867188 13.914062 9.808594 C 13.894531 9.75 13.847656 9.707031 13.789062 9.695312 C 11.914062 9.261719 11.148438 10.320312 11.117188 10.367188 C 11.09375 10.402344 11.082031 10.445312 11.085938 10.488281 C 11.335938 12.546875 13.707031 16.773438 15.558594 19.820312 C 11.910156 21.25 8.675781 23.484375 6.136719 26.386719 C 2.1875 30.90625 0.386719 36.496094 1.070312 42.128906 C 1.753906 47.765625 4.835938 52.761719 9.75 56.207031 C 13.816406 59.058594 18.738281 60.5625 23.867188 60.5625 C 24.925781 60.5625 25.996094 60.496094 27.070312 60.367188 C 39.996094 58.800781 49.371094 48.070312 47.960938 36.449219 Z M 9.949219 55.921875 C 5.117188 52.535156 2.085938 47.621094 1.414062 42.089844 C 0.746094 36.554688 2.515625 31.058594 6.398438 26.617188 C 8.914062 23.742188 12.121094 21.527344 15.742188 20.121094 C 16.1875 20.851562 16.597656 21.503906 16.933594 22.027344 C 16.328125 22.371094 16.015625 22.722656 15.882812 22.902344 C 15.109375 22.667969 14.25 22.59375 13.316406 22.6875 C 13.222656 22.699219 13.152344 22.78125 13.160156 22.878906 C 13.171875 22.972656 13.257812 23.046875 13.351562 23.035156 C 14.285156 22.9375 15.144531 23.019531 15.898438 23.269531 C 16.609375 23.507812 17.082031 23.851562 17.34375 24.085938 C 16.097656 24.183594 14.9375 24.675781 13.898438 25.5625 C 13.828125 25.625 13.816406 25.738281 13.878906 25.808594 C 13.914062 25.851562 13.964844 25.871094 14.011719 25.871094 C 14.050781 25.871094 14.09375 25.855469 14.125 25.828125 C 15.136719 24.964844 16.261719 24.496094 17.476562 24.425781 C 17.574219 24.421875 17.660156 24.421875 17.734375 24.421875 C 17.734375 24.421875 17.734375 24.421875 17.738281 24.421875 C 18.128906 24.433594 18.492188 24.519531 18.820312 24.683594 C 19.585938 25.058594 20.023438 25.769531 20.257812 26.296875 C 20.289062 26.363281 20.351562 26.402344 20.417969 26.402344 C 20.441406 26.402344 20.464844 26.398438 20.488281 26.386719 C 20.578125 26.347656 20.617188 26.246094 20.578125 26.15625 C 20.335938 25.617188 19.898438 24.902344 19.152344 24.464844 C 19.335938 24.214844 19.78125 23.6875 20.519531 23.21875 C 21.195312 22.785156 21.964844 22.496094 22.800781 22.359375 C 23.433594 22.253906 24.148438 22.28125 24.925781 22.433594 C 25.019531 22.453125 25.113281 22.390625 25.132812 22.296875 C 25.152344 22.203125 25.089844 22.109375 24.996094 22.09375 C 24.175781 21.929688 23.421875 21.902344 22.746094 22.015625 C 21.957031 22.144531 21.222656 22.402344 20.566406 22.78125 C 20.554688 22.496094 20.59375 21.988281 20.9375 21.433594 C 21.183594 21.027344 21.550781 20.660156 22.027344 20.339844 C 22.132812 20.269531 22.246094 20.199219 22.355469 20.132812 C 22.4375 20.082031 22.464844 19.976562 22.417969 19.894531 C 22.367188 19.8125 22.261719 19.785156 22.179688 19.832031 C 22.0625 19.902344 21.945312 19.976562 21.832031 20.050781 C 21.34375 20.378906 20.964844 20.753906 20.691406 21.167969 C 19.878906 21.1875 19.128906 21.277344 18.464844 21.441406 C 18.328125 21.183594 18.1875 20.90625 18.042969 20.609375 C 18.976562 20.332031 20.449219 19.75 22.027344 18.558594 C 23.078125 18.429688 24.125 18.367188 25.164062 18.367188 C 30.222656 18.367188 35.074219 19.847656 39.082031 22.660156 C 43.914062 26.046875 46.945312 30.957031 47.617188 36.492188 C 49 47.921875 39.765625 58.476562 27.027344 60.023438 C 20.851562 60.769531 14.789062 59.3125 9.949219 55.921875 Z M 13.613281 10.011719 C 13.84375 10.710938 15.289062 15.074219 16.769531 18.617188 C 16.773438 19.285156 16.792969 19.96875 16.835938 20.675781 C 16.835938 20.679688 16.835938 20.679688 16.835938 20.679688 C 16.835938 20.683594 16.835938 20.6875 16.835938 20.6875 C 16.835938 20.695312 16.835938 20.703125 16.839844 20.710938 C 16.839844 20.71875 16.84375 20.722656 16.84375 20.726562 C 16.847656 20.734375 16.847656 20.738281 16.851562 20.746094 C 16.855469 20.75 16.855469 20.753906 16.859375 20.757812 C 16.863281 20.765625 16.867188 20.769531 16.871094 20.773438 C 16.871094 20.777344 16.875 20.78125 16.878906 20.785156 C 16.882812 20.789062 16.886719 20.796875 16.894531 20.800781 C 16.894531 20.800781 16.894531 20.804688 16.898438 20.804688 C 16.898438 20.804688 16.898438 20.804688 16.902344 20.804688 C 16.914062 20.816406 16.929688 20.828125 16.945312 20.832031 C 16.945312 20.832031 16.949219 20.832031 16.949219 20.832031 C 16.96875 20.839844 16.988281 20.84375 17.007812 20.84375 C 17.015625 20.84375 17.023438 20.84375 17.03125 20.84375 C 17.0625 20.839844 17.304688 20.804688 17.703125 20.703125 C 17.878906 21.074219 18.054688 21.417969 18.226562 21.726562 C 18.265625 21.796875 18.347656 21.832031 18.421875 21.8125 C 19.035156 21.648438 19.730469 21.550781 20.488281 21.523438 C 20.171875 22.179688 20.199219 22.746094 20.234375 22.988281 C 19.457031 23.503906 19.011719 24.058594 18.835938 24.304688 C 18.523438 24.171875 18.183594 24.097656 17.824219 24.078125 C 17.667969 23.894531 17.164062 23.382812 16.234375 23.019531 C 16.386719 22.835938 16.703125 22.53125 17.261719 22.246094 C 17.304688 22.226562 17.335938 22.183594 17.347656 22.136719 C 17.363281 22.089844 17.355469 22.039062 17.328125 22 C 15.675781 19.417969 11.820312 13.175781 11.441406 10.515625 C 11.601562 10.335938 12.25 9.730469 13.613281 10.011719 Z M 17.539062 13.515625 L 18.179688 17.464844 C 17.71875 18.476562 17.371094 19.308594 17.144531 19.863281 C 17.054688 17.527344 17.191406 15.410156 17.539062 13.515625 Z M 22.53125 17.703125 C 20.28125 19.652344 18.070312 20.273438 17.285156 20.441406 C 17.472656 19.972656 17.882812 18.960938 18.480469 17.636719 L 23.339844 16.941406 C 23.066406 17.21875 22.796875 17.476562 22.53125 17.703125 Z M 28.222656 2.566406 C 26.421875 3.949219 24.722656 6 23.21875 8.234375 L 23.550781 4.03125 C 25.480469 2.917969 27.332031 2.636719 28.222656 2.566406 Z M 28.011719 7.429688 L 23.394531 8.589844 C 24.953125 6.257812 26.71875 4.109375 28.59375 2.71875 C 28.503906 4.457031 28.300781 6.019531 28.011719 7.429688 Z M 23.113281 9.019531 L 27.929688 7.808594 C 27.5625 9.476562 27.078125 10.921875 26.519531 12.167969 L 20.714844 13.09375 C 21.433594 11.757812 22.238281 10.363281 23.113281 9.019531 Z M 26.347656 12.546875 C 25.554688 14.222656 24.636719 15.527344 23.722656 16.53125 L 18.652344 17.261719 C 19.160156 16.152344 19.789062 14.851562 20.511719 13.480469 Z M 18.4375 16.894531 L 17.738281 12.566406 C 18.136719 10.875 18.71875 9.378906 19.492188 8.085938 L 20.210938 13.308594 C 19.527344 14.601562 18.933594 15.828125 18.4375 16.894531 Z M 22.820312 8.832031 C 21.972656 10.136719 21.191406 11.484375 20.488281 12.785156 L 19.78125 7.625 C 20.199219 6.988281 20.667969 6.402344 21.183594 5.871094 C 21.828125 5.207031 22.507812 4.675781 23.183594 4.25 Z M 22.820312 8.832031 " fill-opacity="1" fill-rule="nonzero"/></g><g clip-path="url(#1e7b4f081b)"><path fill="#30a755" d="M 18.835938 24.304688 C 18.523438 24.171875 18.183594 24.097656 17.824219 24.078125 C 17.652344 23.878906 17.15625 23.378906 16.230469 23.019531 C 16.402344 22.820312 16.714844 22.527344 17.257812 22.246094 C 17.304688 22.222656 17.335938 22.183594 17.347656 22.136719 C 17.359375 22.089844 17.351562 22.039062 17.328125 22 C 15.683594 19.433594 11.820312 13.175781 11.441406 10.515625 C 11.5625 10.382812 12.019531 9.9375 12.933594 9.9375 C 13.148438 9.9375 13.378906 9.960938 13.613281 10.011719 C 13.882812 10.832031 15.300781 15.105469 16.773438 18.617188 C 16.773438 19.296875 16.796875 19.988281 16.835938 20.675781 L 16.835938 20.6875 C 16.835938 20.695312 16.839844 20.703125 16.839844 20.710938 L 16.84375 20.726562 C 16.847656 20.734375 16.847656 20.738281 16.851562 20.746094 L 16.859375 20.753906 C 16.863281 20.765625 16.867188 20.769531 16.871094 20.773438 L 16.878906 20.78125 C 16.882812 20.789062 16.886719 20.796875 16.894531 20.800781 C 16.917969 20.816406 16.929688 20.828125 16.945312 20.832031 C 16.96875 20.839844 16.988281 20.84375 17.007812 20.84375 C 17.015625 20.84375 17.023438 20.84375 17.03125 20.84375 C 17.058594 20.839844 17.300781 20.804688 17.703125 20.703125 C 17.886719 21.085938 18.0625 21.429688 18.226562 21.726562 C 18.257812 21.78125 18.316406 21.816406 18.378906 21.816406 C 18.394531 21.816406 18.410156 21.816406 18.421875 21.8125 C 19.035156 21.648438 19.730469 21.550781 20.488281 21.523438 C 20.179688 22.167969 20.195312 22.71875 20.234375 22.988281 C 19.445312 23.511719 18.992188 24.085938 18.835938 24.304688 Z M 17.285156 20.441406 C 17.476562 19.960938 17.886719 18.957031 18.480469 17.636719 L 23.339844 16.9375 C 23.074219 17.214844 22.800781 17.472656 22.53125 17.703125 C 20.300781 19.636719 18.121094 20.261719 17.285156 20.441406 Z M 17.144531 19.863281 C 17.054688 17.542969 17.191406 15.40625 17.539062 13.515625 L 18.179688 17.464844 C 17.714844 18.496094 17.359375 19.335938 17.144531 19.863281 Z M 18.652344 17.261719 C 19.25 15.960938 19.875 14.6875 20.511719 13.480469 L 26.347656 12.546875 C 25.632812 14.058594 24.75 15.402344 23.726562 16.535156 Z M 18.4375 16.894531 L 17.738281 12.566406 C 18.132812 10.878906 18.722656 9.371094 19.492188 8.085938 L 20.210938 13.308594 C 19.605469 14.457031 19.007812 15.664062 18.441406 16.894531 C 18.4375 16.894531 18.4375 16.898438 18.4375 16.898438 C 18.4375 16.898438 18.4375 16.894531 18.4375 16.894531 Z M 20.714844 13.09375 C 21.503906 11.617188 22.3125 10.246094 23.109375 9.019531 L 27.929688 7.808594 C 27.585938 9.378906 27.109375 10.847656 26.519531 12.167969 Z M 20.488281 12.785156 L 19.78125 7.625 C 20.203125 6.984375 20.671875 6.394531 21.183594 5.871094 C 21.785156 5.253906 22.457031 4.707031 23.183594 4.25 L 22.820312 8.832031 C 22.042969 10.027344 21.261719 11.355469 20.488281 12.785156 Z M 23.394531 8.589844 C 25.164062 5.941406 26.910156 3.964844 28.59375 2.71875 C 28.507812 4.382812 28.3125 5.964844 28.011719 7.429688 Z M 23.21875 8.234375 L 23.550781 4.03125 C 25.46875 2.925781 27.300781 2.636719 28.222656 2.5625 C 26.597656 3.8125 24.914062 5.71875 23.21875 8.234375 Z M 23.21875 8.234375 " fill-opacity="1" fill-rule="nonzero"/><path fill="#30a755" d="M 11.441406 10.515625 C 11.601562 10.335938 12.25 9.730469 13.613281 10.011719 C 13.84375 10.710938 15.289062 15.074219 16.769531 18.617188 C 16.773438 19.285156 16.792969 19.96875 16.835938 20.675781 C 16.835938 20.679688 16.835938 20.679688 16.835938 20.679688 C 16.835938 20.683594 16.835938 20.6875 16.835938 20.6875 C 16.835938 20.695312 16.835938 20.703125 16.839844 20.710938 C 16.839844 20.71875 16.84375 20.722656 16.84375 20.726562 C 16.847656 20.734375 16.847656 20.738281 16.851562 20.746094 C 16.855469 20.75 16.855469 20.753906 16.859375 20.757812 C 16.863281 20.765625 16.867188 20.769531 16.871094 20.773438 C 16.871094 20.777344 16.875 20.78125 16.878906 20.785156 C 16.882812 20.789062 16.886719 20.796875 16.894531 20.800781 C 16.894531 20.800781 16.894531 20.804688 16.898438 20.804688 C 16.898438 20.804688 16.898438 20.804688 16.902344 20.804688 C 16.914062 20.816406 16.929688 20.828125 16.945312 20.832031 C 16.945312 20.832031 16.949219 20.832031 16.949219 20.832031 C 16.96875 20.839844 16.988281 20.84375 17.007812 20.84375 C 17.015625 20.84375 17.023438 20.84375 17.03125 20.84375 C 17.0625 20.839844 17.304688 20.804688 17.703125 20.703125 C 17.878906 21.074219 18.054688 21.417969 18.226562 21.726562 C 18.265625 21.796875 18.347656 21.832031 18.421875 21.8125 C 19.035156 21.648438 19.730469 21.550781 20.488281 21.523438 C 20.171875 22.179688 20.199219 22.746094 20.234375 22.988281 C 19.457031 23.503906 19.011719 24.058594 18.835938 24.304688 C 18.523438 24.171875 18.183594 24.097656 17.824219 24.078125 C 17.667969 23.894531 17.164062 23.382812 16.234375 23.019531 C 16.386719 22.835938 16.703125 22.53125 17.261719 22.246094 C 17.304688 22.226562 17.335938 22.183594 17.347656 22.136719 C 17.363281 22.089844 17.355469 22.039062 17.328125 22 C 15.675781 19.417969 11.820312 13.175781 11.441406 10.515625 Z M 17.738281 12.566406 L 18.4375 16.894531 C 18.933594 15.828125 19.527344 14.601562 20.210938 13.308594 L 19.492188 8.085938 C 18.71875 9.378906 18.136719 10.875 17.738281 12.566406 Z M 28.222656 2.566406 C 27.332031 2.636719 25.480469 2.917969 23.550781 4.03125 L 23.21875 8.234375 C 24.722656 6 26.421875 3.949219 28.222656 2.566406 Z M 26.519531 12.167969 C 27.078125 10.921875 27.5625 9.476562 27.929688 7.808594 L 23.113281 9.019531 C 22.238281 10.363281 21.433594 11.757812 20.714844 13.09375 Z M 23.394531 8.589844 L 28.011719 7.429688 C 28.300781 6.019531 28.503906 4.457031 28.59375 2.71875 C 26.71875 4.109375 24.953125 6.257812 23.394531 8.589844 Z M 18.480469 17.636719 C 17.882812 18.960938 17.472656 19.972656 17.285156 20.441406 C 18.070312 20.273438 20.28125 19.652344 22.53125 17.703125 C 22.796875 17.476562 23.066406 17.21875 23.339844 16.941406 Z M 23.722656 16.53125 C 24.636719 15.527344 25.554688 14.222656 26.347656 12.546875 L 20.511719 13.480469 C 19.789062 14.851562 19.160156 16.152344 18.652344 17.261719 Z M 19.78125 7.625 L 20.488281 12.785156 C 21.191406 11.484375 21.972656 10.136719 22.820312 8.832031 L 23.183594 4.25 C 22.507812 4.675781 21.828125 5.207031 21.183594 5.871094 C 20.667969 6.402344 20.199219 6.988281 19.78125 7.625 Z M 17.144531 19.863281 C 17.371094 19.308594 17.71875 18.476562 18.179688 17.464844 L 17.539062 13.515625 C 17.191406 15.410156 17.054688 17.527344 17.144531 19.863281 Z M 17.144531 19.863281 " fill-opacity="1" fill-rule="nonzero"/></g><g clip-path="url(#a1211349b1)"><g transform="matrix(1, 0, 0, 1, 51, 0.000000000000008438)"><g clip-path="url(#b5cfa61554)"><g fill="#000000" fill-opacity="1"><g transform="translate(0.144613, 55.304083)"><g><path d="M 6.84375 0 C 5.894531 0 5.109375 -0.316406 4.484375 -0.953125 C 3.867188 -1.597656 3.5625 -2.394531 3.5625 -3.34375 L 3.5625 -25.9375 C 3.5625 -26.894531 3.867188 -27.691406 4.484375 -28.328125 C 5.109375 -28.960938 5.894531 -29.28125 6.84375 -29.28125 C 7.789062 -29.28125 8.570312 -28.960938 9.1875 -28.328125 C 9.8125 -27.691406 10.125 -26.894531 10.125 -25.9375 L 10.125 -20.796875 L 9.75 -24.46875 C 10.144531 -25.34375 10.660156 -26.117188 11.296875 -26.796875 C 11.941406 -27.472656 12.664062 -28.035156 13.46875 -28.484375 C 14.269531 -28.941406 15.125 -29.28125 16.03125 -29.5 C 16.945312 -29.71875 17.863281 -29.828125 18.78125 -29.828125 C 19.875 -29.828125 20.789062 -29.515625 21.53125 -28.890625 C 22.28125 -28.273438 22.65625 -27.546875 22.65625 -26.703125 C 22.65625 -25.503906 22.34375 -24.640625 21.71875 -24.109375 C 21.101562 -23.578125 20.429688 -23.3125 19.703125 -23.3125 C 19.015625 -23.3125 18.382812 -23.4375 17.8125 -23.6875 C 17.25 -23.945312 16.601562 -24.078125 15.875 -24.078125 C 15.21875 -24.078125 14.550781 -23.921875 13.875 -23.609375 C 13.195312 -23.304688 12.578125 -22.828125 12.015625 -22.171875 C 11.453125 -21.515625 10.992188 -20.703125 10.640625 -19.734375 C 10.296875 -18.765625 10.125 -17.625 10.125 -16.3125 L 10.125 -3.34375 C 10.125 -2.394531 9.8125 -1.597656 9.1875 -0.953125 C 8.570312 -0.316406 7.789062 0 6.84375 0 Z M 6.84375 0 "/></g></g><g transform="translate(23.898965, 55.304083)"><g><path d="M 27.53125 -29.828125 C 28.476562 -29.828125 29.257812 -29.515625 29.875 -28.890625 C 30.5 -28.273438 30.8125 -27.472656 30.8125 -26.484375 L 30.8125 -3.34375 C 30.8125 -2.394531 30.5 -1.597656 29.875 -0.953125 C 29.257812 -0.316406 28.476562 0 27.53125 0 C 26.582031 0 25.796875 -0.316406 25.171875 -0.953125 C 24.554688 -1.597656 24.25 -2.394531 24.25 -3.34375 L 24.25 -6.015625 L 25.453125 -5.53125 C 25.453125 -5.050781 25.195312 -4.472656 24.6875 -3.796875 C 24.175781 -3.128906 23.484375 -2.46875 22.609375 -1.8125 C 21.734375 -1.15625 20.703125 -0.597656 19.515625 -0.140625 C 18.328125 0.316406 17.039062 0.546875 15.65625 0.546875 C 13.132812 0.546875 10.851562 -0.0976562 8.8125 -1.390625 C 6.769531 -2.691406 5.15625 -4.484375 3.96875 -6.765625 C 2.78125 -9.046875 2.1875 -11.660156 2.1875 -14.609375 C 2.1875 -17.609375 2.78125 -20.242188 3.96875 -22.515625 C 5.15625 -24.796875 6.75 -26.582031 8.75 -27.875 C 10.757812 -29.175781 12.988281 -29.828125 15.4375 -29.828125 C 17 -29.828125 18.4375 -29.585938 19.75 -29.109375 C 21.070312 -28.640625 22.210938 -28.039062 23.171875 -27.3125 C 24.140625 -26.582031 24.890625 -25.84375 25.421875 -25.09375 C 25.953125 -24.34375 26.21875 -23.710938 26.21875 -23.203125 L 24.25 -22.5 L 24.25 -26.484375 C 24.25 -27.441406 24.554688 -28.238281 25.171875 -28.875 C 25.796875 -29.507812 26.582031 -29.828125 27.53125 -29.828125 Z M 16.46875 -5.46875 C 18.082031 -5.46875 19.488281 -5.867188 20.6875 -6.671875 C 21.894531 -7.472656 22.832031 -8.566406 23.5 -9.953125 C 24.175781 -11.347656 24.515625 -12.898438 24.515625 -14.609375 C 24.515625 -16.359375 24.175781 -17.925781 23.5 -19.3125 C 22.832031 -20.707031 21.894531 -21.804688 20.6875 -22.609375 C 19.488281 -23.410156 18.082031 -23.8125 16.46875 -23.8125 C 14.90625 -23.8125 13.519531 -23.410156 12.3125 -22.609375 C 11.113281 -21.804688 10.175781 -20.707031 9.5 -19.3125 C 8.820312 -17.925781 8.484375 -16.359375 8.484375 -14.609375 C 8.484375 -12.898438 8.820312 -11.347656 9.5 -9.953125 C 10.175781 -8.566406 11.113281 -7.472656 12.3125 -6.671875 C 13.519531 -5.867188 14.90625 -5.46875 16.46875 -5.46875 Z M 16.46875 -5.46875 "/></g></g><g transform="translate(58.271624, 55.304083)"><g><path d="M 19.21875 -29.828125 C 21.914062 -29.828125 23.96875 -29.257812 25.375 -28.125 C 26.78125 -27 27.742188 -25.492188 28.265625 -23.609375 C 28.796875 -21.734375 29.0625 -19.644531 29.0625 -17.34375 L 29.0625 -3.34375 C 29.0625 -2.394531 28.75 -1.597656 28.125 -0.953125 C 27.507812 -0.316406 26.726562 0 25.78125 0 C 24.832031 0 24.046875 -0.316406 23.421875 -0.953125 C 22.804688 -1.597656 22.5 -2.394531 22.5 -3.34375 L 22.5 -17.34375 C 22.5 -18.550781 22.34375 -19.640625 22.03125 -20.609375 C 21.71875 -21.578125 21.160156 -22.351562 20.359375 -22.9375 C 19.554688 -23.519531 18.40625 -23.8125 16.90625 -23.8125 C 15.445312 -23.8125 14.21875 -23.519531 13.21875 -22.9375 C 12.21875 -22.351562 11.453125 -21.578125 10.921875 -20.609375 C 10.390625 -19.640625 10.125 -18.550781 10.125 -17.34375 L 10.125 -3.34375 C 10.125 -2.394531 9.8125 -1.597656 9.1875 -0.953125 C 8.570312 -0.316406 7.789062 0 6.84375 0 C 5.894531 0 5.109375 -0.316406 4.484375 -0.953125 C 3.867188 -1.597656 3.5625 -2.394531 3.5625 -3.34375 L 3.5625 -25.9375 C 3.5625 -26.894531 3.867188 -27.691406 4.484375 -28.328125 C 5.109375 -28.960938 5.894531 -29.28125 6.84375 -29.28125 C 7.789062 -29.28125 8.570312 -28.960938 9.1875 -28.328125 C 9.8125 -27.691406 10.125 -26.894531 10.125 -25.9375 L 10.125 -23.59375 L 9.3125 -23.75 C 9.632812 -24.375 10.101562 -25.039062 10.71875 -25.75 C 11.34375 -26.457031 12.070312 -27.125 12.90625 -27.75 C 13.75 -28.375 14.695312 -28.875 15.75 -29.25 C 16.8125 -29.632812 17.96875 -29.828125 19.21875 -29.828125 Z M 19.21875 -29.828125 "/></g></g></g><g fill="#000000" fill-opacity="1"><g transform="translate(90.892801, 55.304083)"><g><path d="M 15.703125 -29.828125 C 17.234375 -29.828125 18.640625 -29.585938 19.921875 -29.109375 C 21.203125 -28.640625 22.304688 -28.039062 23.234375 -27.3125 C 24.160156 -26.582031 24.890625 -25.84375 25.421875 -25.09375 C 25.953125 -24.34375 26.21875 -23.710938 26.21875 -23.203125 L 24.796875 -22.5 L 24.796875 -26.484375 C 24.796875 -27.441406 25.101562 -28.238281 25.71875 -28.875 C 26.34375 -29.507812 27.128906 -29.828125 28.078125 -29.828125 C 29.023438 -29.828125 29.804688 -29.515625 30.421875 -28.890625 C 31.046875 -28.273438 31.359375 -27.472656 31.359375 -26.484375 L 31.359375 -2.140625 C 31.359375 1.035156 30.671875 3.582031 29.296875 5.5 C 27.929688 7.414062 26.132812 8.800781 23.90625 9.65625 C 21.6875 10.519531 19.300781 10.953125 16.75 10.953125 C 16.019531 10.953125 15.070312 10.859375 13.90625 10.671875 C 12.738281 10.492188 11.625 10.273438 10.5625 10.015625 C 9.5 9.765625 8.695312 9.53125 8.15625 9.3125 C 7.0625 8.832031 6.300781 8.234375 5.875 7.515625 C 5.457031 6.804688 5.378906 6.050781 5.640625 5.25 C 5.960938 4.195312 6.488281 3.476562 7.21875 3.09375 C 7.945312 2.707031 8.71875 2.660156 9.53125 2.953125 C 9.894531 3.066406 10.492188 3.285156 11.328125 3.609375 C 12.171875 3.941406 13.09375 4.242188 14.09375 4.515625 C 15.09375 4.785156 15.976562 4.921875 16.75 4.921875 C 19.488281 4.921875 21.515625 4.375 22.828125 3.28125 C 24.140625 2.1875 24.796875 0.671875 24.796875 -1.265625 L 24.796875 -6.015625 L 25.453125 -5.53125 C 25.453125 -5.050781 25.203125 -4.472656 24.703125 -3.796875 C 24.210938 -3.128906 23.539062 -2.46875 22.6875 -1.8125 C 21.832031 -1.15625 20.816406 -0.597656 19.640625 -0.140625 C 18.472656 0.316406 17.234375 0.546875 15.921875 0.546875 C 13.335938 0.546875 11.003906 -0.0976562 8.921875 -1.390625 C 6.835938 -2.691406 5.191406 -4.484375 3.984375 -6.765625 C 2.785156 -9.046875 2.1875 -11.660156 2.1875 -14.609375 C 2.1875 -17.609375 2.785156 -20.242188 3.984375 -22.515625 C 5.191406 -24.796875 6.816406 -26.582031 8.859375 -27.875 C 10.910156 -29.175781 13.191406 -29.828125 15.703125 -29.828125 Z M 16.75 -23.8125 C 15.101562 -23.8125 13.660156 -23.410156 12.421875 -22.609375 C 11.179688 -21.804688 10.210938 -20.707031 9.515625 -19.3125 C 8.828125 -17.925781 8.484375 -16.359375 8.484375 -14.609375 C 8.484375 -12.898438 8.828125 -11.347656 9.515625 -9.953125 C 10.210938 -8.566406 11.179688 -7.472656 12.421875 -6.671875 C 13.660156 -5.867188 15.101562 -5.46875 16.75 -5.46875 C 18.425781 -5.46875 19.882812 -5.867188 21.125 -6.671875 C 22.363281 -7.472656 23.328125 -8.566406 24.015625 -9.953125 C 24.710938 -11.347656 25.0625 -12.898438 25.0625 -14.609375 C 25.0625 -16.359375 24.710938 -17.925781 24.015625 -19.3125 C 23.328125 -20.707031 22.363281 -21.804688 21.125 -22.609375 C 19.882812 -23.410156 18.425781 -23.8125 16.75 -23.8125 Z M 16.75 -23.8125 "/></g></g></g><g fill="#000000" fill-opacity="1"><g transform="translate(125.812791, 55.304083)"><g><path d="M 9.75 -3.34375 C 9.75 -2.394531 9.4375 -1.597656 8.8125 -0.953125 C 8.1875 -0.316406 7.398438 0 6.453125 0 C 5.503906 0 4.71875 -0.316406 4.09375 -0.953125 C 3.476562 -1.597656 3.171875 -2.394531 3.171875 -3.34375 L 3.171875 -25.9375 C 3.171875 -26.894531 3.476562 -27.691406 4.09375 -28.328125 C 4.71875 -28.960938 5.503906 -29.28125 6.453125 -29.28125 C 7.398438 -29.28125 8.1875 -28.960938 8.8125 -28.328125 C 9.4375 -27.691406 9.75 -26.894531 9.75 -25.9375 Z M 6.40625 -32.84375 C 5.164062 -32.84375 4.289062 -33.039062 3.78125 -33.4375 C 3.269531 -33.84375 3.015625 -34.554688 3.015625 -35.578125 L 3.015625 -36.625 C 3.015625 -37.675781 3.296875 -38.394531 3.859375 -38.78125 C 4.429688 -39.164062 5.300781 -39.359375 6.46875 -39.359375 C 7.738281 -39.359375 8.628906 -39.15625 9.140625 -38.75 C 9.660156 -38.351562 9.921875 -37.644531 9.921875 -36.625 L 9.921875 -35.578125 C 9.921875 -34.515625 9.644531 -33.789062 9.09375 -33.40625 C 8.539062 -33.03125 7.644531 -32.84375 6.40625 -32.84375 Z M 6.40625 -32.84375 "/></g></g></g><g fill="#000000" fill-opacity="1"><g transform="translate(138.729908, 55.304083)"><g><path d="M 22.21875 -6.015625 C 23.09375 -6.015625 23.820312 -5.734375 24.40625 -5.171875 C 24.988281 -4.609375 25.28125 -3.890625 25.28125 -3.015625 C 25.28125 -2.171875 24.988281 -1.457031 24.40625 -0.875 C 23.820312 -0.289062 23.09375 0 22.21875 0 L 4.59375 0 C 3.6875 0 2.957031 -0.328125 2.40625 -0.984375 C 1.863281 -1.640625 1.609375 -2.296875 1.640625 -2.953125 C 1.679688 -3.503906 1.753906 -3.988281 1.859375 -4.40625 C 1.972656 -4.820312 2.25 -5.304688 2.6875 -5.859375 L 16.3125 -23.484375 L 16.203125 -22.71875 L 5.09375 -22.71875 C 4.21875 -22.71875 3.488281 -23.007812 2.90625 -23.59375 C 2.320312 -24.175781 2.03125 -24.90625 2.03125 -25.78125 C 2.03125 -26.613281 2.320312 -27.3125 2.90625 -27.875 C 3.488281 -28.445312 4.21875 -28.734375 5.09375 -28.734375 L 21.953125 -28.734375 C 22.785156 -28.734375 23.492188 -28.421875 24.078125 -27.796875 C 24.660156 -27.179688 24.914062 -26.398438 24.84375 -25.453125 C 24.8125 -25.085938 24.75 -24.722656 24.65625 -24.359375 C 24.5625 -23.992188 24.316406 -23.554688 23.921875 -23.046875 L 10.515625 -5.6875 L 10.515625 -6.015625 Z M 22.21875 -6.015625 "/></g></g></g><g fill="#000000" fill-opacity="1"><g transform="translate(165.220941, 55.304083)"><g><path d="M 17.34375 0.546875 C 14.25 0.546875 11.5625 -0.0976562 9.28125 -1.390625 C 7 -2.691406 5.242188 -4.453125 4.015625 -6.671875 C 2.796875 -8.898438 2.1875 -11.421875 2.1875 -14.234375 C 2.1875 -17.515625 2.851562 -20.3125 4.1875 -22.625 C 5.519531 -24.945312 7.257812 -26.726562 9.40625 -27.96875 C 11.5625 -29.207031 13.84375 -29.828125 16.25 -29.828125 C 18.113281 -29.828125 19.875 -29.441406 21.53125 -28.671875 C 23.195312 -27.910156 24.664062 -26.863281 25.9375 -25.53125 C 27.21875 -24.195312 28.234375 -22.65625 28.984375 -20.90625 C 29.734375 -19.15625 30.109375 -17.296875 30.109375 -15.328125 C 30.066406 -14.453125 29.71875 -13.738281 29.0625 -13.1875 C 28.40625 -12.644531 27.640625 -12.375 26.765625 -12.375 L 5.859375 -12.375 L 4.21875 -17.84375 L 24.296875 -17.84375 L 23.09375 -16.75 L 23.09375 -18.234375 C 23.019531 -19.285156 22.644531 -20.226562 21.96875 -21.0625 C 21.300781 -21.90625 20.460938 -22.570312 19.453125 -23.0625 C 18.453125 -23.5625 17.382812 -23.8125 16.25 -23.8125 C 15.15625 -23.8125 14.132812 -23.664062 13.1875 -23.375 C 12.238281 -23.082031 11.414062 -22.585938 10.71875 -21.890625 C 10.03125 -21.203125 9.484375 -20.269531 9.078125 -19.09375 C 8.679688 -17.925781 8.484375 -16.453125 8.484375 -14.671875 C 8.484375 -12.703125 8.894531 -11.03125 9.71875 -9.65625 C 10.539062 -8.289062 11.597656 -7.25 12.890625 -6.53125 C 14.179688 -5.820312 15.554688 -5.46875 17.015625 -5.46875 C 18.367188 -5.46875 19.445312 -5.578125 20.25 -5.796875 C 21.050781 -6.015625 21.695312 -6.28125 22.1875 -6.59375 C 22.6875 -6.90625 23.132812 -7.171875 23.53125 -7.390625 C 24.1875 -7.710938 24.804688 -7.875 25.390625 -7.875 C 26.191406 -7.875 26.859375 -7.597656 27.390625 -7.046875 C 27.921875 -6.503906 28.1875 -5.867188 28.1875 -5.140625 C 28.1875 -4.160156 27.675781 -3.269531 26.65625 -2.46875 C 25.707031 -1.664062 24.375 -0.960938 22.65625 -0.359375 C 20.945312 0.242188 19.175781 0.546875 17.34375 0.546875 Z M 17.34375 0.546875 "/></g></g></g></g></g></g><g clip-path="url(#9c42440814)"><g clip-path="url(#1296c0a4a0)"><g clip-path="url(#1765d93058)"><path fill="#ec671b" d="M 183.015625 10.589844 C 183.015625 10.589844 176.289062 20.601562 181.714844 23.660156 C 187.140625 26.714844 189.929688 16.351562 183.015625 10.589844 Z M 183.015625 10.589844 " fill-opacity="1" fill-rule="nonzero"/></g></g></g><g clip-path="url(#cb338cd9e1)"><g clip-path="url(#9a981c47d3)"><g clip-path="url(#2cddb23c52)"><path fill="#ec671b" d="M 183.0625 11.679688 C 182.214844 13.386719 179.667969 17.128906 181.011719 19.515625 C 182.359375 21.902344 184.894531 20.796875 185.179688 18.386719 C 185.460938 15.976562 183.0625 11.679688 183.0625 11.679688 Z M 183.0625 11.679688 " fill-opacity="1" fill-rule="nonzero"/></g></g></g><g clip-path="url(#f7aaa72078)"><g clip-path="url(#fbd39ffb7d)"><g clip-path="url(#ad5a9efb5a)"><path fill="#ffffff" d="M 182.929688 12.945312 C 182.929688 12.945312 180.550781 15.796875 181.578125 17.457031 C 182.609375 19.121094 183.574219 14.519531 182.929688 12.945312 Z M 182.929688 12.945312 " fill-opacity="1" fill-rule="nonzero"/></g></g></g><g clip-path="url(#61d57094fc)"><path fill="#ffffff" d="M 22.898438 39.191406 C 22.285156 35.109375 19.210938 31.769531 14.777344 31.792969 C 10.148438 31.816406 6.84375 35.855469 6.671875 39.871094 C 6.570312 42.238281 7.558594 44.597656 10.007812 46.117188 C 11.738281 47.191406 13.886719 47.574219 15.914062 47.363281 C 20.304688 46.910156 23.558594 43.582031 22.898438 39.191406 " fill-opacity="1" fill-rule="nonzero"/></g><g clip-path="url(#5de6284f52)"><path fill="#231f20" d="M 21.695312 43.4375 C 20.992188 44.675781 19.867188 45.640625 18.597656 46.253906 C 15.511719 47.742188 11.230469 47.367188 8.824219 44.773438 C 6.597656 42.367188 6.707031 38.769531 8.3125 36.058594 C 9.097656 34.734375 10.253906 33.613281 11.621094 32.910156 C 13.050781 32.179688 14.6875 31.933594 16.269531 32.210938 C 17.707031 32.460938 19.011719 33.148438 20.054688 34.179688 C 21.101562 35.222656 21.824219 36.570312 22.222656 37.992188 C 22.324219 38.355469 22.398438 38.730469 22.457031 39.105469 C 22.675781 40.601562 22.445312 42.117188 21.695312 43.4375 Z M 23.34375 39.277344 C 22.839844 35.996094 20.714844 33.039062 17.527344 31.953125 C 15.859375 31.382812 13.992188 31.3125 12.300781 31.832031 C 10.695312 32.328125 9.269531 33.3125 8.210938 34.625 C 6.109375 37.242188 5.476562 41.0625 7.351562 43.980469 C 9.515625 47.355469 14.230469 48.421875 17.902344 47.3125 C 19.410156 46.859375 20.824219 46.027344 21.839844 44.804688 C 22.847656 43.601562 23.398438 42.089844 23.425781 40.515625 C 23.433594 40.101562 23.402344 39.6875 23.34375 39.277344 " fill-opacity="1" fill-rule="nonzero"/></g><path fill="#231f20" d="M 21.726562 40.890625 C 21.898438 42.730469 20.519531 44.714844 18.316406 44.863281 C 15.957031 45.027344 14.472656 43.40625 14.625 41.152344 C 14.808594 38.417969 18.003906 37.121094 20.183594 38.46875 C 21.15625 39.070312 21.636719 39.960938 21.726562 40.890625 " fill-opacity="1" fill-rule="nonzero"/><path fill="#ffffff" d="M 20.578125 40.867188 C 20.640625 40.742188 20.671875 40.589844 20.65625 40.445312 C 20.632812 40.195312 20.542969 39.933594 20.378906 39.699219 C 20.082031 39.28125 19.542969 38.945312 18.976562 38.800781 C 18.667969 38.722656 18.3125 38.625 18.125 38.84375 C 17.980469 39.011719 18.058594 39.257812 18.277344 39.414062 C 18.597656 39.644531 19.097656 39.609375 19.457031 39.773438 C 20.042969 40.046875 20.246094 40.390625 20.527344 40.953125 C 20.546875 40.925781 20.5625 40.894531 20.578125 40.867188 " fill-opacity="1" fill-rule="nonzero"/><path fill="#231f20" d="M 8.769531 36.640625 C 8.523438 37.109375 8.34375 37.625 8.199219 38.132812 C 7.898438 39.199219 7.777344 40.339844 7.996094 41.429688 C 8.140625 42.15625 8.4375 42.839844 8.839844 43.460938 C 8.855469 43.488281 8.980469 43.6875 9.015625 43.613281 C 9.050781 43.539062 8.898438 43.308594 8.863281 43.253906 C 7.792969 41.613281 8.167969 39.347656 8.875 37.636719 C 8.933594 37.492188 9.015625 37.304688 9.078125 37.1875 C 9.121094 37.109375 9.015625 36.953125 8.976562 36.882812 C 8.96875 36.863281 8.785156 36.605469 8.769531 36.640625 " fill-opacity="1" fill-rule="nonzero"/><g clip-path="url(#eef95425d9)"><path fill="#ffffff" d="M 43.152344 39.191406 C 42.539062 35.109375 39.460938 31.769531 35.027344 31.792969 C 30.402344 31.816406 27.097656 35.855469 26.925781 39.871094 C 26.824219 42.238281 27.8125 44.597656 30.257812 46.117188 C 31.988281 47.191406 34.136719 47.574219 36.164062 47.363281 C 40.554688 46.910156 43.808594 43.582031 43.152344 39.191406 " fill-opacity="1" fill-rule="nonzero"/></g><g clip-path="url(#8fcd4f0027)"><path fill="#231f20" d="M 41.949219 43.4375 C 41.246094 44.675781 40.121094 45.640625 38.851562 46.253906 C 35.761719 47.742188 31.484375 47.367188 29.078125 44.773438 C 26.851562 42.367188 26.960938 38.769531 28.5625 36.058594 C 29.347656 34.734375 30.503906 33.613281 31.875 32.910156 C 33.300781 32.179688 34.941406 31.933594 36.519531 32.210938 C 37.960938 32.460938 39.265625 33.148438 40.304688 34.179688 C 41.355469 35.222656 42.074219 36.570312 42.472656 37.992188 C 42.574219 38.355469 42.648438 38.730469 42.707031 39.105469 C 42.925781 40.601562 42.699219 42.117188 41.949219 43.4375 Z M 43.59375 39.277344 C 43.089844 35.996094 40.964844 33.039062 37.777344 31.953125 C 36.109375 31.382812 34.242188 31.3125 32.554688 31.832031 C 30.945312 32.328125 29.519531 33.3125 28.464844 34.625 C 26.359375 37.242188 25.726562 41.0625 27.601562 43.980469 C 29.765625 47.355469 34.484375 48.421875 38.15625 47.3125 C 39.664062 46.859375 41.074219 46.027344 42.09375 44.804688 C 43.097656 43.601562 43.652344 42.089844 43.679688 40.515625 C 43.683594 40.101562 43.65625 39.6875 43.59375 39.277344 " fill-opacity="1" fill-rule="nonzero"/></g><path fill="#231f20" d="M 41.976562 40.890625 C 42.148438 42.730469 40.769531 44.714844 38.570312 44.863281 C 36.207031 45.027344 34.726562 43.40625 34.878906 41.152344 C 35.058594 38.417969 38.253906 37.121094 40.4375 38.46875 C 41.40625 39.070312 41.890625 39.960938 41.976562 40.890625 " fill-opacity="1" fill-rule="nonzero"/><path fill="#ffffff" d="M 40.828125 40.867188 C 40.894531 40.742188 40.921875 40.589844 40.910156 40.445312 C 40.886719 40.195312 40.796875 39.933594 40.628906 39.699219 C 40.335938 39.28125 39.792969 38.945312 39.230469 38.800781 C 38.917969 38.722656 38.5625 38.625 38.375 38.84375 C 38.230469 39.011719 38.3125 39.257812 38.527344 39.414062 C 38.847656 39.644531 39.347656 39.609375 39.707031 39.773438 C 40.292969 40.046875 40.496094 40.390625 40.777344 40.953125 C 40.796875 40.925781 40.816406 40.894531 40.828125 40.867188 " fill-opacity="1" fill-rule="nonzero"/><path fill="#231f20" d="M 29.019531 36.640625 C 28.773438 37.109375 28.59375 37.625 28.449219 38.132812 C 28.148438 39.199219 28.027344 40.339844 28.246094 41.429688 C 28.390625 42.15625 28.6875 42.839844 29.089844 43.460938 C 29.105469 43.488281 29.230469 43.6875 29.265625 43.613281 C 29.304688 43.539062 29.152344 43.308594 29.113281 43.253906 C 28.046875 41.613281 28.421875 39.347656 29.125 37.636719 C 29.1875 37.492188 29.269531 37.304688 29.328125 37.1875 C 29.371094 37.109375 29.269531 36.953125 29.230469 36.882812 C 29.21875 36.863281 29.039062 36.605469 29.019531 36.640625 " fill-opacity="1" fill-rule="nonzero"/><g fill="#ff6600" fill-opacity="1"><g transform="translate(186.86216, 65.975643)"><g><path d="M 5.234375 0 L 0.75 0 L 0.75 -6.703125 L 5.234375 -6.703125 C 7.066406 -6.703125 8.382812 -6.445312 9.1875 -5.9375 C 9.832031 -5.519531 10.203125 -4.953125 10.296875 -4.234375 C 10.335938 -3.929688 10.359375 -3.632812 10.359375 -3.34375 C 10.359375 -3.0625 10.335938 -2.765625 10.296875 -2.453125 C 10.253906 -2.148438 10.148438 -1.851562 9.984375 -1.5625 C 9.816406 -1.269531 9.550781 -1.003906 9.1875 -0.765625 C 8.820312 -0.535156 8.316406 -0.347656 7.671875 -0.203125 C 7.035156 -0.0664062 6.222656 0 5.234375 0 Z M 4.96875 -1.65625 C 6.394531 -1.65625 7.203125 -2.015625 7.390625 -2.734375 C 7.441406 -2.941406 7.46875 -3.144531 7.46875 -3.34375 C 7.46875 -3.550781 7.441406 -3.753906 7.390625 -3.953125 C 7.335938 -4.160156 7.226562 -4.34375 7.0625 -4.5 C 6.894531 -4.664062 6.644531 -4.796875 6.3125 -4.890625 C 5.976562 -4.992188 5.53125 -5.046875 4.96875 -5.046875 L 3.5625 -5.046875 L 3.5625 -1.65625 Z M 4.96875 -1.65625 "/></g></g></g><g fill="#ff6600" fill-opacity="1"><g transform="translate(197.572749, 65.975643)"><g><path d="M 3.5625 0 L 0.75 0 L 0.75 -6.703125 L 3.5625 -6.703125 Z M 3.5625 0 "/></g></g></g><g fill="#ff6600" fill-opacity="1"><g transform="translate(201.871906, 65.975643)"><g><path d="M 5.0625 0.140625 C 3.40625 0.140625 2.1875 -0.195312 1.40625 -0.875 C 0.71875 -1.476562 0.375 -2.300781 0.375 -3.34375 C 0.375 -4.382812 0.71875 -5.207031 1.40625 -5.8125 C 2.1875 -6.488281 3.40625 -6.828125 5.0625 -6.828125 C 6.007812 -6.828125 6.796875 -6.722656 7.421875 -6.515625 C 8.046875 -6.304688 8.535156 -6.019531 8.890625 -5.65625 C 9.242188 -5.289062 9.488281 -4.867188 9.625 -4.390625 L 6.609375 -4.390625 C 6.296875 -4.816406 5.78125 -5.03125 5.0625 -5.03125 C 4.382812 -5.03125 3.882812 -4.835938 3.5625 -4.453125 C 3.3125 -4.140625 3.1875 -3.769531 3.1875 -3.34375 C 3.1875 -2.914062 3.3125 -2.546875 3.5625 -2.234375 C 3.882812 -1.847656 4.382812 -1.65625 5.0625 -1.65625 C 5.613281 -1.65625 6.023438 -1.703125 6.296875 -1.796875 C 6.578125 -1.890625 6.78125 -2.015625 6.90625 -2.171875 L 5.8125 -2.171875 L 5.8125 -3.34375 L 9.625 -3.34375 L 9.625 0 L 8.453125 0 L 8.21875 -0.640625 C 7.476562 -0.117188 6.425781 0.140625 5.0625 0.140625 Z M 5.0625 0.140625 "/></g></g></g><g fill="#ff6600" fill-opacity="1"><g transform="translate(212.041603, 65.975643)"><g><path d="M 3.5625 0 L 0.75 0 L 0.75 -6.703125 L 3.5625 -6.703125 Z M 3.5625 0 "/></g></g></g><g fill="#ff6600" fill-opacity="1"><g transform="translate(216.34076, 65.975643)"><g><path d="M 5.71875 0 L 2.90625 0 L 2.90625 -5.046875 L 0.28125 -5.046875 L 0.28125 -6.703125 L 8.34375 -6.703125 L 8.34375 -5.046875 L 5.71875 -5.046875 Z M 5.71875 0 "/></g></g></g><g fill="#ff6600" fill-opacity="1"><g transform="translate(224.948399, 65.975643)"><g><path d="M 11.25 0 L 8.40625 0 L 7.78125 -1.09375 L 3.546875 -1.09375 L 2.921875 0 L 0.0625 0 L 4.359375 -6.703125 L 6.96875 -6.703125 Z M 6.828125 -2.75 L 5.65625 -4.78125 L 4.5 -2.75 Z M 6.828125 -2.75 "/></g></g></g><g fill="#ff6600" fill-opacity="1"><g transform="translate(236.255834, 65.975643)"><g><path d="M 8.5625 0 L 0.75 0 L 0.75 -6.703125 L 3.5625 -6.703125 L 3.5625 -1.65625 L 8.5625 -1.65625 Z M 8.5625 0 "/></g></g></g></g></g></svg>