<svg xmlns="http://www.w3.org/2000/svg" xmlns:xlink="http://www.w3.org/1999/xlink" width="350" zoomAndPan="magnify" viewBox="0 0 262.5 112.499997" height="150" preserveAspectRatio="xMidYMid meet" version="1.0"><defs><g/><clipPath id="70a608d954"><path d="M 0.332031 21.652344 L 51 21.652344 L 51 83.625 L 0.332031 83.625 Z M 0.332031 21.652344 " clip-rule="nonzero"/></clipPath><clipPath id="f89c4d41d9"><path d="M 0.332031 21.652344 L 51 21.652344 L 51 83.625 L 0.332031 83.625 Z M 0.332031 21.652344 " clip-rule="nonzero"/></clipPath><clipPath id="b22a21d5c4"><path d="M 53 19 L 261.671875 19 L 261.671875 93 L 53 93 Z M 53 19 " clip-rule="nonzero"/></clipPath><clipPath id="894fef7de3"><rect x="0" width="209" y="0" height="74"/></clipPath><clipPath id="cf65af0d19"><path d="M 189 30 L 198 30 L 198 45 L 189 45 Z M 189 30 " clip-rule="nonzero"/></clipPath><clipPath id="d45545b7f6"><path d="M 191.996094 29.367188 L 201.484375 33.753906 L 195.527344 46.632812 L 186.042969 42.242188 Z M 191.996094 29.367188 " clip-rule="nonzero"/></clipPath><clipPath id="b652405963"><path d="M 187.867188 24.601562 L 207.519531 33.695312 L 198.117188 54.023438 L 178.464844 44.933594 Z M 187.867188 24.601562 " clip-rule="nonzero"/></clipPath><clipPath id="400f8c4f97"><path d="M 190 31 L 196 31 L 196 42 L 190 42 Z M 190 31 " clip-rule="nonzero"/></clipPath><clipPath id="2199480883"><path d="M 191.996094 29.367188 L 201.484375 33.753906 L 195.527344 46.632812 L 186.042969 42.242188 Z M 191.996094 29.367188 " clip-rule="nonzero"/></clipPath><clipPath id="c624464fc4"><path d="M 187.867188 24.601562 L 207.519531 33.695312 L 198.117188 54.023438 L 178.464844 44.933594 Z M 187.867188 24.601562 " clip-rule="nonzero"/></clipPath><clipPath id="d027dfb2ce"><path d="M 190 33 L 193 33 L 193 39 L 190 39 Z M 190 33 " clip-rule="nonzero"/></clipPath><clipPath id="c1d8901cb7"><path d="M 191.996094 29.367188 L 201.484375 33.753906 L 195.527344 46.632812 L 186.042969 42.242188 Z M 191.996094 29.367188 " clip-rule="nonzero"/></clipPath><clipPath id="b0132b659a"><path d="M 187.867188 24.601562 L 207.519531 33.695312 L 198.117188 54.023438 L 178.464844 44.933594 Z M 187.867188 24.601562 " clip-rule="nonzero"/></clipPath></defs><g clip-path="url(#70a608d954)"><path fill="#30a755" d="M 28.433594 82.921875 C 27.304688 83.058594 26.179688 83.125 25.0625 83.125 C 19.667969 83.125 14.492188 81.542969 10.210938 78.542969 C 5.039062 74.921875 1.796875 69.660156 1.078125 63.734375 C 0.359375 57.808594 2.253906 51.925781 6.410156 47.171875 C 9.082031 44.117188 12.484375 41.761719 16.324219 40.261719 C 14.375 37.054688 11.882812 32.605469 11.621094 30.441406 C 11.613281 30.394531 11.625 30.351562 11.652344 30.3125 C 11.683594 30.265625 12.488281 29.152344 14.460938 29.605469 C 14.523438 29.621094 14.574219 29.667969 14.59375 29.726562 C 14.613281 29.789062 16.046875 34.199219 17.609375 38.054688 C 17.734375 32.453125 19.203125 28.179688 21.984375 25.324219 C 22.773438 24.511719 23.609375 23.882812 24.4375 23.394531 C 24.457031 23.378906 24.476562 23.367188 24.503906 23.359375 C 27.433594 21.65625 30.210938 21.714844 30.246094 21.714844 C 30.25 21.714844 30.253906 21.714844 30.257812 21.714844 C 30.265625 21.71875 30.273438 21.71875 30.277344 21.71875 C 30.285156 21.71875 30.289062 21.722656 30.296875 21.722656 C 30.300781 21.726562 30.304688 21.726562 30.3125 21.730469 C 30.316406 21.730469 30.324219 21.734375 30.328125 21.738281 C 30.332031 21.738281 30.339844 21.742188 30.34375 21.746094 C 30.347656 21.75 30.351562 21.753906 30.355469 21.757812 C 30.363281 21.761719 30.367188 21.765625 30.371094 21.769531 C 30.371094 21.769531 30.375 21.773438 30.375 21.773438 C 30.378906 21.777344 30.378906 21.78125 30.382812 21.785156 C 30.386719 21.789062 30.390625 21.789062 30.390625 21.792969 C 30.390625 21.792969 30.394531 21.796875 30.394531 21.796875 C 30.398438 21.804688 30.402344 21.808594 30.402344 21.816406 C 30.40625 21.820312 30.410156 21.824219 30.410156 21.828125 C 30.414062 21.835938 30.414062 21.839844 30.417969 21.847656 C 30.417969 21.851562 30.417969 21.859375 30.421875 21.863281 C 30.421875 21.871094 30.421875 21.875 30.421875 21.882812 C 30.421875 21.886719 30.421875 21.894531 30.421875 21.898438 C 30.421875 21.902344 30.425781 21.902344 30.425781 21.90625 C 30.339844 23.917969 30.109375 25.714844 29.78125 27.328125 C 29.792969 27.382812 29.777344 27.4375 29.746094 27.480469 C 29.347656 29.363281 28.808594 30.984375 28.183594 32.375 C 28.179688 32.425781 28.160156 32.472656 28.125 32.503906 C 27.242188 34.441406 26.199219 35.933594 25.164062 37.070312 C 25.152344 37.089844 25.140625 37.105469 25.121094 37.117188 C 24.703125 37.574219 24.285156 37.976562 23.882812 38.328125 C 23.8125 38.386719 23.742188 38.445312 23.671875 38.503906 C 30.046875 37.871094 36.277344 39.4375 41.28125 42.945312 C 46.453125 46.570312 49.699219 51.832031 50.414062 57.757812 C 51.898438 69.984375 42.035156 81.273438 28.433594 82.921875 Z M 28.433594 82.921875 " fill-opacity="1" fill-rule="nonzero"/></g><path fill="#ec671b" d="M 25.0625 82.757812 C 19.699219 82.757812 14.636719 81.199219 10.421875 78.246094 C 5.335938 74.679688 2.148438 69.511719 1.441406 63.691406 C 0.738281 57.867188 2.597656 52.085938 6.6875 47.410156 C 9.296875 44.425781 12.695312 42.0625 16.515625 40.578125 C 16.925781 41.242188 17.347656 41.917969 17.769531 42.582031 C 17.132812 42.941406 16.804688 43.3125 16.664062 43.503906 C 16.082031 43.324219 15.445312 43.234375 14.777344 43.234375 C 14.511719 43.234375 14.242188 43.25 13.964844 43.277344 C 13.917969 43.28125 13.871094 43.304688 13.84375 43.34375 C 13.8125 43.382812 13.796875 43.429688 13.800781 43.476562 C 13.8125 43.570312 13.890625 43.640625 13.980469 43.640625 C 13.988281 43.640625 13.996094 43.640625 14 43.640625 C 14.269531 43.613281 14.53125 43.601562 14.785156 43.601562 C 15.46875 43.601562 16.105469 43.699219 16.683594 43.890625 C 17.421875 44.136719 17.917969 44.496094 18.203125 44.75 C 16.886719 44.851562 15.667969 45.371094 14.578125 46.304688 C 14.542969 46.335938 14.519531 46.378906 14.515625 46.429688 C 14.511719 46.476562 14.527344 46.523438 14.558594 46.5625 C 14.59375 46.601562 14.644531 46.625 14.695312 46.625 C 14.738281 46.625 14.78125 46.609375 14.816406 46.582031 C 15.878906 45.671875 17.066406 45.175781 18.339844 45.105469 C 18.40625 45.101562 18.46875 45.101562 18.527344 45.101562 C 18.554688 45.101562 18.585938 45.101562 18.613281 45.101562 C 19.027344 45.113281 19.410156 45.203125 19.753906 45.375 C 20.558594 45.769531 21.023438 46.519531 21.269531 47.074219 C 21.296875 47.140625 21.363281 47.183594 21.4375 47.183594 C 21.460938 47.183594 21.488281 47.179688 21.511719 47.167969 C 21.601562 47.128906 21.644531 47.019531 21.601562 46.925781 C 21.355469 46.371094 20.898438 45.613281 20.101562 45.148438 C 20.3125 44.867188 20.773438 44.324219 21.542969 43.832031 C 22.253906 43.378906 23.0625 43.074219 23.945312 42.929688 C 24.210938 42.886719 24.496094 42.863281 24.789062 42.863281 C 25.226562 42.863281 25.695312 42.914062 26.179688 43.007812 C 26.191406 43.011719 26.203125 43.011719 26.21875 43.011719 C 26.304688 43.011719 26.378906 42.949219 26.394531 42.863281 C 26.40625 42.816406 26.394531 42.769531 26.367188 42.726562 C 26.339844 42.6875 26.300781 42.660156 26.25 42.652344 C 25.742188 42.550781 25.25 42.5 24.789062 42.5 C 24.476562 42.5 24.171875 42.523438 23.886719 42.570312 C 23.058594 42.703125 22.285156 42.976562 21.59375 43.378906 C 21.578125 43.042969 21.632812 42.523438 21.980469 41.957031 C 22.242188 41.53125 22.628906 41.144531 23.128906 40.808594 C 23.242188 40.730469 23.355469 40.660156 23.476562 40.589844 C 23.515625 40.5625 23.546875 40.523438 23.558594 40.476562 C 23.570312 40.429688 23.5625 40.378906 23.539062 40.339844 C 23.507812 40.285156 23.445312 40.25 23.382812 40.25 C 23.347656 40.25 23.316406 40.257812 23.289062 40.273438 C 23.164062 40.347656 23.042969 40.425781 22.925781 40.503906 C 22.414062 40.847656 22.011719 41.242188 21.726562 41.679688 C 20.867188 41.699219 20.078125 41.796875 19.382812 41.964844 C 19.242188 41.710938 19.09375 41.414062 18.9375 41.089844 C 19.9375 40.792969 21.480469 40.179688 23.132812 38.929688 C 24.230469 38.796875 25.339844 38.730469 26.429688 38.730469 C 31.796875 38.730469 36.859375 40.292969 41.074219 43.246094 C 46.160156 46.808594 49.347656 51.980469 50.050781 57.800781 C 51.507812 69.828125 41.792969 80.933594 28.390625 82.558594 C 27.285156 82.691406 26.164062 82.757812 25.0625 82.757812 Z M 25.0625 82.757812 " fill-opacity="1" fill-rule="nonzero"/><path fill="#ec671b" d="M 28.390625 82.558594 C 21.894531 83.34375 15.511719 81.8125 10.421875 78.246094 C 5.335938 74.679688 2.148438 69.511719 1.441406 63.691406 C 0.738281 57.867188 2.601562 52.085938 6.6875 47.410156 C 9.332031 44.386719 12.707031 42.058594 16.515625 40.578125 C 16.988281 41.347656 17.417969 42.035156 17.769531 42.582031 C 17.132812 42.941406 16.804688 43.3125 16.664062 43.503906 C 15.851562 43.253906 14.945312 43.179688 13.964844 43.277344 C 13.863281 43.289062 13.792969 43.378906 13.800781 43.476562 C 13.8125 43.578125 13.902344 43.652344 14.003906 43.640625 C 14.984375 43.542969 15.886719 43.625 16.683594 43.890625 C 17.429688 44.140625 17.925781 44.5 18.203125 44.75 C 16.890625 44.847656 15.671875 45.371094 14.578125 46.304688 C 14.5 46.367188 14.492188 46.484375 14.558594 46.5625 C 14.59375 46.605469 14.644531 46.625 14.695312 46.625 C 14.738281 46.625 14.78125 46.613281 14.816406 46.582031 C 15.878906 45.675781 17.066406 45.179688 18.339844 45.105469 C 18.445312 45.101562 18.535156 45.101562 18.613281 45.101562 C 19.027344 45.113281 19.410156 45.203125 19.753906 45.375 C 19.753906 45.375 19.753906 45.375 19.757812 45.375 C 20.558594 45.769531 21.023438 46.519531 21.269531 47.074219 C 21.300781 47.144531 21.367188 47.183594 21.4375 47.183594 C 21.460938 47.183594 21.484375 47.179688 21.511719 47.167969 C 21.601562 47.128906 21.644531 47.019531 21.605469 46.925781 C 21.351562 46.359375 20.890625 45.605469 20.101562 45.148438 C 20.300781 44.882812 20.765625 44.328125 21.542969 43.832031 C 22.253906 43.378906 23.0625 43.074219 23.945312 42.929688 C 24.609375 42.820312 25.363281 42.847656 26.179688 43.007812 C 26.277344 43.03125 26.375 42.964844 26.394531 42.867188 C 26.414062 42.765625 26.351562 42.667969 26.25 42.648438 C 25.390625 42.480469 24.59375 42.453125 23.886719 42.570312 C 23.054688 42.703125 22.285156 42.976562 21.59375 43.375 C 21.578125 43.074219 21.621094 42.539062 21.980469 41.957031 C 22.242188 41.53125 22.628906 41.144531 23.128906 40.808594 C 23.242188 40.730469 23.359375 40.660156 23.476562 40.589844 C 23.5625 40.539062 23.589844 40.425781 23.539062 40.339844 C 23.488281 40.25 23.375 40.222656 23.289062 40.273438 C 23.164062 40.347656 23.042969 40.425781 22.925781 40.503906 C 22.414062 40.847656 22.011719 41.246094 21.726562 41.679688 C 20.867188 41.699219 20.082031 41.792969 19.382812 41.964844 C 19.238281 41.695312 19.089844 41.402344 18.9375 41.089844 C 19.917969 40.800781 21.46875 40.1875 23.132812 38.929688 C 24.238281 38.796875 25.339844 38.730469 26.429688 38.730469 C 31.75 38.730469 36.855469 40.289062 41.074219 43.246094 C 46.15625 46.808594 49.347656 51.980469 50.050781 57.800781 C 51.507812 69.828125 41.792969 80.933594 28.390625 82.558594 Z M 28.390625 82.558594 " fill-opacity="1" fill-rule="nonzero"/><g clip-path="url(#f89c4d41d9)"><path fill="#ffffff" d="M 25.0625 83.125 C 19.625 83.125 14.488281 81.542969 10.210938 78.546875 C 5.039062 74.921875 1.796875 69.660156 1.078125 63.734375 C 0.359375 57.808594 2.253906 51.925781 6.410156 47.171875 C 9.046875 44.15625 12.472656 41.765625 16.324219 40.261719 C 14.320312 36.964844 11.878906 32.585938 11.617188 30.441406 C 11.613281 30.394531 11.625 30.351562 11.652344 30.3125 C 11.671875 30.28125 12.234375 29.496094 13.558594 29.496094 C 13.84375 29.496094 14.148438 29.53125 14.460938 29.605469 C 14.523438 29.621094 14.574219 29.667969 14.59375 29.726562 C 14.609375 29.773438 16.046875 34.191406 17.609375 38.050781 C 17.734375 32.457031 19.207031 28.175781 21.984375 25.324219 C 22.714844 24.574219 23.539062 23.925781 24.4375 23.394531 C 24.457031 23.378906 24.476562 23.367188 24.503906 23.359375 C 27.25 21.761719 29.902344 21.714844 30.195312 21.714844 C 30.226562 21.714844 30.242188 21.714844 30.246094 21.714844 L 30.257812 21.714844 C 30.265625 21.714844 30.273438 21.71875 30.277344 21.71875 C 30.28125 21.71875 30.289062 21.71875 30.292969 21.722656 C 30.304688 21.726562 30.308594 21.726562 30.3125 21.730469 C 30.316406 21.730469 30.320312 21.734375 30.324219 21.734375 C 30.332031 21.738281 30.339844 21.742188 30.34375 21.746094 C 30.347656 21.75 30.351562 21.753906 30.355469 21.757812 C 30.363281 21.761719 30.367188 21.765625 30.371094 21.769531 L 30.382812 21.78125 L 30.390625 21.792969 C 30.398438 21.804688 30.402344 21.808594 30.402344 21.816406 C 30.40625 21.820312 30.410156 21.824219 30.410156 21.828125 C 30.414062 21.835938 30.414062 21.839844 30.414062 21.84375 C 30.417969 21.855469 30.421875 21.859375 30.421875 21.863281 C 30.421875 21.871094 30.421875 21.875 30.421875 21.882812 C 30.425781 21.890625 30.425781 21.894531 30.425781 21.898438 C 30.34375 23.820312 30.125 25.644531 29.78125 27.328125 C 29.792969 27.378906 29.78125 27.433594 29.746094 27.480469 C 29.375 29.246094 28.847656 30.894531 28.183594 32.375 C 28.179688 32.425781 28.160156 32.472656 28.125 32.503906 C 27.328125 34.246094 26.335938 35.785156 25.164062 37.070312 C 25.152344 37.089844 25.140625 37.105469 25.121094 37.117188 C 24.722656 37.554688 24.304688 37.960938 23.882812 38.328125 C 23.8125 38.386719 23.742188 38.445312 23.671875 38.503906 C 24.589844 38.410156 25.515625 38.367188 26.429688 38.367188 C 31.871094 38.367188 37.007812 39.949219 41.285156 42.945312 C 46.453125 46.570312 49.699219 51.828125 50.417969 57.757812 C 51.898438 69.984375 42.035156 81.273438 28.433594 82.921875 C 27.3125 83.058594 26.179688 83.125 25.0625 83.125 Z M 16.515625 40.578125 C 12.695312 42.0625 9.296875 44.425781 6.6875 47.410156 C 2.601562 52.085938 0.738281 57.867188 1.445312 63.691406 C 2.148438 69.511719 5.335938 74.679688 10.421875 78.246094 C 14.636719 81.199219 19.699219 82.757812 25.0625 82.757812 C 26.164062 82.757812 27.285156 82.691406 28.390625 82.554688 C 41.789062 80.933594 51.507812 69.828125 50.050781 57.800781 C 49.347656 51.980469 46.15625 46.808594 41.074219 43.246094 C 36.859375 40.292969 31.796875 38.734375 26.429688 38.734375 C 25.339844 38.734375 24.230469 38.800781 23.132812 38.933594 C 21.480469 40.179688 19.9375 40.796875 18.9375 41.089844 C 19.09375 41.414062 19.246094 41.707031 19.382812 41.964844 C 20.078125 41.792969 20.867188 41.699219 21.726562 41.679688 C 22.011719 41.242188 22.414062 40.847656 22.925781 40.503906 C 23.042969 40.421875 23.164062 40.347656 23.289062 40.273438 C 23.316406 40.257812 23.347656 40.246094 23.382812 40.246094 C 23.445312 40.246094 23.507812 40.28125 23.539062 40.335938 C 23.566406 40.378906 23.570312 40.429688 23.558594 40.476562 C 23.546875 40.523438 23.515625 40.566406 23.476562 40.589844 C 23.359375 40.660156 23.242188 40.734375 23.128906 40.808594 C 22.628906 41.144531 22.242188 41.53125 21.980469 41.957031 C 21.632812 42.523438 21.578125 43.042969 21.59375 43.375 C 22.285156 42.976562 23.058594 42.703125 23.886719 42.566406 C 24.171875 42.519531 24.476562 42.496094 24.789062 42.496094 C 25.25 42.496094 25.742188 42.546875 26.25 42.648438 C 26.300781 42.660156 26.339844 42.6875 26.367188 42.726562 C 26.394531 42.769531 26.40625 42.816406 26.394531 42.867188 C 26.378906 42.953125 26.304688 43.015625 26.21875 43.015625 C 26.203125 43.015625 26.191406 43.011719 26.179688 43.011719 C 25.695312 42.914062 25.226562 42.863281 24.789062 42.863281 C 24.496094 42.863281 24.210938 42.886719 23.945312 42.929688 C 23.0625 43.074219 22.253906 43.378906 21.542969 43.835938 C 20.773438 44.324219 20.3125 44.867188 20.105469 45.148438 C 20.898438 45.609375 21.359375 46.371094 21.605469 46.925781 C 21.644531 47.019531 21.601562 47.128906 21.511719 47.167969 C 21.488281 47.179688 21.460938 47.183594 21.4375 47.183594 C 21.363281 47.183594 21.296875 47.140625 21.269531 47.074219 C 21.023438 46.519531 20.558594 45.769531 19.753906 45.375 C 19.410156 45.207031 19.027344 45.113281 18.613281 45.105469 C 18.585938 45.101562 18.554688 45.101562 18.527344 45.101562 C 18.46875 45.101562 18.40625 45.105469 18.339844 45.105469 C 17.066406 45.179688 15.878906 45.675781 14.816406 46.582031 C 14.78125 46.609375 14.742188 46.625 14.695312 46.625 C 14.644531 46.625 14.59375 46.601562 14.558594 46.5625 C 14.523438 46.523438 14.507812 46.476562 14.511719 46.429688 C 14.515625 46.378906 14.539062 46.335938 14.578125 46.304688 C 15.667969 45.371094 16.886719 44.847656 18.203125 44.75 C 17.917969 44.496094 17.421875 44.140625 16.683594 43.890625 C 16.105469 43.699219 15.464844 43.601562 14.785156 43.601562 C 14.53125 43.601562 14.269531 43.613281 14.003906 43.640625 C 13.996094 43.644531 13.988281 43.644531 13.980469 43.644531 C 13.890625 43.644531 13.808594 43.570312 13.800781 43.476562 C 13.796875 43.429688 13.808594 43.382812 13.839844 43.34375 C 13.871094 43.304688 13.917969 43.28125 13.964844 43.277344 C 14.238281 43.25 14.511719 43.234375 14.777344 43.234375 C 15.445312 43.234375 16.082031 43.324219 16.664062 43.503906 C 16.804688 43.3125 17.132812 42.941406 17.769531 42.582031 C 17.34375 41.917969 16.921875 41.246094 16.515625 40.578125 Z M 13.5625 29.863281 C 12.601562 29.863281 12.117188 30.328125 11.992188 30.472656 C 12.390625 33.269531 16.457031 39.851562 18.183594 42.550781 C 18.210938 42.59375 18.222656 42.648438 18.207031 42.699219 C 18.195312 42.75 18.160156 42.789062 18.113281 42.8125 C 17.542969 43.109375 17.210938 43.417969 17.03125 43.628906 C 18.003906 44.003906 18.527344 44.53125 18.710938 44.738281 C 19.085938 44.757812 19.445312 44.839844 19.773438 44.980469 C 19.9375 44.746094 20.414062 44.144531 21.242188 43.59375 C 21.203125 43.308594 21.183594 42.730469 21.511719 42.050781 C 20.714844 42.082031 19.984375 42.183594 19.335938 42.355469 C 19.324219 42.359375 19.304688 42.363281 19.289062 42.363281 C 19.222656 42.363281 19.164062 42.324219 19.128906 42.265625 C 18.957031 41.957031 18.773438 41.59375 18.578125 41.191406 C 18.15625 41.296875 17.898438 41.332031 17.871094 41.335938 C 17.863281 41.335938 17.855469 41.339844 17.847656 41.339844 C 17.828125 41.339844 17.804688 41.335938 17.785156 41.328125 C 17.769531 41.320312 17.753906 41.3125 17.734375 41.296875 C 17.722656 41.285156 17.71875 41.28125 17.710938 41.277344 L 17.703125 41.265625 C 17.699219 41.257812 17.695312 41.253906 17.691406 41.25 L 17.683594 41.234375 C 17.679688 41.226562 17.679688 41.222656 17.675781 41.214844 L 17.671875 41.199219 C 17.667969 41.191406 17.667969 41.183594 17.667969 41.175781 C 17.667969 41.175781 17.664062 41.160156 17.664062 41.160156 C 17.625 40.4375 17.601562 39.707031 17.597656 38.996094 C 16.050781 35.300781 14.5625 30.804688 14.277344 29.941406 C 14.027344 29.890625 13.789062 29.863281 13.5625 29.863281 Z M 19.398438 37.964844 C 18.773438 39.351562 18.34375 40.40625 18.140625 40.914062 C 19.019531 40.722656 21.3125 40.0625 23.660156 38.035156 C 23.941406 37.789062 24.230469 37.515625 24.511719 37.230469 Z M 18.410156 33.632812 C 18.039062 35.621094 17.902344 37.863281 17.992188 40.304688 C 18.21875 39.75 18.589844 38.867188 19.078125 37.78125 Z M 21.535156 33.589844 C 20.863281 34.859375 20.207031 36.199219 19.578125 37.570312 L 24.914062 36.800781 C 25.992188 35.609375 26.917969 34.199219 27.671875 32.609375 Z M 20.464844 27.914062 C 19.65625 29.269531 19.035156 30.855469 18.617188 32.628906 L 19.355469 37.183594 C 19.953125 35.886719 20.578125 34.617188 21.21875 33.410156 Z M 24.269531 28.894531 C 23.429688 30.1875 22.582031 31.628906 21.75 33.183594 L 27.855469 32.207031 C 28.476562 30.820312 28.976562 29.277344 29.339844 27.625 Z M 24.347656 23.882812 C 23.582031 24.363281 22.875 24.933594 22.242188 25.585938 C 21.707031 26.136719 21.210938 26.757812 20.765625 27.429688 L 21.511719 32.855469 C 22.320312 31.355469 23.148438 29.953125 23.964844 28.699219 Z M 30.039062 22.269531 C 28.269531 23.582031 26.429688 25.660156 24.570312 28.441406 L 29.425781 27.222656 C 29.742188 25.683594 29.945312 24.019531 30.039062 22.269531 Z M 29.648438 22.105469 C 28.675781 22.183594 26.75 22.488281 24.734375 23.648438 L 24.382812 28.070312 C 26.167969 25.425781 27.9375 23.417969 29.648438 22.105469 Z M 29.648438 22.105469 " fill-opacity="1" fill-rule="nonzero"/><path fill="#ffffff" d="M 50.414062 57.757812 C 49.699219 51.832031 46.453125 46.570312 41.28125 42.945312 C 36.277344 39.4375 30.046875 37.871094 23.671875 38.503906 C 23.742188 38.445312 23.8125 38.386719 23.882812 38.328125 C 24.285156 37.976562 24.703125 37.574219 25.121094 37.117188 C 25.140625 37.105469 25.152344 37.089844 25.164062 37.070312 C 26.199219 35.933594 27.242188 34.441406 28.125 32.503906 C 28.160156 32.472656 28.179688 32.425781 28.183594 32.375 C 28.808594 30.984375 29.347656 29.363281 29.746094 27.480469 C 29.777344 27.4375 29.792969 27.382812 29.78125 27.328125 C 30.109375 25.714844 30.339844 23.917969 30.425781 21.90625 C 30.425781 21.902344 30.421875 21.902344 30.421875 21.898438 C 30.421875 21.894531 30.421875 21.886719 30.421875 21.882812 C 30.421875 21.875 30.421875 21.871094 30.421875 21.863281 C 30.417969 21.859375 30.417969 21.851562 30.417969 21.847656 C 30.414062 21.84375 30.414062 21.835938 30.410156 21.828125 C 30.410156 21.824219 30.40625 21.820312 30.402344 21.816406 C 30.402344 21.808594 30.398438 21.804688 30.394531 21.796875 C 30.394531 21.796875 30.390625 21.792969 30.390625 21.792969 C 30.390625 21.789062 30.386719 21.789062 30.382812 21.785156 C 30.378906 21.78125 30.378906 21.777344 30.375 21.773438 C 30.375 21.773438 30.371094 21.769531 30.371094 21.769531 C 30.367188 21.765625 30.363281 21.761719 30.355469 21.757812 C 30.351562 21.753906 30.347656 21.75 30.34375 21.746094 C 30.339844 21.742188 30.332031 21.738281 30.328125 21.738281 C 30.324219 21.734375 30.316406 21.730469 30.3125 21.730469 C 30.304688 21.726562 30.300781 21.726562 30.296875 21.722656 C 30.289062 21.722656 30.285156 21.71875 30.277344 21.71875 C 30.273438 21.71875 30.265625 21.71875 30.257812 21.714844 C 30.253906 21.714844 30.25 21.714844 30.246094 21.714844 C 30.210938 21.714844 27.433594 21.65625 24.503906 23.359375 C 24.476562 23.367188 24.457031 23.378906 24.4375 23.394531 C 23.609375 23.882812 22.773438 24.511719 21.984375 25.324219 C 19.203125 28.179688 17.734375 32.453125 17.609375 38.054688 C 16.046875 34.199219 14.613281 29.789062 14.59375 29.726562 C 14.574219 29.667969 14.523438 29.621094 14.460938 29.605469 C 12.488281 29.152344 11.683594 30.265625 11.652344 30.3125 C 11.625 30.351562 11.613281 30.394531 11.621094 30.441406 C 11.882812 32.605469 14.375 37.054688 16.324219 40.261719 C 12.484375 41.761719 9.082031 44.117188 6.410156 47.171875 C 2.253906 51.925781 0.359375 57.808594 1.078125 63.734375 C 1.796875 69.660156 5.039062 74.921875 10.210938 78.542969 C 14.492188 81.542969 19.667969 83.125 25.0625 83.125 C 26.179688 83.125 27.304688 83.058594 28.433594 82.921875 C 42.035156 81.273438 51.898438 69.984375 50.414062 57.757812 Z M 10.421875 78.246094 C 5.335938 74.679688 2.148438 69.511719 1.441406 63.691406 C 0.738281 57.867188 2.601562 52.085938 6.6875 47.410156 C 9.332031 44.386719 12.707031 42.058594 16.515625 40.578125 C 16.988281 41.347656 17.417969 42.035156 17.769531 42.582031 C 17.132812 42.941406 16.804688 43.3125 16.664062 43.503906 C 15.851562 43.253906 14.945312 43.179688 13.964844 43.277344 C 13.863281 43.289062 13.792969 43.378906 13.800781 43.476562 C 13.8125 43.578125 13.902344 43.652344 14.003906 43.640625 C 14.984375 43.542969 15.886719 43.625 16.683594 43.890625 C 17.429688 44.140625 17.925781 44.5 18.203125 44.75 C 16.890625 44.847656 15.671875 45.371094 14.578125 46.304688 C 14.5 46.367188 14.492188 46.484375 14.558594 46.5625 C 14.59375 46.605469 14.644531 46.625 14.695312 46.625 C 14.738281 46.625 14.78125 46.613281 14.816406 46.582031 C 15.878906 45.675781 17.066406 45.179688 18.339844 45.105469 C 18.445312 45.101562 18.535156 45.101562 18.613281 45.101562 C 19.027344 45.113281 19.410156 45.203125 19.753906 45.375 C 19.753906 45.375 19.753906 45.375 19.757812 45.375 C 20.558594 45.769531 21.023438 46.519531 21.269531 47.074219 C 21.300781 47.144531 21.367188 47.183594 21.4375 47.183594 C 21.460938 47.183594 21.484375 47.179688 21.511719 47.167969 C 21.601562 47.128906 21.644531 47.019531 21.605469 46.925781 C 21.351562 46.359375 20.890625 45.605469 20.101562 45.148438 C 20.300781 44.882812 20.765625 44.328125 21.542969 43.832031 C 22.253906 43.378906 23.0625 43.074219 23.945312 42.929688 C 24.609375 42.820312 25.363281 42.847656 26.179688 43.007812 C 26.277344 43.03125 26.375 42.964844 26.394531 42.867188 C 26.414062 42.765625 26.351562 42.667969 26.25 42.648438 C 25.390625 42.480469 24.59375 42.453125 23.886719 42.570312 C 23.054688 42.703125 22.285156 42.976562 21.59375 43.375 C 21.578125 43.074219 21.621094 42.539062 21.980469 41.957031 C 22.242188 41.53125 22.628906 41.144531 23.128906 40.808594 C 23.242188 40.730469 23.359375 40.660156 23.476562 40.589844 C 23.5625 40.539062 23.589844 40.425781 23.539062 40.339844 C 23.488281 40.25 23.375 40.222656 23.289062 40.273438 C 23.164062 40.347656 23.042969 40.425781 22.925781 40.503906 C 22.414062 40.847656 22.011719 41.246094 21.726562 41.679688 C 20.867188 41.699219 20.082031 41.792969 19.382812 41.964844 C 19.238281 41.695312 19.089844 41.402344 18.9375 41.089844 C 19.917969 40.800781 21.46875 40.1875 23.132812 38.929688 C 24.238281 38.796875 25.339844 38.730469 26.429688 38.730469 C 31.75 38.730469 36.855469 40.289062 41.074219 43.246094 C 46.15625 46.808594 49.347656 51.980469 50.050781 57.800781 C 51.507812 69.828125 41.792969 80.933594 28.390625 82.558594 C 21.894531 83.34375 15.511719 81.8125 10.421875 78.246094 Z M 14.277344 29.941406 C 14.519531 30.675781 16.039062 35.265625 17.597656 38.992188 C 17.601562 39.695312 17.625 40.417969 17.664062 41.160156 C 17.664062 41.164062 17.664062 41.164062 17.664062 41.164062 C 17.667969 41.167969 17.667969 41.171875 17.667969 41.175781 C 17.667969 41.183594 17.667969 41.191406 17.671875 41.199219 C 17.671875 41.203125 17.675781 41.207031 17.675781 41.214844 C 17.679688 41.21875 17.679688 41.226562 17.683594 41.234375 C 17.6875 41.238281 17.6875 41.242188 17.691406 41.246094 C 17.695312 41.253906 17.699219 41.257812 17.703125 41.265625 C 17.707031 41.269531 17.710938 41.273438 17.714844 41.277344 C 17.71875 41.28125 17.722656 41.285156 17.726562 41.289062 C 17.730469 41.292969 17.730469 41.292969 17.730469 41.296875 C 17.734375 41.296875 17.734375 41.296875 17.738281 41.296875 C 17.75 41.308594 17.765625 41.320312 17.785156 41.324219 C 17.804688 41.332031 17.828125 41.335938 17.847656 41.335938 C 17.855469 41.335938 17.863281 41.335938 17.871094 41.335938 C 17.90625 41.332031 18.160156 41.296875 18.578125 41.191406 C 18.765625 41.582031 18.953125 41.941406 19.128906 42.265625 C 19.171875 42.339844 19.257812 42.378906 19.335938 42.355469 C 19.984375 42.183594 20.714844 42.082031 21.511719 42.050781 C 21.179688 42.742188 21.207031 43.335938 21.242188 43.59375 C 20.425781 44.136719 19.957031 44.71875 19.769531 44.980469 C 19.441406 44.839844 19.085938 44.757812 18.707031 44.738281 C 18.542969 44.546875 18.015625 44.007812 17.03125 43.628906 C 17.195312 43.433594 17.527344 43.113281 18.113281 42.8125 C 18.160156 42.789062 18.195312 42.75 18.207031 42.699219 C 18.21875 42.648438 18.210938 42.59375 18.183594 42.550781 C 16.445312 39.839844 12.390625 33.269531 11.992188 30.472656 C 12.160156 30.28125 12.84375 29.644531 14.277344 29.941406 Z M 18.410156 33.628906 L 19.078125 37.78125 C 18.597656 38.847656 18.230469 39.722656 17.992188 40.304688 C 17.898438 37.847656 18.039062 35.621094 18.410156 33.628906 Z M 23.660156 38.035156 C 21.292969 40.082031 18.964844 40.734375 18.140625 40.914062 C 18.335938 40.417969 18.769531 39.359375 19.398438 37.964844 L 24.511719 37.230469 C 24.222656 37.523438 23.9375 37.792969 23.660156 38.035156 Z M 29.648438 22.105469 C 27.753906 23.558594 25.964844 25.722656 24.382812 28.070312 L 24.734375 23.648438 C 26.765625 22.480469 28.710938 22.179688 29.648438 22.105469 Z M 29.425781 27.222656 L 24.570312 28.441406 C 26.207031 25.988281 28.066406 23.730469 30.039062 22.269531 C 29.941406 24.09375 29.730469 25.742188 29.425781 27.222656 Z M 24.269531 28.894531 L 29.339844 27.625 C 28.953125 29.378906 28.441406 30.894531 27.855469 32.207031 L 21.75 33.183594 C 22.503906 31.777344 23.351562 30.308594 24.269531 28.894531 Z M 27.675781 32.609375 C 26.839844 34.371094 25.875 35.742188 24.914062 36.800781 L 19.578125 37.570312 C 20.113281 36.398438 20.773438 35.03125 21.535156 33.589844 Z M 19.355469 37.183594 L 18.617188 32.628906 C 19.035156 30.847656 19.648438 29.273438 20.464844 27.914062 L 21.21875 33.410156 C 20.5 34.765625 19.871094 36.058594 19.355469 37.183594 Z M 23.964844 28.699219 C 23.070312 30.070312 22.25 31.492188 21.511719 32.855469 L 20.765625 27.429688 C 21.207031 26.757812 21.699219 26.144531 22.242188 25.582031 C 22.921875 24.886719 23.636719 24.328125 24.347656 23.878906 Z M 23.964844 28.699219 " fill-opacity="1" fill-rule="nonzero"/></g><path fill="#30a755" d="M 19.769531 44.980469 C 19.441406 44.839844 19.085938 44.757812 18.707031 44.742188 C 18.527344 44.53125 18.003906 44.003906 17.03125 43.628906 C 17.210938 43.417969 17.539062 43.105469 18.113281 42.8125 C 18.160156 42.789062 18.191406 42.746094 18.207031 42.699219 C 18.21875 42.648438 18.210938 42.59375 18.183594 42.550781 C 16.453125 39.851562 12.390625 33.269531 11.992188 30.472656 C 12.117188 30.328125 12.601562 29.863281 13.5625 29.863281 C 13.789062 29.863281 14.027344 29.890625 14.277344 29.941406 C 14.5625 30.804688 16.054688 35.300781 17.601562 38.992188 C 17.601562 39.707031 17.625 40.4375 17.667969 41.160156 L 17.667969 41.175781 C 17.667969 41.183594 17.671875 41.191406 17.671875 41.199219 L 17.675781 41.214844 C 17.679688 41.222656 17.679688 41.226562 17.683594 41.234375 L 17.691406 41.242188 C 17.695312 41.253906 17.699219 41.257812 17.703125 41.261719 L 17.710938 41.273438 C 17.71875 41.28125 17.722656 41.285156 17.726562 41.289062 C 17.753906 41.308594 17.769531 41.320312 17.785156 41.324219 C 17.804688 41.332031 17.828125 41.335938 17.847656 41.335938 C 17.855469 41.335938 17.863281 41.335938 17.871094 41.335938 C 17.898438 41.332031 18.15625 41.296875 18.578125 41.191406 C 18.773438 41.59375 18.957031 41.953125 19.132812 42.265625 C 19.164062 42.324219 19.222656 42.359375 19.289062 42.359375 C 19.304688 42.359375 19.320312 42.359375 19.335938 42.355469 C 19.984375 42.183594 20.714844 42.082031 21.511719 42.050781 C 21.183594 42.730469 21.203125 43.308594 21.242188 43.59375 C 20.414062 44.144531 19.9375 44.746094 19.773438 44.980469 C 19.773438 44.980469 19.773438 44.980469 19.769531 44.980469 Z M 18.140625 40.914062 C 18.339844 40.40625 18.773438 39.351562 19.398438 37.964844 L 24.511719 37.230469 C 24.230469 37.515625 23.945312 37.789062 23.660156 38.035156 C 21.316406 40.066406 19.019531 40.726562 18.140625 40.914062 Z M 17.992188 40.304688 C 17.898438 37.863281 18.039062 35.617188 18.40625 33.628906 L 19.082031 37.78125 C 18.589844 38.867188 18.21875 39.753906 17.992188 40.304688 Z M 19.578125 37.566406 C 20.207031 36.199219 20.863281 34.859375 21.535156 33.589844 L 27.671875 32.605469 C 26.921875 34.199219 25.992188 35.609375 24.914062 36.800781 L 19.578125 37.570312 C 19.578125 37.570312 19.578125 37.570312 19.578125 37.566406 Z M 19.351562 37.183594 L 18.617188 32.628906 C 19.03125 30.855469 19.652344 29.265625 20.464844 27.914062 L 21.21875 33.410156 C 20.582031 34.617188 19.953125 35.886719 19.355469 37.183594 C 19.355469 37.183594 19.351562 37.183594 19.351562 37.183594 Z M 21.75 33.183594 C 22.582031 31.628906 23.429688 30.1875 24.269531 28.894531 L 29.339844 27.621094 C 28.976562 29.277344 28.476562 30.820312 27.859375 32.207031 Z M 21.511719 32.855469 L 20.765625 27.429688 C 21.207031 26.757812 21.703125 26.136719 22.242188 25.582031 C 22.871094 24.933594 23.582031 24.359375 24.347656 23.878906 L 23.964844 28.699219 C 23.148438 29.957031 22.324219 31.355469 21.511719 32.855469 C 21.511719 32.859375 21.511719 32.859375 21.511719 32.859375 C 21.511719 32.859375 21.511719 32.859375 21.511719 32.855469 Z M 24.570312 28.441406 C 26.429688 25.65625 28.269531 23.578125 30.039062 22.269531 C 29.949219 24.015625 29.742188 25.683594 29.425781 27.222656 Z M 24.382812 28.070312 L 24.730469 23.648438 C 26.753906 22.484375 28.679688 22.183594 29.648438 22.105469 C 27.941406 23.417969 26.167969 25.425781 24.382812 28.070312 Z M 24.382812 28.070312 " fill-opacity="1" fill-rule="nonzero"/><path fill="#30a755" d="M 11.992188 30.472656 C 12.160156 30.28125 12.84375 29.644531 14.277344 29.941406 C 14.519531 30.675781 16.039062 35.265625 17.597656 38.992188 C 17.601562 39.695312 17.625 40.417969 17.664062 41.160156 C 17.664062 41.164062 17.664062 41.164062 17.664062 41.164062 C 17.667969 41.167969 17.667969 41.171875 17.667969 41.175781 C 17.667969 41.183594 17.667969 41.191406 17.671875 41.199219 C 17.671875 41.203125 17.675781 41.207031 17.675781 41.214844 C 17.679688 41.21875 17.679688 41.226562 17.683594 41.234375 C 17.6875 41.238281 17.6875 41.242188 17.691406 41.246094 C 17.695312 41.253906 17.699219 41.257812 17.703125 41.265625 C 17.707031 41.269531 17.710938 41.273438 17.714844 41.277344 C 17.71875 41.28125 17.722656 41.285156 17.726562 41.289062 C 17.730469 41.292969 17.730469 41.292969 17.730469 41.296875 C 17.734375 41.296875 17.734375 41.296875 17.738281 41.296875 C 17.75 41.308594 17.765625 41.320312 17.785156 41.324219 C 17.804688 41.332031 17.828125 41.335938 17.847656 41.335938 C 17.855469 41.335938 17.863281 41.335938 17.871094 41.335938 C 17.90625 41.332031 18.160156 41.296875 18.578125 41.191406 C 18.765625 41.582031 18.953125 41.941406 19.128906 42.265625 C 19.171875 42.339844 19.257812 42.378906 19.335938 42.355469 C 19.984375 42.183594 20.714844 42.082031 21.511719 42.050781 C 21.179688 42.742188 21.207031 43.335938 21.242188 43.59375 C 20.425781 44.136719 19.957031 44.71875 19.769531 44.980469 C 19.441406 44.839844 19.085938 44.757812 18.707031 44.738281 C 18.542969 44.546875 18.015625 44.007812 17.03125 43.628906 C 17.195312 43.433594 17.527344 43.113281 18.113281 42.8125 C 18.160156 42.789062 18.195312 42.75 18.207031 42.699219 C 18.21875 42.648438 18.210938 42.59375 18.183594 42.550781 C 16.445312 39.839844 12.390625 33.269531 11.992188 30.472656 Z M 18.617188 32.628906 L 19.355469 37.183594 C 19.871094 36.058594 20.5 34.765625 21.21875 33.410156 L 20.464844 27.914062 C 19.648438 29.273438 19.035156 30.847656 18.617188 32.628906 Z M 29.648438 22.105469 C 28.710938 22.179688 26.765625 22.480469 24.734375 23.648438 L 24.382812 28.070312 C 25.964844 25.722656 27.753906 23.558594 29.648438 22.105469 Z M 27.855469 32.207031 C 28.441406 30.894531 28.953125 29.378906 29.339844 27.625 L 24.269531 28.894531 C 23.351562 30.308594 22.503906 31.777344 21.75 33.183594 Z M 24.570312 28.441406 L 29.425781 27.222656 C 29.730469 25.742188 29.941406 24.09375 30.039062 22.269531 C 28.066406 23.730469 26.207031 25.988281 24.570312 28.441406 Z M 19.398438 37.964844 C 18.769531 39.359375 18.335938 40.417969 18.140625 40.914062 C 18.964844 40.734375 21.292969 40.082031 23.660156 38.035156 C 23.9375 37.792969 24.222656 37.523438 24.511719 37.230469 Z M 24.914062 36.800781 C 25.875 35.742188 26.839844 34.371094 27.675781 32.609375 L 21.535156 33.589844 C 20.773438 35.03125 20.113281 36.398438 19.578125 37.570312 Z M 20.765625 27.429688 L 21.511719 32.855469 C 22.25 31.492188 23.070312 30.070312 23.964844 28.699219 L 24.347656 23.878906 C 23.636719 24.328125 22.921875 24.886719 22.242188 25.582031 C 21.699219 26.144531 21.207031 26.757812 20.765625 27.429688 Z M 17.992188 40.304688 C 18.230469 39.722656 18.597656 38.847656 19.078125 37.78125 L 18.410156 33.628906 C 18.039062 35.621094 17.898438 37.847656 17.992188 40.304688 Z M 17.992188 40.304688 " fill-opacity="1" fill-rule="nonzero"/><g clip-path="url(#b22a21d5c4)"><g transform="matrix(1, 0, 0, 1, 53, 19)"><g clip-path="url(#894fef7de3)"><g fill="#ffffff" fill-opacity="1"><g transform="translate(0.996089, 58.597682)"><g><path d="M 7.203125 0 C 6.203125 0 5.375 -0.332031 4.71875 -1 C 4.070312 -1.675781 3.75 -2.515625 3.75 -3.515625 L 3.75 -27.296875 C 3.75 -28.296875 4.070312 -29.128906 4.71875 -29.796875 C 5.375 -30.472656 6.203125 -30.8125 7.203125 -30.8125 C 8.203125 -30.8125 9.023438 -30.472656 9.671875 -29.796875 C 10.328125 -29.128906 10.65625 -28.296875 10.65625 -27.296875 L 10.65625 -21.890625 L 10.25 -25.75 C 10.675781 -26.664062 11.222656 -27.476562 11.890625 -28.1875 C 12.566406 -28.894531 13.328125 -29.488281 14.171875 -29.96875 C 15.015625 -30.457031 15.914062 -30.816406 16.875 -31.046875 C 17.832031 -31.273438 18.789062 -31.390625 19.75 -31.390625 C 20.90625 -31.390625 21.875 -31.0625 22.65625 -30.40625 C 23.445312 -29.757812 23.84375 -28.992188 23.84375 -28.109375 C 23.84375 -26.835938 23.515625 -25.921875 22.859375 -25.359375 C 22.210938 -24.804688 21.503906 -24.53125 20.734375 -24.53125 C 20.003906 -24.53125 19.34375 -24.664062 18.75 -24.9375 C 18.15625 -25.207031 17.472656 -25.34375 16.703125 -25.34375 C 16.015625 -25.34375 15.3125 -25.175781 14.59375 -24.84375 C 13.882812 -24.519531 13.234375 -24.007812 12.640625 -23.3125 C 12.046875 -22.625 11.566406 -21.769531 11.203125 -20.75 C 10.835938 -19.738281 10.65625 -18.539062 10.65625 -17.15625 L 10.65625 -3.515625 C 10.65625 -2.515625 10.328125 -1.675781 9.671875 -1 C 9.023438 -0.332031 8.203125 0 7.203125 0 Z M 7.203125 0 "/></g></g><g transform="translate(25.99053, 58.597682)"><g><path d="M 28.96875 -31.390625 C 29.96875 -31.390625 30.789062 -31.0625 31.4375 -30.40625 C 32.09375 -29.757812 32.421875 -28.914062 32.421875 -27.875 L 32.421875 -3.515625 C 32.421875 -2.515625 32.09375 -1.675781 31.4375 -1 C 30.789062 -0.332031 29.96875 0 28.96875 0 C 27.96875 0 27.140625 -0.332031 26.484375 -1 C 25.835938 -1.675781 25.515625 -2.515625 25.515625 -3.515625 L 25.515625 -6.328125 L 26.78125 -5.8125 C 26.78125 -5.3125 26.507812 -4.707031 25.96875 -4 C 25.4375 -3.289062 24.707031 -2.585938 23.78125 -1.890625 C 22.863281 -1.203125 21.78125 -0.617188 20.53125 -0.140625 C 19.28125 0.335938 17.925781 0.578125 16.46875 0.578125 C 13.820312 0.578125 11.421875 -0.101562 9.265625 -1.46875 C 7.117188 -2.832031 5.421875 -4.710938 4.171875 -7.109375 C 2.921875 -9.515625 2.296875 -12.269531 2.296875 -15.375 C 2.296875 -18.519531 2.921875 -21.289062 4.171875 -23.6875 C 5.421875 -26.09375 7.097656 -27.976562 9.203125 -29.34375 C 11.316406 -30.707031 13.660156 -31.390625 16.234375 -31.390625 C 17.890625 -31.390625 19.40625 -31.140625 20.78125 -30.640625 C 22.164062 -30.140625 23.367188 -29.503906 24.390625 -28.734375 C 25.410156 -27.972656 26.195312 -27.195312 26.75 -26.40625 C 27.3125 -25.613281 27.59375 -24.953125 27.59375 -24.421875 L 25.515625 -23.671875 L 25.515625 -27.875 C 25.515625 -28.875 25.835938 -29.707031 26.484375 -30.375 C 27.140625 -31.050781 27.96875 -31.390625 28.96875 -31.390625 Z M 17.328125 -5.765625 C 19.023438 -5.765625 20.503906 -6.1875 21.765625 -7.03125 C 23.035156 -7.875 24.023438 -9.023438 24.734375 -10.484375 C 25.441406 -11.941406 25.796875 -13.570312 25.796875 -15.375 C 25.796875 -17.21875 25.441406 -18.867188 24.734375 -20.328125 C 24.023438 -21.785156 23.035156 -22.9375 21.765625 -23.78125 C 20.503906 -24.625 19.023438 -25.046875 17.328125 -25.046875 C 15.679688 -25.046875 14.222656 -24.625 12.953125 -23.78125 C 11.691406 -22.9375 10.703125 -21.785156 9.984375 -20.328125 C 9.273438 -18.867188 8.921875 -17.21875 8.921875 -15.375 C 8.921875 -13.570312 9.273438 -11.941406 9.984375 -10.484375 C 10.703125 -9.023438 11.691406 -7.875 12.953125 -7.03125 C 14.222656 -6.1875 15.679688 -5.765625 17.328125 -5.765625 Z M 17.328125 -5.765625 "/></g></g><g transform="translate(62.157602, 58.597682)"><g><path d="M 20.21875 -31.390625 C 23.0625 -31.390625 25.21875 -30.789062 26.6875 -29.59375 C 28.164062 -28.40625 29.179688 -26.820312 29.734375 -24.84375 C 30.296875 -22.875 30.578125 -20.675781 30.578125 -18.25 L 30.578125 -3.515625 C 30.578125 -2.515625 30.25 -1.675781 29.59375 -1 C 28.945312 -0.332031 28.125 0 27.125 0 C 26.125 0 25.296875 -0.332031 24.640625 -1 C 23.992188 -1.675781 23.671875 -2.515625 23.671875 -3.515625 L 23.671875 -18.25 C 23.671875 -19.519531 23.503906 -20.660156 23.171875 -21.671875 C 22.847656 -22.691406 22.265625 -23.507812 21.421875 -24.125 C 20.578125 -24.738281 19.367188 -25.046875 17.796875 -25.046875 C 16.265625 -25.046875 14.96875 -24.738281 13.90625 -24.125 C 12.851562 -23.507812 12.046875 -22.691406 11.484375 -21.671875 C 10.929688 -20.660156 10.65625 -19.519531 10.65625 -18.25 L 10.65625 -3.515625 C 10.65625 -2.515625 10.328125 -1.675781 9.671875 -1 C 9.023438 -0.332031 8.203125 0 7.203125 0 C 6.203125 0 5.375 -0.332031 4.71875 -1 C 4.070312 -1.675781 3.75 -2.515625 3.75 -3.515625 L 3.75 -27.296875 C 3.75 -28.296875 4.070312 -29.128906 4.71875 -29.796875 C 5.375 -30.472656 6.203125 -30.8125 7.203125 -30.8125 C 8.203125 -30.8125 9.023438 -30.472656 9.671875 -29.796875 C 10.328125 -29.128906 10.65625 -28.296875 10.65625 -27.296875 L 10.65625 -24.828125 L 9.796875 -25 C 10.140625 -25.644531 10.632812 -26.34375 11.28125 -27.09375 C 11.9375 -27.84375 12.707031 -28.539062 13.59375 -29.1875 C 14.476562 -29.84375 15.472656 -30.375 16.578125 -30.78125 C 17.691406 -31.1875 18.90625 -31.390625 20.21875 -31.390625 Z M 20.21875 -31.390625 "/></g></g></g><g fill="#ffffff" fill-opacity="1"><g transform="translate(96.481757, 58.597682)"><g><path d="M 16.53125 -31.390625 C 18.144531 -31.390625 19.625 -31.140625 20.96875 -30.640625 C 22.3125 -30.140625 23.472656 -29.503906 24.453125 -28.734375 C 25.429688 -27.972656 26.195312 -27.195312 26.75 -26.40625 C 27.3125 -25.613281 27.59375 -24.953125 27.59375 -24.421875 L 26.09375 -23.671875 L 26.09375 -27.875 C 26.09375 -28.875 26.414062 -29.707031 27.0625 -30.375 C 27.71875 -31.050781 28.546875 -31.390625 29.546875 -31.390625 C 30.546875 -31.390625 31.367188 -31.0625 32.015625 -30.40625 C 32.671875 -29.757812 33 -28.914062 33 -27.875 L 33 -2.25 C 33 1.09375 32.28125 3.769531 30.84375 5.78125 C 29.40625 7.800781 27.515625 9.257812 25.171875 10.15625 C 22.828125 11.0625 20.3125 11.515625 17.625 11.515625 C 16.851562 11.515625 15.851562 11.414062 14.625 11.21875 C 13.394531 11.03125 12.222656 10.800781 11.109375 10.53125 C 10.003906 10.269531 9.160156 10.023438 8.578125 9.796875 C 7.429688 9.296875 6.632812 8.671875 6.1875 7.921875 C 5.75 7.171875 5.664062 6.375 5.9375 5.53125 C 6.28125 4.414062 6.832031 3.65625 7.59375 3.25 C 8.363281 2.851562 9.171875 2.804688 10.015625 3.109375 C 10.398438 3.222656 11.035156 3.453125 11.921875 3.796875 C 12.804688 4.140625 13.773438 4.457031 14.828125 4.75 C 15.890625 5.039062 16.820312 5.1875 17.625 5.1875 C 20.5 5.1875 22.628906 4.609375 24.015625 3.453125 C 25.398438 2.304688 26.09375 0.710938 26.09375 -1.328125 L 26.09375 -6.328125 L 26.78125 -5.8125 C 26.78125 -5.3125 26.519531 -4.707031 26 -4 C 25.476562 -3.289062 24.765625 -2.585938 23.859375 -1.890625 C 22.960938 -1.203125 21.898438 -0.617188 20.671875 -0.140625 C 19.441406 0.335938 18.140625 0.578125 16.765625 0.578125 C 14.035156 0.578125 11.578125 -0.101562 9.390625 -1.46875 C 7.203125 -2.832031 5.472656 -4.710938 4.203125 -7.109375 C 2.929688 -9.515625 2.296875 -12.269531 2.296875 -15.375 C 2.296875 -18.519531 2.929688 -21.289062 4.203125 -23.6875 C 5.472656 -26.09375 7.179688 -27.976562 9.328125 -29.34375 C 11.484375 -30.707031 13.882812 -31.390625 16.53125 -31.390625 Z M 17.625 -25.046875 C 15.894531 -25.046875 14.375 -24.625 13.0625 -23.78125 C 11.757812 -22.9375 10.742188 -21.785156 10.015625 -20.328125 C 9.285156 -18.867188 8.921875 -17.21875 8.921875 -15.375 C 8.921875 -13.570312 9.285156 -11.941406 10.015625 -10.484375 C 10.742188 -9.023438 11.757812 -7.875 13.0625 -7.03125 C 14.375 -6.1875 15.894531 -5.765625 17.625 -5.765625 C 19.382812 -5.765625 20.914062 -6.1875 22.21875 -7.03125 C 23.53125 -7.875 24.550781 -9.023438 25.28125 -10.484375 C 26.007812 -11.941406 26.375 -13.570312 26.375 -15.375 C 26.375 -17.21875 26.007812 -18.867188 25.28125 -20.328125 C 24.550781 -21.785156 23.53125 -22.9375 22.21875 -23.78125 C 20.914062 -24.625 19.382812 -25.046875 17.625 -25.046875 Z M 17.625 -25.046875 "/></g></g></g><g fill="#ffffff" fill-opacity="1"><g transform="translate(133.224734, 58.597682)"><g><path d="M 10.25 -3.515625 C 10.25 -2.515625 9.921875 -1.675781 9.265625 -1 C 8.617188 -0.332031 7.796875 0 6.796875 0 C 5.796875 0 4.96875 -0.332031 4.3125 -1 C 3.664062 -1.675781 3.34375 -2.515625 3.34375 -3.515625 L 3.34375 -27.296875 C 3.34375 -28.296875 3.664062 -29.128906 4.3125 -29.796875 C 4.96875 -30.472656 5.796875 -30.8125 6.796875 -30.8125 C 7.796875 -30.8125 8.617188 -30.472656 9.265625 -29.796875 C 9.921875 -29.128906 10.25 -28.296875 10.25 -27.296875 Z M 6.734375 -34.5625 C 5.429688 -34.5625 4.507812 -34.769531 3.96875 -35.1875 C 3.425781 -35.613281 3.15625 -36.363281 3.15625 -37.4375 L 3.15625 -38.53125 C 3.15625 -39.644531 3.453125 -40.398438 4.046875 -40.796875 C 4.648438 -41.203125 5.566406 -41.40625 6.796875 -41.40625 C 8.140625 -41.40625 9.078125 -41.191406 9.609375 -40.765625 C 10.148438 -40.347656 10.421875 -39.601562 10.421875 -38.53125 L 10.421875 -37.4375 C 10.421875 -36.320312 10.128906 -35.5625 9.546875 -35.15625 C 8.972656 -34.757812 8.035156 -34.5625 6.734375 -34.5625 Z M 6.734375 -34.5625 "/></g></g></g><g fill="#ffffff" fill-opacity="1"><g transform="translate(146.816185, 58.597682)"><g><path d="M 23.390625 -6.328125 C 24.304688 -6.328125 25.070312 -6.03125 25.6875 -5.4375 C 26.300781 -4.84375 26.609375 -4.085938 26.609375 -3.171875 C 26.609375 -2.285156 26.300781 -1.535156 25.6875 -0.921875 C 25.070312 -0.304688 24.304688 0 23.390625 0 L 4.84375 0 C 3.875 0 3.101562 -0.34375 2.53125 -1.03125 C 1.957031 -1.726562 1.691406 -2.421875 1.734375 -3.109375 C 1.765625 -3.679688 1.835938 -4.1875 1.953125 -4.625 C 2.066406 -5.070312 2.359375 -5.582031 2.828125 -6.15625 L 17.15625 -24.703125 L 17.046875 -23.90625 L 5.359375 -23.90625 C 4.429688 -23.90625 3.660156 -24.210938 3.046875 -24.828125 C 2.429688 -25.441406 2.125 -26.207031 2.125 -27.125 C 2.125 -28.007812 2.429688 -28.75 3.046875 -29.34375 C 3.660156 -29.9375 4.429688 -30.234375 5.359375 -30.234375 L 23.09375 -30.234375 C 23.976562 -30.234375 24.726562 -29.90625 25.34375 -29.25 C 25.957031 -28.601562 26.222656 -27.78125 26.140625 -26.78125 C 26.109375 -26.394531 26.039062 -26.007812 25.9375 -25.625 C 25.84375 -25.238281 25.585938 -24.78125 25.171875 -24.25 L 11.0625 -5.984375 L 11.0625 -6.328125 Z M 23.390625 -6.328125 "/></g></g></g><g fill="#ffffff" fill-opacity="1"><g transform="translate(174.690174, 58.597682)"><g><path d="M 18.25 0.578125 C 14.988281 0.578125 12.15625 -0.101562 9.75 -1.46875 C 7.351562 -2.832031 5.507812 -4.6875 4.21875 -7.03125 C 2.9375 -9.375 2.296875 -12.019531 2.296875 -14.96875 C 2.296875 -18.425781 3 -21.375 4.40625 -23.8125 C 5.8125 -26.25 7.644531 -28.117188 9.90625 -29.421875 C 12.164062 -30.734375 14.566406 -31.390625 17.109375 -31.390625 C 19.066406 -31.390625 20.914062 -30.984375 22.65625 -30.171875 C 24.40625 -29.367188 25.953125 -28.265625 27.296875 -26.859375 C 28.640625 -25.460938 29.703125 -23.84375 30.484375 -22 C 31.273438 -20.15625 31.671875 -18.195312 31.671875 -16.125 C 31.640625 -15.207031 31.273438 -14.457031 30.578125 -13.875 C 29.890625 -13.300781 29.082031 -13.015625 28.15625 -13.015625 L 6.15625 -13.015625 L 4.4375 -18.78125 L 25.578125 -18.78125 L 24.296875 -17.625 L 24.296875 -19.171875 C 24.222656 -20.285156 23.832031 -21.285156 23.125 -22.171875 C 22.414062 -23.054688 21.53125 -23.753906 20.46875 -24.265625 C 19.414062 -24.785156 18.296875 -25.046875 17.109375 -25.046875 C 15.953125 -25.046875 14.875 -24.890625 13.875 -24.578125 C 12.875 -24.273438 12.007812 -23.757812 11.28125 -23.03125 C 10.550781 -22.300781 9.972656 -21.320312 9.546875 -20.09375 C 9.128906 -18.863281 8.921875 -17.3125 8.921875 -15.4375 C 8.921875 -13.363281 9.351562 -11.601562 10.21875 -10.15625 C 11.082031 -8.71875 12.195312 -7.625 13.5625 -6.875 C 14.925781 -6.132812 16.375 -5.765625 17.90625 -5.765625 C 19.332031 -5.765625 20.46875 -5.878906 21.3125 -6.109375 C 22.15625 -6.335938 22.832031 -6.613281 23.34375 -6.9375 C 23.863281 -7.257812 24.335938 -7.539062 24.765625 -7.78125 C 25.453125 -8.125 26.101562 -8.296875 26.71875 -8.296875 C 27.5625 -8.296875 28.257812 -8.003906 28.8125 -7.421875 C 29.375 -6.847656 29.65625 -6.175781 29.65625 -5.40625 C 29.65625 -4.375 29.117188 -3.4375 28.046875 -2.59375 C 27.046875 -1.75 25.644531 -1.007812 23.84375 -0.375 C 22.039062 0.257812 20.175781 0.578125 18.25 0.578125 Z M 18.25 0.578125 "/></g></g></g></g></g></g><g clip-path="url(#cf65af0d19)"><g clip-path="url(#d45545b7f6)"><g clip-path="url(#b652405963)"><path fill="#ec671b" d="M 192.75 30.550781 C 192.75 30.550781 185.671875 41.082031 191.382812 44.296875 C 197.089844 47.511719 200.023438 36.609375 192.75 30.550781 Z M 192.75 30.550781 " fill-opacity="1" fill-rule="nonzero"/></g></g></g><g clip-path="url(#400f8c4f97)"><g clip-path="url(#2199480883)"><g clip-path="url(#c624464fc4)"><path fill="#ec671b" d="M 192.800781 31.695312 C 191.90625 33.492188 189.226562 37.429688 190.644531 39.941406 C 192.058594 42.453125 194.726562 41.285156 195.027344 38.75 C 195.324219 36.21875 192.800781 31.695312 192.800781 31.695312 Z M 192.800781 31.695312 " fill-opacity="1" fill-rule="nonzero"/></g></g></g><g clip-path="url(#d027dfb2ce)"><g clip-path="url(#c1d8901cb7)"><g clip-path="url(#b0132b659a)"><path fill="#ffffff" d="M 192.65625 33.027344 C 192.65625 33.027344 190.15625 36.027344 191.238281 37.773438 C 192.324219 39.523438 193.335938 34.679688 192.65625 33.027344 Z M 192.65625 33.027344 " fill-opacity="1" fill-rule="nonzero"/></g></g></g></svg>