<svg xmlns="http://www.w3.org/2000/svg" xmlns:xlink="http://www.w3.org/1999/xlink" width="350" zoomAndPan="magnify" viewBox="0 0 262.5 112.499997" height="150" preserveAspectRatio="xMidYMid meet" version="1.0"><defs><g/><clipPath id="9b9c77984e"><path d="M 0.332031 19 L 261.671875 19 L 261.671875 93 L 0.332031 93 Z M 0.332031 19 " clip-rule="nonzero"/></clipPath><clipPath id="2efea90513"><path d="M 0.570312 2.652344 L 51 2.652344 L 51 64.355469 L 0.570312 64.355469 Z M 0.570312 2.652344 " clip-rule="nonzero"/></clipPath><clipPath id="8c99a77318"><path d="M 0.570312 2.652344 L 51 2.652344 L 51 64.355469 L 0.570312 64.355469 Z M 0.570312 2.652344 " clip-rule="nonzero"/></clipPath><clipPath id="3a373e4797"><rect x="0" width="262" y="0" height="74"/></clipPath><clipPath id="bb041a00f1"><path d="M 189 29 L 198 29 L 198 45 L 189 45 Z M 189 29 " clip-rule="nonzero"/></clipPath><clipPath id="92963722de"><path d="M 191.996094 28.707031 L 201.484375 33.09375 L 195.527344 45.96875 L 186.042969 41.582031 Z M 191.996094 28.707031 " clip-rule="nonzero"/></clipPath><clipPath id="333b993ba4"><path d="M 187.867188 23.941406 L 207.519531 33.03125 L 198.117188 53.363281 L 178.464844 44.273438 Z M 187.867188 23.941406 " clip-rule="nonzero"/></clipPath><clipPath id="b18db49f82"><path d="M 190 31 L 196 31 L 196 41 L 190 41 Z M 190 31 " clip-rule="nonzero"/></clipPath><clipPath id="8d7d2cec1c"><path d="M 191.996094 28.707031 L 201.484375 33.09375 L 195.527344 45.96875 L 186.042969 41.582031 Z M 191.996094 28.707031 " clip-rule="nonzero"/></clipPath><clipPath id="ab7e4fe4b8"><path d="M 187.867188 23.941406 L 207.519531 33.03125 L 198.117188 53.363281 L 178.464844 44.273438 Z M 187.867188 23.941406 " clip-rule="nonzero"/></clipPath><clipPath id="1fbbac8ddf"><path d="M 190 32 L 193 32 L 193 38 L 190 38 Z M 190 32 " clip-rule="nonzero"/></clipPath><clipPath id="bc7a1da0ef"><path d="M 191.996094 28.707031 L 201.484375 33.09375 L 195.527344 45.96875 L 186.042969 41.582031 Z M 191.996094 28.707031 " clip-rule="nonzero"/></clipPath><clipPath id="9fe1ca5689"><path d="M 187.867188 23.941406 L 207.519531 33.03125 L 198.117188 53.363281 L 178.464844 44.273438 Z M 187.867188 23.941406 " clip-rule="nonzero"/></clipPath></defs><g clip-path="url(#9b9c77984e)"><g transform="matrix(1, 0, 0, 1, 0.000000000000000111, 19)"><g clip-path="url(#3a373e4797)"><g clip-path="url(#2efea90513)"><path fill="#30a755" d="M 28.429688 63.929688 C 27.304688 64.066406 26.175781 64.136719 25.0625 64.136719 C 19.664062 64.136719 14.488281 62.554688 10.207031 59.554688 C 5.035156 55.929688 1.789062 50.667969 1.074219 44.742188 C 0.355469 38.8125 2.25 32.929688 6.40625 28.175781 C 9.078125 25.121094 12.476562 22.765625 16.316406 21.261719 C 14.371094 18.058594 11.875 13.609375 11.613281 11.441406 C 11.609375 11.398438 11.621094 11.351562 11.644531 11.316406 C 11.679688 11.269531 12.484375 10.152344 14.457031 10.605469 C 14.519531 10.621094 14.570312 10.667969 14.589844 10.730469 C 14.609375 10.789062 16.042969 15.199219 17.605469 19.054688 C 17.730469 13.457031 19.199219 9.179688 21.980469 6.324219 C 22.769531 5.511719 23.609375 4.882812 24.433594 4.394531 C 24.453125 4.378906 24.476562 4.367188 24.5 4.359375 C 27.429688 2.65625 30.207031 2.714844 30.246094 2.714844 C 30.25 2.714844 30.253906 2.714844 30.257812 2.714844 C 30.261719 2.71875 30.269531 2.71875 30.277344 2.71875 C 30.28125 2.71875 30.289062 2.722656 30.292969 2.722656 C 30.296875 2.726562 30.304688 2.726562 30.308594 2.730469 C 30.316406 2.730469 30.320312 2.734375 30.324219 2.738281 C 30.332031 2.738281 30.335938 2.742188 30.339844 2.746094 C 30.347656 2.75 30.351562 2.753906 30.355469 2.757812 C 30.359375 2.761719 30.363281 2.765625 30.367188 2.769531 C 30.371094 2.769531 30.371094 2.773438 30.371094 2.773438 C 30.375 2.777344 30.378906 2.78125 30.382812 2.785156 C 30.382812 2.789062 30.386719 2.789062 30.390625 2.792969 C 30.390625 2.792969 30.390625 2.796875 30.390625 2.796875 C 30.394531 2.804688 30.398438 2.808594 30.402344 2.816406 C 30.402344 2.820312 30.40625 2.824219 30.410156 2.828125 C 30.410156 2.835938 30.414062 2.84375 30.414062 2.847656 C 30.414062 2.851562 30.417969 2.859375 30.417969 2.863281 C 30.417969 2.871094 30.421875 2.875 30.421875 2.882812 C 30.421875 2.886719 30.421875 2.894531 30.421875 2.898438 C 30.421875 2.902344 30.421875 2.902344 30.421875 2.90625 C 30.335938 4.917969 30.109375 6.71875 29.777344 8.328125 C 29.789062 8.382812 29.777344 8.4375 29.746094 8.480469 C 29.347656 10.363281 28.804688 11.984375 28.179688 13.378906 C 28.179688 13.425781 28.15625 13.472656 28.121094 13.503906 C 27.238281 15.441406 26.195312 16.933594 25.164062 18.074219 C 25.152344 18.089844 25.136719 18.105469 25.117188 18.121094 C 24.699219 18.578125 24.28125 18.980469 23.878906 19.328125 C 23.808594 19.390625 23.738281 19.449219 23.667969 19.503906 C 30.042969 18.875 36.277344 20.441406 41.28125 23.949219 C 46.453125 27.574219 49.699219 32.835938 50.417969 38.761719 C 51.898438 50.992188 42.035156 62.28125 28.429688 63.929688 Z M 28.429688 63.929688 " fill-opacity="1" fill-rule="nonzero"/></g><path fill="#ec671b" d="M 25.058594 63.769531 C 19.695312 63.769531 14.632812 62.207031 10.417969 59.253906 C 5.332031 55.691406 2.140625 50.519531 1.4375 44.695312 C 0.730469 38.871094 2.59375 33.089844 6.679688 28.414062 C 9.292969 25.429688 12.691406 23.066406 16.511719 21.582031 C 16.921875 22.246094 17.339844 22.921875 17.765625 23.585938 C 17.128906 23.945312 16.800781 24.316406 16.660156 24.507812 C 16.078125 24.328125 15.441406 24.238281 14.773438 24.238281 C 14.507812 24.238281 14.234375 24.253906 13.960938 24.28125 C 13.910156 24.285156 13.867188 24.308594 13.835938 24.347656 C 13.804688 24.386719 13.792969 24.433594 13.796875 24.480469 C 13.808594 24.574219 13.886719 24.644531 13.976562 24.644531 C 13.984375 24.644531 13.988281 24.644531 13.996094 24.644531 C 14.261719 24.617188 14.527344 24.605469 14.78125 24.605469 C 15.460938 24.605469 16.101562 24.703125 16.679688 24.894531 C 17.417969 25.140625 17.914062 25.496094 18.199219 25.753906 C 16.882812 25.855469 15.664062 26.375 14.574219 27.308594 C 14.535156 27.339844 14.515625 27.382812 14.511719 27.433594 C 14.507812 27.480469 14.523438 27.527344 14.554688 27.566406 C 14.589844 27.605469 14.640625 27.628906 14.691406 27.628906 C 14.734375 27.628906 14.777344 27.613281 14.8125 27.585938 C 15.875 26.675781 17.058594 26.179688 18.335938 26.109375 C 18.402344 26.105469 18.464844 26.105469 18.523438 26.105469 C 18.550781 26.105469 18.582031 26.105469 18.609375 26.105469 C 19.023438 26.117188 19.40625 26.207031 19.75 26.378906 C 20.554688 26.773438 21.019531 27.523438 21.265625 28.078125 C 21.296875 28.144531 21.359375 28.1875 21.433594 28.1875 C 21.457031 28.1875 21.484375 28.183594 21.507812 28.171875 C 21.597656 28.132812 21.640625 28.023438 21.601562 27.929688 C 21.355469 27.375 20.894531 26.617188 20.097656 26.152344 C 20.308594 25.871094 20.769531 25.328125 21.539062 24.835938 C 22.25 24.382812 23.058594 24.078125 23.941406 23.933594 C 24.207031 23.890625 24.492188 23.867188 24.785156 23.867188 C 25.222656 23.867188 25.691406 23.914062 26.179688 24.011719 C 26.191406 24.015625 26.203125 24.015625 26.214844 24.015625 C 26.300781 24.015625 26.375 23.953125 26.390625 23.867188 C 26.402344 23.820312 26.390625 23.773438 26.363281 23.730469 C 26.339844 23.691406 26.296875 23.664062 26.25 23.652344 C 25.738281 23.554688 25.246094 23.503906 24.785156 23.503906 C 24.472656 23.503906 24.167969 23.527344 23.882812 23.574219 C 23.054688 23.707031 22.28125 23.980469 21.589844 24.378906 C 21.574219 24.042969 21.628906 23.527344 21.976562 22.960938 C 22.238281 22.535156 22.625 22.148438 23.125 21.808594 C 23.238281 21.734375 23.355469 21.660156 23.472656 21.589844 C 23.511719 21.566406 23.542969 21.527344 23.554688 21.480469 C 23.566406 21.433594 23.558594 21.382812 23.535156 21.339844 C 23.503906 21.285156 23.441406 21.253906 23.378906 21.253906 C 23.34375 21.253906 23.3125 21.261719 23.285156 21.277344 C 23.164062 21.351562 23.039062 21.425781 22.921875 21.507812 C 22.414062 21.851562 22.007812 22.246094 21.722656 22.683594 C 20.863281 22.703125 20.074219 22.796875 19.378906 22.96875 C 19.238281 22.710938 19.089844 22.417969 18.933594 22.09375 C 19.933594 21.796875 21.476562 21.183594 23.128906 19.933594 C 24.226562 19.800781 25.335938 19.734375 26.429688 19.734375 C 31.792969 19.734375 36.859375 21.296875 41.074219 24.25 C 46.160156 27.8125 49.347656 32.984375 50.054688 38.808594 C 51.511719 50.835938 41.792969 61.945312 28.386719 63.566406 C 27.28125 63.703125 26.164062 63.769531 25.058594 63.769531 Z M 25.058594 63.769531 " fill-opacity="1" fill-rule="nonzero"/><path fill="#ec671b" d="M 28.386719 63.566406 C 21.890625 64.355469 15.507812 62.824219 10.417969 59.253906 C 5.332031 55.691406 2.140625 50.519531 1.4375 44.695312 C 0.730469 38.875 2.59375 33.089844 6.679688 28.414062 C 9.328125 25.390625 12.703125 23.0625 16.511719 21.582031 C 16.984375 22.351562 17.414062 23.035156 17.765625 23.585938 C 17.128906 23.945312 16.800781 24.316406 16.660156 24.507812 C 15.847656 24.257812 14.941406 24.179688 13.960938 24.28125 C 13.859375 24.289062 13.785156 24.378906 13.796875 24.480469 C 13.808594 24.582031 13.898438 24.65625 13.996094 24.644531 C 14.980469 24.546875 15.882812 24.628906 16.679688 24.894531 C 17.425781 25.144531 17.921875 25.503906 18.199219 25.753906 C 16.886719 25.851562 15.667969 26.375 14.574219 27.308594 C 14.496094 27.371094 14.488281 27.488281 14.554688 27.566406 C 14.589844 27.609375 14.640625 27.628906 14.691406 27.628906 C 14.734375 27.628906 14.777344 27.617188 14.8125 27.585938 C 15.875 26.679688 17.0625 26.183594 18.335938 26.109375 C 18.441406 26.105469 18.53125 26.105469 18.609375 26.105469 C 19.023438 26.117188 19.40625 26.207031 19.75 26.378906 C 19.75 26.378906 19.75 26.378906 19.753906 26.378906 C 20.554688 26.773438 21.019531 27.523438 21.265625 28.078125 C 21.296875 28.148438 21.363281 28.1875 21.433594 28.1875 C 21.457031 28.1875 21.484375 28.183594 21.507812 28.171875 C 21.597656 28.132812 21.640625 28.023438 21.601562 27.929688 C 21.347656 27.363281 20.886719 26.609375 20.101562 26.152344 C 20.296875 25.886719 20.761719 25.332031 21.539062 24.835938 C 22.25 24.382812 23.058594 24.078125 23.941406 23.933594 C 24.609375 23.824219 25.359375 23.851562 26.179688 24.011719 C 26.277344 24.035156 26.375 23.96875 26.394531 23.867188 C 26.414062 23.769531 26.347656 23.671875 26.25 23.652344 C 25.386719 23.484375 24.59375 23.457031 23.882812 23.570312 C 23.050781 23.707031 22.28125 23.980469 21.589844 24.378906 C 21.574219 24.078125 21.617188 23.542969 21.976562 22.960938 C 22.238281 22.535156 22.625 22.148438 23.125 21.8125 C 23.238281 21.734375 23.355469 21.660156 23.472656 21.59375 C 23.558594 21.539062 23.585938 21.429688 23.535156 21.339844 C 23.484375 21.253906 23.371094 21.226562 23.285156 21.277344 C 23.160156 21.351562 23.039062 21.425781 22.921875 21.507812 C 22.410156 21.851562 22.007812 22.246094 21.722656 22.683594 C 20.863281 22.703125 20.078125 22.796875 19.378906 22.96875 C 19.234375 22.699219 19.085938 22.40625 18.933594 22.09375 C 19.914062 21.804688 21.464844 21.191406 23.128906 19.933594 C 24.234375 19.800781 25.335938 19.734375 26.429688 19.734375 C 31.75 19.734375 36.855469 21.292969 41.074219 24.25 C 46.160156 27.8125 49.347656 32.984375 50.054688 38.808594 C 51.511719 50.835938 41.789062 61.941406 28.386719 63.566406 Z M 28.386719 63.566406 " fill-opacity="1" fill-rule="nonzero"/><g clip-path="url(#8c99a77318)"><path fill="#000000" d="M 25.0625 64.136719 C 19.621094 64.136719 14.484375 62.550781 10.207031 59.554688 C 5.035156 55.929688 1.789062 50.667969 1.070312 44.742188 C 0.355469 38.8125 2.246094 32.929688 6.40625 28.175781 C 9.039062 25.160156 12.46875 22.769531 16.316406 21.261719 C 14.316406 17.96875 11.875 13.589844 11.613281 11.441406 C 11.609375 11.398438 11.621094 11.351562 11.644531 11.316406 C 11.667969 11.28125 12.230469 10.496094 13.554688 10.496094 C 13.839844 10.496094 14.144531 10.535156 14.457031 10.605469 C 14.519531 10.621094 14.570312 10.667969 14.589844 10.730469 C 14.605469 10.773438 16.042969 15.191406 17.605469 19.054688 C 17.730469 13.457031 19.203125 9.175781 21.980469 6.324219 C 22.710938 5.574219 23.535156 4.925781 24.433594 4.394531 C 24.453125 4.378906 24.476562 4.367188 24.5 4.359375 C 27.25 2.761719 29.898438 2.714844 30.191406 2.714844 C 30.222656 2.714844 30.242188 2.714844 30.246094 2.714844 L 30.257812 2.714844 C 30.265625 2.714844 30.269531 2.71875 30.277344 2.71875 C 30.28125 2.71875 30.285156 2.722656 30.289062 2.722656 C 30.300781 2.726562 30.304688 2.726562 30.308594 2.730469 C 30.3125 2.730469 30.316406 2.734375 30.324219 2.734375 C 30.332031 2.738281 30.335938 2.742188 30.339844 2.746094 C 30.347656 2.75 30.351562 2.753906 30.355469 2.757812 C 30.359375 2.761719 30.363281 2.765625 30.371094 2.769531 L 30.378906 2.78125 L 30.390625 2.792969 C 30.394531 2.804688 30.398438 2.808594 30.402344 2.816406 C 30.40625 2.820312 30.40625 2.824219 30.410156 2.828125 C 30.410156 2.835938 30.414062 2.839844 30.414062 2.84375 C 30.417969 2.855469 30.417969 2.859375 30.417969 2.863281 C 30.421875 2.871094 30.421875 2.875 30.421875 2.882812 C 30.421875 2.890625 30.421875 2.894531 30.421875 2.898438 C 30.339844 4.820312 30.125 6.648438 29.777344 8.328125 C 29.789062 8.382812 29.777344 8.4375 29.746094 8.480469 C 29.371094 10.246094 28.84375 11.894531 28.179688 13.378906 C 28.179688 13.425781 28.15625 13.472656 28.121094 13.507812 C 27.328125 15.25 26.332031 16.785156 25.164062 18.074219 C 25.152344 18.09375 25.136719 18.109375 25.117188 18.121094 C 24.71875 18.554688 24.300781 18.964844 23.878906 19.328125 C 23.808594 19.390625 23.738281 19.445312 23.671875 19.503906 C 24.585938 19.414062 25.511719 19.367188 26.429688 19.367188 C 31.871094 19.367188 37.007812 20.953125 41.28125 23.949219 C 46.457031 27.574219 49.699219 32.835938 50.417969 38.761719 C 51.898438 50.992188 42.035156 62.28125 28.429688 63.929688 C 27.3125 64.066406 26.175781 64.136719 25.0625 64.136719 Z M 16.511719 21.582031 C 12.691406 23.066406 9.292969 25.429688 6.679688 28.417969 C 2.59375 33.089844 0.730469 38.875 1.4375 44.695312 C 2.140625 50.519531 5.332031 55.6875 10.417969 59.253906 C 14.632812 62.207031 19.695312 63.769531 25.058594 63.769531 C 26.164062 63.769531 27.28125 63.699219 28.386719 63.566406 C 41.789062 61.941406 51.507812 50.835938 50.050781 38.808594 C 49.347656 32.984375 46.15625 27.8125 41.070312 24.25 C 36.859375 21.296875 31.792969 19.734375 26.429688 19.734375 C 25.335938 19.734375 24.226562 19.800781 23.128906 19.933594 C 21.476562 21.183594 19.933594 21.796875 18.933594 22.09375 C 19.089844 22.417969 19.242188 22.710938 19.378906 22.96875 C 20.074219 22.796875 20.863281 22.703125 21.722656 22.683594 C 22.007812 22.246094 22.410156 21.851562 22.921875 21.507812 C 23.039062 21.425781 23.160156 21.347656 23.285156 21.277344 C 23.3125 21.257812 23.34375 21.25 23.378906 21.25 C 23.441406 21.25 23.503906 21.285156 23.535156 21.339844 C 23.5625 21.382812 23.570312 21.433594 23.554688 21.480469 C 23.542969 21.527344 23.515625 21.566406 23.472656 21.59375 C 23.355469 21.664062 23.238281 21.734375 23.125 21.8125 C 22.625 22.148438 22.238281 22.535156 21.976562 22.960938 C 21.628906 23.527344 21.574219 24.042969 21.589844 24.378906 C 22.28125 23.980469 23.054688 23.707031 23.882812 23.570312 C 24.167969 23.523438 24.472656 23.5 24.785156 23.5 C 25.246094 23.5 25.738281 23.550781 26.25 23.652344 C 26.296875 23.664062 26.339844 23.691406 26.367188 23.730469 C 26.394531 23.773438 26.402344 23.820312 26.394531 23.867188 C 26.375 23.953125 26.300781 24.015625 26.214844 24.015625 C 26.203125 24.015625 26.191406 24.015625 26.179688 24.011719 C 25.691406 23.917969 25.222656 23.867188 24.785156 23.867188 C 24.492188 23.867188 24.207031 23.890625 23.941406 23.933594 C 23.058594 24.078125 22.25 24.382812 21.539062 24.835938 C 20.773438 25.328125 20.308594 25.871094 20.101562 26.152344 C 20.894531 26.613281 21.355469 27.375 21.601562 27.929688 C 21.640625 28.023438 21.601562 28.132812 21.507812 28.171875 C 21.484375 28.183594 21.457031 28.1875 21.433594 28.1875 C 21.359375 28.1875 21.292969 28.144531 21.265625 28.078125 C 21.019531 27.523438 20.554688 26.773438 19.75 26.378906 C 19.40625 26.210938 19.023438 26.117188 18.609375 26.105469 C 18.582031 26.105469 18.550781 26.105469 18.523438 26.105469 C 18.464844 26.105469 18.402344 26.109375 18.335938 26.109375 C 17.0625 26.183594 15.875 26.679688 14.8125 27.585938 C 14.777344 27.613281 14.734375 27.628906 14.691406 27.628906 C 14.636719 27.628906 14.585938 27.605469 14.550781 27.566406 C 14.519531 27.527344 14.503906 27.480469 14.507812 27.433594 C 14.511719 27.382812 14.535156 27.339844 14.574219 27.308594 C 15.664062 26.375 16.882812 25.851562 18.199219 25.753906 C 17.914062 25.5 17.417969 25.144531 16.679688 24.894531 C 16.101562 24.703125 15.460938 24.605469 14.78125 24.605469 C 14.527344 24.605469 14.261719 24.617188 13.996094 24.644531 C 13.988281 24.648438 13.984375 24.648438 13.976562 24.648438 C 13.882812 24.648438 13.804688 24.574219 13.796875 24.480469 C 13.789062 24.433594 13.804688 24.386719 13.835938 24.347656 C 13.867188 24.308594 13.910156 24.285156 13.960938 24.28125 C 14.234375 24.253906 14.507812 24.238281 14.773438 24.238281 C 15.441406 24.238281 16.078125 24.328125 16.660156 24.507812 C 16.796875 24.316406 17.128906 23.945312 17.765625 23.585938 C 17.339844 22.921875 16.917969 22.246094 16.511719 21.582031 Z M 13.554688 10.863281 C 12.597656 10.863281 12.113281 11.332031 11.988281 11.472656 C 12.386719 14.273438 16.453125 20.855469 18.179688 23.554688 C 18.207031 23.597656 18.21875 23.652344 18.203125 23.703125 C 18.191406 23.753906 18.15625 23.792969 18.109375 23.816406 C 17.539062 24.109375 17.207031 24.421875 17.027344 24.632812 C 18 25.007812 18.523438 25.535156 18.707031 25.742188 C 19.082031 25.761719 19.441406 25.84375 19.769531 25.984375 C 19.933594 25.75 20.410156 25.148438 21.238281 24.59375 C 21.199219 24.3125 21.179688 23.734375 21.507812 23.054688 C 20.710938 23.085938 19.980469 23.1875 19.332031 23.359375 C 19.320312 23.363281 19.304688 23.367188 19.285156 23.367188 C 19.21875 23.367188 19.160156 23.328125 19.125 23.269531 C 18.953125 22.957031 18.769531 22.597656 18.574219 22.195312 C 18.152344 22.300781 17.894531 22.335938 17.867188 22.339844 C 17.859375 22.339844 17.851562 22.339844 17.84375 22.339844 C 17.824219 22.339844 17.800781 22.335938 17.78125 22.328125 C 17.761719 22.324219 17.75 22.3125 17.730469 22.300781 C 17.71875 22.289062 17.714844 22.285156 17.707031 22.28125 L 17.699219 22.265625 C 17.695312 22.261719 17.691406 22.257812 17.6875 22.253906 L 17.679688 22.238281 C 17.675781 22.230469 17.675781 22.222656 17.671875 22.21875 L 17.667969 22.203125 C 17.664062 22.195312 17.664062 22.1875 17.664062 22.175781 C 17.664062 22.175781 17.660156 22.164062 17.660156 22.164062 C 17.621094 21.441406 17.597656 20.710938 17.59375 19.996094 C 16.046875 16.300781 14.554688 11.804688 14.273438 10.941406 C 14.023438 10.890625 13.78125 10.863281 13.554688 10.863281 Z M 19.394531 18.96875 C 18.769531 20.355469 18.339844 21.410156 18.136719 21.917969 C 19.015625 21.726562 21.3125 21.066406 23.65625 19.035156 C 23.941406 18.789062 24.226562 18.519531 24.507812 18.234375 Z M 18.40625 14.632812 C 18.035156 16.621094 17.898438 18.867188 17.988281 21.304688 C 18.210938 20.753906 18.585938 19.871094 19.074219 18.785156 Z M 21.53125 14.589844 C 20.859375 15.863281 20.203125 17.203125 19.574219 18.570312 L 24.910156 17.804688 C 25.988281 16.613281 26.917969 15.203125 27.671875 13.609375 Z M 20.460938 8.914062 C 19.652344 10.269531 19.03125 11.855469 18.613281 13.628906 L 19.351562 18.1875 C 19.949219 16.890625 20.574219 15.617188 21.214844 14.410156 Z M 24.265625 9.898438 C 23.425781 11.1875 22.578125 12.632812 21.746094 14.183594 L 27.855469 13.207031 C 28.476562 11.820312 28.972656 10.277344 29.335938 8.625 Z M 24.34375 4.882812 C 23.578125 5.363281 22.871094 5.9375 22.238281 6.585938 C 21.703125 7.136719 21.207031 7.757812 20.765625 8.429688 L 21.507812 13.859375 C 22.316406 12.355469 23.144531 10.957031 23.960938 9.699219 Z M 30.035156 3.269531 C 28.265625 4.582031 26.425781 6.660156 24.566406 9.445312 L 29.421875 8.222656 C 29.738281 6.683594 29.945312 5.019531 30.035156 3.269531 Z M 29.644531 3.105469 C 28.675781 3.183594 26.75 3.488281 24.730469 4.648438 L 24.378906 9.070312 C 26.164062 6.425781 27.933594 4.417969 29.644531 3.105469 Z M 29.644531 3.105469 " fill-opacity="1" fill-rule="nonzero"/><path fill="#000000" d="M 50.417969 38.761719 C 49.699219 32.835938 46.453125 27.574219 41.28125 23.949219 C 36.277344 20.441406 30.042969 18.875 23.667969 19.503906 C 23.738281 19.449219 23.808594 19.390625 23.878906 19.328125 C 24.28125 18.980469 24.699219 18.578125 25.117188 18.121094 C 25.136719 18.105469 25.152344 18.089844 25.164062 18.074219 C 26.195312 16.933594 27.238281 15.441406 28.121094 13.503906 C 28.15625 13.472656 28.179688 13.425781 28.179688 13.378906 C 28.804688 11.984375 29.347656 10.363281 29.746094 8.480469 C 29.777344 8.4375 29.789062 8.382812 29.777344 8.328125 C 30.109375 6.71875 30.335938 4.917969 30.421875 2.90625 C 30.421875 2.902344 30.421875 2.902344 30.421875 2.898438 C 30.421875 2.894531 30.421875 2.886719 30.421875 2.882812 C 30.421875 2.875 30.417969 2.871094 30.417969 2.863281 C 30.417969 2.859375 30.414062 2.851562 30.414062 2.847656 C 30.414062 2.84375 30.410156 2.835938 30.410156 2.828125 C 30.40625 2.824219 30.402344 2.820312 30.402344 2.816406 C 30.398438 2.808594 30.394531 2.804688 30.390625 2.796875 C 30.390625 2.796875 30.390625 2.792969 30.390625 2.792969 C 30.386719 2.789062 30.382812 2.789062 30.382812 2.785156 C 30.378906 2.78125 30.375 2.777344 30.371094 2.773438 C 30.371094 2.773438 30.371094 2.769531 30.367188 2.769531 C 30.363281 2.765625 30.359375 2.761719 30.355469 2.757812 C 30.351562 2.753906 30.347656 2.75 30.339844 2.746094 C 30.335938 2.742188 30.332031 2.742188 30.324219 2.738281 C 30.320312 2.734375 30.316406 2.730469 30.308594 2.730469 C 30.304688 2.726562 30.296875 2.726562 30.292969 2.722656 C 30.289062 2.722656 30.28125 2.71875 30.277344 2.71875 C 30.269531 2.71875 30.261719 2.71875 30.257812 2.714844 C 30.253906 2.714844 30.25 2.714844 30.246094 2.714844 C 30.207031 2.714844 27.429688 2.65625 24.5 4.359375 C 24.476562 4.367188 24.453125 4.378906 24.433594 4.394531 C 23.609375 4.882812 22.769531 5.511719 21.980469 6.324219 C 19.199219 9.179688 17.730469 13.457031 17.601562 19.054688 C 16.042969 15.199219 14.609375 10.789062 14.589844 10.730469 C 14.570312 10.667969 14.519531 10.621094 14.457031 10.605469 C 12.484375 10.152344 11.679688 11.269531 11.644531 11.316406 C 11.621094 11.351562 11.609375 11.398438 11.613281 11.441406 C 11.875 13.609375 14.371094 18.058594 16.316406 21.261719 C 12.476562 22.765625 9.078125 25.121094 6.40625 28.175781 C 2.25 32.929688 0.355469 38.8125 1.074219 44.742188 C 1.789062 50.667969 5.035156 55.929688 10.207031 59.554688 C 14.488281 62.554688 19.664062 64.136719 25.0625 64.136719 C 26.175781 64.136719 27.304688 64.066406 28.429688 63.929688 C 42.035156 62.28125 51.898438 50.992188 50.417969 38.761719 Z M 10.417969 59.253906 C 5.332031 55.691406 2.140625 50.519531 1.4375 44.695312 C 0.730469 38.875 2.59375 33.089844 6.679688 28.414062 C 9.328125 25.390625 12.703125 23.0625 16.511719 21.582031 C 16.984375 22.351562 17.414062 23.035156 17.765625 23.585938 C 17.128906 23.945312 16.800781 24.316406 16.660156 24.507812 C 15.847656 24.257812 14.941406 24.179688 13.960938 24.28125 C 13.859375 24.289062 13.785156 24.378906 13.796875 24.480469 C 13.808594 24.582031 13.898438 24.65625 13.996094 24.644531 C 14.980469 24.546875 15.882812 24.628906 16.679688 24.894531 C 17.425781 25.144531 17.921875 25.503906 18.199219 25.753906 C 16.886719 25.851562 15.667969 26.375 14.574219 27.308594 C 14.496094 27.371094 14.488281 27.488281 14.554688 27.566406 C 14.589844 27.609375 14.640625 27.628906 14.691406 27.628906 C 14.734375 27.628906 14.777344 27.617188 14.8125 27.585938 C 15.875 26.679688 17.0625 26.183594 18.335938 26.109375 C 18.441406 26.105469 18.53125 26.105469 18.609375 26.105469 C 19.023438 26.117188 19.40625 26.207031 19.75 26.378906 C 19.75 26.378906 19.75 26.378906 19.753906 26.378906 C 20.554688 26.773438 21.019531 27.523438 21.265625 28.078125 C 21.296875 28.148438 21.363281 28.1875 21.433594 28.1875 C 21.457031 28.1875 21.484375 28.183594 21.507812 28.171875 C 21.597656 28.132812 21.640625 28.023438 21.601562 27.929688 C 21.347656 27.363281 20.886719 26.609375 20.101562 26.152344 C 20.296875 25.886719 20.761719 25.332031 21.539062 24.835938 C 22.25 24.382812 23.058594 24.078125 23.941406 23.933594 C 24.609375 23.824219 25.359375 23.851562 26.179688 24.011719 C 26.277344 24.035156 26.375 23.96875 26.394531 23.867188 C 26.414062 23.769531 26.347656 23.671875 26.25 23.652344 C 25.386719 23.484375 24.59375 23.457031 23.882812 23.570312 C 23.050781 23.707031 22.28125 23.980469 21.589844 24.378906 C 21.574219 24.078125 21.617188 23.542969 21.976562 22.960938 C 22.238281 22.535156 22.625 22.148438 23.125 21.8125 C 23.238281 21.734375 23.355469 21.660156 23.472656 21.59375 C 23.558594 21.539062 23.585938 21.429688 23.535156 21.339844 C 23.484375 21.253906 23.371094 21.226562 23.285156 21.277344 C 23.160156 21.351562 23.039062 21.425781 22.921875 21.507812 C 22.410156 21.851562 22.007812 22.246094 21.722656 22.683594 C 20.863281 22.703125 20.078125 22.796875 19.378906 22.96875 C 19.234375 22.699219 19.085938 22.40625 18.933594 22.09375 C 19.914062 21.804688 21.464844 21.191406 23.128906 19.933594 C 24.234375 19.800781 25.335938 19.734375 26.429688 19.734375 C 31.75 19.734375 36.855469 21.292969 41.074219 24.25 C 46.160156 27.8125 49.347656 32.984375 50.054688 38.808594 C 51.511719 50.835938 41.789062 61.941406 28.386719 63.566406 C 21.890625 64.355469 15.507812 62.824219 10.417969 59.253906 Z M 14.273438 10.941406 C 14.515625 11.675781 16.035156 16.269531 17.59375 19.996094 C 17.597656 20.699219 17.617188 21.421875 17.660156 22.164062 C 17.660156 22.167969 17.660156 22.167969 17.660156 22.167969 C 17.660156 22.171875 17.664062 22.175781 17.664062 22.175781 C 17.664062 22.1875 17.664062 22.195312 17.667969 22.203125 C 17.667969 22.207031 17.671875 22.210938 17.671875 22.214844 C 17.675781 22.222656 17.675781 22.230469 17.679688 22.234375 C 17.683594 22.242188 17.683594 22.246094 17.6875 22.25 C 17.691406 22.257812 17.695312 22.261719 17.699219 22.265625 C 17.703125 22.269531 17.707031 22.273438 17.710938 22.28125 C 17.714844 22.285156 17.71875 22.289062 17.722656 22.292969 C 17.726562 22.296875 17.726562 22.296875 17.726562 22.296875 C 17.730469 22.300781 17.730469 22.300781 17.730469 22.300781 C 17.746094 22.3125 17.761719 22.320312 17.78125 22.328125 C 17.800781 22.335938 17.824219 22.339844 17.84375 22.339844 C 17.851562 22.339844 17.859375 22.339844 17.867188 22.339844 C 17.902344 22.335938 18.15625 22.300781 18.574219 22.191406 C 18.761719 22.582031 18.949219 22.945312 19.125 23.269531 C 19.167969 23.34375 19.253906 23.378906 19.332031 23.359375 C 19.980469 23.1875 20.710938 23.085938 21.507812 23.054688 C 21.175781 23.746094 21.203125 24.339844 21.238281 24.597656 C 20.421875 25.140625 19.953125 25.722656 19.769531 25.984375 C 19.4375 25.84375 19.082031 25.761719 18.703125 25.742188 C 18.539062 25.550781 18.007812 25.011719 17.027344 24.632812 C 17.191406 24.4375 17.523438 24.117188 18.109375 23.816406 C 18.15625 23.792969 18.1875 23.75 18.203125 23.703125 C 18.214844 23.652344 18.207031 23.597656 18.179688 23.554688 C 16.441406 20.84375 12.386719 14.269531 11.988281 11.472656 C 12.15625 11.28125 12.835938 10.644531 14.273438 10.941406 Z M 18.40625 14.628906 L 19.074219 18.785156 C 18.59375 19.851562 18.226562 20.722656 17.988281 21.304688 C 17.894531 18.847656 18.035156 16.621094 18.40625 14.628906 Z M 23.65625 19.035156 C 21.289062 21.085938 18.960938 21.738281 18.136719 21.917969 C 18.332031 21.421875 18.765625 20.359375 19.394531 18.96875 L 24.507812 18.230469 C 24.222656 18.527344 23.933594 18.792969 23.65625 19.035156 Z M 29.648438 3.105469 C 27.75 4.558594 25.964844 6.722656 24.378906 9.070312 L 24.730469 4.648438 C 26.761719 3.480469 28.707031 3.179688 29.648438 3.105469 Z M 29.421875 8.226562 L 24.566406 9.445312 C 26.203125 6.988281 28.0625 4.730469 30.035156 3.269531 C 29.941406 5.097656 29.726562 6.742188 29.421875 8.226562 Z M 24.265625 9.894531 L 29.339844 8.625 C 28.953125 10.378906 28.441406 11.898438 27.855469 13.210938 L 21.746094 14.183594 C 22.5 12.777344 23.347656 11.3125 24.265625 9.894531 Z M 27.671875 13.609375 C 26.835938 15.371094 25.871094 16.742188 24.914062 17.804688 L 19.574219 18.570312 C 20.109375 17.402344 20.769531 16.035156 21.53125 14.589844 Z M 19.351562 18.1875 L 18.613281 13.628906 C 19.03125 11.851562 19.644531 10.277344 20.460938 8.914062 L 21.214844 14.410156 C 20.496094 15.769531 19.871094 17.0625 19.351562 18.1875 Z M 23.960938 9.699219 C 23.066406 11.074219 22.246094 12.492188 21.507812 13.859375 L 20.761719 8.429688 C 21.203125 7.761719 21.695312 7.144531 22.238281 6.585938 C 22.917969 5.886719 23.632812 5.328125 24.34375 4.878906 Z M 23.960938 9.699219 " fill-opacity="1" fill-rule="nonzero"/></g><path fill="#30a755" d="M 19.765625 25.984375 C 19.4375 25.84375 19.082031 25.761719 18.703125 25.746094 C 18.523438 25.535156 18 25.007812 17.027344 24.632812 C 17.207031 24.421875 17.535156 24.109375 18.109375 23.816406 C 18.15625 23.792969 18.1875 23.75 18.203125 23.703125 C 18.214844 23.652344 18.207031 23.597656 18.179688 23.554688 C 16.449219 20.855469 12.386719 14.273438 11.988281 11.472656 C 12.113281 11.332031 12.59375 10.863281 13.554688 10.863281 C 13.78125 10.863281 14.023438 10.890625 14.273438 10.941406 C 14.558594 11.804688 16.050781 16.300781 17.59375 19.996094 C 17.597656 20.710938 17.621094 21.441406 17.664062 22.164062 L 17.664062 22.175781 C 17.664062 22.1875 17.664062 22.195312 17.667969 22.203125 L 17.671875 22.214844 C 17.675781 22.222656 17.675781 22.230469 17.679688 22.234375 L 17.6875 22.246094 C 17.691406 22.257812 17.695312 22.261719 17.699219 22.265625 L 17.707031 22.277344 C 17.714844 22.285156 17.71875 22.289062 17.722656 22.292969 C 17.75 22.3125 17.765625 22.320312 17.78125 22.328125 C 17.800781 22.335938 17.824219 22.339844 17.84375 22.339844 C 17.851562 22.339844 17.859375 22.339844 17.867188 22.339844 C 17.894531 22.335938 18.152344 22.300781 18.574219 22.191406 C 18.769531 22.59375 18.953125 22.957031 19.128906 23.269531 C 19.160156 23.328125 19.21875 23.363281 19.285156 23.363281 C 19.300781 23.363281 19.320312 23.363281 19.332031 23.359375 C 19.980469 23.1875 20.710938 23.085938 21.507812 23.054688 C 21.179688 23.734375 21.199219 24.3125 21.238281 24.597656 C 20.410156 25.148438 19.933594 25.75 19.769531 25.984375 C 19.769531 25.984375 19.769531 25.984375 19.765625 25.984375 Z M 18.136719 21.917969 C 18.335938 21.410156 18.769531 20.355469 19.394531 18.964844 L 24.507812 18.230469 C 24.226562 18.519531 23.941406 18.789062 23.65625 19.039062 C 21.3125 21.070312 19.015625 21.726562 18.136719 21.917969 Z M 17.988281 21.304688 C 17.894531 18.867188 18.035156 16.621094 18.402344 14.628906 L 19.078125 18.785156 C 18.585938 19.871094 18.214844 20.753906 17.988281 21.308594 C 17.988281 21.308594 17.988281 21.308594 17.988281 21.304688 Z M 19.574219 18.570312 C 20.203125 17.203125 20.859375 15.863281 21.53125 14.589844 L 27.671875 13.609375 C 26.917969 15.203125 25.992188 16.613281 24.914062 17.804688 Z M 19.351562 18.1875 L 18.613281 13.628906 C 19.027344 11.855469 19.648438 10.269531 20.460938 8.914062 L 21.214844 14.410156 C 20.578125 15.621094 19.949219 16.890625 19.351562 18.1875 Z M 21.746094 14.183594 C 22.578125 12.632812 23.425781 11.1875 24.265625 9.894531 L 29.339844 8.625 C 28.976562 10.277344 28.476562 11.820312 27.855469 13.210938 L 21.746094 14.1875 C 21.746094 14.1875 21.746094 14.183594 21.746094 14.183594 Z M 21.507812 13.859375 L 20.761719 8.429688 C 21.207031 7.757812 21.703125 7.136719 22.238281 6.585938 C 22.871094 5.933594 23.578125 5.359375 24.34375 4.878906 L 23.960938 9.699219 C 23.144531 10.957031 22.320312 12.355469 21.507812 13.859375 Z M 24.566406 9.445312 C 26.425781 6.65625 28.265625 4.582031 30.035156 3.269531 C 29.945312 5.015625 29.738281 6.683594 29.425781 8.226562 Z M 24.378906 9.070312 L 24.730469 4.648438 C 26.75 3.484375 28.675781 3.183594 29.648438 3.105469 C 27.9375 4.417969 26.164062 6.425781 24.378906 9.070312 Z M 24.378906 9.070312 " fill-opacity="1" fill-rule="nonzero"/><path fill="#30a755" d="M 11.988281 11.472656 C 12.15625 11.28125 12.835938 10.644531 14.273438 10.941406 C 14.515625 11.675781 16.035156 16.269531 17.59375 19.996094 C 17.597656 20.699219 17.617188 21.421875 17.660156 22.164062 C 17.660156 22.167969 17.660156 22.167969 17.660156 22.167969 C 17.660156 22.171875 17.664062 22.175781 17.664062 22.175781 C 17.664062 22.1875 17.664062 22.195312 17.667969 22.203125 C 17.667969 22.207031 17.671875 22.210938 17.671875 22.214844 C 17.675781 22.222656 17.675781 22.230469 17.679688 22.234375 C 17.683594 22.242188 17.683594 22.246094 17.6875 22.25 C 17.691406 22.257812 17.695312 22.261719 17.699219 22.265625 C 17.703125 22.269531 17.707031 22.273438 17.710938 22.28125 C 17.714844 22.285156 17.71875 22.289062 17.722656 22.292969 C 17.726562 22.296875 17.726562 22.296875 17.726562 22.296875 C 17.730469 22.300781 17.730469 22.300781 17.730469 22.300781 C 17.746094 22.3125 17.761719 22.320312 17.78125 22.328125 C 17.800781 22.335938 17.824219 22.339844 17.84375 22.339844 C 17.851562 22.339844 17.859375 22.339844 17.867188 22.339844 C 17.902344 22.335938 18.15625 22.300781 18.574219 22.191406 C 18.761719 22.582031 18.949219 22.945312 19.125 23.269531 C 19.167969 23.34375 19.253906 23.378906 19.332031 23.359375 C 19.980469 23.1875 20.710938 23.085938 21.507812 23.054688 C 21.175781 23.746094 21.203125 24.339844 21.238281 24.597656 C 20.421875 25.140625 19.953125 25.722656 19.769531 25.984375 C 19.4375 25.84375 19.082031 25.761719 18.703125 25.742188 C 18.539062 25.550781 18.007812 25.011719 17.027344 24.632812 C 17.191406 24.4375 17.523438 24.117188 18.109375 23.816406 C 18.15625 23.792969 18.1875 23.75 18.203125 23.703125 C 18.214844 23.652344 18.207031 23.597656 18.179688 23.554688 C 16.441406 20.84375 12.386719 14.269531 11.988281 11.472656 Z M 18.613281 13.628906 L 19.351562 18.1875 C 19.871094 17.0625 20.496094 15.769531 21.214844 14.410156 L 20.460938 8.914062 C 19.644531 10.277344 19.03125 11.851562 18.613281 13.628906 Z M 29.648438 3.105469 C 28.707031 3.179688 26.761719 3.480469 24.730469 4.648438 L 24.378906 9.070312 C 25.964844 6.722656 27.75 4.558594 29.648438 3.105469 Z M 27.855469 13.210938 C 28.441406 11.898438 28.953125 10.378906 29.339844 8.625 L 24.265625 9.894531 C 23.347656 11.3125 22.5 12.777344 21.746094 14.183594 Z M 24.566406 9.445312 L 29.421875 8.226562 C 29.726562 6.742188 29.941406 5.097656 30.035156 3.269531 C 28.0625 4.730469 26.203125 6.988281 24.566406 9.445312 Z M 19.394531 18.96875 C 18.765625 20.359375 18.332031 21.421875 18.136719 21.917969 C 18.960938 21.738281 21.289062 21.085938 23.65625 19.035156 C 23.933594 18.792969 24.222656 18.527344 24.507812 18.230469 Z M 24.914062 17.804688 C 25.871094 16.742188 26.835938 15.371094 27.671875 13.609375 L 21.53125 14.589844 C 20.769531 16.035156 20.109375 17.402344 19.574219 18.570312 Z M 20.761719 8.429688 L 21.507812 13.859375 C 22.246094 12.492188 23.066406 11.074219 23.960938 9.699219 L 24.34375 4.878906 C 23.632812 5.328125 22.917969 5.886719 22.238281 6.585938 C 21.695312 7.144531 21.203125 7.761719 20.761719 8.429688 Z M 17.988281 21.304688 C 18.226562 20.722656 18.59375 19.851562 19.074219 18.785156 L 18.40625 14.628906 C 18.035156 16.621094 17.894531 18.847656 17.988281 21.304688 Z M 17.988281 21.304688 " fill-opacity="1" fill-rule="nonzero"/><g fill="#000000" fill-opacity="1"><g transform="translate(53.996093, 58.597682)"><g><path d="M 7.203125 0 C 6.203125 0 5.375 -0.332031 4.71875 -1 C 4.070312 -1.675781 3.75 -2.515625 3.75 -3.515625 L 3.75 -27.296875 C 3.75 -28.296875 4.070312 -29.128906 4.71875 -29.796875 C 5.375 -30.472656 6.203125 -30.8125 7.203125 -30.8125 C 8.203125 -30.8125 9.023438 -30.472656 9.671875 -29.796875 C 10.328125 -29.128906 10.65625 -28.296875 10.65625 -27.296875 L 10.65625 -21.890625 L 10.25 -25.75 C 10.675781 -26.664062 11.222656 -27.476562 11.890625 -28.1875 C 12.566406 -28.894531 13.328125 -29.488281 14.171875 -29.96875 C 15.015625 -30.457031 15.914062 -30.816406 16.875 -31.046875 C 17.832031 -31.273438 18.789062 -31.390625 19.75 -31.390625 C 20.90625 -31.390625 21.875 -31.0625 22.65625 -30.40625 C 23.445312 -29.757812 23.84375 -28.992188 23.84375 -28.109375 C 23.84375 -26.835938 23.515625 -25.921875 22.859375 -25.359375 C 22.210938 -24.804688 21.503906 -24.53125 20.734375 -24.53125 C 20.003906 -24.53125 19.34375 -24.664062 18.75 -24.9375 C 18.15625 -25.207031 17.472656 -25.34375 16.703125 -25.34375 C 16.015625 -25.34375 15.3125 -25.175781 14.59375 -24.84375 C 13.882812 -24.519531 13.234375 -24.007812 12.640625 -23.3125 C 12.046875 -22.625 11.566406 -21.769531 11.203125 -20.75 C 10.835938 -19.738281 10.65625 -18.539062 10.65625 -17.15625 L 10.65625 -3.515625 C 10.65625 -2.515625 10.328125 -1.675781 9.671875 -1 C 9.023438 -0.332031 8.203125 0 7.203125 0 Z M 7.203125 0 "/></g></g><g transform="translate(78.990534, 58.597682)"><g><path d="M 28.96875 -31.390625 C 29.96875 -31.390625 30.789062 -31.0625 31.4375 -30.40625 C 32.09375 -29.757812 32.421875 -28.914062 32.421875 -27.875 L 32.421875 -3.515625 C 32.421875 -2.515625 32.09375 -1.675781 31.4375 -1 C 30.789062 -0.332031 29.96875 0 28.96875 0 C 27.96875 0 27.140625 -0.332031 26.484375 -1 C 25.835938 -1.675781 25.515625 -2.515625 25.515625 -3.515625 L 25.515625 -6.328125 L 26.78125 -5.8125 C 26.78125 -5.3125 26.507812 -4.707031 25.96875 -4 C 25.4375 -3.289062 24.707031 -2.585938 23.78125 -1.890625 C 22.863281 -1.203125 21.78125 -0.617188 20.53125 -0.140625 C 19.28125 0.335938 17.925781 0.578125 16.46875 0.578125 C 13.820312 0.578125 11.421875 -0.101562 9.265625 -1.46875 C 7.117188 -2.832031 5.421875 -4.710938 4.171875 -7.109375 C 2.921875 -9.515625 2.296875 -12.269531 2.296875 -15.375 C 2.296875 -18.519531 2.921875 -21.289062 4.171875 -23.6875 C 5.421875 -26.09375 7.097656 -27.976562 9.203125 -29.34375 C 11.316406 -30.707031 13.660156 -31.390625 16.234375 -31.390625 C 17.890625 -31.390625 19.40625 -31.140625 20.78125 -30.640625 C 22.164062 -30.140625 23.367188 -29.503906 24.390625 -28.734375 C 25.410156 -27.972656 26.195312 -27.195312 26.75 -26.40625 C 27.3125 -25.613281 27.59375 -24.953125 27.59375 -24.421875 L 25.515625 -23.671875 L 25.515625 -27.875 C 25.515625 -28.875 25.835938 -29.707031 26.484375 -30.375 C 27.140625 -31.050781 27.96875 -31.390625 28.96875 -31.390625 Z M 17.328125 -5.765625 C 19.023438 -5.765625 20.503906 -6.1875 21.765625 -7.03125 C 23.035156 -7.875 24.023438 -9.023438 24.734375 -10.484375 C 25.441406 -11.941406 25.796875 -13.570312 25.796875 -15.375 C 25.796875 -17.21875 25.441406 -18.867188 24.734375 -20.328125 C 24.023438 -21.785156 23.035156 -22.9375 21.765625 -23.78125 C 20.503906 -24.625 19.023438 -25.046875 17.328125 -25.046875 C 15.679688 -25.046875 14.222656 -24.625 12.953125 -23.78125 C 11.691406 -22.9375 10.703125 -21.785156 9.984375 -20.328125 C 9.273438 -18.867188 8.921875 -17.21875 8.921875 -15.375 C 8.921875 -13.570312 9.273438 -11.941406 9.984375 -10.484375 C 10.703125 -9.023438 11.691406 -7.875 12.953125 -7.03125 C 14.222656 -6.1875 15.679688 -5.765625 17.328125 -5.765625 Z M 17.328125 -5.765625 "/></g></g><g transform="translate(115.157606, 58.597682)"><g><path d="M 20.21875 -31.390625 C 23.0625 -31.390625 25.21875 -30.789062 26.6875 -29.59375 C 28.164062 -28.40625 29.179688 -26.820312 29.734375 -24.84375 C 30.296875 -22.875 30.578125 -20.675781 30.578125 -18.25 L 30.578125 -3.515625 C 30.578125 -2.515625 30.25 -1.675781 29.59375 -1 C 28.945312 -0.332031 28.125 0 27.125 0 C 26.125 0 25.296875 -0.332031 24.640625 -1 C 23.992188 -1.675781 23.671875 -2.515625 23.671875 -3.515625 L 23.671875 -18.25 C 23.671875 -19.519531 23.503906 -20.660156 23.171875 -21.671875 C 22.847656 -22.691406 22.265625 -23.507812 21.421875 -24.125 C 20.578125 -24.738281 19.367188 -25.046875 17.796875 -25.046875 C 16.265625 -25.046875 14.96875 -24.738281 13.90625 -24.125 C 12.851562 -23.507812 12.046875 -22.691406 11.484375 -21.671875 C 10.929688 -20.660156 10.65625 -19.519531 10.65625 -18.25 L 10.65625 -3.515625 C 10.65625 -2.515625 10.328125 -1.675781 9.671875 -1 C 9.023438 -0.332031 8.203125 0 7.203125 0 C 6.203125 0 5.375 -0.332031 4.71875 -1 C 4.070312 -1.675781 3.75 -2.515625 3.75 -3.515625 L 3.75 -27.296875 C 3.75 -28.296875 4.070312 -29.128906 4.71875 -29.796875 C 5.375 -30.472656 6.203125 -30.8125 7.203125 -30.8125 C 8.203125 -30.8125 9.023438 -30.472656 9.671875 -29.796875 C 10.328125 -29.128906 10.65625 -28.296875 10.65625 -27.296875 L 10.65625 -24.828125 L 9.796875 -25 C 10.140625 -25.644531 10.632812 -26.34375 11.28125 -27.09375 C 11.9375 -27.84375 12.707031 -28.539062 13.59375 -29.1875 C 14.476562 -29.84375 15.472656 -30.375 16.578125 -30.78125 C 17.691406 -31.1875 18.90625 -31.390625 20.21875 -31.390625 Z M 20.21875 -31.390625 "/></g></g></g><g fill="#000000" fill-opacity="1"><g transform="translate(149.481761, 58.597682)"><g><path d="M 16.53125 -31.390625 C 18.144531 -31.390625 19.625 -31.140625 20.96875 -30.640625 C 22.3125 -30.140625 23.472656 -29.503906 24.453125 -28.734375 C 25.429688 -27.972656 26.195312 -27.195312 26.75 -26.40625 C 27.3125 -25.613281 27.59375 -24.953125 27.59375 -24.421875 L 26.09375 -23.671875 L 26.09375 -27.875 C 26.09375 -28.875 26.414062 -29.707031 27.0625 -30.375 C 27.71875 -31.050781 28.546875 -31.390625 29.546875 -31.390625 C 30.546875 -31.390625 31.367188 -31.0625 32.015625 -30.40625 C 32.671875 -29.757812 33 -28.914062 33 -27.875 L 33 -2.25 C 33 1.09375 32.28125 3.769531 30.84375 5.78125 C 29.40625 7.800781 27.515625 9.257812 25.171875 10.15625 C 22.828125 11.0625 20.3125 11.515625 17.625 11.515625 C 16.851562 11.515625 15.851562 11.414062 14.625 11.21875 C 13.394531 11.03125 12.222656 10.800781 11.109375 10.53125 C 10.003906 10.269531 9.160156 10.023438 8.578125 9.796875 C 7.429688 9.296875 6.632812 8.671875 6.1875 7.921875 C 5.75 7.171875 5.664062 6.375 5.9375 5.53125 C 6.28125 4.414062 6.832031 3.65625 7.59375 3.25 C 8.363281 2.851562 9.171875 2.804688 10.015625 3.109375 C 10.398438 3.222656 11.035156 3.453125 11.921875 3.796875 C 12.804688 4.140625 13.773438 4.457031 14.828125 4.75 C 15.890625 5.039062 16.820312 5.1875 17.625 5.1875 C 20.5 5.1875 22.628906 4.609375 24.015625 3.453125 C 25.398438 2.304688 26.09375 0.710938 26.09375 -1.328125 L 26.09375 -6.328125 L 26.78125 -5.8125 C 26.78125 -5.3125 26.519531 -4.707031 26 -4 C 25.476562 -3.289062 24.765625 -2.585938 23.859375 -1.890625 C 22.960938 -1.203125 21.898438 -0.617188 20.671875 -0.140625 C 19.441406 0.335938 18.140625 0.578125 16.765625 0.578125 C 14.035156 0.578125 11.578125 -0.101562 9.390625 -1.46875 C 7.203125 -2.832031 5.472656 -4.710938 4.203125 -7.109375 C 2.929688 -9.515625 2.296875 -12.269531 2.296875 -15.375 C 2.296875 -18.519531 2.929688 -21.289062 4.203125 -23.6875 C 5.472656 -26.09375 7.179688 -27.976562 9.328125 -29.34375 C 11.484375 -30.707031 13.882812 -31.390625 16.53125 -31.390625 Z M 17.625 -25.046875 C 15.894531 -25.046875 14.375 -24.625 13.0625 -23.78125 C 11.757812 -22.9375 10.742188 -21.785156 10.015625 -20.328125 C 9.285156 -18.867188 8.921875 -17.21875 8.921875 -15.375 C 8.921875 -13.570312 9.285156 -11.941406 10.015625 -10.484375 C 10.742188 -9.023438 11.757812 -7.875 13.0625 -7.03125 C 14.375 -6.1875 15.894531 -5.765625 17.625 -5.765625 C 19.382812 -5.765625 20.914062 -6.1875 22.21875 -7.03125 C 23.53125 -7.875 24.550781 -9.023438 25.28125 -10.484375 C 26.007812 -11.941406 26.375 -13.570312 26.375 -15.375 C 26.375 -17.21875 26.007812 -18.867188 25.28125 -20.328125 C 24.550781 -21.785156 23.53125 -22.9375 22.21875 -23.78125 C 20.914062 -24.625 19.382812 -25.046875 17.625 -25.046875 Z M 17.625 -25.046875 "/></g></g></g><g fill="#000000" fill-opacity="1"><g transform="translate(186.224739, 58.597682)"><g><path d="M 10.25 -3.515625 C 10.25 -2.515625 9.921875 -1.675781 9.265625 -1 C 8.617188 -0.332031 7.796875 0 6.796875 0 C 5.796875 0 4.96875 -0.332031 4.3125 -1 C 3.664062 -1.675781 3.34375 -2.515625 3.34375 -3.515625 L 3.34375 -27.296875 C 3.34375 -28.296875 3.664062 -29.128906 4.3125 -29.796875 C 4.96875 -30.472656 5.796875 -30.8125 6.796875 -30.8125 C 7.796875 -30.8125 8.617188 -30.472656 9.265625 -29.796875 C 9.921875 -29.128906 10.25 -28.296875 10.25 -27.296875 Z M 6.734375 -34.5625 C 5.429688 -34.5625 4.507812 -34.769531 3.96875 -35.1875 C 3.425781 -35.613281 3.15625 -36.363281 3.15625 -37.4375 L 3.15625 -38.53125 C 3.15625 -39.644531 3.453125 -40.398438 4.046875 -40.796875 C 4.648438 -41.203125 5.566406 -41.40625 6.796875 -41.40625 C 8.140625 -41.40625 9.078125 -41.191406 9.609375 -40.765625 C 10.148438 -40.347656 10.421875 -39.601562 10.421875 -38.53125 L 10.421875 -37.4375 C 10.421875 -36.320312 10.128906 -35.5625 9.546875 -35.15625 C 8.972656 -34.757812 8.035156 -34.5625 6.734375 -34.5625 Z M 6.734375 -34.5625 "/></g></g></g><g fill="#000000" fill-opacity="1"><g transform="translate(199.816189, 58.597682)"><g><path d="M 23.390625 -6.328125 C 24.304688 -6.328125 25.070312 -6.03125 25.6875 -5.4375 C 26.300781 -4.84375 26.609375 -4.085938 26.609375 -3.171875 C 26.609375 -2.285156 26.300781 -1.535156 25.6875 -0.921875 C 25.070312 -0.304688 24.304688 0 23.390625 0 L 4.84375 0 C 3.875 0 3.101562 -0.34375 2.53125 -1.03125 C 1.957031 -1.726562 1.691406 -2.421875 1.734375 -3.109375 C 1.765625 -3.679688 1.835938 -4.1875 1.953125 -4.625 C 2.066406 -5.070312 2.359375 -5.582031 2.828125 -6.15625 L 17.15625 -24.703125 L 17.046875 -23.90625 L 5.359375 -23.90625 C 4.429688 -23.90625 3.660156 -24.210938 3.046875 -24.828125 C 2.429688 -25.441406 2.125 -26.207031 2.125 -27.125 C 2.125 -28.007812 2.429688 -28.75 3.046875 -29.34375 C 3.660156 -29.9375 4.429688 -30.234375 5.359375 -30.234375 L 23.09375 -30.234375 C 23.976562 -30.234375 24.726562 -29.90625 25.34375 -29.25 C 25.957031 -28.601562 26.222656 -27.78125 26.140625 -26.78125 C 26.109375 -26.394531 26.039062 -26.007812 25.9375 -25.625 C 25.84375 -25.238281 25.585938 -24.78125 25.171875 -24.25 L 11.0625 -5.984375 L 11.0625 -6.328125 Z M 23.390625 -6.328125 "/></g></g></g><g fill="#000000" fill-opacity="1"><g transform="translate(227.690179, 58.597682)"><g><path d="M 18.25 0.578125 C 14.988281 0.578125 12.15625 -0.101562 9.75 -1.46875 C 7.351562 -2.832031 5.507812 -4.6875 4.21875 -7.03125 C 2.9375 -9.375 2.296875 -12.019531 2.296875 -14.96875 C 2.296875 -18.425781 3 -21.375 4.40625 -23.8125 C 5.8125 -26.25 7.644531 -28.117188 9.90625 -29.421875 C 12.164062 -30.734375 14.566406 -31.390625 17.109375 -31.390625 C 19.066406 -31.390625 20.914062 -30.984375 22.65625 -30.171875 C 24.40625 -29.367188 25.953125 -28.265625 27.296875 -26.859375 C 28.640625 -25.460938 29.703125 -23.84375 30.484375 -22 C 31.273438 -20.15625 31.671875 -18.195312 31.671875 -16.125 C 31.640625 -15.207031 31.273438 -14.457031 30.578125 -13.875 C 29.890625 -13.300781 29.082031 -13.015625 28.15625 -13.015625 L 6.15625 -13.015625 L 4.4375 -18.78125 L 25.578125 -18.78125 L 24.296875 -17.625 L 24.296875 -19.171875 C 24.222656 -20.285156 23.832031 -21.285156 23.125 -22.171875 C 22.414062 -23.054688 21.53125 -23.753906 20.46875 -24.265625 C 19.414062 -24.785156 18.296875 -25.046875 17.109375 -25.046875 C 15.953125 -25.046875 14.875 -24.890625 13.875 -24.578125 C 12.875 -24.273438 12.007812 -23.757812 11.28125 -23.03125 C 10.550781 -22.300781 9.972656 -21.320312 9.546875 -20.09375 C 9.128906 -18.863281 8.921875 -17.3125 8.921875 -15.4375 C 8.921875 -13.363281 9.351562 -11.601562 10.21875 -10.15625 C 11.082031 -8.71875 12.195312 -7.625 13.5625 -6.875 C 14.925781 -6.132812 16.375 -5.765625 17.90625 -5.765625 C 19.332031 -5.765625 20.46875 -5.878906 21.3125 -6.109375 C 22.15625 -6.335938 22.832031 -6.613281 23.34375 -6.9375 C 23.863281 -7.257812 24.335938 -7.539062 24.765625 -7.78125 C 25.453125 -8.125 26.101562 -8.296875 26.71875 -8.296875 C 27.5625 -8.296875 28.257812 -8.003906 28.8125 -7.421875 C 29.375 -6.847656 29.65625 -6.175781 29.65625 -5.40625 C 29.65625 -4.375 29.117188 -3.4375 28.046875 -2.59375 C 27.046875 -1.75 25.644531 -1.007812 23.84375 -0.375 C 22.039062 0.257812 20.175781 0.578125 18.25 0.578125 Z M 18.25 0.578125 "/></g></g></g></g></g></g><g clip-path="url(#bb041a00f1)"><g clip-path="url(#92963722de)"><g clip-path="url(#333b993ba4)"><path fill="#ec671b" d="M 192.75 29.890625 C 192.75 29.890625 185.671875 40.421875 191.382812 43.636719 C 197.089844 46.851562 200.023438 35.949219 192.75 29.890625 Z M 192.75 29.890625 " fill-opacity="1" fill-rule="nonzero"/></g></g></g><g clip-path="url(#b18db49f82)"><g clip-path="url(#8d7d2cec1c)"><g clip-path="url(#ab7e4fe4b8)"><path fill="#ec671b" d="M 192.800781 31.035156 C 191.90625 32.828125 189.226562 36.769531 190.644531 39.277344 C 192.058594 41.789062 194.726562 40.625 195.027344 38.089844 C 195.324219 35.554688 192.800781 31.035156 192.800781 31.035156 Z M 192.800781 31.035156 " fill-opacity="1" fill-rule="nonzero"/></g></g></g><g clip-path="url(#1fbbac8ddf)"><g clip-path="url(#bc7a1da0ef)"><g clip-path="url(#9fe1ca5689)"><path fill="#ffffff" d="M 192.65625 32.367188 C 192.65625 32.367188 190.15625 35.363281 191.238281 37.113281 C 192.324219 38.863281 193.335938 34.019531 192.65625 32.367188 Z M 192.65625 32.367188 " fill-opacity="1" fill-rule="nonzero"/></g></g></g></svg>