<svg xmlns="http://www.w3.org/2000/svg" xmlns:xlink="http://www.w3.org/1999/xlink" width="500" zoomAndPan="magnify" viewBox="0 0 375 374.999991" height="500" preserveAspectRatio="xMidYMid meet" version="1.0"><defs><g/><clipPath id="abe33a43aa"><path d="M 277 13 L 354.601562 13 L 354.601562 375 L 277 375 Z M 277 13 " clip-rule="nonzero"/></clipPath><clipPath id="a2fa3ed22e"><rect x="0" width="78" y="0" height="362"/></clipPath><clipPath id="cc1195860b"><path d="M 14 210.710938 L 281.90625 210.710938 L 281.90625 362 L 14 362 Z M 14 210.710938 " clip-rule="nonzero"/></clipPath><clipPath id="284b29ca0e"><rect x="0" width="355" y="0" height="375"/></clipPath></defs><g transform="matrix(1, 0, 0, 1, 9, 0)"><g clip-path="url(#284b29ca0e)"><g fill="#000000" fill-opacity="1"><g transform="translate(0.784514, 182.356049)"><g><path d="M 27.484375 0 C 23.628906 0 20.359375 -1.34375 17.671875 -4.03125 C 14.984375 -6.71875 13.640625 -9.988281 13.640625 -13.84375 L 13.640625 -151.5 C 13.640625 -155.5 14.984375 -158.804688 17.671875 -161.421875 C 20.359375 -164.035156 23.628906 -165.34375 27.484375 -165.34375 L 80.609375 -165.34375 C 90.390625 -165.34375 99.101562 -163.171875 106.75 -158.828125 C 114.394531 -154.492188 120.390625 -148.503906 124.734375 -140.859375 C 129.078125 -133.210938 131.25 -124.5 131.25 -114.71875 L 131.25 -50.640625 C 131.25 -40.859375 129.078125 -32.140625 124.734375 -24.484375 C 120.390625 -16.835938 114.394531 -10.84375 106.75 -6.5 C 99.101562 -2.164062 90.390625 0 80.609375 0 Z M 72.34375 -37.40625 C 76.195312 -37.40625 79.429688 -38.710938 82.046875 -41.328125 C 84.671875 -43.953125 85.984375 -47.191406 85.984375 -51.046875 L 85.984375 -114.296875 C 85.984375 -118.148438 84.671875 -121.382812 82.046875 -124 C 79.429688 -126.625 76.195312 -127.9375 72.34375 -127.9375 C 68.625 -127.9375 65.453125 -126.625 62.828125 -124 C 60.210938 -121.382812 58.90625 -118.148438 58.90625 -114.296875 L 58.90625 -51.046875 C 58.90625 -47.191406 60.210938 -43.953125 62.828125 -41.328125 C 65.453125 -38.710938 68.625 -37.40625 72.34375 -37.40625 Z M 72.34375 -37.40625 "/></g></g></g><g fill="#000000" fill-opacity="1"><g transform="translate(121.276677, 182.356049)"><g><path d="M 72.75 0 C 63.789062 0 59.3125 -4.546875 59.3125 -13.640625 L 59.3125 -114.5 C 59.3125 -118.21875 57.96875 -121.382812 55.28125 -124 C 52.601562 -126.625 49.332031 -127.9375 45.46875 -127.9375 L 27.28125 -127.9375 C 18.1875 -127.9375 13.640625 -132.484375 13.640625 -141.578125 L 13.640625 -151.921875 C 13.640625 -161.015625 18.1875 -165.5625 27.28125 -165.5625 L 136.625 -165.34375 C 145.71875 -165.34375 150.265625 -160.796875 150.265625 -151.703125 L 150.265625 -141.578125 C 150.265625 -132.484375 145.71875 -127.9375 136.625 -127.9375 L 118.21875 -127.9375 C 114.5 -127.9375 111.296875 -126.625 108.609375 -124 C 105.921875 -121.382812 104.578125 -118.21875 104.578125 -114.5 L 104.578125 -13.4375 C 104.578125 -4.476562 100.03125 0 90.9375 0 Z M 72.75 0 "/></g></g></g><g clip-path="url(#abe33a43aa)"><g transform="matrix(1, 0, 0, 1, 277, 13)"><g clip-path="url(#a2fa3ed22e)"><g fill="#000000" fill-opacity="1"><g transform="translate(16.423873, 0.858673)"><g><path d="M -0.671875 22.4375 C -0.671875 10.320312 3.234375 4.265625 11.046875 4.265625 L 31.5625 4.265625 C 39.8125 4.265625 43.9375 10.320312 43.9375 22.4375 C 43.9375 26.5625 43.515625 30.507812 42.671875 34.28125 L 37.890625 34.28125 C 38.953125 30.019531 39.484375 26.113281 39.484375 22.5625 C 39.484375 20.832031 39.378906 19.320312 39.171875 18.03125 C 38.972656 16.75 38.632812 15.507812 38.15625 14.3125 C 37.039062 11.738281 34.863281 10.453125 31.625 10.453125 L 11.390625 10.453125 C 6.410156 10.453125 3.921875 14.582031 3.921875 22.84375 C 3.921875 26.382812 4.457031 30.285156 5.53125 34.546875 L 0.59375 34.546875 C -0.25 30.773438 -0.671875 26.738281 -0.671875 22.4375 Z M -0.671875 22.4375 "/></g></g></g><g fill="#000000" fill-opacity="1"><g transform="translate(16.423873, 48.251294)"><g><path d="M -0.671875 22.5 C -0.671875 10.425781 3.234375 4.390625 11.046875 4.390625 L 31.484375 4.390625 C 39.742188 4.390625 43.875 10.425781 43.875 22.5 C 43.875 34.707031 39.769531 40.8125 31.5625 40.8125 L 11.046875 40.8125 C 6.878906 40.8125 3.882812 39.125 2.0625 35.75 C 0.238281 32.375 -0.671875 27.957031 -0.671875 22.5 Z M 3.65625 22.640625 C 3.65625 30.578125 6.144531 34.546875 11.125 34.546875 L 31.6875 34.546875 C 37.019531 34.546875 39.6875 30.550781 39.6875 22.5625 C 39.6875 18.707031 39.082031 15.742188 37.875 13.671875 C 36.675781 11.609375 34.613281 10.578125 31.6875 10.578125 L 11.125 10.578125 C 6.144531 10.578125 3.65625 14.597656 3.65625 22.640625 Z M 3.65625 22.640625 "/></g></g></g><g fill="#000000" fill-opacity="1"><g transform="translate(16.423873, 103.297413)"><g><path d="M 43.203125 5.59375 L 43.203125 13.375 L 7.515625 36.890625 L 43.203125 36.890625 L 43.203125 42.546875 L 0 42.546875 L 0 34.75 L 36.28125 11.25 L 0 11.25 L 0 5.59375 Z M 43.203125 5.59375 "/></g></g></g><g fill="#000000" fill-opacity="1"><g transform="translate(16.423873, 161.271865)"><g><path d="M 43.203125 5.59375 L 43.203125 13.375 L 7.515625 36.890625 L 43.203125 36.890625 L 43.203125 42.546875 L 0 42.546875 L 0 34.75 L 36.28125 11.25 L 0 11.25 L 0 5.59375 Z M 43.203125 5.59375 "/></g></g></g><g fill="#000000" fill-opacity="1"><g transform="translate(16.423873, 219.246316)"><g><path d="M 43.203125 5.59375 L 43.203125 34.625 L 38.6875 34.625 L 38.6875 12.046875 L 24.5625 12.046875 L 24.5625 32.421875 L 20.046875 32.421875 L 20.046875 12.046875 L 4.53125 12.046875 L 4.53125 35.28125 L 0 35.28125 L 0 5.59375 Z M 43.203125 5.59375 "/></g></g></g><g fill="#000000" fill-opacity="1"><g transform="translate(16.423873, 267.703775)"><g><path d="M -0.671875 22.4375 C -0.671875 10.320312 3.234375 4.265625 11.046875 4.265625 L 31.5625 4.265625 C 39.8125 4.265625 43.9375 10.320312 43.9375 22.4375 C 43.9375 26.5625 43.515625 30.507812 42.671875 34.28125 L 37.890625 34.28125 C 38.953125 30.019531 39.484375 26.113281 39.484375 22.5625 C 39.484375 20.832031 39.378906 19.320312 39.171875 18.03125 C 38.972656 16.75 38.632812 15.507812 38.15625 14.3125 C 37.039062 11.738281 34.863281 10.453125 31.625 10.453125 L 11.390625 10.453125 C 6.410156 10.453125 3.921875 14.582031 3.921875 22.84375 C 3.921875 26.382812 4.457031 30.285156 5.53125 34.546875 L 0.59375 34.546875 C -0.25 30.773438 -0.671875 26.738281 -0.671875 22.4375 Z M -0.671875 22.4375 "/></g></g></g><g fill="#000000" fill-opacity="1"><g transform="translate(16.423873, 315.096396)"><g><path d="M 38.6875 16.25 L 38.6875 1.59375 L 43.203125 1.59375 L 43.203125 37.34375 L 38.6875 37.34375 L 38.6875 22.765625 L 0 22.765625 L 0 16.25 Z M 38.6875 16.25 "/></g></g></g></g></g></g><path fill="#000000" d="M 81.160156 311.375 L 146.117188 311.496094 C 141.242188 316.492188 138.4375 323.136719 136.816406 329.816406 L 136.75 330.347656 C 136.527344 332.011719 136.585938 333.691406 136.585938 335.367188 C 132.980469 335.753906 129.164062 335.546875 125.539062 335.546875 C 114.972656 335.554688 104.40625 335.554688 93.839844 335.550781 C 91.792969 335.546875 89.542969 335.726562 87.527344 335.414062 L 87.535156 334.144531 C 87.417969 325.371094 83.800781 317.6875 77.546875 311.636719 Z M 81.160156 311.375 " fill-opacity="1" fill-rule="nonzero"/><path fill="#000000" d="M 168.058594 306.390625 C 182.214844 306.042969 193.707031 314.703125 197.53125 328.449219 C 201.816406 343.832031 191.148438 360.457031 175.730469 363.730469 C 174.054688 364.085938 172.308594 364.195312 170.605469 364.347656 C 155.304688 364.941406 142.390625 352.527344 140.742188 337.613281 C 138.957031 321.445312 152.542969 307.898438 168.058594 306.390625 Z M 168.699219 320.601562 C 148.339844 322.589844 152.53125 351.8125 170.816406 350.039062 C 182 348.859375 188.613281 335.1875 181.308594 326.292969 C 178.542969 322.921875 173.269531 319.816406 168.699219 320.601562 Z M 168.699219 320.601562 " fill-opacity="1" fill-rule="nonzero"/><path fill="#000000" d="M 168.589844 324.859375 C 170.351562 324.742188 171.839844 324.796875 173.460938 325.527344 L 173.75 325.660156 C 175.90625 326.648438 177.714844 328.257812 178.828125 330.375 L 178.953125 330.632812 C 182.050781 336.898438 178.078125 344.953125 170.980469 345.632812 C 159.113281 346.710938 155.140625 332.183594 163.894531 326.707031 L 164.109375 326.574219 C 165.59375 325.628906 166.878906 325.195312 168.589844 324.859375 Z M 168.589844 324.859375 " fill-opacity="1" fill-rule="nonzero"/><path fill="#000000" d="M 51.5 306.386719 C 58.964844 305.753906 65.863281 308.007812 71.835938 312.441406 L 72.273438 312.773438 C 84.792969 322.46875 86.351562 340.917969 76.8125 353.214844 L 76.113281 354.089844 C 71.148438 359.878906 64.160156 363.554688 56.539062 364.164062 C 42.199219 365.953125 29.453125 355.097656 25.847656 341.726562 C 21.324219 324.953125 34.191406 308.328125 51.5 306.386719 Z M 52.960938 320.558594 C 41.136719 322.332031 35.335938 333.214844 41.722656 343.523438 L 41.804688 343.671875 C 44.300781 348.011719 49.957031 350.511719 54.863281 350.03125 C 73.292969 348.496094 73.65625 320.53125 52.960938 320.558594 Z M 52.960938 320.558594 " fill-opacity="1" fill-rule="nonzero"/><path fill="#000000" d="M 52.3125 324.871094 C 54.542969 324.664062 56.53125 324.859375 58.550781 325.855469 L 58.785156 325.972656 C 62.785156 327.949219 65.640625 333.363281 64.230469 337.75 L 64.046875 338.398438 C 63.363281 340.84375 61.371094 343.160156 59.160156 344.410156 L 58.988281 344.507812 C 57.992188 345.078125 57.015625 345.390625 55.894531 345.605469 C 50.183594 346.664062 45.328125 343.648438 43.871094 338.109375 L 43.679688 337.347656 C 42.554688 331.414062 46.359375 325.90625 52.3125 324.871094 Z M 52.3125 324.871094 " fill-opacity="1" fill-rule="nonzero"/><g clip-path="url(#cc1195860b)"><path fill="#000000" d="M 51.570312 210.984375 C 56.734375 210.726562 61.988281 210.910156 67.160156 210.910156 C 86.597656 210.90625 106.035156 210.898438 125.472656 210.902344 C 126.816406 210.902344 128.476562 210.71875 129.757812 211.140625 L 129.976562 211.214844 C 132.929688 212.195312 134.46875 217.316406 135.066406 220.019531 C 134.890625 220.515625 134.722656 221.132812 134.425781 221.570312 L 134.25 221.792969 C 133.109375 223.214844 131.4375 223.652344 129.742188 224.078125 L 145.078125 270.261719 L 158.21875 270.320312 C 158.476562 263.382812 158.292969 256.414062 158.300781 249.46875 C 158.304688 247.699219 157.863281 245.527344 160.203125 245.558594 C 160.828125 245.066406 160.945312 243.441406 161.152344 242.636719 C 163.550781 233.429688 174.160156 222.746094 183.527344 220.539062 L 183.824219 220.472656 C 185.867188 219.949219 188.402344 220.574219 189.472656 222.539062 L 189.554688 222.699219 C 194.683594 232.40625 173.707031 231.664062 172.015625 246.363281 C 172.496094 246.476562 173.171875 246.550781 173.539062 246.886719 C 174.332031 247.617188 174.042969 271.589844 174.121094 274.757812 L 180.355469 274.144531 C 188.261719 274.160156 188.25 283.175781 190.632812 284.890625 C 191.855469 285.765625 193.6875 286.113281 195.09375 286.660156 C 197.757812 287.695312 200.234375 289.066406 202.738281 290.433594 C 207.503906 293.03125 208.402344 293.292969 208.410156 298.976562 C 208.429688 309.152344 208.148438 318.898438 207.96875 329.003906 L 210.40625 329.066406 C 211.667969 319.554688 216.277344 308.496094 218.210938 298.308594 C 219.140625 293.410156 217.75 287.90625 219.230469 283.210938 L 220.207031 282.371094 C 220.648438 282.0625 221.261719 281.835938 221.804688 281.945312 L 221.980469 281.984375 C 227.257812 283.027344 228.785156 295.234375 229.910156 299.722656 C 233.882812 315.585938 237.78125 327.679688 249.566406 339.234375 C 256.933594 346.136719 267.039062 351.214844 276.886719 353.5625 C 279.171875 354.109375 280.523438 354.230469 281.851562 356.332031 C 281.851562 356.914062 281.929688 357.679688 281.753906 358.238281 L 281.644531 358.5 C 280.089844 362.199219 271.21875 360.71875 267.707031 360.714844 C 252.359375 360.691406 237.007812 360.71875 221.660156 360.714844 C 217.417969 360.714844 213.074219 360.929688 208.847656 360.644531 C 201.617188 360.160156 203.320312 346.804688 203.234375 341.933594 C 203.050781 331.496094 201.816406 321.355469 194.65625 313.105469 C 184.472656 301.378906 168.355469 299.144531 154.550781 305.246094 C 150.347656 307.105469 149.511719 306.496094 144.773438 306.492188 C 122.441406 306.472656 99.792969 306.070312 77.496094 306.496094 C 75.171875 306.542969 73.472656 307.054688 71.339844 305.996094 C 54.023438 297.382812 34.660156 301.785156 24.984375 318.589844 C 23.445312 321.261719 22.84375 324.683594 20.53125 326.804688 L 20.3125 327 C 18.46875 325.8125 16.085938 322.242188 15.496094 320.027344 L 15.429688 319.78125 C 15.085938 318.480469 15.121094 317.09375 15.078125 315.753906 C 14.929688 311.039062 13.871094 298.339844 17.359375 295.027344 C 18.660156 293.796875 20.042969 293.941406 21.71875 293.941406 L 21.683594 276.394531 C 21.859375 267.3125 26.867188 267.390625 34.253906 267.460938 C 38.164062 267.5 42.074219 267.429688 45.984375 267.511719 C 46.125 252.515625 46.054688 237.515625 46.070312 222.519531 C 46.074219 217.390625 45.238281 212.113281 51.570312 210.984375 Z M 92.890625 230.78125 L 92.984375 266.746094 L 130.554688 266.753906 L 130.785156 266.699219 C 130.820312 265.199219 130.109375 263.523438 129.667969 262.097656 C 126.464844 251.777344 123.230469 241.453125 119.84375 231.191406 C 114.992188 230.085938 98.503906 230.53125 92.890625 230.78125 Z M 57.886719 230.777344 L 57.855469 266.617188 L 80.265625 266.6875 L 80.253906 231.011719 C 75.597656 230.109375 62.394531 230.40625 57.886719 230.777344 Z M 57.886719 230.777344 " fill-opacity="1" fill-rule="nonzero"/></g></g></g></svg>