<svg xmlns="http://www.w3.org/2000/svg" xmlns:xlink="http://www.w3.org/1999/xlink" width="250" zoomAndPan="magnify" viewBox="0 0 187.5 72.749999" height="97" preserveAspectRatio="xMidYMid meet" version="1.0"><defs><clipPath id="03c47d2f08"><path d="M 0.234375 1.425781 L 34.25 1.425781 L 34.25 35.1875 L 0.234375 35.1875 Z M 0.234375 1.425781 " clip-rule="nonzero"/></clipPath><clipPath id="877a6f6d37"><path d="M 0.398438 37.328125 L 34.414062 37.328125 L 34.414062 71.34375 L 0.398438 71.34375 Z M 0.398438 37.328125 " clip-rule="nonzero"/></clipPath><clipPath id="1c7fdd3123"><path d="M 34.410156 37.328125 L 68.425781 37.328125 L 68.425781 71.34375 L 34.410156 71.34375 Z M 34.410156 37.328125 " clip-rule="nonzero"/></clipPath><clipPath id="f817ce825a"><path d="M 34.558594 4.492188 L 69.332031 4.492188 L 69.332031 32.101562 L 34.558594 32.101562 Z M 34.558594 4.492188 " clip-rule="nonzero"/></clipPath><clipPath id="f996d036f8"><path d="M 38 16 L 66.84375 16 L 66.84375 32 L 38 32 Z M 38 16 " clip-rule="nonzero"/></clipPath><clipPath id="88e31fc33d"><path d="M 34.558594 4.792969 L 69 4.792969 L 69 23 L 34.558594 23 Z M 34.558594 4.792969 " clip-rule="nonzero"/></clipPath><clipPath id="51514f9261"><path d="M 8.144531 7.324219 L 26.386719 7.324219 L 26.386719 29 L 8.144531 29 Z M 8.144531 7.324219 " clip-rule="nonzero"/></clipPath><clipPath id="7879fd05a9"><path d="M 8.144531 7.324219 L 26.386719 7.324219 L 26.386719 29.207031 L 8.144531 29.207031 Z M 8.144531 7.324219 " clip-rule="nonzero"/></clipPath><clipPath id="54cf0d8d70"><path d="M 17.015625 7.324219 L 26.386719 7.324219 L 26.386719 16.75 L 17.015625 16.75 Z M 17.015625 7.324219 " clip-rule="nonzero"/></clipPath><clipPath id="3bb5dfdec5"><path d="M 8.144531 16.75 L 17 16.75 L 17 26 L 8.144531 26 Z M 8.144531 16.75 " clip-rule="nonzero"/></clipPath><clipPath id="9be559fb4d"><path d="M 6.503906 51.113281 L 19.253906 51.113281 L 19.253906 65.992188 L 6.503906 65.992188 Z M 6.503906 51.113281 " clip-rule="nonzero"/></clipPath><clipPath id="99a671d43a"><path d="M 18.613281 50.300781 L 28.0625 50.300781 L 28.0625 65.992188 L 18.613281 65.992188 Z M 18.613281 50.300781 " clip-rule="nonzero"/></clipPath><clipPath id="f7873e9d66"><path d="M 18.703125 45.789062 L 32.914062 45.789062 L 32.914062 55.03125 L 18.703125 55.03125 Z M 18.703125 45.789062 " clip-rule="nonzero"/></clipPath><clipPath id="e84cbaea1f"><path d="M 2.5625 42.328125 L 16.515625 42.328125 L 16.515625 50.632812 L 2.5625 50.632812 Z M 2.5625 42.328125 " clip-rule="nonzero"/></clipPath><clipPath id="406aaf51ac"><path d="M 42.324219 43.222656 L 60.5625 43.222656 L 60.5625 65 L 42.324219 65 Z M 42.324219 43.222656 " clip-rule="nonzero"/></clipPath><clipPath id="7fdef2586f"><path d="M 51.394531 43.222656 L 60.363281 43.222656 L 60.363281 52.628906 L 51.394531 52.628906 Z M 51.394531 43.222656 " clip-rule="nonzero"/></clipPath><clipPath id="33591de3f5"><path d="M 42.324219 52.628906 L 51.394531 52.628906 L 51.394531 62 L 42.324219 62 Z M 42.324219 52.628906 " clip-rule="nonzero"/></clipPath></defs><path fill="#000000" d="M 93.746094 23.4375 C 93.777344 23.613281 93.804688 23.792969 93.832031 23.972656 C 93.863281 24.15625 93.886719 24.335938 93.902344 24.511719 C 93.886719 24.699219 93.863281 24.886719 93.832031 25.070312 C 93.804688 25.253906 93.785156 25.441406 93.769531 25.632812 C 93.714844 26.011719 93.660156 26.386719 93.597656 26.761719 C 93.539062 27.136719 93.46875 27.507812 93.378906 27.875 C 93.148438 28.726562 92.769531 29.257812 92.234375 29.460938 C 91.695312 29.707031 91.015625 29.59375 90.195312 29.121094 C 90.074219 29.054688 89.910156 29.019531 89.703125 29.019531 C 89.511719 29.019531 89.3125 29.054688 89.105469 29.121094 C 87.660156 29.609375 85.921875 29.6875 83.890625 29.355469 C 83.035156 29.199219 82.28125 28.933594 81.617188 28.558594 C 80.957031 28.1875 80.386719 27.765625 79.910156 27.296875 C 79.433594 26.828125 79.039062 26.363281 78.726562 25.914062 C 77.980469 24.855469 77.4375 23.699219 77.109375 22.441406 C 76.773438 21.179688 76.703125 20.015625 76.898438 18.953125 C 77.175781 17.441406 77.753906 16.054688 78.632812 14.785156 C 79.507812 13.515625 80.636719 12.441406 82.011719 11.570312 C 83.277344 10.757812 84.609375 10.207031 86.007812 9.921875 C 87.40625 9.636719 88.679688 9.648438 89.828125 9.960938 C 90.300781 10.101562 90.785156 10.292969 91.277344 10.535156 C 91.777344 10.773438 92.179688 11.148438 92.492188 11.648438 C 92.71875 12.035156 92.808594 12.460938 92.757812 12.933594 C 92.734375 13.15625 92.648438 13.320312 92.492188 13.425781 C 92.300781 13.546875 92.074219 13.558594 91.816406 13.457031 C 88.980469 12.410156 86.25 12.925781 83.625 14.988281 C 82.128906 16.171875 81.277344 17.730469 81.070312 19.660156 C 80.824219 21.675781 81.609375 23.316406 83.421875 24.589844 C 85.210938 25.820312 87.191406 26.050781 89.363281 25.289062 C 89.570312 25.222656 89.769531 25.101562 89.96875 24.929688 C 90.171875 24.757812 90.257812 24.46875 90.226562 24.066406 L 90.226562 23.988281 C 90.226562 23.917969 90.230469 23.832031 90.234375 23.742188 C 90.246094 23.644531 90.25 23.550781 90.25 23.46875 C 90.265625 23.203125 90.273438 22.953125 90.273438 22.710938 C 90.273438 22.46875 90.207031 22.257812 90.070312 22.082031 C 89.945312 21.910156 89.769531 21.804688 89.542969 21.761719 C 89.316406 21.714844 89.085938 21.683594 88.839844 21.667969 C 88.734375 21.667969 88.632812 21.664062 88.539062 21.652344 C 88.445312 21.644531 88.351562 21.628906 88.265625 21.613281 L 88.0625 21.582031 C 87.9375 21.550781 87.8125 21.523438 87.6875 21.496094 C 87.566406 21.472656 87.449219 21.441406 87.332031 21.40625 C 86.855469 21.199219 86.613281 20.859375 86.597656 20.382812 C 86.582031 20.023438 86.738281 19.746094 87.066406 19.550781 C 88.632812 18.613281 90.265625 18.40625 91.96875 18.929688 C 92.421875 19.050781 92.742188 19.300781 92.9375 19.683594 C 93.125 20.070312 93.25 20.398438 93.300781 20.671875 C 93.390625 21.125 93.472656 21.585938 93.550781 22.058594 C 93.628906 22.527344 93.691406 22.984375 93.746094 23.4375 Z M 93.746094 23.4375 " fill-opacity="1" fill-rule="nonzero"/><path fill="#000000" d="M 106.882812 25.867188 C 107.105469 26.4375 107.011719 27.027344 106.59375 27.632812 C 106.558594 27.6875 106.519531 27.738281 106.472656 27.796875 C 106.429688 27.847656 106.394531 27.890625 106.363281 27.921875 C 103.632812 29.902344 101.023438 30.46875 98.539062 29.617188 C 97.824219 29.375 97.253906 29.039062 96.816406 28.613281 C 96.378906 28.191406 96.054688 27.726562 95.835938 27.21875 C 95.617188 26.71875 95.476562 26.222656 95.414062 25.734375 C 95.355469 25.246094 95.328125 24.8125 95.328125 24.433594 C 95.378906 22.8125 95.472656 21.183594 95.601562 19.542969 C 95.730469 17.898438 95.875 16.285156 96.03125 14.699219 L 96.109375 13.8125 C 96.160156 13.226562 96.25 12.636719 96.378906 12.046875 C 96.515625 11.453125 96.679688 10.820312 96.871094 10.136719 C 97.128906 9.132812 97.660156 8.628906 98.460938 8.628906 C 98.511719 8.628906 98.554688 8.628906 98.589844 8.628906 C 99.023438 8.664062 99.371094 8.839844 99.644531 9.148438 C 99.910156 9.460938 100.066406 9.871094 100.101562 10.371094 C 100.167969 11.226562 100.214844 12.078125 100.242188 12.933594 C 100.269531 13.785156 100.296875 14.59375 100.335938 15.355469 C 100.335938 15.667969 100.335938 15.960938 100.34375 16.242188 C 100.351562 16.523438 100.367188 16.792969 100.390625 17.050781 C 100.390625 17.433594 100.390625 17.804688 100.390625 18.171875 C 100.390625 18.539062 100.390625 18.894531 100.390625 19.238281 C 100.390625 20.023438 100.390625 20.785156 100.390625 21.519531 C 100.390625 22.257812 100.390625 22.984375 100.390625 23.703125 C 100.40625 23.996094 100.429688 24.242188 100.460938 24.433594 C 100.496094 24.621094 100.585938 24.765625 100.726562 24.871094 C 100.863281 25.007812 101.042969 25.085938 101.261719 25.09375 C 101.480469 25.105469 101.71875 25.09375 101.980469 25.054688 C 102.167969 25.039062 102.355469 25.019531 102.539062 24.992188 C 102.71875 24.960938 102.90625 24.9375 103.101562 24.921875 C 103.289062 24.890625 103.484375 24.859375 103.683594 24.832031 C 103.886719 24.804688 104.082031 24.785156 104.273438 24.769531 C 104.777344 24.734375 105.203125 24.75 105.550781 24.824219 C 106.226562 24.976562 106.667969 25.328125 106.882812 25.867188 Z M 106.882812 25.867188 " fill-opacity="1" fill-rule="nonzero"/><path fill="#000000" d="M 124.972656 10.972656 C 125.074219 11.25 125.167969 11.554688 125.246094 11.875 C 125.324219 12.199219 125.34375 12.503906 125.308594 12.800781 C 125.121094 14.386719 124.910156 15.96875 124.683594 17.550781 C 124.460938 19.128906 124.21875 20.703125 123.953125 22.269531 C 123.882812 22.734375 123.753906 23.199219 123.5625 23.664062 C 123.371094 24.121094 123.171875 24.566406 122.964844 25 C 122.496094 25.980469 121.882812 26.78125 121.125 27.40625 C 120.367188 28.03125 119.53125 28.472656 118.621094 28.730469 C 117.710938 28.992188 116.769531 29.054688 115.792969 28.917969 C 114.816406 28.777344 113.871094 28.417969 112.953125 27.84375 C 111.507812 26.957031 110.425781 25.855469 109.703125 24.535156 C 108.984375 23.210938 108.585938 21.707031 108.519531 20.027344 C 108.5 19.679688 108.492188 19.324219 108.503906 18.960938 C 108.515625 18.59375 108.519531 18.234375 108.519531 17.886719 C 108.5 17.886719 108.476562 17.886719 108.449219 17.886719 C 108.421875 17.886719 108.40625 17.886719 108.390625 17.886719 C 108.453125 17.035156 108.523438 16.1875 108.589844 15.347656 C 108.664062 14.503906 108.742188 13.652344 108.832031 12.800781 C 108.847656 12.644531 108.875 12.496094 108.910156 12.351562 C 108.945312 12.199219 108.980469 12.046875 109.011719 11.890625 C 109.152344 11.46875 109.359375 11.132812 109.632812 10.871094 C 109.914062 10.613281 110.289062 10.464844 110.761719 10.425781 C 111.164062 10.410156 111.535156 10.53125 111.882812 10.785156 C 112.230469 11.035156 112.472656 11.382812 112.609375 11.835938 C 112.71875 12.199219 112.800781 12.578125 112.859375 12.972656 C 112.921875 13.363281 112.976562 13.75 113.027344 14.132812 C 113.117188 15.105469 113.199219 16.070312 113.277344 17.035156 C 113.355469 18.003906 113.4375 18.972656 113.527344 19.941406 C 113.609375 20.726562 113.820312 21.425781 114.15625 22.042969 C 114.5 22.660156 115 23.1875 115.660156 23.625 C 116.378906 24.105469 117.039062 24.261719 117.652344 24.089844 C 118.269531 23.914062 118.691406 23.417969 118.921875 22.605469 C 119.183594 21.683594 119.390625 20.753906 119.546875 19.808594 C 119.703125 18.859375 119.859375 17.90625 120.019531 16.941406 C 120.125 16.25 120.195312 15.539062 120.238281 14.816406 C 120.28125 14.097656 120.34375 13.382812 120.433594 12.667969 C 120.519531 11.988281 120.714844 11.363281 121.007812 10.792969 C 121.425781 9.996094 122.117188 9.621094 123.097656 9.671875 C 124 9.722656 124.625 10.15625 124.972656 10.972656 Z M 118.191406 7.585938 C 117.6875 7.585938 117.265625 7.449219 116.921875 7.171875 C 116.582031 6.890625 116.414062 6.546875 116.414062 6.128906 C 116.398438 5.78125 116.488281 5.441406 116.679688 5.109375 C 116.871094 4.777344 117.117188 4.507812 117.421875 4.300781 C 117.726562 4.09375 118.046875 3.988281 118.378906 3.988281 C 118.808594 3.988281 119.175781 4.15625 119.484375 4.484375 C 119.789062 4.8125 119.949219 5.203125 119.964844 5.652344 C 119.964844 6.210938 119.792969 6.671875 119.453125 7.039062 C 119.113281 7.402344 118.691406 7.585938 118.191406 7.585938 Z M 113.863281 7.484375 C 113.445312 7.484375 113.101562 7.339844 112.835938 7.054688 C 112.5625 6.765625 112.4375 6.414062 112.453125 5.996094 C 112.453125 5.472656 112.621094 5.023438 112.960938 4.648438 C 113.300781 4.277344 113.707031 4.089844 114.171875 4.089844 C 114.59375 4.089844 114.945312 4.238281 115.234375 4.53125 C 115.515625 4.828125 115.660156 5.203125 115.660156 5.652344 C 115.644531 6.140625 115.457031 6.570312 115.101562 6.9375 C 114.746094 7.300781 114.332031 7.484375 113.863281 7.484375 Z M 113.863281 7.484375 " fill-opacity="1" fill-rule="nonzero"/><path fill="#000000" d="M 145.621094 25.632812 C 146.101562 26.378906 146.101562 27.085938 145.621094 27.742188 C 145.042969 28.488281 144.460938 28.992188 143.867188 29.253906 C 142.007812 30.125 139.96875 30.609375 137.742188 30.714844 C 134.441406 30.472656 131.761719 29.394531 129.714844 27.476562 C 126.96875 24.921875 126.125 21.605469 127.183594 17.519531 C 127.964844 14.441406 129.871094 11.929688 132.890625 9.984375 C 133.585938 9.546875 134.316406 9.222656 135.078125 9.007812 C 135.84375 8.792969 136.613281 8.683594 137.375 8.683594 C 138.277344 8.683594 139.148438 8.828125 139.992188 9.109375 C 140.835938 9.398438 141.605469 9.828125 142.304688 10.402344 C 142.828125 10.835938 143.210938 11.304688 143.457031 11.8125 C 143.660156 12.28125 143.644531 12.695312 143.402344 13.058594 C 143.121094 13.429688 142.703125 13.574219 142.148438 13.503906 C 141.746094 13.472656 141.304688 13.351562 140.816406 13.136719 C 139.011719 12.410156 137.40625 12.324219 136.003906 12.878906 C 134.605469 13.4375 133.3125 14.667969 132.113281 16.578125 C 131.851562 16.996094 131.65625 17.445312 131.519531 17.917969 C 131.390625 18.382812 131.289062 18.808594 131.222656 19.1875 C 130.980469 20.40625 131.140625 21.554688 131.714844 22.632812 C 132.289062 23.710938 133.179688 24.535156 134.378906 25.109375 C 135.316406 25.578125 136.242188 25.851562 137.15625 25.929688 C 138.070312 26.007812 138.949219 25.96875 139.789062 25.8125 C 140.632812 25.65625 141.4375 25.449219 142.203125 25.1875 C 142.425781 25.117188 142.671875 25.039062 142.941406 24.960938 C 143.210938 24.886719 143.46875 24.828125 143.710938 24.792969 C 144.546875 24.710938 145.183594 24.988281 145.621094 25.632812 Z M 145.621094 25.632812 " fill-opacity="1" fill-rule="nonzero"/><path fill="#000000" d="M 162.144531 25.132812 C 162.660156 25.570312 162.992188 26.070312 163.132812 26.636719 C 163.273438 27.195312 163.195312 27.722656 162.898438 28.210938 C 162.601562 28.734375 162.171875 29.0625 161.605469 29.191406 C 161.039062 29.320312 160.417969 29.257812 159.746094 28.996094 C 158.441406 28.457031 157.1875 27.492188 155.984375 26.097656 L 155.183594 25.15625 C 154.746094 24.65625 154.3125 24.148438 153.875 23.640625 C 153.4375 23.125 153.003906 22.617188 152.574219 22.105469 C 152.539062 22.054688 152.5 22.003906 152.464844 21.949219 C 152.433594 21.898438 152.398438 21.839844 152.363281 21.769531 C 152.328125 21.683594 152.292969 21.621094 152.261719 21.582031 L 152.101562 21.328125 L 151.5 21.746094 L 151.5 23.023438 C 151.5 23.527344 151.5 24.023438 151.5 24.511719 C 151.5 24.992188 151.5 25.488281 151.5 25.992188 L 151.5 26.152344 C 151.5 26.363281 151.496094 26.582031 151.484375 26.816406 C 151.480469 27.050781 151.457031 27.269531 151.421875 27.476562 C 151.339844 27.929688 151.148438 28.300781 150.855469 28.597656 C 150.558594 28.894531 150.199219 29.0625 149.78125 29.097656 C 149.363281 29.148438 148.976562 29.070312 148.621094 28.863281 C 148.265625 28.65625 148.019531 28.359375 147.878906 27.976562 C 147.53125 27.089844 147.359375 26.289062 147.359375 25.578125 C 147.359375 23.527344 147.371094 21.472656 147.398438 19.402344 C 147.421875 17.332031 147.453125 15.289062 147.492188 13.269531 L 147.492188 13.011719 C 147.492188 12.613281 147.578125 12.160156 147.746094 11.648438 C 147.992188 10.902344 148.441406 10.539062 149.101562 10.558594 C 149.78125 10.574219 150.199219 10.929688 150.355469 11.625 C 150.457031 12.046875 150.542969 12.46875 150.613281 12.894531 C 150.683594 13.320312 150.746094 13.75 150.800781 14.179688 L 150.902344 14.808594 C 150.9375 15.035156 150.96875 15.253906 150.996094 15.472656 C 151.019531 15.691406 151.039062 15.921875 151.054688 16.164062 C 151.089844 16.410156 151.121094 16.644531 151.140625 16.867188 L 151.1875 17.363281 L 151.765625 16.941406 C 151.867188 16.878906 151.945312 16.816406 152 16.765625 L 158.703125 10.714844 C 158.734375 10.679688 158.804688 10.628906 158.914062 10.558594 L 158.957031 10.527344 C 159.5 10.183594 160.019531 10.023438 160.523438 10.039062 C 161.027344 10.054688 161.4375 10.261719 161.753906 10.660156 C 162.082031 11.082031 162.195312 11.546875 162.097656 12.0625 C 162.003906 12.570312 161.722656 13.023438 161.253906 13.425781 C 160.730469 13.859375 160.191406 14.296875 159.644531 14.730469 C 159.097656 15.164062 158.558594 15.597656 158.023438 16.03125 C 157.746094 16.242188 157.464844 16.453125 157.183594 16.671875 C 156.90625 16.890625 156.632812 17.113281 156.351562 17.339844 C 156.15625 17.476562 155.972656 17.625 155.796875 17.785156 C 155.625 17.941406 155.449219 18.09375 155.261719 18.25 L 154.472656 18.90625 L 154.894531 19.292969 C 154.960938 19.347656 155.019531 19.398438 155.074219 19.449219 C 155.125 19.503906 155.175781 19.546875 155.230469 19.582031 C 155.597656 19.878906 155.957031 20.171875 156.3125 20.453125 C 156.671875 20.742188 157.03125 21.03125 157.394531 21.328125 C 158.191406 21.957031 158.984375 22.585938 159.777344 23.21875 C 160.570312 23.851562 161.359375 24.492188 162.144531 25.132812 Z M 162.144531 25.132812 " fill-opacity="1" fill-rule="nonzero"/><path fill="#000000" d="M 92.804688 47.875 C 93.085938 48.570312 93.195312 49.132812 93.144531 49.570312 C 92.695312 53.101562 92.242188 56.246094 91.792969 59.007812 C 91.703125 59.457031 91.566406 59.910156 91.386719 60.363281 C 91.203125 60.8125 91.007812 61.25 90.796875 61.667969 C 89.890625 63.527344 88.519531 64.726562 86.675781 65.265625 C 84.816406 65.808594 82.992188 65.519531 81.203125 64.402344 C 78.488281 62.71875 77.054688 60.1875 76.898438 56.820312 C 76.882812 56.574219 76.875 56.332031 76.882812 56.085938 C 76.890625 55.84375 76.898438 55.601562 76.898438 55.355469 C 76.898438 55.238281 76.898438 55.121094 76.898438 55.003906 C 76.898438 54.890625 76.898438 54.78125 76.898438 54.679688 L 76.898438 54.390625 L 76.796875 54.390625 L 76.875 53.480469 C 76.925781 52.835938 76.976562 52.191406 77.03125 51.546875 C 77.082031 50.90625 77.140625 50.261719 77.207031 49.617188 C 77.226562 49.375 77.289062 49.085938 77.394531 48.761719 C 77.65625 47.976562 78.152344 47.558594 78.882812 47.507812 C 79.230469 47.492188 79.546875 47.59375 79.832031 47.8125 C 80.117188 48.023438 80.3125 48.324219 80.417969 48.707031 C 80.605469 49.3125 80.746094 50.0625 80.835938 50.949219 C 80.886719 51.539062 80.941406 52.132812 80.992188 52.722656 C 81.042969 53.316406 81.097656 53.90625 81.148438 54.5 C 81.183594 54.863281 81.21875 55.238281 81.25 55.621094 C 81.285156 56 81.320312 56.382812 81.359375 56.765625 C 81.515625 58.46875 82.261719 59.761719 83.601562 60.648438 C 84.46875 61.226562 85.257812 61.382812 85.976562 61.117188 C 86.617188 60.875 87.0625 60.328125 87.308594 59.472656 C 87.542969 58.609375 87.742188 57.730469 87.898438 56.84375 C 88.058594 55.953125 88.199219 55.078125 88.320312 54.210938 L 88.398438 53.789062 C 88.449219 53.414062 88.492188 53.027344 88.53125 52.636719 C 88.5625 52.246094 88.597656 51.855469 88.628906 51.46875 C 88.648438 51.160156 88.675781 50.835938 88.707031 50.496094 C 88.742188 50.15625 88.78125 49.828125 88.816406 49.515625 C 88.90625 48.859375 89.085938 48.257812 89.363281 47.71875 C 89.722656 47.023438 90.324219 46.703125 91.160156 46.753906 C 91.957031 46.789062 92.507812 47.164062 92.804688 47.875 Z M 92.804688 47.875 " fill-opacity="1" fill-rule="nonzero"/><path fill="#000000" d="M 117.804688 60.59375 C 117.855469 61.519531 117.769531 62.46875 117.542969 63.4375 C 117.40625 63.960938 117.167969 64.371094 116.824219 64.667969 C 116.488281 64.964844 116.085938 65.117188 115.617188 65.132812 C 115.199219 65.148438 114.789062 65.027344 114.386719 64.769531 C 113.988281 64.507812 113.734375 64.101562 113.632812 63.546875 C 113.285156 61.859375 113.042969 59.894531 112.902344 57.652344 C 112.847656 57.042969 112.828125 56.4375 112.839844 55.832031 C 112.847656 55.21875 112.855469 54.617188 112.855469 54.023438 C 112.855469 53.75 112.855469 53.46875 112.863281 53.183594 C 112.871094 52.894531 112.878906 52.609375 112.878906 52.335938 C 112.878906 52.179688 112.863281 52.015625 112.839844 51.84375 C 112.8125 51.667969 112.753906 51.484375 112.667969 51.292969 L 112.410156 50.738281 L 112.042969 51.5 C 112.007812 51.585938 111.972656 51.671875 111.9375 51.757812 C 111.90625 51.847656 111.871094 51.933594 111.835938 52.015625 C 111.714844 52.363281 111.59375 52.707031 111.46875 53.050781 C 111.347656 53.390625 111.226562 53.730469 111.101562 54.078125 C 110.894531 54.671875 110.691406 55.261719 110.488281 55.855469 C 110.289062 56.445312 110.078125 57.027344 109.847656 57.597656 L 109.824219 57.707031 C 109.707031 58.035156 109.578125 58.367188 109.445312 58.710938 C 109.3125 59.050781 109.164062 59.371094 108.992188 59.683594 C 108.488281 60.519531 107.828125 60.957031 107.007812 60.992188 C 106.207031 61.023438 105.53125 60.65625 104.976562 59.894531 C 104.664062 59.480469 104.386719 59.039062 104.148438 58.570312 C 103.917969 58.101562 103.695312 57.617188 103.488281 57.128906 C 103.242188 56.605469 103.003906 56.078125 102.773438 55.542969 C 102.539062 55.003906 102.308594 54.464844 102.078125 53.921875 C 101.972656 53.664062 101.859375 53.398438 101.738281 53.128906 C 101.617188 52.859375 101.503906 52.582031 101.402344 52.304688 C 101.347656 52.183594 101.273438 52.054688 101.175781 51.914062 C 101.082031 51.773438 100.957031 51.625 100.800781 51.46875 L 100.414062 51.136719 L 100.257812 52.148438 C 100.242188 52.324219 100.21875 52.503906 100.195312 52.683594 C 100.167969 52.867188 100.144531 53.046875 100.125 53.222656 C 100.058594 53.882812 99.988281 54.539062 99.914062 55.191406 C 99.847656 55.84375 99.777344 56.496094 99.710938 57.152344 C 99.621094 58.078125 99.527344 58.996094 99.433594 59.910156 C 99.339844 60.820312 99.238281 61.734375 99.136719 62.660156 C 99.121094 62.96875 99.089844 63.28125 99.042969 63.585938 C 99 63.886719 98.9375 64.175781 98.847656 64.457031 C 98.707031 64.996094 98.4375 65.421875 98.039062 65.734375 C 97.636719 66.046875 97.1875 66.191406 96.683594 66.175781 C 96.164062 66.160156 95.71875 65.976562 95.34375 65.617188 C 94.96875 65.257812 94.746094 64.820312 94.675781 64.300781 C 94.539062 63.222656 94.539062 62.238281 94.675781 61.351562 C 95.300781 57.511719 96.007812 53.601562 96.792969 49.617188 C 96.964844 48.699219 97.28125 47.804688 97.75 46.929688 C 98.1875 46.167969 98.761719 45.726562 99.480469 45.609375 C 99.582031 45.589844 99.683594 45.578125 99.789062 45.578125 C 100.359375 45.578125 100.898438 45.800781 101.402344 46.253906 C 102.199219 46.984375 103.042969 48.027344 103.933594 49.382812 C 104.210938 49.804688 104.472656 50.246094 104.71875 50.707031 C 104.960938 51.164062 105.210938 51.628906 105.472656 52.101562 C 105.578125 52.324219 105.683594 52.542969 105.792969 52.761719 C 105.90625 52.980469 106.027344 53.203125 106.152344 53.425781 L 106.4375 53.945312 L 106.671875 53.402344 C 106.761719 53.195312 106.84375 52.988281 106.921875 52.777344 C 107 52.566406 107.078125 52.355469 107.164062 52.148438 C 107.339844 51.679688 107.511719 51.230469 107.683594 50.792969 C 107.859375 50.355469 108.042969 49.925781 108.238281 49.492188 C 108.671875 48.53125 109.195312 47.550781 109.800781 46.542969 C 110.097656 46.039062 110.480469 45.570312 110.945312 45.132812 C 111.761719 44.386719 112.605469 44.101562 113.476562 44.277344 C 114.34375 44.449219 115.003906 45.046875 115.453125 46.074219 C 116.257812 47.832031 116.789062 50.003906 117.050781 52.589844 L 117.207031 54.179688 C 117.324219 55.222656 117.4375 56.289062 117.542969 57.378906 C 117.644531 58.464844 117.730469 59.535156 117.804688 60.59375 Z M 117.804688 60.59375 " fill-opacity="1" fill-rule="nonzero"/><path fill="#000000" d="M 131.957031 61.792969 C 132.550781 61.847656 133.046875 62.035156 133.453125 62.355469 C 133.859375 62.679688 134.101562 63.101562 134.175781 63.625 C 134.257812 64.179688 134.152344 64.695312 133.855469 65.171875 C 133.5625 65.652344 133.136719 65.996094 132.578125 66.199219 C 131.742188 66.515625 130.996094 66.675781 130.335938 66.675781 C 129.367188 66.691406 128.394531 66.695312 127.417969 66.683594 C 126.445312 66.679688 125.480469 66.664062 124.523438 66.644531 L 122.832031 66.621094 C 122.757812 66.621094 122.6875 66.617188 122.621094 66.605469 C 122.554688 66.601562 122.484375 66.578125 122.410156 66.542969 L 122.28125 66.519531 C 120.871094 66.1875 119.945312 65.484375 119.492188 64.402344 C 119.074219 63.394531 119.199219 62.320312 119.859375 61.171875 C 120.21875 60.542969 120.632812 59.945312 121.097656 59.371094 C 121.558594 58.796875 122.023438 58.230469 122.488281 57.675781 C 122.613281 57.519531 122.742188 57.363281 122.871094 57.207031 C 123 57.050781 123.125 56.898438 123.246094 56.742188 C 123.820312 56.046875 124.40625 55.34375 124.996094 54.640625 C 125.589844 53.933594 126.167969 53.234375 126.742188 52.535156 C 127.070312 52.160156 127.398438 51.773438 127.722656 51.382812 C 128.042969 50.992188 128.367188 50.601562 128.695312 50.21875 C 128.746094 50.136719 128.804688 50.050781 128.867188 49.960938 C 128.929688 49.871094 128.992188 49.777344 129.0625 49.671875 C 129.097656 49.621094 129.136719 49.5625 129.175781 49.492188 C 129.222656 49.421875 129.273438 49.339844 129.324219 49.25 L 129.660156 48.785156 L 129.0625 48.816406 C 128.816406 48.847656 128.574219 48.875 128.328125 48.894531 C 128.082031 48.910156 127.851562 48.925781 127.628906 48.941406 C 127.101562 48.992188 126.597656 49.039062 126.109375 49.074219 C 125.628906 49.109375 125.152344 49.132812 124.683594 49.148438 C 123.53125 49.203125 122.503906 49.175781 121.601562 49.074219 C 120.824219 48.984375 120.363281 48.539062 120.222656 47.742188 C 120.148438 47.273438 120.21875 46.902344 120.425781 46.628906 C 120.636719 46.347656 120.855469 46.136719 121.082031 45.996094 C 121.605469 45.699219 122.074219 45.527344 122.488281 45.476562 C 123.707031 45.351562 124.933594 45.234375 126.164062 45.125 C 127.398438 45.011719 128.6875 44.890625 130.027344 44.765625 C 130.203125 44.75 130.378906 44.757812 130.5625 44.78125 C 130.746094 44.808594 130.929688 44.832031 131.125 44.851562 C 132.617188 45.078125 133.617188 45.667969 134.121094 46.621094 C 134.625 47.574219 134.5625 48.722656 133.933594 50.0625 C 132.476562 53.15625 130.597656 56.050781 128.304688 58.75 C 128.058594 59.027344 127.824219 59.304688 127.597656 59.582031 C 127.375 59.859375 127.132812 60.15625 126.875 60.46875 C 126.75 60.625 126.621094 60.78125 126.492188 60.9375 C 126.359375 61.09375 126.226562 61.257812 126.085938 61.429688 L 125.722656 61.902344 L 127.339844 61.902344 C 127.671875 61.902344 127.988281 61.902344 128.289062 61.902344 C 128.59375 61.902344 128.898438 61.902344 129.191406 61.902344 C 129.363281 61.882812 129.535156 61.871094 129.707031 61.863281 C 129.882812 61.855469 130.058594 61.847656 130.238281 61.847656 C 130.511719 61.832031 130.792969 61.816406 131.078125 61.800781 C 131.367188 61.78125 131.660156 61.777344 131.957031 61.792969 Z M 131.957031 61.792969 " fill-opacity="1" fill-rule="nonzero"/><path fill="#000000" d="M 152.421875 47.453125 C 152.523438 47.734375 152.613281 48.035156 152.691406 48.355469 C 152.769531 48.679688 152.789062 48.988281 152.753906 49.28125 C 152.570312 50.867188 152.359375 52.449219 152.132812 54.03125 C 151.910156 55.609375 151.664062 57.183594 151.402344 58.75 C 151.332031 59.21875 151.203125 59.683594 151.011719 60.144531 C 150.820312 60.601562 150.617188 61.046875 150.410156 61.484375 C 149.945312 62.460938 149.332031 63.261719 148.574219 63.886719 C 147.816406 64.511719 146.980469 64.953125 146.066406 65.210938 C 145.160156 65.472656 144.214844 65.535156 143.242188 65.398438 C 142.265625 65.257812 141.316406 64.902344 140.398438 64.324219 C 138.957031 63.4375 137.871094 62.335938 137.152344 61.015625 C 136.429688 59.691406 136.035156 58.1875 135.96875 56.507812 C 135.949219 56.160156 135.941406 55.804688 135.953125 55.441406 C 135.964844 55.074219 135.96875 54.714844 135.96875 54.367188 C 135.949219 54.367188 135.925781 54.367188 135.898438 54.367188 C 135.871094 54.367188 135.851562 54.367188 135.835938 54.367188 C 135.902344 53.515625 135.972656 52.667969 136.039062 51.828125 C 136.113281 50.984375 136.191406 50.136719 136.28125 49.28125 C 136.296875 49.125 136.320312 48.976562 136.359375 48.832031 C 136.394531 48.679688 136.429688 48.527344 136.460938 48.371094 C 136.601562 47.949219 136.804688 47.613281 137.082031 47.351562 C 137.363281 47.09375 137.738281 46.945312 138.210938 46.90625 C 138.609375 46.890625 138.984375 47.011719 139.332031 47.265625 C 139.679688 47.515625 139.921875 47.867188 140.058594 48.316406 C 140.164062 48.679688 140.246094 49.0625 140.304688 49.453125 C 140.367188 49.84375 140.425781 50.230469 140.476562 50.613281 C 140.566406 51.585938 140.648438 52.550781 140.726562 53.519531 C 140.804688 54.484375 140.886719 55.453125 140.976562 56.421875 C 141.058594 57.207031 141.265625 57.90625 141.605469 58.523438 C 141.949219 59.144531 142.449219 59.667969 143.109375 60.105469 C 143.824219 60.585938 144.488281 60.742188 145.101562 60.570312 C 145.71875 60.398438 146.140625 59.898438 146.371094 59.085938 C 146.628906 58.167969 146.839844 57.234375 146.992188 56.289062 C 147.148438 55.339844 147.308594 54.386719 147.46875 53.425781 C 147.570312 52.730469 147.644531 52.019531 147.6875 51.300781 C 147.726562 50.578125 147.792969 49.863281 147.882812 49.148438 C 147.96875 48.472656 148.160156 47.847656 148.457031 47.273438 C 148.871094 46.476562 149.566406 46.101562 150.542969 46.152344 C 151.449219 46.207031 152.070312 46.640625 152.421875 47.453125 Z M 145.640625 44.066406 C 145.136719 44.066406 144.710938 43.929688 144.371094 43.652344 C 144.03125 43.375 143.863281 43.027344 143.863281 42.609375 C 143.847656 42.261719 143.9375 41.921875 144.128906 41.589844 C 144.320312 41.257812 144.566406 40.988281 144.867188 40.78125 C 145.175781 40.574219 145.492188 40.46875 145.824219 40.46875 C 146.257812 40.46875 146.625 40.636719 146.929688 40.96875 C 147.238281 41.292969 147.398438 41.683594 147.414062 42.136719 C 147.414062 42.691406 147.242188 43.152344 146.902344 43.519531 C 146.5625 43.886719 146.140625 44.066406 145.640625 44.066406 Z M 141.308594 43.964844 C 140.894531 43.964844 140.550781 43.824219 140.28125 43.535156 C 140.011719 43.246094 139.886719 42.894531 139.902344 42.476562 C 139.902344 41.953125 140.070312 41.503906 140.40625 41.128906 C 140.75 40.757812 141.15625 40.570312 141.621094 40.570312 C 142.042969 40.570312 142.394531 40.71875 142.679688 41.015625 C 142.964844 41.308594 143.109375 41.683594 143.109375 42.136719 C 143.09375 42.625 142.90625 43.050781 142.546875 43.417969 C 142.195312 43.785156 141.78125 43.964844 141.308594 43.964844 Z M 141.308594 43.964844 " fill-opacity="1" fill-rule="nonzero"/><path fill="#000000" d="M 171.136719 59.917969 C 171.167969 60.09375 171.195312 60.273438 171.222656 60.453125 C 171.253906 60.636719 171.277344 60.816406 171.292969 60.992188 C 171.277344 61.179688 171.253906 61.367188 171.222656 61.554688 C 171.195312 61.734375 171.175781 61.921875 171.160156 62.113281 C 171.109375 62.492188 171.050781 62.867188 170.988281 63.242188 C 170.929688 63.617188 170.859375 63.988281 170.769531 64.355469 C 170.542969 65.207031 170.160156 65.738281 169.625 65.945312 C 169.085938 66.1875 168.40625 66.074219 167.585938 65.601562 C 167.464844 65.535156 167.304688 65.5 167.097656 65.5 C 166.902344 65.5 166.703125 65.535156 166.496094 65.601562 C 165.054688 66.089844 163.316406 66.167969 161.28125 65.835938 C 160.429688 65.679688 159.671875 65.414062 159.007812 65.039062 C 158.347656 64.667969 157.777344 64.246094 157.300781 63.78125 C 156.824219 63.308594 156.429688 62.84375 156.117188 62.394531 C 155.371094 61.335938 154.828125 60.179688 154.5 58.921875 C 154.167969 57.660156 154.097656 56.496094 154.289062 55.433594 C 154.570312 53.921875 155.148438 52.535156 156.023438 51.269531 C 156.902344 49.996094 158.027344 48.925781 159.402344 48.050781 C 160.667969 47.238281 162 46.6875 163.398438 46.402344 C 164.800781 46.117188 166.074219 46.128906 167.222656 46.441406 C 167.691406 46.582031 168.175781 46.773438 168.667969 47.015625 C 169.167969 47.257812 169.574219 47.628906 169.882812 48.128906 C 170.113281 48.515625 170.199219 48.945312 170.148438 49.414062 C 170.128906 49.640625 170.039062 49.800781 169.882812 49.90625 C 169.691406 50.03125 169.464844 50.042969 169.207031 49.9375 C 166.371094 48.894531 163.640625 49.40625 161.015625 51.46875 C 159.519531 52.652344 158.667969 54.210938 158.460938 56.140625 C 158.21875 58.15625 159 59.800781 160.8125 61.070312 C 162.605469 62.300781 164.582031 62.535156 166.753906 61.769531 C 166.960938 61.703125 167.164062 61.585938 167.359375 61.414062 C 167.5625 61.238281 167.648438 60.949219 167.617188 60.546875 L 167.617188 60.46875 C 167.617188 60.398438 167.621094 60.316406 167.625 60.222656 C 167.636719 60.125 167.640625 60.03125 167.640625 59.949219 C 167.65625 59.683594 167.664062 59.433594 167.664062 59.195312 C 167.664062 58.949219 167.597656 58.742188 167.460938 58.5625 C 167.335938 58.390625 167.160156 58.285156 166.933594 58.242188 C 166.710938 58.195312 166.476562 58.167969 166.230469 58.152344 C 166.128906 58.152344 166.027344 58.148438 165.929688 58.136719 C 165.835938 58.125 165.742188 58.113281 165.65625 58.097656 L 165.453125 58.066406 C 165.328125 58.035156 165.203125 58.007812 165.078125 57.980469 C 164.960938 57.953125 164.839844 57.921875 164.722656 57.886719 C 164.25 57.679688 164.003906 57.339844 163.988281 56.867188 C 163.972656 56.503906 164.128906 56.226562 164.457031 56.03125 C 166.023438 55.09375 167.660156 54.886719 169.363281 55.410156 C 169.8125 55.53125 170.136719 55.78125 170.328125 56.164062 C 170.519531 56.550781 170.640625 56.878906 170.695312 57.152344 C 170.78125 57.605469 170.863281 58.070312 170.941406 58.539062 C 171.019531 59.007812 171.085938 59.464844 171.136719 59.917969 Z M 171.136719 59.917969 " fill-opacity="1" fill-rule="nonzero"/><path fill="#000000" d="M 183.332031 61.429688 C 183.644531 61.414062 183.980469 61.464844 184.34375 61.578125 C 184.714844 61.691406 185 61.972656 185.210938 62.425781 C 185.539062 63.121094 185.390625 63.808594 184.765625 64.480469 C 184.378906 64.902344 183.929688 65.242188 183.410156 65.5 C 181.183594 66.578125 178.75 66.855469 176.109375 66.332031 C 174.558594 66.023438 173.554688 65.015625 173.085938 63.3125 C 172.792969 62.234375 172.667969 61.152344 172.722656 60.066406 C 172.773438 58.976562 172.867188 57.953125 173.007812 57 C 173.128906 56.199219 173.257812 55.398438 173.398438 54.601562 C 173.539062 53.800781 173.679688 53.011719 173.820312 52.226562 C 173.886719 51.847656 173.949219 51.46875 174.003906 51.097656 C 174.066406 50.722656 174.132812 50.34375 174.207031 49.960938 L 174.230469 49.859375 C 174.25 49.75 174.269531 49.640625 174.285156 49.53125 C 174.300781 49.417969 174.292969 49.296875 174.261719 49.171875 C 174.070312 48.21875 174.484375 47.464844 175.507812 46.90625 C 175.699219 46.804688 175.894531 46.710938 176.09375 46.628906 C 176.292969 46.539062 176.5 46.476562 176.707031 46.441406 L 177.828125 46.285156 C 178.625 46.183594 179.441406 46.074219 180.265625 45.957031 C 181.09375 45.84375 181.917969 45.769531 182.734375 45.730469 C 182.800781 45.730469 182.871094 45.730469 182.945312 45.730469 C 183.757812 45.730469 184.417969 45.96875 184.921875 46.441406 C 185.371094 46.839844 185.609375 47.335938 185.628906 47.929688 C 185.644531 48.585938 185.394531 49.132812 184.882812 49.570312 C 184.367188 50.003906 183.695312 50.242188 182.867188 50.292969 C 182.324219 50.332031 181.785156 50.339844 181.246094 50.324219 C 180.707031 50.304688 180.167969 50.277344 179.628906 50.246094 L 178.949219 50.21875 C 178.621094 50.203125 178.363281 50.199219 178.171875 50.210938 C 177.976562 50.214844 177.824219 50.277344 177.703125 50.402344 C 177.578125 50.507812 177.503906 50.65625 177.484375 50.847656 C 177.46875 51.039062 177.460938 51.300781 177.460938 51.625 C 177.460938 51.957031 177.460938 52.292969 177.460938 52.621094 C 177.460938 52.949219 177.460938 53.28125 177.460938 53.613281 L 177.460938 54.910156 L 177.804688 54.863281 C 177.996094 54.828125 178.183594 54.792969 178.367188 54.757812 C 178.546875 54.722656 178.734375 54.675781 178.925781 54.625 C 179.324219 54.558594 179.71875 54.488281 180.109375 54.421875 C 180.503906 54.347656 180.890625 54.296875 181.269531 54.265625 C 182.246094 54.179688 183.148438 54.230469 183.988281 54.421875 C 184.734375 54.578125 185.132812 55.035156 185.1875 55.800781 C 185.21875 56.234375 185.117188 56.582031 184.890625 56.835938 C 184.667969 57.082031 184.433594 57.269531 184.1875 57.386719 C 183.582031 57.703125 182.992188 57.890625 182.421875 57.941406 C 181.867188 57.992188 181.296875 58.03125 180.710938 58.058594 C 180.128906 58.085938 179.542969 58.117188 178.949219 58.152344 C 178.703125 58.152344 178.457031 58.160156 178.203125 58.175781 C 177.953125 58.1875 177.699219 58.195312 177.4375 58.195312 L 177.183594 58.226562 L 177.183594 58.484375 C 177.183594 58.605469 177.183594 58.734375 177.183594 58.867188 C 177.183594 58.996094 177.183594 59.121094 177.183594 59.242188 C 177.183594 59.605469 177.183594 59.976562 177.183594 60.355469 C 177.183594 60.726562 177.191406 61.097656 177.207031 61.460938 C 177.207031 61.582031 177.246094 61.6875 177.324219 61.785156 C 177.398438 61.878906 177.464844 61.953125 177.515625 62.003906 C 177.589844 62.058594 177.675781 62.113281 177.78125 62.175781 C 177.886719 62.238281 177.996094 62.269531 178.117188 62.269531 C 179.089844 62.195312 180.167969 62.066406 181.347656 61.871094 C 181.507812 61.855469 181.660156 61.828125 181.808594 61.785156 C 181.957031 61.738281 182.097656 61.699219 182.234375 61.667969 C 182.425781 61.617188 182.613281 61.574219 182.796875 61.53125 C 182.976562 61.484375 183.15625 61.449219 183.332031 61.429688 Z M 183.332031 61.429688 " fill-opacity="1" fill-rule="nonzero"/><g clip-path="url(#03c47d2f08)"><path fill="#000000" d="M 34.199219 19.3125 C 34.167969 19.910156 34.160156 20.507812 34.125 21.109375 C 34.078125 21.882812 34.042969 22.65625 34.019531 23.429688 C 34 24.089844 33.96875 24.746094 33.949219 25.402344 C 33.929688 26.152344 33.9375 26.90625 33.914062 27.660156 C 33.875 28.78125 33.976562 29.90625 33.835938 31.027344 C 33.742188 31.773438 33.570312 32.5 33.300781 33.207031 C 33.175781 33.527344 33.003906 33.8125 32.730469 34.019531 C 32.222656 34.398438 31.640625 34.621094 31.035156 34.777344 C 30.632812 34.878906 30.214844 34.878906 29.796875 34.863281 C 29.132812 34.832031 28.464844 34.828125 27.804688 34.894531 C 27.457031 34.929688 27.109375 34.898438 26.765625 34.929688 C 26.117188 34.992188 25.472656 34.945312 24.832031 34.875 C 24.238281 34.808594 23.648438 34.707031 23.054688 34.648438 C 22.148438 34.550781 21.238281 34.523438 20.328125 34.507812 C 18.671875 34.484375 17.011719 34.5 15.351562 34.5 C 15.140625 34.5 14.929688 34.515625 14.71875 34.523438 C 13.867188 34.566406 13.027344 34.695312 12.183594 34.789062 C 11.296875 34.890625 10.40625 34.957031 9.519531 35.019531 C 8.769531 35.074219 8.015625 35.078125 7.269531 35.125 C 6.570312 35.171875 5.871094 35.191406 5.167969 35.167969 C 4.988281 35.164062 4.808594 35.140625 4.628906 35.113281 C 3.929688 35.011719 3.296875 34.746094 2.707031 34.363281 C 1.796875 33.777344 1.136719 33 0.777344 31.96875 C 0.402344 30.878906 0.285156 29.75 0.257812 28.609375 C 0.234375 27.484375 0.277344 26.363281 0.355469 25.246094 C 0.390625 24.699219 0.414062 24.152344 0.421875 23.609375 C 0.433594 22.832031 0.480469 22.058594 0.535156 21.285156 C 0.566406 20.804688 0.589844 20.324219 0.617188 19.84375 C 0.667969 18.960938 0.765625 18.082031 0.808594 17.195312 C 0.855469 16.269531 0.875 15.34375 0.917969 14.414062 C 0.949219 13.664062 0.945312 12.910156 0.953125 12.15625 C 0.96875 10.859375 0.953125 9.558594 1.035156 8.261719 C 1.054688 7.933594 1.070312 7.605469 1.113281 7.28125 C 1.179688 6.75 1.265625 6.226562 1.351562 5.695312 C 1.472656 4.972656 1.65625 4.261719 2.03125 3.617188 C 2.246094 3.246094 2.539062 2.941406 2.9375 2.761719 C 3.484375 2.507812 4.0625 2.347656 4.640625 2.1875 C 5.433594 1.96875 6.246094 1.867188 7.058594 1.753906 C 8.183594 1.59375 9.308594 1.488281 10.441406 1.480469 C 10.761719 1.480469 11.078125 1.492188 11.394531 1.472656 C 11.988281 1.429688 12.582031 1.429688 13.175781 1.457031 C 14.144531 1.503906 15.109375 1.570312 16.078125 1.582031 C 16.773438 1.589844 17.464844 1.589844 18.160156 1.5625 C 18.933594 1.535156 19.714844 1.558594 20.488281 1.558594 C 20.488281 1.554688 20.488281 1.550781 20.488281 1.550781 C 21.152344 1.550781 21.820312 1.542969 22.484375 1.550781 C 22.894531 1.554688 23.304688 1.574219 23.71875 1.59375 C 24.402344 1.632812 25.082031 1.722656 25.769531 1.734375 C 26.386719 1.75 27.003906 1.75 27.621094 1.765625 C 27.785156 1.769531 27.949219 1.800781 28.109375 1.828125 C 28.613281 1.917969 29.09375 2.097656 29.585938 2.230469 C 30.015625 2.34375 30.460938 2.398438 30.847656 2.648438 C 31.652344 3.171875 32.277344 3.851562 32.59375 4.753906 C 32.996094 5.894531 33.347656 7.050781 33.546875 8.25 C 33.652344 8.867188 33.800781 9.480469 33.832031 10.109375 C 33.863281 10.761719 33.917969 11.417969 33.875 12.074219 C 33.84375 12.488281 33.953125 12.878906 34.011719 13.277344 C 34.15625 14.320312 34.195312 15.371094 34.214844 16.421875 C 34.234375 17.382812 34.242188 18.347656 34.199219 19.3125 Z M 34.199219 19.3125 " fill-opacity="1" fill-rule="nonzero"/></g><g clip-path="url(#877a6f6d37)"><path fill="#000000" d="M 34.363281 53.210938 C 34.335938 52.613281 34.324219 52.015625 34.289062 51.414062 C 34.242188 50.640625 34.207031 49.867188 34.183594 49.09375 C 34.164062 48.433594 34.132812 47.777344 34.113281 47.121094 C 34.09375 46.371094 34.101562 45.617188 34.074219 44.863281 C 34.042969 43.742188 34.140625 42.617188 34 41.496094 C 33.910156 40.75 33.734375 40.023438 33.464844 39.316406 C 33.34375 38.996094 33.167969 38.710938 32.894531 38.503906 C 32.386719 38.125 31.804688 37.90625 31.199219 37.746094 C 30.792969 37.644531 30.378906 37.644531 29.960938 37.660156 C 29.296875 37.691406 28.628906 37.695312 27.96875 37.628906 C 27.621094 37.59375 27.273438 37.625 26.929688 37.59375 C 26.28125 37.53125 25.636719 37.578125 24.996094 37.648438 C 24.402344 37.714844 23.8125 37.816406 23.21875 37.878906 C 22.3125 37.976562 21.402344 38.003906 20.492188 38.015625 C 18.835938 38.039062 17.175781 38.027344 15.515625 38.023438 C 15.304688 38.023438 15.09375 38.011719 14.882812 38 C 14.03125 37.957031 13.191406 37.828125 12.347656 37.734375 C 11.460938 37.632812 10.574219 37.566406 9.683594 37.503906 C 8.933594 37.453125 8.183594 37.445312 7.429688 37.398438 C 6.734375 37.355469 6.035156 37.335938 5.335938 37.355469 C 5.152344 37.363281 4.972656 37.382812 4.792969 37.410156 C 4.09375 37.511719 3.460938 37.777344 2.871094 38.160156 C 1.960938 38.746094 1.300781 39.523438 0.945312 40.554688 C 0.5625 41.644531 0.449219 42.773438 0.425781 43.914062 C 0.398438 45.039062 0.445312 46.160156 0.519531 47.277344 C 0.554688 47.824219 0.578125 48.371094 0.585938 48.914062 C 0.597656 49.691406 0.644531 50.464844 0.699219 51.238281 C 0.730469 51.71875 0.753906 52.199219 0.78125 52.679688 C 0.832031 53.5625 0.933594 54.445312 0.976562 55.328125 C 1.019531 56.257812 1.042969 57.183594 1.082031 58.109375 C 1.113281 58.859375 1.109375 59.617188 1.117188 60.367188 C 1.132812 61.664062 1.117188 62.964844 1.199219 64.261719 C 1.21875 64.589844 1.234375 64.917969 1.277344 65.246094 C 1.347656 65.773438 1.429688 66.300781 1.515625 66.828125 C 1.636719 67.554688 1.820312 68.261719 2.195312 68.90625 C 2.414062 69.28125 2.707031 69.582031 3.101562 69.765625 C 3.648438 70.011719 4.226562 70.175781 4.804688 70.335938 C 5.597656 70.554688 6.410156 70.65625 7.226562 70.769531 C 8.347656 70.929688 9.472656 71.039062 10.605469 71.046875 C 10.925781 71.046875 11.246094 71.03125 11.558594 71.050781 C 12.152344 71.09375 12.75 71.09375 13.339844 71.066406 C 14.308594 71.019531 15.277344 70.957031 16.242188 70.945312 C 16.9375 70.9375 17.628906 70.9375 18.324219 70.960938 C 19.101562 70.992188 19.875 70.96875 20.652344 70.96875 C 20.652344 70.972656 20.652344 70.972656 20.652344 70.976562 C 21.320312 70.976562 21.984375 70.980469 22.648438 70.972656 C 23.0625 70.96875 23.472656 70.953125 23.882812 70.929688 C 24.566406 70.894531 25.246094 70.800781 25.9375 70.789062 C 26.554688 70.773438 27.171875 70.773438 27.789062 70.757812 C 27.949219 70.753906 28.113281 70.722656 28.273438 70.695312 C 28.777344 70.605469 29.257812 70.429688 29.75 70.296875 C 30.179688 70.179688 30.628906 70.125 31.015625 69.875 C 31.816406 69.351562 32.441406 68.671875 32.761719 67.769531 C 33.160156 66.628906 33.507812 65.472656 33.714844 64.273438 C 33.816406 63.65625 33.964844 63.046875 33.996094 62.417969 C 34.03125 61.761719 34.082031 61.105469 34.039062 60.449219 C 34.011719 60.039062 34.117188 59.644531 34.171875 59.246094 C 34.324219 58.203125 34.363281 57.152344 34.382812 56.105469 C 34.398438 55.140625 34.40625 54.175781 34.363281 53.210938 Z M 34.363281 53.210938 " fill-opacity="1" fill-rule="nonzero"/></g><g clip-path="url(#1c7fdd3123)"><path fill="#000000" d="M 68.375 53.210938 C 68.347656 52.613281 68.335938 52.015625 68.300781 51.414062 C 68.253906 50.640625 68.21875 49.867188 68.195312 49.09375 C 68.175781 48.433594 68.148438 47.777344 68.128906 47.121094 C 68.105469 46.371094 68.113281 45.617188 68.089844 44.863281 C 68.054688 43.742188 68.152344 42.617188 68.011719 41.496094 C 67.921875 40.75 67.746094 40.023438 67.476562 39.316406 C 67.355469 38.996094 67.179688 38.710938 66.90625 38.503906 C 66.398438 38.125 65.816406 37.90625 65.210938 37.746094 C 64.804688 37.644531 64.390625 37.644531 63.972656 37.660156 C 63.308594 37.691406 62.640625 37.695312 61.980469 37.628906 C 61.632812 37.59375 61.285156 37.625 60.941406 37.59375 C 60.292969 37.53125 59.648438 37.578125 59.007812 37.648438 C 58.414062 37.714844 57.824219 37.816406 57.230469 37.878906 C 56.324219 37.976562 55.414062 38.003906 54.507812 38.015625 C 52.847656 38.039062 51.1875 38.027344 49.527344 38.023438 C 49.316406 38.023438 49.105469 38.011719 48.894531 38 C 48.042969 37.957031 47.203125 37.828125 46.359375 37.734375 C 45.472656 37.632812 44.585938 37.566406 43.695312 37.503906 C 42.945312 37.453125 42.195312 37.445312 41.445312 37.398438 C 40.746094 37.355469 40.046875 37.335938 39.34375 37.355469 C 39.164062 37.363281 38.984375 37.382812 38.804688 37.410156 C 38.105469 37.511719 37.472656 37.777344 36.882812 38.160156 C 35.972656 38.746094 35.3125 39.523438 34.957031 40.554688 C 34.578125 41.644531 34.460938 42.773438 34.4375 43.914062 C 34.410156 45.039062 34.457031 46.160156 34.53125 47.277344 C 34.566406 47.824219 34.59375 48.371094 34.601562 48.914062 C 34.609375 49.691406 34.65625 50.464844 34.710938 51.238281 C 34.742188 51.71875 34.765625 52.199219 34.792969 52.679688 C 34.84375 53.5625 34.945312 54.445312 34.988281 55.328125 C 35.03125 56.257812 35.054688 57.183594 35.09375 58.109375 C 35.125 58.859375 35.121094 59.617188 35.128906 60.367188 C 35.144531 61.664062 35.128906 62.964844 35.210938 64.261719 C 35.230469 64.589844 35.246094 64.917969 35.289062 65.246094 C 35.355469 65.773438 35.441406 66.300781 35.527344 66.828125 C 35.648438 67.554688 35.828125 68.261719 36.207031 68.90625 C 36.425781 69.28125 36.71875 69.582031 37.113281 69.765625 C 37.660156 70.011719 38.238281 70.175781 38.816406 70.335938 C 39.609375 70.554688 40.421875 70.65625 41.234375 70.769531 C 42.359375 70.929688 43.484375 71.039062 44.617188 71.046875 C 44.933594 71.046875 45.253906 71.03125 45.570312 71.050781 C 46.164062 71.09375 46.761719 71.09375 47.351562 71.066406 C 48.320312 71.019531 49.285156 70.957031 50.253906 70.945312 C 50.949219 70.9375 51.640625 70.9375 52.335938 70.960938 C 53.113281 70.992188 53.890625 70.96875 54.664062 70.96875 C 54.664062 70.972656 54.664062 70.972656 54.664062 70.976562 C 55.332031 70.976562 55.996094 70.980469 56.660156 70.972656 C 57.070312 70.96875 57.484375 70.953125 57.894531 70.929688 C 58.578125 70.894531 59.257812 70.800781 59.949219 70.789062 C 60.566406 70.773438 61.183594 70.773438 61.800781 70.757812 C 61.960938 70.753906 62.125 70.722656 62.285156 70.695312 C 62.789062 70.605469 63.269531 70.429688 63.761719 70.296875 C 64.191406 70.179688 64.640625 70.125 65.027344 69.875 C 65.832031 69.351562 66.453125 68.671875 66.769531 67.769531 C 67.171875 66.628906 67.523438 65.472656 67.722656 64.273438 C 67.828125 63.65625 67.976562 63.046875 68.007812 62.417969 C 68.039062 61.761719 68.097656 61.105469 68.050781 60.449219 C 68.019531 60.039062 68.128906 59.644531 68.183594 59.246094 C 68.335938 58.203125 68.371094 57.152344 68.390625 56.105469 C 68.410156 55.140625 68.417969 54.175781 68.375 53.210938 Z M 68.375 53.210938 " fill-opacity="1" fill-rule="nonzero"/></g><g clip-path="url(#f817ce825a)"><path fill="#ffffff" d="M 69.296875 14.796875 C 69.15625 15.078125 69.101562 15.394531 68.804688 15.589844 C 68.296875 15.914062 67.816406 16.277344 67.324219 16.621094 C 67.132812 16.753906 66.945312 16.886719 66.722656 17.042969 C 66.734375 17.234375 66.742188 17.402344 66.753906 17.574219 C 66.792969 18.296875 66.84375 19.019531 66.878906 19.742188 C 66.925781 20.710938 66.96875 21.675781 67.003906 22.644531 C 67.03125 23.417969 67.039062 24.191406 67.050781 24.964844 C 67.054688 25.109375 67.039062 25.257812 67.035156 25.40625 C 67.023438 25.734375 66.894531 25.996094 66.617188 26.183594 C 66.214844 26.464844 65.828125 26.761719 65.421875 27.042969 C 63.355469 28.457031 61.222656 29.765625 59.019531 30.945312 C 58.433594 31.257812 57.835938 31.539062 57.242188 31.832031 C 57.152344 31.875 57.0625 31.914062 56.96875 31.949219 C 56.691406 32.054688 56.40625 32.105469 56.109375 32.058594 C 55.792969 32.007812 55.472656 31.988281 55.15625 31.957031 C 54.546875 31.902344 53.9375 31.855469 53.328125 31.789062 C 52.632812 31.710938 51.941406 31.621094 51.25 31.527344 C 50.554688 31.429688 49.867188 31.324219 49.175781 31.214844 C 48.390625 31.089844 47.605469 30.964844 46.820312 30.816406 C 45.535156 30.566406 44.253906 30.304688 42.972656 30.027344 C 41.714844 29.757812 40.464844 29.449219 39.234375 29.070312 C 39.015625 29 38.796875 28.925781 38.609375 28.773438 C 38.414062 28.617188 38.308594 28.425781 38.304688 28.175781 C 38.300781 27.867188 38.269531 27.5625 38.261719 27.257812 C 38.230469 26.105469 38.203125 24.949219 38.171875 23.796875 C 38.144531 22.671875 38.117188 21.542969 38.085938 20.414062 C 38.082031 20.269531 38.089844 20.117188 38.015625 19.964844 C 37.601562 19.839844 37.183594 19.714844 36.765625 19.578125 C 36.320312 19.433594 35.878906 19.289062 35.441406 19.132812 C 35.234375 19.058594 35.039062 18.953125 34.839844 18.851562 C 34.742188 18.800781 34.660156 18.726562 34.617188 18.621094 C 34.578125 18.527344 34.5625 18.4375 34.609375 18.335938 C 34.742188 18.0625 34.855469 17.773438 35.003906 17.507812 C 35.660156 16.355469 36.320312 15.207031 37.078125 14.121094 C 37.246094 13.882812 37.421875 13.640625 37.59375 13.40625 C 37.640625 13.335938 37.691406 13.265625 37.734375 13.195312 C 37.71875 12.996094 37.597656 12.851562 37.496094 12.699219 C 37.039062 12.03125 36.578125 11.367188 36.117188 10.699219 C 35.917969 10.40625 35.710938 10.113281 35.519531 9.816406 C 35.4375 9.691406 35.382812 9.554688 35.324219 9.421875 C 35.273438 9.304688 35.316406 9.199219 35.414062 9.128906 C 35.53125 9.046875 35.660156 8.96875 35.785156 8.894531 C 36.527344 8.46875 37.308594 8.105469 38.085938 7.746094 C 40.132812 6.800781 42.234375 5.984375 44.355469 5.226562 C 44.816406 5.0625 45.292969 4.945312 45.761719 4.800781 C 45.933594 4.746094 46.078125 4.785156 46.199219 4.90625 C 46.285156 4.992188 46.367188 5.085938 46.441406 5.1875 C 47.066406 6.050781 47.6875 6.917969 48.308594 7.785156 C 48.34375 7.832031 48.378906 7.882812 48.421875 7.9375 C 48.546875 7.847656 48.59375 7.71875 48.660156 7.605469 C 48.960938 7.042969 49.257812 6.480469 49.558594 5.917969 C 49.738281 5.585938 49.925781 5.25 50.109375 4.917969 C 50.148438 4.84375 50.195312 4.769531 50.242188 4.699219 C 50.296875 4.613281 50.378906 4.558594 50.484375 4.546875 C 50.644531 4.535156 50.804688 4.519531 50.960938 4.519531 C 51.746094 4.535156 52.53125 4.546875 53.316406 4.574219 C 54.027344 4.601562 54.738281 4.648438 55.449219 4.691406 C 55.949219 4.71875 56.449219 4.75 56.953125 4.789062 C 57.390625 4.824219 57.832031 4.867188 58.269531 4.90625 C 58.574219 4.933594 58.882812 4.960938 59.1875 4.992188 C 60.125 5.097656 61.0625 5.1875 62 5.3125 C 62.871094 5.429688 63.742188 5.582031 64.613281 5.722656 C 65.207031 5.820312 65.796875 5.921875 66.386719 6.035156 C 66.660156 6.089844 66.933594 6.167969 67.203125 6.25 C 67.472656 6.332031 67.5625 6.523438 67.476562 6.792969 C 67.449219 6.875 67.417969 6.953125 67.382812 7.03125 C 67.007812 7.84375 66.632812 8.65625 66.25 9.464844 C 66.105469 9.773438 65.933594 10.070312 65.765625 10.386719 C 65.835938 10.453125 65.898438 10.527344 65.972656 10.585938 C 66.414062 10.941406 66.804688 11.34375 67.152344 11.792969 C 67.746094 12.554688 68.34375 13.316406 68.933594 14.089844 C 69.058594 14.253906 69.15625 14.441406 69.257812 14.621094 C 69.289062 14.675781 69.316406 14.757812 69.296875 14.796875 Z M 69.296875 14.796875 " fill-opacity="1" fill-rule="nonzero"/></g><path fill="#000000" d="M 64.902344 10.425781 C 64.980469 10.445312 65.054688 10.464844 65.132812 10.484375 C 65.125 10.488281 65.117188 10.492188 65.109375 10.496094 C 63.101562 11.464844 61.132812 12.515625 59.167969 13.574219 C 58.21875 14.085938 57.269531 14.59375 56.316406 15.101562 C 56.167969 15.183594 56.015625 15.269531 55.855469 15.328125 C 55.640625 15.410156 55.417969 15.445312 55.179688 15.394531 C 54.734375 15.300781 54.285156 15.242188 53.839844 15.167969 C 53.136719 15.054688 52.433594 14.9375 51.734375 14.824219 C 51.1875 14.738281 50.644531 14.65625 50.097656 14.574219 C 49.566406 14.492188 49.035156 14.410156 48.488281 14.324219 C 48.476562 14.242188 48.457031 14.175781 48.460938 14.105469 C 48.476562 13.183594 48.492188 12.265625 48.511719 11.347656 C 48.53125 10.644531 48.558594 9.949219 48.472656 9.25 C 48.460938 9.152344 48.46875 9.050781 48.363281 8.996094 C 48.285156 9.011719 48.269531 9.070312 48.277344 9.132812 C 48.363281 9.78125 48.324219 10.429688 48.3125 11.082031 C 48.296875 11.753906 48.269531 12.429688 48.25 13.101562 C 48.242188 13.410156 48.242188 13.714844 48.234375 14.023438 C 48.234375 14.097656 48.226562 14.167969 48.222656 14.257812 C 48.148438 14.257812 48.089844 14.273438 48.03125 14.261719 C 47.207031 14.148438 46.382812 14.019531 45.558594 13.90625 C 44.855469 13.808594 44.148438 13.714844 43.441406 13.636719 C 42.847656 13.570312 42.246094 13.523438 41.648438 13.464844 C 41.050781 13.40625 40.453125 13.339844 39.859375 13.273438 C 39.421875 13.222656 38.984375 13.164062 38.546875 13.113281 C 38.523438 13.109375 38.492188 13.101562 38.472656 13.113281 C 38.460938 13.117188 38.449219 13.125 38.4375 13.132812 C 38.445312 12.992188 38.550781 12.84375 38.65625 12.714844 C 38.726562 12.722656 38.769531 12.734375 38.800781 12.722656 C 38.894531 12.691406 38.984375 12.644531 39.074219 12.605469 C 40 12.191406 40.925781 11.777344 41.855469 11.359375 C 43.507812 10.621094 45.15625 9.867188 46.847656 9.21875 C 47.179688 9.09375 47.511719 8.964844 47.839844 8.832031 C 47.9375 8.792969 48.03125 8.734375 48.128906 8.679688 C 48.332031 8.714844 48.539062 8.761719 48.75 8.789062 C 48.734375 8.792969 48.722656 8.800781 48.710938 8.804688 C 48.90625 8.847656 49.011719 8.878906 49.117188 8.894531 C 50.027344 9.023438 50.949219 9.050781 51.863281 9.117188 C 52.390625 9.15625 52.917969 9.179688 53.441406 9.214844 C 53.785156 9.238281 54.125 9.265625 54.46875 9.296875 C 54.871094 9.335938 55.273438 9.375 55.675781 9.414062 C 56.257812 9.472656 56.84375 9.527344 57.429688 9.589844 C 57.953125 9.648438 58.476562 9.714844 59 9.777344 C 59.652344 9.859375 60.308594 9.941406 60.964844 10.027344 C 61.667969 10.117188 62.375 10.210938 63.078125 10.308594 C 63.527344 10.367188 63.976562 10.433594 64.421875 10.492188 C 64.53125 10.507812 64.644531 10.511719 64.753906 10.511719 C 64.789062 10.515625 64.828125 10.511719 64.859375 10.492188 C 64.875 10.476562 64.894531 10.453125 64.902344 10.425781 Z M 64.902344 10.425781 " fill-opacity="1" fill-rule="nonzero"/><g clip-path="url(#f996d036f8)"><path fill="#000000" d="M 38.75 28.382812 C 38.710938 27.464844 38.671875 26.566406 38.632812 25.671875 C 38.625 25.492188 38.621094 25.304688 38.617188 25.121094 C 38.585938 24.054688 38.566406 22.988281 38.523438 21.921875 C 38.503906 21.382812 38.441406 20.84375 38.402344 20.308594 C 38.398438 20.25 38.394531 20.1875 38.390625 20.144531 C 38.464844 20.070312 38.519531 20.105469 38.574219 20.121094 C 40.515625 20.6875 42.472656 21.195312 44.4375 21.664062 C 45.855469 22.003906 47.277344 22.316406 48.710938 22.59375 C 49.453125 22.738281 50.199219 22.878906 50.949219 23.007812 C 51.261719 23.058594 51.582031 23.074219 51.898438 23.109375 C 51.9375 23.113281 51.972656 23.109375 52.011719 23.109375 C 52.480469 23.121094 52.824219 22.945312 53.050781 22.503906 C 53.417969 21.785156 53.769531 21.054688 54.066406 20.304688 C 54.574219 19.015625 55.046875 17.710938 55.460938 16.390625 C 55.484375 16.308594 55.519531 16.234375 55.5625 16.117188 C 55.621094 16.203125 55.664062 16.257812 55.691406 16.316406 C 55.855469 16.617188 56.007812 16.925781 56.171875 17.230469 C 56.699219 18.238281 57.222656 19.253906 57.765625 20.257812 C 57.976562 20.644531 58.226562 21.011719 58.476562 21.375 C 58.566406 21.515625 58.699219 21.632812 58.828125 21.742188 C 58.96875 21.863281 59.140625 21.894531 59.3125 21.816406 C 59.523438 21.722656 59.738281 21.628906 59.933594 21.507812 C 60.757812 20.996094 61.585938 20.492188 62.394531 19.960938 C 63.625 19.152344 64.835938 18.316406 66.054688 17.496094 C 66.152344 17.429688 66.257812 17.371094 66.355469 17.308594 C 66.382812 17.351562 66.40625 17.367188 66.40625 17.390625 C 66.417969 17.683594 66.433594 17.976562 66.4375 18.269531 C 66.46875 20.75 66.578125 23.222656 66.589844 25.703125 C 66.5 25.773438 66.425781 25.835938 66.347656 25.890625 C 63.878906 27.585938 61.339844 29.167969 58.691406 30.566406 C 58.140625 30.855469 57.574219 31.121094 57.015625 31.398438 C 56.839844 31.488281 56.671875 31.585938 56.457031 31.707031 C 56.328125 31.691406 56.148438 31.671875 55.96875 31.652344 C 55.445312 31.589844 54.921875 31.523438 54.398438 31.460938 C 53.9375 31.402344 53.472656 31.347656 53.011719 31.285156 C 52.34375 31.199219 51.675781 31.109375 51.007812 31.011719 C 50.355469 30.917969 49.703125 30.8125 49.046875 30.703125 C 48.144531 30.550781 47.238281 30.398438 46.332031 30.230469 C 44.878906 29.957031 43.429688 29.644531 41.988281 29.296875 C 40.898438 29.035156 39.816406 28.773438 38.75 28.382812 Z M 55.5625 17.273438 C 55.488281 17.347656 55.480469 17.40625 55.480469 17.464844 C 55.488281 17.761719 55.496094 18.054688 55.507812 18.347656 C 55.542969 19.023438 55.582031 19.695312 55.617188 20.371094 C 55.648438 21.042969 55.679688 21.71875 55.710938 22.390625 C 55.734375 22.882812 55.761719 23.371094 55.785156 23.863281 C 55.824219 24.632812 55.875 25.402344 55.902344 26.175781 C 55.9375 27.269531 55.949219 28.363281 55.980469 29.453125 C 55.988281 29.832031 56.015625 30.210938 56.035156 30.59375 C 56.039062 30.652344 56.050781 30.714844 56.074219 30.769531 C 56.085938 30.796875 56.132812 30.832031 56.160156 30.828125 C 56.203125 30.824219 56.257812 30.796875 56.269531 30.765625 C 56.300781 30.6875 56.316406 30.601562 56.320312 30.515625 C 56.328125 30.097656 56.339844 29.679688 56.324219 29.261719 C 56.292969 28.292969 56.246094 27.328125 56.207031 26.359375 C 56.175781 25.707031 56.144531 25.058594 56.109375 24.410156 C 56.085938 23.96875 56.058594 23.527344 56.03125 23.085938 C 55.96875 22.132812 55.902344 21.179688 55.839844 20.222656 C 55.78125 19.378906 55.726562 18.535156 55.671875 17.691406 C 55.664062 17.558594 55.667969 17.421875 55.5625 17.273438 Z M 55.5625 17.273438 " fill-opacity="1" fill-rule="nonzero"/></g><g clip-path="url(#88e31fc33d)"><path fill="#000000" d="M 66.917969 6.949219 C 66.464844 7.957031 66.003906 8.957031 65.550781 9.960938 C 65.492188 10.085938 65.441406 10.207031 65.375 10.363281 C 65.3125 10.394531 65.222656 10.441406 65.132812 10.484375 C 65.054688 10.464844 64.980469 10.445312 64.902344 10.425781 C 64.90625 10.417969 64.90625 10.414062 64.910156 10.40625 C 64.914062 10.390625 64.890625 10.359375 64.867188 10.347656 C 64.824219 10.328125 64.777344 10.3125 64.734375 10.304688 C 64.378906 10.253906 64.03125 10.207031 63.679688 10.160156 C 63.214844 10.097656 62.757812 10.042969 62.292969 9.980469 C 61.832031 9.917969 61.371094 9.851562 60.910156 9.792969 C 60.4375 9.730469 59.964844 9.671875 59.492188 9.617188 C 58.980469 9.554688 58.472656 9.484375 57.960938 9.429688 C 57.339844 9.363281 56.71875 9.3125 56.09375 9.257812 C 55.414062 9.195312 54.730469 9.121094 54.046875 9.066406 C 53.304688 9.007812 52.554688 8.957031 51.808594 8.921875 C 50.832031 8.871094 49.851562 8.828125 48.875 8.722656 C 48.851562 8.722656 48.828125 8.742188 48.746094 8.785156 C 48.539062 8.757812 48.332031 8.714844 48.125 8.675781 C 48.128906 8.675781 48.128906 8.675781 48.128906 8.675781 C 48.144531 8.667969 48.160156 8.625 48.152344 8.613281 C 48.132812 8.585938 48.097656 8.546875 48.074219 8.554688 C 47.886719 8.597656 47.691406 8.632812 47.511719 8.707031 C 46.648438 9.054688 45.78125 9.390625 44.933594 9.769531 C 43.046875 10.613281 41.164062 11.476562 39.28125 12.335938 C 39.117188 12.410156 38.949219 12.488281 38.785156 12.566406 C 38.777344 12.570312 38.773438 12.574219 38.769531 12.578125 C 38.769531 12.578125 38.769531 12.578125 38.773438 12.574219 C 38.769531 12.578125 38.769531 12.578125 38.769531 12.578125 C 38.726562 12.605469 38.6875 12.648438 38.617188 12.710938 C 38.632812 12.710938 38.644531 12.710938 38.65625 12.714844 C 38.554688 12.847656 38.445312 12.992188 38.4375 13.132812 C 38.398438 13.15625 38.359375 13.175781 38.335938 13.210938 C 38.296875 13.269531 38.332031 13.359375 38.402344 13.398438 C 38.457031 13.429688 38.511719 13.457031 38.570312 13.472656 C 38.734375 13.519531 38.902344 13.570312 39.070312 13.59375 C 39.492188 13.65625 39.917969 13.707031 40.34375 13.757812 C 40.90625 13.828125 41.464844 13.890625 42.027344 13.953125 C 42.527344 14.011719 43.027344 14.0625 43.523438 14.125 C 44.21875 14.210938 44.910156 14.300781 45.601562 14.398438 C 46.171875 14.476562 46.742188 14.5625 47.3125 14.644531 C 47.859375 14.726562 48.402344 14.808594 48.945312 14.894531 C 49.492188 14.976562 50.035156 15.066406 50.582031 15.152344 C 51.117188 15.234375 51.648438 15.320312 52.179688 15.402344 C 52.734375 15.492188 53.292969 15.582031 53.847656 15.667969 C 54.136719 15.710938 54.429688 15.757812 54.722656 15.792969 C 54.890625 15.816406 55.0625 15.820312 55.25 15.839844 C 55.246094 15.890625 55.25 15.9375 55.238281 15.976562 C 54.707031 17.375 54.179688 18.777344 53.640625 20.167969 C 53.375 20.855469 53.058594 21.519531 52.710938 22.167969 C 52.59375 22.382812 52.472656 22.597656 52.269531 22.753906 C 52.207031 22.75 52.148438 22.75 52.085938 22.738281 C 51.476562 22.621094 50.859375 22.503906 50.246094 22.386719 C 49.296875 22.203125 48.34375 22.035156 47.398438 21.832031 C 45.179688 21.371094 42.980469 20.835938 40.792969 20.246094 C 39.101562 19.789062 37.417969 19.3125 35.75 18.769531 C 35.472656 18.683594 35.1875 18.605469 34.9375 18.429688 C 34.957031 18.390625 34.964844 18.351562 34.988281 18.328125 C 35.261719 18.027344 35.464844 17.675781 35.660156 17.320312 C 36.355469 16.035156 37.113281 14.785156 37.964844 13.597656 C 38.167969 13.3125 38.148438 13.027344 38.050781 12.726562 C 38.007812 12.601562 37.941406 12.480469 37.867188 12.367188 C 37.625 11.996094 37.390625 11.625 37.128906 11.269531 C 36.664062 10.636719 36.1875 10.015625 35.710938 9.386719 C 35.75 9.261719 35.871094 9.246094 35.964844 9.199219 C 37.21875 8.554688 38.503906 7.976562 39.804688 7.433594 C 41.320312 6.804688 42.859375 6.234375 44.402344 5.675781 C 44.863281 5.507812 45.320312 5.335938 45.792969 5.160156 C 46.175781 5.671875 46.558594 6.183594 46.9375 6.695312 C 47.28125 7.15625 47.621094 7.621094 47.964844 8.085938 C 48.003906 8.132812 48.039062 8.183594 48.074219 8.234375 C 48.265625 8.472656 48.34375 8.488281 48.597656 8.335938 C 48.730469 8.257812 48.828125 8.152344 48.90625 8.023438 C 49.027344 7.824219 49.144531 7.625 49.261719 7.421875 C 49.710938 6.621094 50.15625 5.816406 50.605469 5.011719 C 50.628906 4.972656 50.65625 4.933594 50.6875 4.886719 C 51.171875 4.910156 51.648438 4.933594 52.125 4.957031 C 52.257812 4.964844 52.390625 4.976562 52.527344 4.984375 C 53.226562 5.015625 53.925781 5.039062 54.621094 5.082031 C 55.113281 5.109375 55.601562 5.15625 56.089844 5.195312 C 56.519531 5.230469 56.949219 5.253906 57.375 5.292969 C 57.789062 5.328125 58.207031 5.371094 58.621094 5.410156 C 58.914062 5.4375 59.207031 5.464844 59.5 5.503906 C 60.289062 5.597656 61.078125 5.691406 61.871094 5.792969 C 63.242188 5.964844 64.605469 6.207031 65.96875 6.453125 C 66.316406 6.515625 66.667969 6.570312 67.015625 6.628906 C 67.035156 6.761719 66.960938 6.851562 66.917969 6.949219 Z M 68.820312 14.734375 C 68.46875 14.261719 68.125 13.785156 67.761719 13.316406 C 67.3125 12.734375 66.855469 12.160156 66.386719 11.589844 C 66.132812 11.28125 65.84375 10.996094 65.542969 10.75 C 65.507812 10.75 65.492188 10.746094 65.484375 10.75 C 62.917969 12.105469 60.351562 13.46875 57.78125 14.816406 C 57.175781 15.136719 56.550781 15.421875 55.933594 15.722656 C 55.921875 15.730469 55.910156 15.734375 55.902344 15.746094 C 55.890625 15.753906 55.882812 15.761719 55.875 15.769531 C 55.871094 15.777344 55.871094 15.792969 55.867188 15.796875 C 56.921875 17.691406 57.898438 19.632812 59.03125 21.5 C 59.136719 21.457031 59.226562 21.425781 59.308594 21.378906 C 59.492188 21.273438 59.667969 21.167969 59.84375 21.054688 C 60.988281 20.296875 62.140625 19.546875 63.277344 18.773438 C 65.160156 17.492188 67.035156 16.191406 68.917969 14.894531 C 68.882812 14.835938 68.855469 14.78125 68.820312 14.734375 Z M 68.820312 14.734375 " fill-opacity="1" fill-rule="nonzero"/></g><g clip-path="url(#51514f9261)"><path fill="#ffffff" d="M 17.097656 17.601562 C 16.136719 24.304688 16.691406 26.414062 21.535156 28.941406 C 21.957031 29.03125 22.660156 28.96875 22.445312 28.386719 C 16.957031 25.222656 17.242188 24.488281 17.613281 17.523438 C 16.414062 38.71875 36.992188 13.871094 17.902344 16.6875 C 37.527344 14.859375 16.621094 -2.699219 17.289062 16.050781 C 17.617188 -2.832031 -2.933594 16.992188 16.578125 16.710938 C -2.042969 16.335938 15.703125 37.347656 17.097656 17.601562 Z M 17.097656 17.601562 " fill-opacity="1" fill-rule="nonzero"/></g><g clip-path="url(#7879fd05a9)"><path stroke-linecap="butt" transform="matrix(0.027573, 0, 0, 0.027573, 5.048603, 5.08961)" fill="none" stroke-linejoin="miter" d="M 436.987387 453.77553 C 402.136717 696.880204 422.25377 773.381675 597.923815 865.041771 C 613.224109 868.300167 638.724599 866.033457 630.932783 844.924717 C 431.887289 730.172511 442.229154 703.538666 455.687746 450.942142 C 412.195244 1219.640256 1158.509593 318.481262 466.171281 420.624893 C 1177.9183 354.323618 419.703721 -282.480293 443.929187 397.532782 C 455.829416 -287.297052 -289.493248 431.675105 418.145358 421.474909 C -257.192627 407.874647 386.411414 1169.914299 436.987387 453.77553 Z M 436.987387 453.77553 " stroke="#000000" stroke-width="0.312" stroke-opacity="1" stroke-miterlimit="4"/></g><path fill="#ffffff" d="M 16.929688 14.917969 C 16.476562 13.085938 16.703125 8.953125 13.726562 8.238281 C 9.558594 8.128906 8.191406 11.832031 8.621094 13.628906 C 9.667969 16.285156 13.523438 16.023438 16.3125 16.210938 " fill-opacity="1" fill-rule="evenodd"/><g clip-path="url(#54cf0d8d70)"><path fill="#ffffff" d="M 17.453125 14.585938 C 17.957031 11.964844 18.070312 8.449219 21.042969 7.738281 C 25.21875 7.625 26.695312 11.21875 25.984375 13.015625 C 24.488281 15.671875 21.195312 16.082031 18.40625 16.269531 " fill-opacity="1" fill-rule="evenodd"/></g><g clip-path="url(#3bb5dfdec5)"><path fill="#ffffff" d="M 16.855469 18.167969 C 16.417969 19.984375 16.128906 25.046875 13.234375 25.753906 C 9.789062 26.59375 7.84375 22.183594 8.261719 20.402344 C 9.28125 17.761719 13.765625 17.070312 16.476562 16.882812 " fill-opacity="1" fill-rule="evenodd"/></g><path fill="#ffffff" d="M 17.789062 18.457031 C 18.238281 20.289062 17.453125 25.210938 20.429688 25.921875 C 24.597656 26.035156 26.246094 20.925781 25.816406 19.128906 C 24.769531 16.472656 21.304688 16.789062 18.574219 16.882812 " fill-opacity="1" fill-rule="evenodd"/><g clip-path="url(#9be559fb4d)"><path fill="#ffffff" d="M 18.890625 66.09375 C 18.859375 66.09375 18.828125 66.085938 18.796875 66.074219 L 6.910156 61.726562 C 6.804688 61.6875 6.734375 61.589844 6.730469 61.476562 L 6.507812 51.394531 C 6.503906 51.242188 6.625 51.117188 6.777344 51.113281 C 6.925781 51.109375 7.050781 51.230469 7.054688 51.378906 L 7.277344 61.277344 L 18.621094 65.425781 L 18.703125 54.75 C 18.703125 54.597656 18.824219 54.480469 18.976562 54.480469 C 18.976562 54.480469 18.976562 54.480469 18.980469 54.480469 C 19.132812 54.480469 19.253906 54.601562 19.253906 54.753906 L 19.167969 65.820312 C 19.167969 65.910156 19.121094 65.992188 19.046875 66.042969 C 19.003906 66.074219 18.945312 66.09375 18.890625 66.09375 " fill-opacity="1" fill-rule="evenodd"/></g><g clip-path="url(#99a671d43a)"><path fill="#ffffff" d="M 18.890625 66.09375 C 18.84375 66.09375 18.800781 66.082031 18.757812 66.058594 C 18.671875 66.007812 18.617188 65.917969 18.617188 65.816406 L 18.703125 54.75 C 18.703125 54.597656 18.824219 54.480469 18.976562 54.480469 C 18.976562 54.480469 18.976562 54.480469 18.980469 54.480469 C 19.132812 54.480469 19.253906 54.601562 19.253906 54.753906 L 19.171875 65.316406 L 27.167969 60.195312 L 27.511719 50.574219 C 27.515625 50.421875 27.644531 50.300781 27.796875 50.308594 C 27.949219 50.3125 28.066406 50.441406 28.0625 50.589844 L 27.710938 60.359375 C 27.707031 60.449219 27.660156 60.53125 27.582031 60.582031 L 19.039062 66.050781 C 18.996094 66.078125 18.941406 66.09375 18.890625 66.09375 " fill-opacity="1" fill-rule="evenodd"/></g><path fill="#ffffff" d="M 6.890625 51.132812 L 17.554688 54.074219 L 14.5625 51.941406 L 3.621094 49.179688 Z M 18.976562 55.027344 C 18.953125 55.027344 18.929688 55.027344 18.902344 55.019531 L 6.710938 51.652344 C 6.683594 51.644531 6.664062 51.636719 6.640625 51.625 L 1.726562 48.691406 C 1.613281 48.621094 1.5625 48.476562 1.617188 48.347656 C 1.667969 48.226562 1.804688 48.15625 1.9375 48.191406 L 14.746094 51.421875 C 14.777344 51.429688 14.808594 51.445312 14.839844 51.464844 L 19.136719 54.53125 C 19.246094 54.605469 19.285156 54.75 19.226562 54.871094 C 19.179688 54.96875 19.082031 55.027344 18.976562 55.027344 " fill-opacity="1" fill-rule="evenodd"/><g clip-path="url(#f7873e9d66)"><path fill="#ffffff" d="M 24.28125 49.878906 L 20.308594 53.820312 L 27.628906 50.351562 L 31.316406 46.925781 Z M 18.976562 55.027344 C 18.890625 55.027344 18.804688 54.988281 18.75 54.910156 C 18.675781 54.800781 18.691406 54.652344 18.78125 54.558594 L 23.933594 49.449219 C 23.957031 49.425781 23.988281 49.410156 24.019531 49.394531 L 32.53125 45.820312 C 32.652344 45.765625 32.796875 45.8125 32.871094 45.921875 C 32.941406 46.035156 32.921875 46.183594 32.824219 46.273438 L 27.972656 50.785156 C 27.953125 50.804688 27.929688 50.820312 27.902344 50.832031 L 19.09375 55.003906 C 19.058594 55.019531 19.015625 55.027344 18.976562 55.027344 " fill-opacity="1" fill-rule="evenodd"/></g><g clip-path="url(#e84cbaea1f)"><path fill="#ffffff" d="M 5.457031 49.078125 L 9.242188 50.03125 L 15.78125 47.71875 L 12.476562 42.941406 L 3.269531 45.394531 Z M 9.253906 50.59375 C 9.230469 50.59375 9.207031 50.589844 9.1875 50.585938 L 5.210938 49.582031 C 5.140625 49.5625 5.082031 49.519531 5.042969 49.453125 L 2.613281 45.363281 C 2.566406 45.285156 2.5625 45.195312 2.59375 45.117188 C 2.625 45.035156 2.695312 44.976562 2.777344 44.953125 L 12.523438 42.359375 C 12.636719 42.328125 12.753906 42.375 12.820312 42.46875 L 16.4375 47.703125 C 16.484375 47.773438 16.5 47.863281 16.472656 47.941406 C 16.445312 48.023438 16.382812 48.089844 16.304688 48.117188 L 9.347656 50.578125 C 9.316406 50.589844 9.285156 50.59375 9.253906 50.59375 " fill-opacity="1" fill-rule="evenodd"/></g><path fill="#ffffff" d="M 16.675781 47.675781 L 24.332031 49.261719 L 29.40625 47.132812 L 30.453125 45.378906 L 19.652344 43.480469 Z M 24.359375 49.824219 C 24.339844 49.824219 24.324219 49.824219 24.304688 49.816406 L 16.15625 48.128906 C 16.0625 48.109375 15.988281 48.046875 15.953125 47.960938 C 15.921875 47.871094 15.933594 47.773438 15.984375 47.703125 L 19.304688 43.019531 C 19.367188 42.933594 19.472656 42.890625 19.578125 42.90625 L 30.941406 44.90625 C 31.03125 44.921875 31.105469 44.980469 31.144531 45.0625 C 31.179688 45.144531 31.175781 45.242188 31.128906 45.320312 L 29.832031 47.492188 C 29.804688 47.539062 29.757812 47.582031 29.703125 47.601562 L 24.464844 49.800781 C 24.429688 49.816406 24.394531 49.824219 24.359375 49.824219 " fill-opacity="1" fill-rule="evenodd"/><path fill="#ffffff" d="M 8.601562 59.933594 L 11.578125 60.980469 L 11.632812 58.160156 L 8.621094 57.328125 Z M 11.84375 61.636719 C 11.8125 61.636719 11.78125 61.632812 11.753906 61.621094 L 8.234375 60.386719 C 8.125 60.347656 8.050781 60.242188 8.050781 60.125 L 8.074219 56.964844 C 8.074219 56.878906 8.113281 56.800781 8.183594 56.75 C 8.25 56.699219 8.339844 56.683594 8.421875 56.703125 L 11.984375 57.6875 C 12.105469 57.71875 12.1875 57.832031 12.183594 57.957031 L 12.117188 61.371094 C 12.117188 61.457031 12.074219 61.539062 12 61.589844 C 11.953125 61.621094 11.898438 61.640625 11.84375 61.636719 " fill-opacity="1" fill-rule="evenodd"/><g clip-path="url(#406aaf51ac)"><path stroke-linecap="butt" transform="matrix(0.027573, 0, 0, 0.027573, 39.224992, 40.990531)" fill-opacity="1" fill="#ffffff" fill-rule="nonzero" stroke-linejoin="miter" d="M 436.965359 453.827134 C 402.114689 696.931809 422.231743 773.29161 597.760118 864.951706 C 613.202081 868.351771 638.560902 865.943392 631.052425 844.834652 C 431.865261 730.082446 442.207127 703.59027 455.665719 450.993747 C 412.031547 1219.69186 1158.629235 318.532866 466.149254 420.676497 C 1177.896272 354.375222 419.823363 -282.428689 443.90716 397.442717 C 455.949058 -287.245448 -289.656945 431.58504 418.12333 421.526513 C -257.214655 407.784582 386.389387 1169.824235 436.965359 453.827134 Z M 436.965359 453.827134 " stroke="#000000" stroke-width="0.312" stroke-opacity="1" stroke-miterlimit="4"/></g><path fill="#ffffff" d="M 51.105469 50.820312 C 50.65625 48.988281 50.878906 44.851562 47.90625 44.140625 C 43.734375 44.027344 42.367188 47.734375 42.796875 49.527344 C 43.84375 52.1875 47.699219 51.925781 50.488281 52.113281 " fill-opacity="1" fill-rule="evenodd"/><g clip-path="url(#7fdef2586f)"><path fill="#ffffff" d="M 51.628906 50.484375 C 52.132812 47.867188 52.246094 44.347656 55.21875 43.636719 C 59.394531 43.523438 60.871094 47.117188 60.160156 48.914062 C 58.664062 51.570312 55.371094 51.984375 52.582031 52.171875 " fill-opacity="1" fill-rule="evenodd"/></g><g clip-path="url(#33591de3f5)"><path fill="#ffffff" d="M 51.03125 54.066406 C 50.59375 55.886719 50.308594 60.949219 47.410156 61.652344 C 43.96875 62.496094 42.023438 58.085938 42.441406 56.300781 C 43.460938 53.664062 47.941406 52.96875 50.652344 52.785156 " fill-opacity="1" fill-rule="evenodd"/></g><path fill="#ffffff" d="M 51.964844 54.355469 C 52.414062 56.191406 51.628906 61.113281 54.601562 61.824219 C 58.777344 61.9375 60.421875 56.828125 59.992188 55.03125 C 58.945312 52.371094 55.484375 52.691406 52.75 52.785156 " fill-opacity="1" fill-rule="evenodd"/></svg>