<svg xmlns="http://www.w3.org/2000/svg" xmlns:xlink="http://www.w3.org/1999/xlink" width="350" zoomAndPan="magnify" viewBox="0 0 262.5 74.999997" height="100" preserveAspectRatio="xMidYMid meet" version="1.0"><defs><g/><clipPath id="bb10ba21ab"><path d="M 189 11 L 198 11 L 198 27 L 189 27 Z M 189 11 " clip-rule="nonzero"/></clipPath><clipPath id="9be1d40493"><path d="M 192.089844 10.773438 L 201.601562 15.171875 L 195.628906 28.082031 L 186.117188 23.683594 Z M 192.089844 10.773438 " clip-rule="nonzero"/></clipPath><clipPath id="1563839b82"><path d="M 187.945312 5.996094 L 207.648438 15.109375 L 198.222656 35.488281 L 178.519531 26.375 Z M 187.945312 5.996094 " clip-rule="nonzero"/></clipPath><clipPath id="ca0b6fbece"><path d="M 190 13 L 196 13 L 196 23 L 190 23 Z M 190 13 " clip-rule="nonzero"/></clipPath><clipPath id="0844bbca78"><path d="M 192.089844 10.773438 L 201.601562 15.171875 L 195.628906 28.082031 L 186.117188 23.683594 Z M 192.089844 10.773438 " clip-rule="nonzero"/></clipPath><clipPath id="df788e50fa"><path d="M 187.945312 5.996094 L 207.648438 15.109375 L 198.222656 35.488281 L 178.519531 26.375 Z M 187.945312 5.996094 " clip-rule="nonzero"/></clipPath><clipPath id="36f0831270"><path d="M 191 14 L 193 14 L 193 20 L 191 20 Z M 191 14 " clip-rule="nonzero"/></clipPath><clipPath id="22c043a22a"><path d="M 192.089844 10.773438 L 201.601562 15.171875 L 195.628906 28.082031 L 186.117188 23.683594 Z M 192.089844 10.773438 " clip-rule="nonzero"/></clipPath><clipPath id="ff6a3b1942"><path d="M 187.945312 5.996094 L 207.648438 15.109375 L 198.222656 35.488281 L 178.519531 26.375 Z M 187.945312 5.996094 " clip-rule="nonzero"/></clipPath><clipPath id="2de75a5ff9"><path d="M 0 3.035156 L 51 3.035156 L 51 65 L 0 65 Z M 0 3.035156 " clip-rule="nonzero"/></clipPath><clipPath id="bd79134786"><path d="M 0 3.035156 L 51 3.035156 L 51 65 L 0 65 Z M 0 3.035156 " clip-rule="nonzero"/></clipPath><clipPath id="c6c1e4ecde"><path d="M 11 3.035156 L 30 3.035156 L 30 27 L 11 27 Z M 11 3.035156 " clip-rule="nonzero"/></clipPath><clipPath id="c1d4c8e41a"><path d="M 6.207031 34 L 24 34 L 24 51 L 6.207031 51 Z M 6.207031 34 " clip-rule="nonzero"/></clipPath><clipPath id="0af0e18734"><path d="M 6.207031 34.019531 L 24.421875 34.019531 L 24.421875 51.179688 L 6.207031 51.179688 Z M 6.207031 34.019531 " clip-rule="nonzero"/></clipPath><clipPath id="7f7bd9c192"><path d="M 28 34 L 45.878906 34 L 45.878906 51 L 28 51 Z M 28 34 " clip-rule="nonzero"/></clipPath><clipPath id="eb4bd5b204"><path d="M 27.527344 34.019531 L 45.734375 34.019531 L 45.734375 51.179688 L 27.527344 51.179688 Z M 27.527344 34.019531 " clip-rule="nonzero"/></clipPath></defs><g fill="#ffffff" fill-opacity="1"><g transform="translate(53.617961, 59.170276)"><g><path d="M 7.21875 0 C 6.21875 0 5.390625 -0.332031 4.734375 -1 C 4.078125 -1.675781 3.75 -2.519531 3.75 -3.53125 L 3.75 -27.390625 C 3.75 -28.390625 4.078125 -29.222656 4.734375 -29.890625 C 5.390625 -30.566406 6.21875 -30.90625 7.21875 -30.90625 C 8.21875 -30.90625 9.046875 -30.566406 9.703125 -29.890625 C 10.359375 -29.222656 10.6875 -28.390625 10.6875 -27.390625 L 10.6875 -21.953125 L 10.28125 -25.828125 C 10.707031 -26.753906 11.253906 -27.570312 11.921875 -28.28125 C 12.597656 -29 13.359375 -29.597656 14.203125 -30.078125 C 15.054688 -30.554688 15.960938 -30.910156 16.921875 -31.140625 C 17.890625 -31.367188 18.851562 -31.484375 19.8125 -31.484375 C 20.96875 -31.484375 21.941406 -31.15625 22.734375 -30.5 C 23.523438 -29.851562 23.921875 -29.085938 23.921875 -28.203125 C 23.921875 -26.929688 23.59375 -26.015625 22.9375 -25.453125 C 22.28125 -24.890625 21.566406 -24.609375 20.796875 -24.609375 C 20.066406 -24.609375 19.398438 -24.742188 18.796875 -25.015625 C 18.203125 -25.285156 17.519531 -25.421875 16.75 -25.421875 C 16.0625 -25.421875 15.359375 -25.253906 14.640625 -24.921875 C 13.929688 -24.597656 13.273438 -24.085938 12.671875 -23.390625 C 12.078125 -22.703125 11.597656 -21.847656 11.234375 -20.828125 C 10.867188 -19.804688 10.6875 -18.601562 10.6875 -17.21875 L 10.6875 -3.53125 C 10.6875 -2.519531 10.359375 -1.675781 9.703125 -1 C 9.046875 -0.332031 8.21875 0 7.21875 0 Z M 7.21875 0 "/></g></g><g transform="translate(78.697699, 59.170276)"><g><path d="M 29.0625 -31.484375 C 30.0625 -31.484375 30.890625 -31.15625 31.546875 -30.5 C 32.203125 -29.851562 32.53125 -29.007812 32.53125 -27.96875 L 32.53125 -3.53125 C 32.53125 -2.519531 32.203125 -1.675781 31.546875 -1 C 30.890625 -0.332031 30.0625 0 29.0625 0 C 28.0625 0 27.234375 -0.332031 26.578125 -1 C 25.921875 -1.675781 25.59375 -2.519531 25.59375 -3.53125 L 25.59375 -6.359375 L 26.875 -5.828125 C 26.875 -5.328125 26.601562 -4.722656 26.0625 -4.015625 C 25.519531 -3.304688 24.785156 -2.601562 23.859375 -1.90625 C 22.941406 -1.207031 21.851562 -0.617188 20.59375 -0.140625 C 19.34375 0.335938 17.988281 0.578125 16.53125 0.578125 C 13.863281 0.578125 11.453125 -0.101562 9.296875 -1.46875 C 7.140625 -2.84375 5.4375 -4.734375 4.1875 -7.140625 C 2.9375 -9.546875 2.3125 -12.304688 2.3125 -15.421875 C 2.3125 -18.585938 2.9375 -21.375 4.1875 -23.78125 C 5.4375 -26.1875 7.117188 -28.070312 9.234375 -29.4375 C 11.359375 -30.800781 13.710938 -31.484375 16.296875 -31.484375 C 17.953125 -31.484375 19.472656 -31.234375 20.859375 -30.734375 C 22.242188 -30.234375 23.445312 -29.597656 24.46875 -28.828125 C 25.488281 -28.054688 26.273438 -27.273438 26.828125 -26.484375 C 27.390625 -25.703125 27.671875 -25.039062 27.671875 -24.5 L 25.59375 -23.75 L 25.59375 -27.96875 C 25.59375 -28.96875 25.921875 -29.800781 26.578125 -30.46875 C 27.234375 -31.144531 28.0625 -31.484375 29.0625 -31.484375 Z M 17.390625 -5.78125 C 19.085938 -5.78125 20.570312 -6.203125 21.84375 -7.046875 C 23.113281 -7.898438 24.101562 -9.054688 24.8125 -10.515625 C 25.53125 -11.984375 25.890625 -13.617188 25.890625 -15.421875 C 25.890625 -17.273438 25.53125 -18.929688 24.8125 -20.390625 C 24.101562 -21.859375 23.113281 -23.015625 21.84375 -23.859375 C 20.570312 -24.710938 19.085938 -25.140625 17.390625 -25.140625 C 15.734375 -25.140625 14.269531 -24.710938 13 -23.859375 C 11.726562 -23.015625 10.734375 -21.859375 10.015625 -20.390625 C 9.304688 -18.929688 8.953125 -17.273438 8.953125 -15.421875 C 8.953125 -13.617188 9.304688 -11.984375 10.015625 -10.515625 C 10.734375 -9.054688 11.726562 -7.898438 13 -7.046875 C 14.269531 -6.203125 15.734375 -5.78125 17.390625 -5.78125 Z M 17.390625 -5.78125 "/></g></g><g transform="translate(114.988196, 59.170276)"><g><path d="M 20.28125 -31.484375 C 23.132812 -31.484375 25.300781 -30.882812 26.78125 -29.6875 C 28.257812 -28.5 29.28125 -26.910156 29.84375 -24.921875 C 30.40625 -22.941406 30.6875 -20.738281 30.6875 -18.3125 L 30.6875 -3.53125 C 30.6875 -2.519531 30.359375 -1.675781 29.703125 -1 C 29.046875 -0.332031 28.21875 0 27.21875 0 C 26.21875 0 25.390625 -0.332031 24.734375 -1 C 24.078125 -1.675781 23.75 -2.519531 23.75 -3.53125 L 23.75 -18.3125 C 23.75 -19.582031 23.582031 -20.726562 23.25 -21.75 C 22.925781 -22.769531 22.335938 -23.585938 21.484375 -24.203125 C 20.640625 -24.828125 19.429688 -25.140625 17.859375 -25.140625 C 16.316406 -25.140625 15.015625 -24.828125 13.953125 -24.203125 C 12.890625 -23.585938 12.078125 -22.769531 11.515625 -21.75 C 10.960938 -20.726562 10.6875 -19.582031 10.6875 -18.3125 L 10.6875 -3.53125 C 10.6875 -2.519531 10.359375 -1.675781 9.703125 -1 C 9.046875 -0.332031 8.21875 0 7.21875 0 C 6.21875 0 5.390625 -0.332031 4.734375 -1 C 4.078125 -1.675781 3.75 -2.519531 3.75 -3.53125 L 3.75 -27.390625 C 3.75 -28.390625 4.078125 -29.222656 4.734375 -29.890625 C 5.390625 -30.566406 6.21875 -30.90625 7.21875 -30.90625 C 8.21875 -30.90625 9.046875 -30.566406 9.703125 -29.890625 C 10.359375 -29.222656 10.6875 -28.390625 10.6875 -27.390625 L 10.6875 -24.90625 L 9.828125 -25.078125 C 10.171875 -25.734375 10.671875 -26.4375 11.328125 -27.1875 C 11.984375 -27.9375 12.753906 -28.640625 13.640625 -29.296875 C 14.523438 -29.953125 15.523438 -30.476562 16.640625 -30.875 C 17.753906 -31.28125 18.96875 -31.484375 20.28125 -31.484375 Z M 20.28125 -31.484375 "/></g></g></g><g fill="#ffffff" fill-opacity="1"><g transform="translate(149.429488, 59.170276)"><g><path d="M 16.578125 -31.484375 C 18.203125 -31.484375 19.6875 -31.234375 21.03125 -30.734375 C 22.382812 -30.234375 23.550781 -29.597656 24.53125 -28.828125 C 25.507812 -28.054688 26.273438 -27.273438 26.828125 -26.484375 C 27.390625 -25.703125 27.671875 -25.039062 27.671875 -24.5 L 26.171875 -23.75 L 26.171875 -27.96875 C 26.171875 -28.96875 26.5 -29.800781 27.15625 -30.46875 C 27.8125 -31.144531 28.640625 -31.484375 29.640625 -31.484375 C 30.640625 -31.484375 31.46875 -31.15625 32.125 -30.5 C 32.78125 -29.851562 33.109375 -29.007812 33.109375 -27.96875 L 33.109375 -2.25 C 33.109375 1.101562 32.382812 3.789062 30.9375 5.8125 C 29.5 7.832031 27.601562 9.296875 25.25 10.203125 C 22.894531 11.109375 20.375 11.5625 17.6875 11.5625 C 16.914062 11.5625 15.910156 11.460938 14.671875 11.265625 C 13.441406 11.078125 12.265625 10.847656 11.140625 10.578125 C 10.023438 10.304688 9.179688 10.054688 8.609375 9.828125 C 7.453125 9.328125 6.648438 8.695312 6.203125 7.9375 C 5.765625 7.1875 5.679688 6.390625 5.953125 5.546875 C 6.296875 4.429688 6.851562 3.671875 7.625 3.265625 C 8.394531 2.859375 9.203125 2.8125 10.046875 3.125 C 10.429688 3.238281 11.066406 3.46875 11.953125 3.8125 C 12.847656 4.15625 13.820312 4.472656 14.875 4.765625 C 15.9375 5.054688 16.875 5.203125 17.6875 5.203125 C 20.570312 5.203125 22.707031 4.625 24.09375 3.46875 C 25.476562 2.3125 26.171875 0.710938 26.171875 -1.328125 L 26.171875 -6.359375 L 26.875 -5.828125 C 26.875 -5.328125 26.613281 -4.722656 26.09375 -4.015625 C 25.570312 -3.304688 24.859375 -2.601562 23.953125 -1.90625 C 23.046875 -1.207031 21.972656 -0.617188 20.734375 -0.140625 C 19.503906 0.335938 18.195312 0.578125 16.8125 0.578125 C 14.082031 0.578125 11.617188 -0.101562 9.421875 -1.46875 C 7.222656 -2.84375 5.488281 -4.734375 4.21875 -7.140625 C 2.945312 -9.546875 2.3125 -12.304688 2.3125 -15.421875 C 2.3125 -18.585938 2.945312 -21.375 4.21875 -23.78125 C 5.488281 -26.1875 7.203125 -28.070312 9.359375 -29.4375 C 11.515625 -30.800781 13.921875 -31.484375 16.578125 -31.484375 Z M 17.6875 -25.140625 C 15.945312 -25.140625 14.421875 -24.710938 13.109375 -23.859375 C 11.804688 -23.015625 10.785156 -21.859375 10.046875 -20.390625 C 9.316406 -18.929688 8.953125 -17.273438 8.953125 -15.421875 C 8.953125 -13.617188 9.316406 -11.984375 10.046875 -10.515625 C 10.785156 -9.054688 11.804688 -7.898438 13.109375 -7.046875 C 14.421875 -6.203125 15.945312 -5.78125 17.6875 -5.78125 C 19.457031 -5.78125 20.992188 -6.203125 22.296875 -7.046875 C 23.609375 -7.898438 24.628906 -9.054688 25.359375 -10.515625 C 26.097656 -11.984375 26.46875 -13.617188 26.46875 -15.421875 C 26.46875 -17.273438 26.097656 -18.929688 25.359375 -20.390625 C 24.628906 -21.859375 23.609375 -23.015625 22.296875 -23.859375 C 20.992188 -24.710938 19.457031 -25.140625 17.6875 -25.140625 Z M 17.6875 -25.140625 "/></g></g></g><g fill="#ffffff" fill-opacity="1"><g transform="translate(186.297856, 59.170276)"><g><path d="M 10.28125 -3.53125 C 10.28125 -2.519531 9.953125 -1.675781 9.296875 -1 C 8.648438 -0.332031 7.820312 0 6.8125 0 C 5.8125 0 4.984375 -0.332031 4.328125 -1 C 3.671875 -1.675781 3.34375 -2.519531 3.34375 -3.53125 L 3.34375 -27.390625 C 3.34375 -28.390625 3.671875 -29.222656 4.328125 -29.890625 C 4.984375 -30.566406 5.8125 -30.90625 6.8125 -30.90625 C 7.820312 -30.90625 8.648438 -30.566406 9.296875 -29.890625 C 9.953125 -29.222656 10.28125 -28.390625 10.28125 -27.390625 Z M 6.75 -34.671875 C 5.4375 -34.671875 4.507812 -34.878906 3.96875 -35.296875 C 3.4375 -35.722656 3.171875 -36.476562 3.171875 -37.5625 L 3.171875 -38.65625 C 3.171875 -39.769531 3.46875 -40.53125 4.0625 -40.9375 C 4.664062 -41.34375 5.582031 -41.546875 6.8125 -41.546875 C 8.15625 -41.546875 9.097656 -41.332031 9.640625 -40.90625 C 10.179688 -40.488281 10.453125 -39.738281 10.453125 -38.65625 L 10.453125 -37.5625 C 10.453125 -36.4375 10.160156 -35.671875 9.578125 -35.265625 C 9.003906 -34.867188 8.0625 -34.671875 6.75 -34.671875 Z M 6.75 -34.671875 "/></g></g></g><g fill="#ffffff" fill-opacity="1"><g transform="translate(199.935689, 59.170276)"><g><path d="M 23.453125 -6.359375 C 24.378906 -6.359375 25.148438 -6.054688 25.765625 -5.453125 C 26.378906 -4.859375 26.6875 -4.097656 26.6875 -3.171875 C 26.6875 -2.285156 26.378906 -1.535156 25.765625 -0.921875 C 25.148438 -0.304688 24.378906 0 23.453125 0 L 4.859375 0 C 3.890625 0 3.113281 -0.34375 2.53125 -1.03125 C 1.957031 -1.726562 1.691406 -2.425781 1.734375 -3.125 C 1.773438 -3.695312 1.851562 -4.203125 1.96875 -4.640625 C 2.082031 -5.085938 2.367188 -5.601562 2.828125 -6.1875 L 17.21875 -24.78125 L 17.109375 -23.984375 L 5.375 -23.984375 C 4.445312 -23.984375 3.675781 -24.289062 3.0625 -24.90625 C 2.445312 -25.519531 2.140625 -26.289062 2.140625 -27.21875 C 2.140625 -28.101562 2.445312 -28.84375 3.0625 -29.4375 C 3.675781 -30.03125 4.445312 -30.328125 5.375 -30.328125 L 23.171875 -30.328125 C 24.054688 -30.328125 24.804688 -30 25.421875 -29.34375 C 26.035156 -28.695312 26.304688 -27.875 26.234375 -26.875 C 26.191406 -26.488281 26.125 -26.101562 26.03125 -25.71875 C 25.9375 -25.332031 25.675781 -24.867188 25.25 -24.328125 L 11.09375 -6.015625 L 11.09375 -6.359375 Z M 23.453125 -6.359375 "/></g></g></g><g fill="#ffffff" fill-opacity="1"><g transform="translate(227.904803, 59.170276)"><g><path d="M 18.3125 0.578125 C 15.039062 0.578125 12.203125 -0.101562 9.796875 -1.46875 C 7.390625 -2.84375 5.539062 -4.703125 4.25 -7.046875 C 2.957031 -9.398438 2.3125 -12.054688 2.3125 -15.015625 C 2.3125 -18.484375 3.015625 -21.441406 4.421875 -23.890625 C 5.828125 -26.335938 7.664062 -28.210938 9.9375 -29.515625 C 12.207031 -30.828125 14.613281 -31.484375 17.15625 -31.484375 C 19.125 -31.484375 20.984375 -31.078125 22.734375 -30.265625 C 24.484375 -29.460938 26.03125 -28.359375 27.375 -26.953125 C 28.726562 -25.546875 29.800781 -23.914062 30.59375 -22.0625 C 31.382812 -20.21875 31.78125 -18.253906 31.78125 -16.171875 C 31.738281 -15.253906 31.367188 -14.503906 30.671875 -13.921875 C 29.984375 -13.347656 29.175781 -13.0625 28.25 -13.0625 L 6.1875 -13.0625 L 4.453125 -18.84375 L 25.65625 -18.84375 L 24.390625 -17.6875 L 24.390625 -19.234375 C 24.304688 -20.359375 23.90625 -21.363281 23.1875 -22.25 C 22.476562 -23.132812 21.59375 -23.835938 20.53125 -24.359375 C 19.476562 -24.878906 18.351562 -25.140625 17.15625 -25.140625 C 16 -25.140625 14.921875 -24.984375 13.921875 -24.671875 C 12.921875 -24.359375 12.054688 -23.835938 11.328125 -23.109375 C 10.597656 -22.378906 10.019531 -21.394531 9.59375 -20.15625 C 9.164062 -18.925781 8.953125 -17.367188 8.953125 -15.484375 C 8.953125 -13.398438 9.382812 -11.632812 10.25 -10.1875 C 11.125 -8.75 12.242188 -7.65625 13.609375 -6.90625 C 14.972656 -6.15625 16.425781 -5.78125 17.96875 -5.78125 C 19.394531 -5.78125 20.53125 -5.894531 21.375 -6.125 C 22.226562 -6.351562 22.910156 -6.628906 23.421875 -6.953125 C 23.941406 -7.285156 24.414062 -7.566406 24.84375 -7.796875 C 25.539062 -8.148438 26.195312 -8.328125 26.8125 -8.328125 C 27.65625 -8.328125 28.351562 -8.035156 28.90625 -7.453125 C 29.46875 -6.878906 29.75 -6.207031 29.75 -5.4375 C 29.75 -4.394531 29.210938 -3.445312 28.140625 -2.59375 C 27.140625 -1.75 25.734375 -1.007812 23.921875 -0.375 C 22.109375 0.257812 20.238281 0.578125 18.3125 0.578125 Z M 18.3125 0.578125 "/></g></g></g><g clip-path="url(#bb10ba21ab)"><g clip-path="url(#9be1d40493)"><g clip-path="url(#1563839b82)"><path fill="#ec671b" d="M 192.847656 11.964844 C 192.847656 11.964844 185.746094 22.535156 191.472656 25.761719 C 197.203125 28.988281 200.148438 18.042969 192.847656 11.964844 Z M 192.847656 11.964844 " fill-opacity="1" fill-rule="nonzero"/></g></g></g><g clip-path="url(#ca0b6fbece)"><g clip-path="url(#0844bbca78)"><g clip-path="url(#df788e50fa)"><path fill="#ec671b" d="M 192.898438 13.113281 C 192 14.914062 189.3125 18.867188 190.730469 21.386719 C 192.152344 23.90625 194.832031 22.738281 195.128906 20.195312 C 195.429688 17.648438 192.898438 13.113281 192.898438 13.113281 Z M 192.898438 13.113281 " fill-opacity="1" fill-rule="nonzero"/></g></g></g><g clip-path="url(#36f0831270)"><g clip-path="url(#22c043a22a)"><g clip-path="url(#ff6a3b1942)"><path fill="#ffffff" d="M 192.753906 14.449219 C 192.753906 14.449219 190.242188 17.457031 191.332031 19.214844 C 192.417969 20.96875 193.433594 16.109375 192.753906 14.449219 Z M 192.753906 14.449219 " fill-opacity="1" fill-rule="nonzero"/></g></g></g><g clip-path="url(#2de75a5ff9)"><path fill="#30a755" d="M 28.199219 64.515625 C 27.066406 64.652344 25.9375 64.722656 24.816406 64.722656 C 19.402344 64.722656 14.207031 63.132812 9.914062 60.125 C 4.722656 56.488281 1.46875 51.210938 0.75 45.261719 C 0.0273438 39.3125 1.929688 33.410156 6.097656 28.640625 C 8.78125 25.574219 12.191406 23.214844 16.046875 21.707031 C 14.089844 18.492188 11.589844 14.027344 11.324219 11.851562 C 11.320312 11.808594 11.332031 11.761719 11.355469 11.726562 C 11.390625 11.679688 12.195312 10.558594 14.175781 11.015625 C 14.242188 11.03125 14.292969 11.078125 14.3125 11.136719 C 14.332031 11.199219 15.769531 15.625 17.335938 19.492188 C 17.464844 13.875 18.933594 9.585938 21.726562 6.71875 C 22.519531 5.902344 23.359375 5.273438 24.1875 4.785156 C 24.207031 4.765625 24.230469 4.753906 24.253906 4.746094 C 27.195312 3.035156 29.980469 3.09375 30.019531 3.097656 C 30.023438 3.097656 30.027344 3.097656 30.03125 3.097656 C 30.035156 3.097656 30.042969 3.097656 30.050781 3.101562 C 30.054688 3.101562 30.0625 3.105469 30.066406 3.105469 C 30.070312 3.105469 30.078125 3.109375 30.082031 3.109375 C 30.089844 3.113281 30.09375 3.117188 30.097656 3.121094 C 30.105469 3.121094 30.109375 3.125 30.113281 3.128906 C 30.121094 3.132812 30.125 3.136719 30.128906 3.140625 C 30.132812 3.144531 30.136719 3.148438 30.144531 3.152344 C 30.144531 3.152344 30.144531 3.152344 30.148438 3.15625 C 30.148438 3.160156 30.152344 3.164062 30.15625 3.167969 C 30.15625 3.167969 30.160156 3.171875 30.164062 3.175781 C 30.164062 3.175781 30.164062 3.179688 30.164062 3.179688 C 30.167969 3.183594 30.171875 3.191406 30.175781 3.199219 C 30.179688 3.203125 30.179688 3.207031 30.183594 3.210938 C 30.183594 3.21875 30.1875 3.222656 30.1875 3.230469 C 30.191406 3.234375 30.191406 3.242188 30.191406 3.246094 C 30.195312 3.253906 30.195312 3.257812 30.195312 3.265625 C 30.195312 3.269531 30.195312 3.277344 30.195312 3.28125 C 30.195312 3.285156 30.195312 3.285156 30.195312 3.289062 C 30.109375 5.304688 29.882812 7.113281 29.550781 8.730469 C 29.5625 8.785156 29.546875 8.839844 29.515625 8.882812 C 29.117188 10.769531 28.574219 12.398438 27.945312 13.796875 C 27.945312 13.84375 27.921875 13.890625 27.890625 13.921875 C 27.003906 15.867188 25.957031 17.363281 24.917969 18.503906 C 24.90625 18.523438 24.890625 18.539062 24.875 18.554688 C 24.453125 19.011719 24.035156 19.414062 23.628906 19.765625 C 23.558594 19.828125 23.488281 19.886719 23.417969 19.945312 C 29.816406 19.308594 36.070312 20.882812 41.09375 24.402344 C 46.28125 28.039062 49.535156 33.316406 50.257812 39.265625 C 51.742188 51.535156 41.847656 62.863281 28.199219 64.515625 Z M 28.199219 64.515625 " fill-opacity="1" fill-rule="nonzero"/></g><path fill="#ec671b" d="M 24.816406 64.355469 C 19.433594 64.355469 14.351562 62.789062 10.125 59.824219 C 5.019531 56.246094 1.820312 51.0625 1.113281 45.21875 C 0.40625 39.375 2.273438 33.574219 6.375 28.882812 C 8.996094 25.886719 12.40625 23.515625 16.238281 22.023438 C 16.648438 22.695312 17.074219 23.371094 17.496094 24.039062 C 16.859375 24.398438 16.527344 24.769531 16.386719 24.960938 C 15.804688 24.78125 15.167969 24.691406 14.496094 24.691406 C 14.230469 24.691406 13.957031 24.707031 13.679688 24.734375 C 13.632812 24.738281 13.585938 24.761719 13.554688 24.800781 C 13.523438 24.839844 13.511719 24.886719 13.515625 24.933594 C 13.527344 25.027344 13.605469 25.101562 13.695312 25.101562 C 13.703125 25.101562 13.710938 25.101562 13.714844 25.097656 C 13.984375 25.070312 14.25 25.058594 14.503906 25.058594 C 15.1875 25.058594 15.828125 25.15625 16.40625 25.347656 C 17.148438 25.597656 17.644531 25.957031 17.929688 26.210938 C 16.613281 26.3125 15.390625 26.835938 14.296875 27.769531 C 14.257812 27.804688 14.234375 27.847656 14.230469 27.894531 C 14.226562 27.945312 14.242188 27.992188 14.273438 28.03125 C 14.308594 28.070312 14.359375 28.09375 14.414062 28.09375 C 14.457031 28.09375 14.5 28.078125 14.53125 28.050781 C 15.601562 27.140625 16.789062 26.640625 18.070312 26.570312 C 18.136719 26.566406 18.199219 26.5625 18.257812 26.5625 C 18.289062 26.5625 18.316406 26.566406 18.34375 26.566406 C 18.761719 26.574219 19.144531 26.667969 19.488281 26.839844 C 20.296875 27.234375 20.761719 27.984375 21.007812 28.546875 C 21.039062 28.613281 21.105469 28.65625 21.175781 28.65625 C 21.203125 28.65625 21.226562 28.648438 21.25 28.640625 C 21.34375 28.597656 21.386719 28.488281 21.34375 28.398438 C 21.097656 27.839844 20.636719 27.078125 19.839844 26.613281 C 20.046875 26.328125 20.511719 25.785156 21.285156 25.292969 C 22 24.835938 22.808594 24.53125 23.695312 24.386719 C 23.960938 24.339844 24.246094 24.320312 24.542969 24.320312 C 24.980469 24.320312 25.449219 24.367188 25.9375 24.464844 C 25.949219 24.46875 25.960938 24.46875 25.972656 24.46875 C 26.0625 24.46875 26.136719 24.40625 26.152344 24.320312 C 26.164062 24.273438 26.152344 24.222656 26.125 24.183594 C 26.097656 24.144531 26.058594 24.113281 26.007812 24.105469 C 25.496094 24.003906 25.003906 23.953125 24.542969 23.953125 C 24.226562 23.953125 23.921875 23.976562 23.636719 24.023438 C 22.804688 24.160156 22.03125 24.433594 21.332031 24.835938 C 21.316406 24.496094 21.375 23.976562 21.722656 23.40625 C 21.984375 22.984375 22.371094 22.59375 22.875 22.253906 C 22.988281 22.179688 23.105469 22.105469 23.222656 22.035156 C 23.265625 22.011719 23.292969 21.972656 23.304688 21.925781 C 23.320312 21.875 23.3125 21.828125 23.285156 21.785156 C 23.253906 21.730469 23.191406 21.695312 23.128906 21.695312 C 23.097656 21.695312 23.0625 21.703125 23.035156 21.722656 C 22.914062 21.792969 22.789062 21.871094 22.671875 21.953125 C 22.160156 22.296875 21.753906 22.691406 21.464844 23.132812 C 20.605469 23.152344 19.8125 23.246094 19.117188 23.417969 C 18.976562 23.160156 18.828125 22.867188 18.667969 22.539062 C 19.671875 22.242188 21.21875 21.625 22.878906 20.371094 C 23.980469 20.238281 25.09375 20.171875 26.1875 20.171875 C 31.574219 20.171875 36.652344 21.738281 40.882812 24.703125 C 45.984375 28.277344 49.183594 33.464844 49.894531 39.308594 C 51.355469 51.378906 41.601562 62.523438 28.15625 64.152344 C 27.046875 64.285156 25.921875 64.355469 24.816406 64.355469 Z M 24.816406 64.355469 " fill-opacity="1" fill-rule="nonzero"/><path fill="#ec671b" d="M 28.15625 64.152344 C 21.636719 64.941406 15.234375 63.402344 10.125 59.824219 C 5.019531 56.246094 1.820312 51.058594 1.113281 45.21875 C 0.40625 39.375 2.273438 33.574219 6.375 28.882812 C 9.03125 25.847656 12.417969 23.511719 16.238281 22.027344 C 16.710938 22.796875 17.144531 23.484375 17.496094 24.039062 C 16.855469 24.398438 16.527344 24.769531 16.386719 24.960938 C 15.574219 24.710938 14.664062 24.636719 13.679688 24.734375 C 13.578125 24.746094 13.503906 24.835938 13.515625 24.9375 C 13.527344 25.035156 13.617188 25.113281 13.714844 25.101562 C 14.703125 25 15.609375 25.085938 16.40625 25.351562 C 17.15625 25.601562 17.652344 25.964844 17.929688 26.210938 C 16.613281 26.3125 15.390625 26.835938 14.292969 27.769531 C 14.21875 27.835938 14.207031 27.953125 14.273438 28.03125 C 14.308594 28.074219 14.363281 28.09375 14.414062 28.09375 C 14.457031 28.09375 14.5 28.078125 14.53125 28.050781 C 15.601562 27.140625 16.789062 26.640625 18.070312 26.570312 C 18.175781 26.566406 18.265625 26.5625 18.34375 26.566406 C 18.34375 26.566406 18.34375 26.566406 18.347656 26.566406 C 18.761719 26.578125 19.144531 26.667969 19.488281 26.839844 C 19.488281 26.839844 19.492188 26.839844 19.492188 26.839844 C 20.296875 27.238281 20.761719 27.988281 21.007812 28.546875 C 21.039062 28.613281 21.105469 28.65625 21.175781 28.65625 C 21.203125 28.65625 21.226562 28.648438 21.25 28.640625 C 21.34375 28.597656 21.386719 28.488281 21.34375 28.398438 C 21.09375 27.824219 20.628906 27.070312 19.839844 26.609375 C 20.035156 26.34375 20.503906 25.789062 21.285156 25.292969 C 22 24.835938 22.808594 24.53125 23.695312 24.386719 C 24.363281 24.277344 25.117188 24.304688 25.9375 24.464844 C 26.035156 24.484375 26.132812 24.421875 26.152344 24.320312 C 26.171875 24.222656 26.109375 24.125 26.007812 24.105469 C 25.144531 23.933594 24.347656 23.90625 23.636719 24.023438 C 22.800781 24.160156 22.027344 24.433594 21.332031 24.835938 C 21.320312 24.53125 21.363281 23.996094 21.722656 23.410156 C 21.984375 22.984375 22.371094 22.59375 22.875 22.257812 C 22.988281 22.179688 23.105469 22.105469 23.222656 22.035156 C 23.308594 21.984375 23.339844 21.871094 23.285156 21.785156 C 23.234375 21.699219 23.121094 21.667969 23.035156 21.71875 C 22.910156 21.792969 22.789062 21.871094 22.671875 21.953125 C 22.15625 22.296875 21.753906 22.695312 21.464844 23.132812 C 20.605469 23.148438 19.816406 23.246094 19.117188 23.417969 C 18.972656 23.148438 18.820312 22.851562 18.667969 22.539062 C 19.652344 22.25 21.210938 21.632812 22.878906 20.371094 C 23.988281 20.238281 25.09375 20.171875 26.1875 20.171875 C 31.527344 20.171875 36.648438 21.738281 40.882812 24.703125 C 45.984375 28.277344 49.183594 33.464844 49.890625 39.308594 C 51.355469 51.378906 41.601562 62.523438 28.15625 64.152344 Z M 28.15625 64.152344 " fill-opacity="1" fill-rule="nonzero"/><g clip-path="url(#bd79134786)"><path fill="#ffffff" d="M 24.816406 64.722656 C 19.359375 64.722656 14.203125 63.132812 9.914062 60.125 C 4.722656 56.488281 1.46875 51.210938 0.75 45.261719 C 0.0273438 39.3125 1.929688 33.410156 6.097656 28.640625 C 8.742188 25.617188 12.183594 23.21875 16.046875 21.707031 C 14.035156 18.402344 11.585938 14.007812 11.324219 11.851562 C 11.320312 11.808594 11.332031 11.761719 11.355469 11.726562 C 11.378906 11.691406 11.941406 10.90625 13.273438 10.90625 C 13.558594 10.90625 13.863281 10.941406 14.175781 11.015625 C 14.242188 11.027344 14.292969 11.078125 14.3125 11.136719 C 14.324219 11.183594 15.769531 15.617188 17.335938 19.492188 C 17.460938 13.875 18.941406 9.578125 21.726562 6.71875 C 22.457031 5.964844 23.285156 5.316406 24.1875 4.78125 C 24.207031 4.765625 24.230469 4.753906 24.253906 4.746094 C 27.011719 3.140625 29.671875 3.09375 29.964844 3.09375 C 29.996094 3.09375 30.015625 3.097656 30.019531 3.097656 L 30.03125 3.097656 C 30.039062 3.097656 30.042969 3.097656 30.050781 3.101562 C 30.054688 3.101562 30.058594 3.101562 30.0625 3.105469 C 30.074219 3.109375 30.078125 3.109375 30.082031 3.109375 C 30.085938 3.113281 30.09375 3.113281 30.097656 3.117188 C 30.105469 3.121094 30.109375 3.125 30.113281 3.128906 C 30.121094 3.132812 30.125 3.136719 30.128906 3.140625 C 30.132812 3.144531 30.136719 3.148438 30.144531 3.152344 L 30.152344 3.160156 L 30.164062 3.175781 C 30.167969 3.183594 30.171875 3.191406 30.175781 3.199219 C 30.179688 3.203125 30.179688 3.207031 30.183594 3.210938 C 30.183594 3.214844 30.1875 3.222656 30.1875 3.226562 C 30.191406 3.238281 30.191406 3.242188 30.191406 3.246094 C 30.195312 3.253906 30.195312 3.257812 30.195312 3.265625 C 30.195312 3.273438 30.195312 3.277344 30.195312 3.28125 C 30.113281 5.210938 29.898438 7.042969 29.550781 8.730469 C 29.5625 8.78125 29.550781 8.835938 29.515625 8.882812 C 29.140625 10.652344 28.613281 12.308594 27.945312 13.796875 C 27.945312 13.84375 27.925781 13.890625 27.890625 13.921875 C 27.089844 15.671875 26.089844 17.214844 24.917969 18.507812 C 24.90625 18.523438 24.890625 18.539062 24.875 18.554688 C 24.476562 18.992188 24.054688 19.398438 23.628906 19.765625 C 23.5625 19.828125 23.492188 19.882812 23.421875 19.941406 C 24.339844 19.851562 25.269531 19.804688 26.1875 19.804688 C 31.648438 19.804688 36.800781 21.394531 41.09375 24.402344 C 46.28125 28.039062 49.539062 33.316406 50.257812 39.265625 C 51.742188 51.535156 41.847656 62.863281 28.199219 64.515625 C 27.074219 64.652344 25.9375 64.722656 24.816406 64.722656 Z M 16.238281 22.027344 C 12.40625 23.515625 8.996094 25.886719 6.375 28.882812 C 2.277344 33.574219 0.40625 39.375 1.113281 45.21875 C 1.820312 51.058594 5.023438 56.246094 10.125 59.824219 C 14.351562 62.785156 19.433594 64.351562 24.816406 64.351562 C 25.921875 64.351562 27.046875 64.285156 28.15625 64.148438 C 41.601562 62.519531 51.355469 51.378906 49.890625 39.308594 C 49.183594 33.464844 45.984375 28.28125 40.882812 24.703125 C 36.652344 21.738281 31.574219 20.175781 26.1875 20.175781 C 25.09375 20.175781 23.980469 20.242188 22.878906 20.375 C 21.21875 21.625 19.675781 22.242188 18.667969 22.539062 C 18.828125 22.863281 18.976562 23.160156 19.117188 23.417969 C 19.8125 23.246094 20.605469 23.148438 21.464844 23.128906 C 21.753906 22.691406 22.160156 22.296875 22.671875 21.949219 C 22.789062 21.871094 22.910156 21.792969 23.035156 21.71875 C 23.0625 21.703125 23.097656 21.695312 23.128906 21.695312 C 23.195312 21.695312 23.253906 21.730469 23.289062 21.785156 C 23.3125 21.828125 23.320312 21.875 23.308594 21.925781 C 23.296875 21.972656 23.265625 22.011719 23.222656 22.039062 C 23.105469 22.105469 22.988281 22.179688 22.875 22.257812 C 22.371094 22.59375 21.984375 22.984375 21.722656 23.410156 C 21.375 23.976562 21.320312 24.496094 21.332031 24.835938 C 22.027344 24.429688 22.804688 24.160156 23.636719 24.023438 C 23.921875 23.976562 24.226562 23.953125 24.542969 23.953125 C 25.003906 23.953125 25.496094 24.003906 26.007812 24.105469 C 26.058594 24.113281 26.097656 24.140625 26.125 24.183594 C 26.152344 24.222656 26.164062 24.273438 26.152344 24.320312 C 26.136719 24.40625 26.0625 24.46875 25.972656 24.46875 C 25.960938 24.46875 25.949219 24.46875 25.9375 24.464844 C 25.449219 24.371094 24.980469 24.320312 24.542969 24.320312 C 24.246094 24.320312 23.960938 24.34375 23.695312 24.386719 C 22.808594 24.53125 22 24.835938 21.285156 25.292969 C 20.511719 25.785156 20.046875 26.332031 19.839844 26.613281 C 20.636719 27.074219 21.097656 27.839844 21.34375 28.398438 C 21.386719 28.488281 21.34375 28.597656 21.25 28.640625 C 21.226562 28.652344 21.203125 28.65625 21.175781 28.65625 C 21.105469 28.65625 21.039062 28.613281 21.007812 28.546875 C 20.761719 27.988281 20.296875 27.238281 19.492188 26.839844 C 19.144531 26.667969 18.761719 26.578125 18.347656 26.566406 C 18.316406 26.566406 18.289062 26.566406 18.257812 26.566406 C 18.199219 26.566406 18.136719 26.566406 18.070312 26.570312 C 16.789062 26.640625 15.601562 27.140625 14.535156 28.050781 C 14.5 28.078125 14.457031 28.09375 14.414062 28.09375 C 14.359375 28.09375 14.308594 28.070312 14.273438 28.03125 C 14.242188 27.992188 14.226562 27.945312 14.230469 27.894531 C 14.234375 27.847656 14.257812 27.800781 14.292969 27.769531 C 15.390625 26.835938 16.613281 26.3125 17.929688 26.210938 C 17.644531 25.957031 17.148438 25.597656 16.40625 25.351562 C 15.828125 25.15625 15.1875 25.058594 14.503906 25.058594 C 14.25 25.058594 13.984375 25.074219 13.71875 25.101562 C 13.710938 25.101562 13.703125 25.101562 13.695312 25.101562 C 13.601562 25.101562 13.523438 25.027344 13.515625 24.9375 C 13.507812 24.886719 13.523438 24.839844 13.554688 24.800781 C 13.585938 24.761719 13.628906 24.738281 13.679688 24.734375 C 13.957031 24.707031 14.230469 24.691406 14.496094 24.691406 C 15.167969 24.691406 15.804688 24.78125 16.386719 24.960938 C 16.527344 24.769531 16.859375 24.398438 17.496094 24.039062 C 17.070312 23.371094 16.648438 22.695312 16.238281 22.027344 Z M 13.273438 11.273438 C 12.3125 11.273438 11.828125 11.742188 11.699219 11.886719 C 12.101562 14.691406 16.179688 21.296875 17.914062 24.007812 C 17.941406 24.050781 17.949219 24.105469 17.9375 24.152344 C 17.921875 24.203125 17.890625 24.246094 17.84375 24.269531 C 17.269531 24.5625 16.9375 24.875 16.757812 25.085938 C 17.730469 25.460938 18.257812 25.992188 18.441406 26.203125 C 18.816406 26.21875 19.175781 26.300781 19.507812 26.441406 C 19.671875 26.207031 20.148438 25.605469 20.980469 25.050781 C 20.941406 24.765625 20.921875 24.183594 21.25 23.503906 C 20.453125 23.535156 19.71875 23.636719 19.070312 23.808594 C 19.054688 23.8125 19.039062 23.816406 19.023438 23.816406 C 18.957031 23.816406 18.894531 23.777344 18.863281 23.71875 C 18.691406 23.40625 18.503906 23.042969 18.308594 22.640625 C 17.886719 22.75 17.628906 22.785156 17.601562 22.785156 C 17.59375 22.789062 17.585938 22.789062 17.578125 22.789062 C 17.554688 22.789062 17.535156 22.785156 17.511719 22.777344 C 17.496094 22.769531 17.480469 22.761719 17.464844 22.75 C 17.449219 22.738281 17.445312 22.730469 17.441406 22.726562 L 17.429688 22.714844 C 17.425781 22.710938 17.421875 22.703125 17.421875 22.699219 L 17.410156 22.683594 C 17.40625 22.675781 17.40625 22.671875 17.402344 22.664062 L 17.398438 22.648438 C 17.394531 22.640625 17.394531 22.632812 17.394531 22.625 C 17.394531 22.625 17.394531 22.613281 17.394531 22.613281 C 17.351562 21.882812 17.328125 21.152344 17.324219 20.4375 C 15.773438 16.730469 14.277344 12.21875 13.992188 11.351562 C 13.742188 11.300781 13.5 11.273438 13.273438 11.273438 Z M 19.132812 19.402344 C 18.503906 20.792969 18.070312 21.855469 17.871094 22.363281 C 18.75 22.171875 21.054688 21.511719 23.40625 19.472656 C 23.691406 19.226562 23.980469 18.953125 24.261719 18.667969 Z M 18.140625 15.054688 C 17.769531 17.050781 17.628906 19.300781 17.722656 21.75 C 17.945312 21.195312 18.320312 20.308594 18.8125 19.21875 Z M 21.273438 15.011719 C 20.601562 16.289062 19.941406 17.632812 19.3125 19.007812 L 24.667969 18.234375 C 25.75 17.039062 26.679688 15.625 27.433594 14.027344 Z M 20.199219 9.316406 C 19.390625 10.675781 18.765625 12.269531 18.347656 14.046875 L 19.089844 18.617188 C 19.6875 17.316406 20.316406 16.042969 20.957031 14.832031 Z M 24.019531 10.300781 C 23.175781 11.597656 22.328125 13.046875 21.492188 14.605469 L 27.621094 13.625 C 28.242188 12.230469 28.742188 10.683594 29.109375 9.027344 Z M 24.097656 5.269531 C 23.328125 5.753906 22.617188 6.328125 21.984375 6.980469 C 21.449219 7.53125 20.949219 8.15625 20.503906 8.832031 L 21.253906 14.277344 C 22.066406 12.769531 22.894531 11.367188 23.714844 10.105469 Z M 29.808594 3.652344 C 28.03125 4.96875 26.1875 7.054688 24.320312 9.847656 L 29.195312 8.625 C 29.511719 7.082031 29.71875 5.40625 29.808594 3.652344 Z M 29.417969 3.488281 C 28.441406 3.566406 26.511719 3.871094 24.484375 5.039062 L 24.132812 9.472656 C 25.921875 6.820312 27.699219 4.804688 29.417969 3.488281 Z M 29.417969 3.488281 " fill-opacity="1" fill-rule="nonzero"/><path fill="#ffffff" d="M 50.257812 39.265625 C 49.535156 33.316406 46.28125 28.039062 41.09375 24.402344 C 36.070312 20.882812 29.816406 19.308594 23.417969 19.945312 C 23.488281 19.886719 23.558594 19.828125 23.628906 19.765625 C 24.035156 19.414062 24.453125 19.011719 24.875 18.554688 C 24.890625 18.539062 24.90625 18.523438 24.917969 18.503906 C 25.957031 17.363281 27.003906 15.867188 27.890625 13.921875 C 27.921875 13.890625 27.945312 13.84375 27.945312 13.796875 C 28.574219 12.398438 29.117188 10.769531 29.515625 8.882812 C 29.546875 8.839844 29.5625 8.785156 29.550781 8.730469 C 29.882812 7.113281 30.109375 5.304688 30.195312 3.289062 C 30.195312 3.285156 30.195312 3.285156 30.195312 3.28125 C 30.195312 3.277344 30.195312 3.269531 30.195312 3.265625 C 30.195312 3.257812 30.195312 3.253906 30.191406 3.246094 C 30.191406 3.242188 30.191406 3.234375 30.1875 3.230469 C 30.1875 3.222656 30.183594 3.21875 30.183594 3.210938 C 30.179688 3.207031 30.179688 3.203125 30.175781 3.199219 C 30.171875 3.191406 30.167969 3.183594 30.164062 3.179688 C 30.164062 3.179688 30.164062 3.175781 30.164062 3.175781 C 30.160156 3.171875 30.15625 3.167969 30.15625 3.167969 C 30.152344 3.164062 30.148438 3.160156 30.148438 3.15625 C 30.144531 3.152344 30.144531 3.152344 30.144531 3.152344 C 30.136719 3.148438 30.132812 3.144531 30.128906 3.140625 C 30.125 3.136719 30.121094 3.132812 30.113281 3.128906 C 30.109375 3.125 30.105469 3.121094 30.097656 3.121094 C 30.09375 3.117188 30.089844 3.113281 30.082031 3.109375 C 30.078125 3.109375 30.070312 3.105469 30.066406 3.105469 C 30.0625 3.105469 30.054688 3.101562 30.050781 3.101562 C 30.042969 3.097656 30.035156 3.097656 30.03125 3.097656 C 30.027344 3.097656 30.023438 3.097656 30.019531 3.097656 C 29.980469 3.09375 27.195312 3.035156 24.253906 4.746094 C 24.230469 4.753906 24.207031 4.765625 24.1875 4.785156 C 23.359375 5.273438 22.519531 5.902344 21.726562 6.71875 C 18.933594 9.585938 17.464844 13.875 17.335938 19.492188 C 15.769531 15.625 14.332031 11.199219 14.3125 11.136719 C 14.292969 11.078125 14.242188 11.03125 14.175781 11.015625 C 12.195312 10.558594 11.390625 11.679688 11.355469 11.726562 C 11.332031 11.761719 11.320312 11.808594 11.324219 11.851562 C 11.589844 14.027344 14.089844 18.492188 16.046875 21.707031 C 12.191406 23.214844 8.78125 25.574219 6.097656 28.640625 C 1.929688 33.410156 0.0273438 39.3125 0.75 45.261719 C 1.46875 51.210938 4.722656 56.488281 9.914062 60.125 C 14.207031 63.132812 19.402344 64.722656 24.816406 64.722656 C 25.9375 64.722656 27.066406 64.652344 28.199219 64.515625 C 41.847656 62.863281 51.742188 51.535156 50.257812 39.265625 Z M 10.125 59.824219 C 5.019531 56.246094 1.820312 51.058594 1.113281 45.21875 C 0.40625 39.375 2.273438 33.574219 6.375 28.882812 C 9.03125 25.847656 12.417969 23.511719 16.238281 22.027344 C 16.710938 22.796875 17.144531 23.484375 17.496094 24.039062 C 16.855469 24.398438 16.527344 24.769531 16.386719 24.960938 C 15.574219 24.710938 14.664062 24.636719 13.679688 24.734375 C 13.578125 24.746094 13.503906 24.835938 13.515625 24.9375 C 13.527344 25.035156 13.617188 25.113281 13.714844 25.101562 C 14.703125 25 15.609375 25.085938 16.40625 25.351562 C 17.15625 25.601562 17.652344 25.964844 17.929688 26.210938 C 16.613281 26.3125 15.390625 26.835938 14.292969 27.769531 C 14.21875 27.835938 14.207031 27.953125 14.273438 28.03125 C 14.308594 28.074219 14.363281 28.09375 14.414062 28.09375 C 14.457031 28.09375 14.5 28.078125 14.53125 28.050781 C 15.601562 27.140625 16.789062 26.640625 18.070312 26.570312 C 18.175781 26.566406 18.265625 26.5625 18.34375 26.566406 C 18.34375 26.566406 18.34375 26.566406 18.347656 26.566406 C 18.761719 26.578125 19.144531 26.667969 19.488281 26.839844 C 19.488281 26.839844 19.492188 26.839844 19.492188 26.839844 C 20.296875 27.238281 20.761719 27.988281 21.007812 28.546875 C 21.039062 28.613281 21.105469 28.65625 21.175781 28.65625 C 21.203125 28.65625 21.226562 28.648438 21.25 28.640625 C 21.34375 28.597656 21.386719 28.488281 21.34375 28.398438 C 21.09375 27.824219 20.628906 27.070312 19.839844 26.609375 C 20.035156 26.34375 20.503906 25.789062 21.285156 25.292969 C 22 24.835938 22.808594 24.53125 23.695312 24.386719 C 24.363281 24.277344 25.117188 24.304688 25.9375 24.464844 C 26.035156 24.484375 26.132812 24.421875 26.152344 24.320312 C 26.171875 24.222656 26.109375 24.125 26.007812 24.105469 C 25.144531 23.933594 24.347656 23.90625 23.636719 24.023438 C 22.800781 24.160156 22.027344 24.433594 21.332031 24.835938 C 21.320312 24.53125 21.363281 23.996094 21.722656 23.410156 C 21.984375 22.984375 22.371094 22.59375 22.875 22.257812 C 22.988281 22.179688 23.105469 22.105469 23.222656 22.035156 C 23.308594 21.984375 23.339844 21.871094 23.285156 21.785156 C 23.234375 21.699219 23.121094 21.667969 23.035156 21.71875 C 22.910156 21.792969 22.789062 21.871094 22.671875 21.953125 C 22.15625 22.296875 21.753906 22.695312 21.464844 23.132812 C 20.605469 23.148438 19.816406 23.246094 19.117188 23.417969 C 18.972656 23.148438 18.820312 22.851562 18.667969 22.539062 C 19.652344 22.25 21.210938 21.632812 22.878906 20.371094 C 23.988281 20.238281 25.09375 20.171875 26.1875 20.171875 C 31.527344 20.171875 36.648438 21.738281 40.882812 24.703125 C 45.984375 28.277344 49.183594 33.464844 49.890625 39.308594 C 51.355469 51.378906 41.601562 62.523438 28.15625 64.152344 C 21.636719 64.941406 15.234375 63.402344 10.125 59.824219 Z M 13.996094 11.351562 C 14.234375 12.085938 15.761719 16.695312 17.328125 20.4375 C 17.328125 21.140625 17.351562 21.867188 17.394531 22.609375 C 17.394531 22.609375 17.394531 22.609375 17.394531 22.613281 C 17.394531 22.617188 17.394531 22.621094 17.394531 22.625 C 17.394531 22.632812 17.398438 22.640625 17.398438 22.648438 C 17.398438 22.652344 17.402344 22.660156 17.402344 22.664062 C 17.40625 22.667969 17.410156 22.675781 17.410156 22.683594 C 17.414062 22.6875 17.417969 22.691406 17.417969 22.695312 C 17.421875 22.703125 17.425781 22.707031 17.429688 22.714844 C 17.433594 22.71875 17.4375 22.722656 17.441406 22.726562 C 17.445312 22.730469 17.449219 22.738281 17.457031 22.742188 C 17.457031 22.742188 17.457031 22.742188 17.460938 22.746094 C 17.460938 22.746094 17.460938 22.746094 17.464844 22.746094 C 17.476562 22.757812 17.492188 22.769531 17.511719 22.777344 C 17.535156 22.785156 17.554688 22.789062 17.578125 22.789062 C 17.585938 22.789062 17.59375 22.789062 17.601562 22.785156 C 17.632812 22.78125 17.890625 22.746094 18.308594 22.640625 C 18.496094 23.03125 18.683594 23.394531 18.863281 23.71875 C 18.902344 23.792969 18.988281 23.832031 19.070312 23.808594 C 19.71875 23.636719 20.453125 23.535156 21.253906 23.503906 C 20.917969 24.199219 20.945312 24.792969 20.980469 25.050781 C 20.164062 25.59375 19.691406 26.179688 19.507812 26.441406 C 19.175781 26.300781 18.820312 26.21875 18.441406 26.203125 C 18.273438 26.007812 17.742188 25.464844 16.757812 25.085938 C 16.921875 24.890625 17.253906 24.570312 17.84375 24.269531 C 17.890625 24.246094 17.921875 24.203125 17.9375 24.152344 C 17.949219 24.101562 17.941406 24.050781 17.914062 24.007812 C 16.167969 21.285156 12.101562 14.691406 11.699219 11.886719 C 11.871094 11.691406 12.554688 11.054688 13.996094 11.351562 Z M 18.140625 15.050781 L 18.8125 19.222656 C 18.328125 20.289062 17.960938 21.167969 17.71875 21.75 C 17.628906 19.285156 17.769531 17.050781 18.140625 15.050781 Z M 23.40625 19.472656 C 21.035156 21.527344 18.695312 22.183594 17.867188 22.363281 C 18.066406 21.867188 18.5 20.800781 19.132812 19.402344 L 24.261719 18.664062 C 23.972656 18.960938 23.6875 19.230469 23.40625 19.472656 Z M 29.417969 3.488281 C 27.515625 4.949219 25.722656 7.117188 24.132812 9.472656 L 24.484375 5.039062 C 26.523438 3.863281 28.476562 3.5625 29.417969 3.488281 Z M 29.195312 8.625 L 24.320312 9.847656 C 25.964844 7.386719 27.828125 5.121094 29.808594 3.652344 C 29.714844 5.484375 29.5 7.136719 29.195312 8.625 Z M 24.019531 10.300781 L 29.109375 9.027344 C 28.722656 10.785156 28.207031 12.308594 27.621094 13.625 L 21.492188 14.605469 C 22.246094 13.191406 23.097656 11.722656 24.019531 10.300781 Z M 27.4375 14.027344 C 26.597656 15.796875 25.628906 17.171875 24.667969 18.234375 L 19.3125 19.003906 C 19.851562 17.832031 20.511719 16.460938 21.273438 15.011719 Z M 19.085938 18.617188 L 18.347656 14.046875 C 18.765625 12.261719 19.382812 10.683594 20.199219 9.316406 L 20.957031 14.832031 C 20.238281 16.195312 19.609375 17.492188 19.085938 18.617188 Z M 23.714844 10.105469 C 22.816406 11.484375 21.992188 12.90625 21.253906 14.277344 L 20.503906 8.832031 C 20.945312 8.160156 21.441406 7.539062 21.984375 6.980469 C 22.667969 6.277344 23.382812 5.71875 24.097656 5.269531 Z M 23.714844 10.105469 " fill-opacity="1" fill-rule="nonzero"/></g><g clip-path="url(#c6c1e4ecde)"><path fill="#30a755" d="M 19.507812 26.441406 C 19.175781 26.300781 18.816406 26.222656 18.441406 26.203125 C 18.257812 25.992188 17.730469 25.464844 16.757812 25.085938 C 16.933594 24.875 17.269531 24.5625 17.84375 24.269531 C 17.886719 24.246094 17.921875 24.203125 17.9375 24.152344 C 17.949219 24.105469 17.941406 24.050781 17.914062 24.007812 C 16.179688 21.296875 12.097656 14.691406 11.699219 11.886719 C 11.824219 11.742188 12.308594 11.273438 13.273438 11.273438 C 13.5 11.273438 13.742188 11.300781 13.996094 11.351562 C 14.277344 12.21875 15.777344 16.730469 17.328125 20.4375 C 17.328125 21.152344 17.351562 21.882812 17.394531 22.609375 L 17.394531 22.625 C 17.394531 22.632812 17.398438 22.640625 17.398438 22.648438 L 17.40625 22.664062 C 17.40625 22.671875 17.410156 22.675781 17.410156 22.683594 L 17.417969 22.695312 C 17.425781 22.703125 17.425781 22.707031 17.429688 22.714844 L 17.4375 22.722656 C 17.445312 22.730469 17.449219 22.734375 17.457031 22.742188 C 17.480469 22.761719 17.496094 22.769531 17.511719 22.773438 C 17.535156 22.78125 17.554688 22.785156 17.578125 22.785156 C 17.585938 22.785156 17.59375 22.785156 17.601562 22.785156 C 17.628906 22.78125 17.886719 22.746094 18.308594 22.640625 C 18.503906 23.042969 18.691406 23.40625 18.863281 23.71875 C 18.894531 23.777344 18.957031 23.816406 19.023438 23.816406 C 19.039062 23.816406 19.054688 23.8125 19.070312 23.808594 C 19.71875 23.636719 20.453125 23.535156 21.253906 23.503906 C 20.925781 24.183594 20.941406 24.765625 20.984375 25.050781 C 20.152344 25.605469 19.671875 26.207031 19.507812 26.441406 Z M 17.867188 22.363281 C 18.070312 21.855469 18.503906 20.792969 19.132812 19.402344 L 24.261719 18.664062 C 23.980469 18.953125 23.691406 19.226562 23.40625 19.472656 C 21.054688 21.511719 18.75 22.171875 17.867188 22.363281 Z M 17.71875 21.75 C 17.628906 19.300781 17.769531 17.046875 18.136719 15.050781 L 18.8125 19.222656 C 18.320312 20.308594 17.949219 21.195312 17.722656 21.75 C 17.71875 21.75 17.71875 21.75 17.71875 21.75 Z M 19.3125 19.003906 C 19.941406 17.632812 20.601562 16.289062 21.273438 15.011719 L 27.4375 14.027344 C 26.679688 15.625 25.75 17.039062 24.667969 18.234375 L 19.3125 19.007812 C 19.3125 19.007812 19.3125 19.003906 19.3125 19.003906 Z M 19.085938 18.621094 L 18.347656 14.046875 C 18.765625 12.269531 19.386719 10.675781 20.199219 9.316406 L 20.957031 14.832031 C 20.316406 16.042969 19.6875 17.320312 19.089844 18.621094 C 19.085938 18.621094 19.085938 18.621094 19.085938 18.621094 Z M 21.492188 14.605469 C 22.324219 13.046875 23.175781 11.597656 24.019531 10.300781 L 29.109375 9.023438 C 28.746094 10.683594 28.242188 12.230469 27.621094 13.625 Z M 21.25 14.277344 L 20.503906 8.832031 C 20.949219 8.15625 21.445312 7.53125 21.984375 6.980469 C 22.617188 6.328125 23.328125 5.75 24.097656 5.269531 L 23.714844 10.105469 C 22.894531 11.367188 22.066406 12.769531 21.253906 14.277344 C 21.253906 14.277344 21.25 14.277344 21.25 14.277344 Z M 24.320312 9.847656 C 26.1875 7.054688 28.03125 4.96875 29.808594 3.652344 C 29.71875 5.40625 29.511719 7.082031 29.195312 8.625 Z M 24.132812 9.472656 L 24.484375 5.039062 C 26.511719 3.871094 28.445312 3.566406 29.417969 3.488281 C 27.703125 4.804688 25.925781 6.820312 24.132812 9.476562 C 24.132812 9.476562 24.132812 9.472656 24.132812 9.472656 Z M 24.132812 9.472656 " fill-opacity="1" fill-rule="nonzero"/><path fill="#30a755" d="M 11.699219 11.882812 C 11.871094 11.691406 12.554688 11.054688 13.996094 11.351562 C 14.234375 12.085938 15.761719 16.695312 17.328125 20.4375 C 17.328125 21.140625 17.351562 21.867188 17.394531 22.609375 C 17.394531 22.609375 17.394531 22.609375 17.394531 22.613281 C 17.394531 22.617188 17.394531 22.621094 17.394531 22.625 C 17.394531 22.632812 17.398438 22.640625 17.398438 22.648438 C 17.398438 22.652344 17.402344 22.660156 17.402344 22.664062 C 17.40625 22.667969 17.410156 22.675781 17.410156 22.683594 C 17.414062 22.6875 17.417969 22.691406 17.417969 22.695312 C 17.421875 22.703125 17.425781 22.707031 17.429688 22.714844 C 17.433594 22.71875 17.4375 22.722656 17.441406 22.726562 C 17.445312 22.730469 17.449219 22.738281 17.457031 22.742188 C 17.457031 22.742188 17.457031 22.742188 17.460938 22.746094 C 17.460938 22.746094 17.460938 22.746094 17.464844 22.746094 C 17.476562 22.757812 17.492188 22.769531 17.511719 22.777344 C 17.535156 22.785156 17.554688 22.789062 17.578125 22.789062 C 17.585938 22.789062 17.59375 22.789062 17.601562 22.785156 C 17.632812 22.78125 17.890625 22.746094 18.308594 22.640625 C 18.496094 23.03125 18.683594 23.394531 18.863281 23.71875 C 18.902344 23.792969 18.988281 23.832031 19.070312 23.808594 C 19.71875 23.636719 20.453125 23.535156 21.253906 23.503906 C 20.917969 24.199219 20.945312 24.792969 20.980469 25.050781 C 20.164062 25.59375 19.691406 26.179688 19.507812 26.441406 C 19.175781 26.300781 18.820312 26.21875 18.441406 26.203125 C 18.273438 26.007812 17.742188 25.464844 16.757812 25.085938 C 16.921875 24.890625 17.253906 24.570312 17.84375 24.269531 C 17.890625 24.246094 17.921875 24.203125 17.9375 24.152344 C 17.949219 24.101562 17.941406 24.050781 17.914062 24.007812 C 16.167969 21.285156 12.101562 14.691406 11.699219 11.882812 Z M 18.347656 14.046875 L 19.085938 18.617188 C 19.609375 17.492188 20.238281 16.195312 20.957031 14.832031 L 20.199219 9.316406 C 19.382812 10.683594 18.765625 12.261719 18.347656 14.046875 Z M 29.417969 3.488281 C 28.476562 3.5625 26.523438 3.863281 24.484375 5.039062 L 24.132812 9.472656 C 25.722656 7.117188 27.515625 4.949219 29.417969 3.488281 Z M 27.621094 13.625 C 28.207031 12.308594 28.722656 10.785156 29.109375 9.027344 L 24.019531 10.300781 C 23.097656 11.722656 22.246094 13.191406 21.492188 14.605469 Z M 24.320312 9.847656 L 29.195312 8.625 C 29.5 7.136719 29.714844 5.484375 29.808594 3.652344 C 27.828125 5.121094 25.964844 7.386719 24.320312 9.847656 Z M 19.132812 19.402344 C 18.5 20.800781 18.066406 21.867188 17.867188 22.363281 C 18.695312 22.183594 21.035156 21.527344 23.40625 19.472656 C 23.6875 19.230469 23.972656 18.960938 24.261719 18.664062 Z M 24.667969 18.234375 C 25.628906 17.171875 26.597656 15.796875 27.4375 14.027344 L 21.273438 15.011719 C 20.511719 16.460938 19.851562 17.832031 19.3125 19.003906 Z M 20.503906 8.832031 L 21.253906 14.277344 C 21.992188 12.90625 22.816406 11.484375 23.714844 10.105469 L 24.097656 5.269531 C 23.382812 5.71875 22.667969 6.277344 21.984375 6.980469 C 21.441406 7.539062 20.945312 8.160156 20.503906 8.832031 Z M 17.71875 21.75 C 17.960938 21.167969 18.328125 20.289062 18.8125 19.222656 L 18.140625 15.050781 C 17.769531 17.050781 17.628906 19.285156 17.71875 21.75 Z M 17.71875 21.75 " fill-opacity="1" fill-rule="nonzero"/></g><g clip-path="url(#c1d4c8e41a)"><path fill="#ffffff" d="M 23.796875 42.15625 C 23.148438 37.851562 19.902344 34.320312 15.222656 34.347656 C 10.335938 34.375 6.847656 38.636719 6.664062 42.875 C 6.558594 45.375 7.601562 47.863281 10.183594 49.46875 C 12.011719 50.605469 14.28125 51.007812 16.421875 50.789062 C 21.058594 50.308594 24.492188 46.796875 23.796875 42.15625 " fill-opacity="1" fill-rule="nonzero"/></g><g clip-path="url(#0af0e18734)"><path fill="#231f20" d="M 22.527344 46.640625 C 21.785156 47.949219 20.597656 48.96875 19.253906 49.617188 C 15.996094 51.1875 11.480469 50.792969 8.9375 48.050781 C 6.585938 45.511719 6.703125 41.714844 8.394531 38.851562 C 9.222656 37.453125 10.445312 36.269531 11.890625 35.527344 C 13.398438 34.757812 15.128906 34.496094 16.796875 34.789062 C 18.316406 35.050781 19.695312 35.78125 20.792969 36.867188 C 21.898438 37.96875 22.660156 39.394531 23.082031 40.890625 C 23.1875 41.277344 23.265625 41.671875 23.328125 42.066406 C 23.558594 43.648438 23.320312 45.246094 22.527344 46.640625 Z M 24.265625 42.246094 C 23.734375 38.785156 21.488281 35.664062 18.125 34.515625 C 16.363281 33.914062 14.390625 33.839844 12.609375 34.390625 C 10.910156 34.914062 9.40625 35.953125 8.289062 37.339844 C 6.070312 40.101562 5.402344 44.136719 7.378906 47.214844 C 9.667969 50.777344 14.644531 51.90625 18.523438 50.734375 C 20.113281 50.253906 21.605469 49.378906 22.679688 48.085938 C 23.742188 46.8125 24.324219 45.21875 24.351562 43.558594 C 24.359375 43.117188 24.328125 42.683594 24.265625 42.246094 " fill-opacity="1" fill-rule="nonzero"/></g><path fill="#231f20" d="M 22.558594 43.949219 C 22.738281 45.894531 21.28125 47.988281 18.960938 48.148438 C 16.464844 48.320312 14.902344 46.609375 15.0625 44.226562 C 15.253906 41.34375 18.628906 39.972656 20.929688 41.398438 C 21.957031 42.03125 22.464844 42.972656 22.558594 43.949219 " fill-opacity="1" fill-rule="nonzero"/><path fill="#ffffff" d="M 21.34375 43.925781 C 21.414062 43.792969 21.445312 43.636719 21.429688 43.484375 C 21.402344 43.21875 21.308594 42.945312 21.136719 42.695312 C 20.824219 42.253906 20.25 41.898438 19.65625 41.746094 C 19.328125 41.660156 18.953125 41.558594 18.753906 41.789062 C 18.601562 41.96875 18.6875 42.226562 18.914062 42.394531 C 19.253906 42.636719 19.78125 42.597656 20.160156 42.773438 C 20.78125 43.0625 20.996094 43.421875 21.289062 44.015625 C 21.3125 43.988281 21.328125 43.957031 21.34375 43.925781 " fill-opacity="1" fill-rule="nonzero"/><path fill="#231f20" d="M 8.878906 39.464844 C 8.617188 39.960938 8.425781 40.503906 8.273438 41.042969 C 7.957031 42.164062 7.832031 43.371094 8.0625 44.523438 C 8.214844 45.289062 8.527344 46.011719 8.953125 46.667969 C 8.96875 46.691406 9.101562 46.90625 9.136719 46.828125 C 9.175781 46.746094 9.015625 46.507812 8.976562 46.449219 C 7.847656 44.714844 8.246094 42.324219 8.988281 40.519531 C 9.050781 40.367188 9.136719 40.167969 9.203125 40.042969 C 9.25 39.960938 9.140625 39.792969 9.097656 39.722656 C 9.085938 39.703125 8.898438 39.425781 8.878906 39.464844 " fill-opacity="1" fill-rule="nonzero"/><g clip-path="url(#7f7bd9c192)"><path fill="#ffffff" d="M 45.179688 42.15625 C 44.53125 37.851562 41.28125 34.320312 36.601562 34.347656 C 31.714844 34.375 28.230469 38.636719 28.046875 42.875 C 27.941406 45.375 28.980469 47.863281 31.566406 49.46875 C 33.390625 50.605469 35.664062 51.007812 37.800781 50.789062 C 42.4375 50.308594 45.875 46.796875 45.179688 42.15625 " fill-opacity="1" fill-rule="nonzero"/></g><g clip-path="url(#eb4bd5b204)"><path fill="#231f20" d="M 43.90625 46.640625 C 43.167969 47.949219 41.980469 48.96875 40.636719 49.617188 C 37.378906 51.1875 32.859375 50.792969 30.320312 48.050781 C 27.96875 45.511719 28.085938 41.714844 29.777344 38.851562 C 30.605469 37.453125 31.824219 36.269531 33.269531 35.527344 C 34.777344 34.757812 36.511719 34.496094 38.179688 34.789062 C 39.699219 35.050781 41.078125 35.78125 42.171875 36.867188 C 43.28125 37.96875 44.042969 39.394531 44.460938 40.890625 C 44.570312 41.277344 44.648438 41.671875 44.710938 42.066406 C 44.941406 43.648438 44.699219 45.246094 43.90625 46.640625 Z M 45.648438 42.246094 C 45.113281 38.785156 42.871094 35.664062 39.503906 34.515625 C 37.746094 33.914062 35.773438 33.839844 33.992188 34.390625 C 32.292969 34.914062 30.789062 35.953125 29.671875 37.339844 C 27.449219 40.101562 26.785156 44.136719 28.761719 47.214844 C 31.046875 50.777344 36.027344 51.90625 39.902344 50.734375 C 41.496094 50.253906 42.984375 49.378906 44.0625 48.085938 C 45.121094 46.8125 45.707031 45.21875 45.734375 43.558594 C 45.742188 43.117188 45.710938 42.683594 45.648438 42.246094 " fill-opacity="1" fill-rule="nonzero"/></g><path fill="#231f20" d="M 43.9375 43.949219 C 44.121094 45.894531 42.664062 47.988281 40.339844 48.148438 C 37.847656 48.320312 36.285156 46.609375 36.441406 44.226562 C 36.636719 41.34375 40.011719 39.972656 42.3125 41.398438 C 43.335938 42.03125 43.847656 42.972656 43.9375 43.949219 " fill-opacity="1" fill-rule="nonzero"/><path fill="#ffffff" d="M 42.726562 43.925781 C 42.796875 43.792969 42.824219 43.636719 42.8125 43.484375 C 42.785156 43.21875 42.691406 42.945312 42.515625 42.695312 C 42.203125 42.253906 41.632812 41.898438 41.039062 41.746094 C 40.710938 41.660156 40.335938 41.558594 40.136719 41.789062 C 39.984375 41.96875 40.066406 42.226562 40.296875 42.394531 C 40.636719 42.636719 41.164062 42.597656 41.542969 42.773438 C 42.160156 43.0625 42.375 43.421875 42.671875 44.015625 C 42.691406 43.988281 42.710938 43.957031 42.726562 43.925781 " fill-opacity="1" fill-rule="nonzero"/><path fill="#231f20" d="M 30.257812 39.464844 C 30 39.960938 29.808594 40.503906 29.65625 41.042969 C 29.339844 42.164062 29.210938 43.371094 29.441406 44.523438 C 29.59375 45.289062 29.910156 46.011719 30.332031 46.667969 C 30.351562 46.691406 30.480469 46.90625 30.519531 46.828125 C 30.558594 46.746094 30.398438 46.507812 30.359375 46.449219 C 29.230469 44.714844 29.625 42.324219 30.371094 40.519531 C 30.433594 40.367188 30.519531 40.167969 30.585938 40.042969 C 30.628906 39.960938 30.519531 39.792969 30.480469 39.722656 C 30.46875 39.703125 30.277344 39.425781 30.257812 39.464844 " fill-opacity="1" fill-rule="nonzero"/><g fill="#ec671b" fill-opacity="1"><g transform="translate(196.159357, 69.133131)"><g><path d="M 0.875 0.015625 C 0.882812 0.015625 0.894531 0.015625 0.90625 0.015625 C 0.914062 0.0234375 0.929688 0.0351562 0.953125 0.046875 C 0.992188 0.0546875 1.03125 0.0625 1.0625 0.0625 C 1.101562 0.0625 1.144531 0.0625 1.1875 0.0625 C 1.769531 0.0078125 2.359375 -0.0078125 2.953125 0 C 3.546875 0 4.140625 0.00390625 4.734375 0.015625 C 5.328125 0.0234375 5.921875 0.0195312 6.515625 0 C 7.109375 -0.03125 7.6875 -0.109375 8.25 -0.234375 C 8.332031 -0.242188 8.410156 -0.253906 8.484375 -0.265625 C 8.554688 -0.285156 8.632812 -0.304688 8.71875 -0.328125 C 8.789062 -0.347656 8.863281 -0.363281 8.9375 -0.375 C 9.007812 -0.394531 9.082031 -0.421875 9.15625 -0.453125 C 9.46875 -0.546875 9.773438 -0.671875 10.078125 -0.828125 C 10.378906 -0.992188 10.65625 -1.1875 10.90625 -1.40625 C 11.164062 -1.632812 11.378906 -1.894531 11.546875 -2.1875 C 11.703125 -2.476562 11.789062 -2.789062 11.8125 -3.125 C 11.832031 -3.457031 11.785156 -3.78125 11.671875 -4.09375 C 11.554688 -4.414062 11.378906 -4.691406 11.140625 -4.921875 C 11.085938 -4.972656 11.023438 -5.019531 10.953125 -5.0625 C 10.890625 -5.101562 10.828125 -5.148438 10.765625 -5.203125 C 10.253906 -5.566406 9.679688 -5.832031 9.046875 -6 C 8.421875 -6.175781 7.800781 -6.289062 7.1875 -6.34375 C 6.363281 -6.40625 5.539062 -6.425781 4.71875 -6.40625 C 3.894531 -6.382812 3.078125 -6.375 2.265625 -6.375 C 2.140625 -6.375 2 -6.382812 1.84375 -6.40625 C 1.695312 -6.4375 1.546875 -6.453125 1.390625 -6.453125 C 1.242188 -6.453125 1.117188 -6.414062 1.015625 -6.34375 C 0.898438 -6.257812 0.84375 -6.148438 0.84375 -6.015625 C 0.84375 -5.878906 0.847656 -5.753906 0.859375 -5.640625 C 0.859375 -5.378906 0.859375 -5.117188 0.859375 -4.859375 C 0.859375 -4.609375 0.859375 -4.351562 0.859375 -4.09375 L 0.859375 -3.640625 C 0.859375 -3.347656 0.859375 -3.054688 0.859375 -2.765625 C 0.867188 -2.484375 0.875 -2.195312 0.875 -1.90625 C 0.875 -1.769531 0.875 -1.628906 0.875 -1.484375 C 0.875 -1.335938 0.875 -1.191406 0.875 -1.046875 C 0.875 -0.953125 0.882812 -0.863281 0.90625 -0.78125 C 0.925781 -0.695312 0.929688 -0.613281 0.921875 -0.53125 C 0.910156 -0.476562 0.890625 -0.414062 0.859375 -0.34375 C 0.835938 -0.28125 0.820312 -0.210938 0.8125 -0.140625 C 0.800781 -0.078125 0.820312 -0.0234375 0.875 0.015625 Z M 2.578125 -1.1875 C 2.578125 -1.1875 2.570312 -1.1875 2.5625 -1.1875 C 2.5625 -1.1875 2.5625 -1.191406 2.5625 -1.203125 C 2.53125 -1.242188 2.515625 -1.300781 2.515625 -1.375 C 2.523438 -1.445312 2.535156 -1.523438 2.546875 -1.609375 C 2.566406 -1.691406 2.578125 -1.753906 2.578125 -1.796875 L 2.578125 -3.40625 C 2.578125 -3.519531 2.578125 -3.59375 2.578125 -3.625 C 2.578125 -3.664062 2.578125 -3.738281 2.578125 -3.84375 C 2.578125 -3.957031 2.570312 -4.03125 2.5625 -4.0625 C 2.5625 -4.101562 2.5625 -4.179688 2.5625 -4.296875 C 2.5625 -4.398438 2.566406 -4.46875 2.578125 -4.5 C 2.585938 -4.539062 2.59375 -4.617188 2.59375 -4.734375 C 2.59375 -4.835938 2.582031 -4.921875 2.5625 -4.984375 C 2.539062 -5.054688 2.546875 -5.109375 2.578125 -5.140625 C 2.617188 -5.171875 2.71875 -5.1875 2.875 -5.1875 L 4.484375 -5.1875 C 4.941406 -5.1875 5.410156 -5.1875 5.890625 -5.1875 C 6.367188 -5.195312 6.84375 -5.175781 7.3125 -5.125 C 7.78125 -5.082031 8.234375 -4.988281 8.671875 -4.84375 C 8.898438 -4.769531 9.109375 -4.675781 9.296875 -4.5625 C 9.484375 -4.445312 9.65625 -4.300781 9.8125 -4.125 C 9.863281 -4.0625 9.90625 -4 9.9375 -3.9375 C 9.976562 -3.875 10.015625 -3.804688 10.046875 -3.734375 C 10.160156 -3.421875 10.160156 -3.125 10.046875 -2.84375 C 9.941406 -2.570312 9.769531 -2.332031 9.53125 -2.125 C 9.300781 -1.914062 9.050781 -1.765625 8.78125 -1.671875 C 8.300781 -1.484375 7.8125 -1.351562 7.3125 -1.28125 C 6.820312 -1.21875 6.328125 -1.179688 5.828125 -1.171875 C 5.335938 -1.171875 4.835938 -1.171875 4.328125 -1.171875 C 3.828125 -1.179688 3.332031 -1.171875 2.84375 -1.140625 C 2.800781 -1.128906 2.753906 -1.125 2.703125 -1.125 C 2.648438 -1.132812 2.609375 -1.15625 2.578125 -1.1875 Z M 2.578125 -1.1875 "/></g></g></g><g fill="#ec671b" fill-opacity="1"><g transform="translate(208.482788, 69.133131)"><g><path d="M 0.890625 -6.390625 C 0.847656 -6.335938 0.832031 -6.25 0.84375 -6.125 C 0.851562 -6 0.867188 -5.867188 0.890625 -5.734375 C 0.921875 -5.609375 0.9375 -5.507812 0.9375 -5.4375 C 0.945312 -5.257812 0.941406 -5.078125 0.921875 -4.890625 C 0.910156 -4.703125 0.90625 -4.515625 0.90625 -4.328125 C 0.90625 -4.035156 0.90625 -3.742188 0.90625 -3.453125 C 0.90625 -3.160156 0.910156 -2.863281 0.921875 -2.5625 C 0.929688 -2.1875 0.9375 -1.804688 0.9375 -1.421875 C 0.945312 -1.046875 0.925781 -0.671875 0.875 -0.296875 C 0.863281 -0.253906 0.859375 -0.210938 0.859375 -0.171875 C 0.859375 -0.128906 0.863281 -0.0859375 0.875 -0.046875 C 0.90625 0.015625 0.945312 0.046875 1 0.046875 C 1.0625 0.0546875 1.125 0.0507812 1.1875 0.03125 C 1.257812 0.0195312 1.316406 0.015625 1.359375 0.015625 C 1.460938 -0.00390625 1.566406 -0.0078125 1.671875 0 C 1.785156 0.0078125 1.890625 0.0195312 1.984375 0.03125 C 2.035156 0.0390625 2.101562 0.0507812 2.1875 0.0625 C 2.269531 0.0703125 2.351562 0.0703125 2.4375 0.0625 C 2.519531 0.0507812 2.582031 0.0195312 2.625 -0.03125 C 2.65625 -0.09375 2.660156 -0.160156 2.640625 -0.234375 C 2.628906 -0.304688 2.617188 -0.367188 2.609375 -0.421875 C 2.597656 -0.535156 2.59375 -0.65625 2.59375 -0.78125 C 2.59375 -0.90625 2.59375 -1.023438 2.59375 -1.140625 L 2.578125 -2.578125 C 2.566406 -3.054688 2.5625 -3.535156 2.5625 -4.015625 C 2.5625 -4.492188 2.570312 -4.972656 2.59375 -5.453125 C 2.59375 -5.523438 2.601562 -5.617188 2.625 -5.734375 C 2.644531 -5.847656 2.660156 -5.957031 2.671875 -6.0625 C 2.679688 -6.175781 2.664062 -6.257812 2.625 -6.3125 C 2.59375 -6.382812 2.546875 -6.421875 2.484375 -6.421875 C 2.429688 -6.421875 2.367188 -6.410156 2.296875 -6.390625 C 2.234375 -6.367188 2.175781 -6.359375 2.125 -6.359375 C 2.0625 -6.347656 2 -6.34375 1.9375 -6.34375 C 1.875 -6.351562 1.8125 -6.359375 1.75 -6.359375 C 1.675781 -6.359375 1.585938 -6.375 1.484375 -6.40625 C 1.378906 -6.4375 1.273438 -6.457031 1.171875 -6.46875 C 1.078125 -6.488281 0.992188 -6.472656 0.921875 -6.421875 C 0.921875 -6.410156 0.914062 -6.398438 0.90625 -6.390625 C 0.90625 -6.390625 0.898438 -6.390625 0.890625 -6.390625 Z M 0.890625 -6.390625 "/></g></g></g><g fill="#ec671b" fill-opacity="1"><g transform="translate(211.990781, 69.133131)"><g><path d="M 0.453125 -3.15625 C 0.460938 -3.457031 0.523438 -3.753906 0.640625 -4.046875 C 0.753906 -4.335938 0.921875 -4.601562 1.140625 -4.84375 C 1.222656 -4.945312 1.316406 -5.039062 1.421875 -5.125 C 1.535156 -5.207031 1.644531 -5.285156 1.75 -5.359375 C 2.269531 -5.722656 2.832031 -6.003906 3.4375 -6.203125 C 4.050781 -6.410156 4.679688 -6.539062 5.328125 -6.59375 C 5.972656 -6.65625 6.617188 -6.648438 7.265625 -6.578125 C 7.910156 -6.503906 8.523438 -6.378906 9.109375 -6.203125 C 9.191406 -6.179688 9.269531 -6.160156 9.34375 -6.140625 C 9.414062 -6.117188 9.488281 -6.09375 9.5625 -6.0625 C 9.644531 -6.039062 9.71875 -6.007812 9.78125 -5.96875 C 9.851562 -5.9375 9.921875 -5.910156 9.984375 -5.890625 C 10.015625 -5.867188 10.023438 -5.820312 10.015625 -5.75 C 10.015625 -5.675781 10.007812 -5.597656 10 -5.515625 C 10 -5.429688 10 -5.378906 10 -5.359375 C 10 -5.296875 10.003906 -5.226562 10.015625 -5.15625 C 10.035156 -5.09375 10.046875 -5.03125 10.046875 -4.96875 C 10.054688 -4.925781 10.0625 -4.867188 10.0625 -4.796875 C 10.070312 -4.722656 10.070312 -4.648438 10.0625 -4.578125 C 10.0625 -4.503906 10.039062 -4.445312 10 -4.40625 C 9.96875 -4.363281 9.914062 -4.359375 9.84375 -4.390625 C 9.726562 -4.441406 9.617188 -4.515625 9.515625 -4.609375 C 9.410156 -4.703125 9.300781 -4.78125 9.1875 -4.84375 C 8.90625 -5 8.601562 -5.125 8.28125 -5.21875 C 7.59375 -5.414062 6.875 -5.503906 6.125 -5.484375 C 5.382812 -5.472656 4.675781 -5.347656 4 -5.109375 C 3.925781 -5.078125 3.847656 -5.046875 3.765625 -5.015625 C 3.691406 -4.984375 3.625 -4.953125 3.5625 -4.921875 C 3.351562 -4.828125 3.144531 -4.703125 2.9375 -4.546875 C 2.738281 -4.390625 2.578125 -4.222656 2.453125 -4.046875 C 2.398438 -3.984375 2.359375 -3.910156 2.328125 -3.828125 C 2.304688 -3.753906 2.28125 -3.6875 2.25 -3.625 C 2.132812 -3.300781 2.132812 -2.988281 2.25 -2.6875 C 2.363281 -2.394531 2.539062 -2.140625 2.78125 -1.921875 C 2.832031 -1.878906 2.890625 -1.828125 2.953125 -1.765625 C 3.015625 -1.710938 3.078125 -1.664062 3.140625 -1.625 C 3.210938 -1.582031 3.285156 -1.546875 3.359375 -1.515625 C 3.429688 -1.484375 3.503906 -1.445312 3.578125 -1.40625 C 3.640625 -1.375 3.707031 -1.34375 3.78125 -1.3125 C 3.851562 -1.28125 3.925781 -1.25 4 -1.21875 C 4.519531 -1.03125 5.050781 -0.910156 5.59375 -0.859375 C 6.132812 -0.816406 6.675781 -0.820312 7.21875 -0.875 C 7.644531 -0.925781 8.066406 -1.007812 8.484375 -1.125 C 8.898438 -1.25 9.285156 -1.4375 9.640625 -1.6875 C 9.691406 -1.71875 9.738281 -1.753906 9.78125 -1.796875 C 9.832031 -1.835938 9.878906 -1.878906 9.921875 -1.921875 C 9.984375 -2.003906 9.96875 -2.050781 9.875 -2.0625 C 9.78125 -2.070312 9.6875 -2.066406 9.59375 -2.046875 C 9.5 -2.023438 9.40625 -2.015625 9.3125 -2.015625 C 9.207031 -2.003906 9.101562 -1.992188 9 -1.984375 C 8.894531 -1.984375 8.789062 -1.984375 8.6875 -1.984375 C 8.488281 -1.984375 8.285156 -1.984375 8.078125 -1.984375 C 7.878906 -1.984375 7.679688 -1.976562 7.484375 -1.96875 C 7.441406 -1.957031 7.40625 -1.953125 7.375 -1.953125 C 7.34375 -1.953125 7.3125 -1.957031 7.28125 -1.96875 C 7.175781 -2 7.125 -2.066406 7.125 -2.171875 C 7.125 -2.285156 7.125 -2.378906 7.125 -2.453125 C 7.132812 -2.523438 7.132812 -2.597656 7.125 -2.671875 C 7.113281 -2.753906 7.109375 -2.832031 7.109375 -2.90625 C 7.109375 -2.96875 7.125 -3.03125 7.15625 -3.09375 C 7.1875 -3.15625 7.242188 -3.1875 7.328125 -3.1875 C 7.347656 -3.175781 7.375 -3.164062 7.40625 -3.15625 C 7.4375 -3.144531 7.46875 -3.132812 7.5 -3.125 C 7.601562 -3.101562 7.707031 -3.097656 7.8125 -3.109375 C 7.914062 -3.117188 8.019531 -3.117188 8.125 -3.109375 C 8.238281 -3.097656 8.347656 -3.09375 8.453125 -3.09375 C 8.554688 -3.09375 8.664062 -3.09375 8.78125 -3.09375 L 10.125 -3.09375 C 10.257812 -3.09375 10.390625 -3.09375 10.515625 -3.09375 C 10.648438 -3.09375 10.78125 -3.109375 10.90625 -3.140625 C 11.019531 -3.160156 11.125 -3.15625 11.21875 -3.125 C 11.3125 -3.09375 11.34375 -3.003906 11.3125 -2.859375 C 11.28125 -2.671875 11.265625 -2.484375 11.265625 -2.296875 C 11.273438 -2.109375 11.273438 -1.921875 11.265625 -1.734375 C 11.265625 -1.617188 11.265625 -1.503906 11.265625 -1.390625 C 11.265625 -1.273438 11.265625 -1.164062 11.265625 -1.0625 C 11.265625 -0.945312 11.257812 -0.835938 11.25 -0.734375 C 11.25 -0.628906 11.253906 -0.519531 11.265625 -0.40625 C 11.265625 -0.351562 11.273438 -0.296875 11.296875 -0.234375 C 11.328125 -0.179688 11.335938 -0.125 11.328125 -0.0625 C 11.304688 0.03125 11.25 0.0664062 11.15625 0.046875 C 11.0625 0.0351562 10.976562 0.0234375 10.90625 0.015625 C 10.8125 -0.00390625 10.710938 -0.015625 10.609375 -0.015625 C 10.515625 -0.015625 10.425781 0 10.34375 0.03125 C 10.28125 0.0390625 10.21875 0.0507812 10.15625 0.0625 C 10.09375 0.0703125 10.035156 0.0546875 9.984375 0.015625 C 9.929688 -0.0351562 9.921875 -0.0859375 9.953125 -0.140625 C 9.992188 -0.203125 10.015625 -0.257812 10.015625 -0.3125 C 10.035156 -0.394531 10.015625 -0.421875 9.953125 -0.390625 C 9.890625 -0.367188 9.847656 -0.351562 9.828125 -0.34375 C 9.773438 -0.3125 9.726562 -0.285156 9.6875 -0.265625 C 9.65625 -0.242188 9.617188 -0.226562 9.578125 -0.21875 C 9.503906 -0.195312 9.425781 -0.175781 9.34375 -0.15625 C 9.269531 -0.144531 9.195312 -0.125 9.125 -0.09375 C 8.351562 0.132812 7.566406 0.257812 6.765625 0.28125 C 5.972656 0.3125 5.179688 0.257812 4.390625 0.125 C 4.171875 0.09375 3.953125 0.0507812 3.734375 0 C 3.523438 -0.0625 3.3125 -0.128906 3.09375 -0.203125 C 2.65625 -0.367188 2.226562 -0.582031 1.8125 -0.84375 C 1.40625 -1.113281 1.070312 -1.453125 0.8125 -1.859375 C 0.6875 -2.066406 0.59375 -2.273438 0.53125 -2.484375 C 0.476562 -2.703125 0.453125 -2.925781 0.453125 -3.15625 Z M 0.453125 -3.15625 "/></g></g></g><g fill="#ec671b" fill-opacity="1"><g transform="translate(223.950685, 69.133131)"><g><path d="M 0.890625 -6.390625 C 0.847656 -6.335938 0.832031 -6.25 0.84375 -6.125 C 0.851562 -6 0.867188 -5.867188 0.890625 -5.734375 C 0.921875 -5.609375 0.9375 -5.507812 0.9375 -5.4375 C 0.945312 -5.257812 0.941406 -5.078125 0.921875 -4.890625 C 0.910156 -4.703125 0.90625 -4.515625 0.90625 -4.328125 C 0.90625 -4.035156 0.90625 -3.742188 0.90625 -3.453125 C 0.90625 -3.160156 0.910156 -2.863281 0.921875 -2.5625 C 0.929688 -2.1875 0.9375 -1.804688 0.9375 -1.421875 C 0.945312 -1.046875 0.925781 -0.671875 0.875 -0.296875 C 0.863281 -0.253906 0.859375 -0.210938 0.859375 -0.171875 C 0.859375 -0.128906 0.863281 -0.0859375 0.875 -0.046875 C 0.90625 0.015625 0.945312 0.046875 1 0.046875 C 1.0625 0.0546875 1.125 0.0507812 1.1875 0.03125 C 1.257812 0.0195312 1.316406 0.015625 1.359375 0.015625 C 1.460938 -0.00390625 1.566406 -0.0078125 1.671875 0 C 1.785156 0.0078125 1.890625 0.0195312 1.984375 0.03125 C 2.035156 0.0390625 2.101562 0.0507812 2.1875 0.0625 C 2.269531 0.0703125 2.351562 0.0703125 2.4375 0.0625 C 2.519531 0.0507812 2.582031 0.0195312 2.625 -0.03125 C 2.65625 -0.09375 2.660156 -0.160156 2.640625 -0.234375 C 2.628906 -0.304688 2.617188 -0.367188 2.609375 -0.421875 C 2.597656 -0.535156 2.59375 -0.65625 2.59375 -0.78125 C 2.59375 -0.90625 2.59375 -1.023438 2.59375 -1.140625 L 2.578125 -2.578125 C 2.566406 -3.054688 2.5625 -3.535156 2.5625 -4.015625 C 2.5625 -4.492188 2.570312 -4.972656 2.59375 -5.453125 C 2.59375 -5.523438 2.601562 -5.617188 2.625 -5.734375 C 2.644531 -5.847656 2.660156 -5.957031 2.671875 -6.0625 C 2.679688 -6.175781 2.664062 -6.257812 2.625 -6.3125 C 2.59375 -6.382812 2.546875 -6.421875 2.484375 -6.421875 C 2.429688 -6.421875 2.367188 -6.410156 2.296875 -6.390625 C 2.234375 -6.367188 2.175781 -6.359375 2.125 -6.359375 C 2.0625 -6.347656 2 -6.34375 1.9375 -6.34375 C 1.875 -6.351562 1.8125 -6.359375 1.75 -6.359375 C 1.675781 -6.359375 1.585938 -6.375 1.484375 -6.40625 C 1.378906 -6.4375 1.273438 -6.457031 1.171875 -6.46875 C 1.078125 -6.488281 0.992188 -6.472656 0.921875 -6.421875 C 0.921875 -6.410156 0.914062 -6.398438 0.90625 -6.390625 C 0.90625 -6.390625 0.898438 -6.390625 0.890625 -6.390625 Z M 0.890625 -6.390625 "/></g></g></g><g fill="#ec671b" fill-opacity="1"><g transform="translate(227.458678, 69.133131)"><g><path d="M 0.515625 -5.109375 C 0.503906 -5.117188 0.492188 -5.128906 0.484375 -5.140625 C 0.484375 -5.148438 0.476562 -5.160156 0.46875 -5.171875 C 0.457031 -5.203125 0.445312 -5.234375 0.4375 -5.265625 C 0.4375 -5.304688 0.4375 -5.34375 0.4375 -5.375 C 0.445312 -5.507812 0.453125 -5.644531 0.453125 -5.78125 C 0.460938 -5.925781 0.46875 -6.0625 0.46875 -6.1875 C 0.46875 -6.25 0.484375 -6.296875 0.515625 -6.328125 C 0.535156 -6.347656 0.5625 -6.359375 0.59375 -6.359375 C 0.625 -6.367188 0.65625 -6.375 0.6875 -6.375 C 2.164062 -6.375 3.648438 -6.367188 5.140625 -6.359375 C 6.628906 -6.359375 8.117188 -6.359375 9.609375 -6.359375 C 9.628906 -6.359375 9.648438 -6.351562 9.671875 -6.34375 C 9.691406 -6.34375 9.710938 -6.332031 9.734375 -6.3125 C 9.742188 -6.300781 9.75 -6.269531 9.75 -6.21875 L 9.75 -5.265625 C 9.75 -5.222656 9.75 -5.1875 9.75 -5.15625 C 9.75 -5.125 9.734375 -5.09375 9.703125 -5.0625 C 9.679688 -5.039062 9.65625 -5.023438 9.625 -5.015625 C 9.59375 -5.015625 9.5625 -5.015625 9.53125 -5.015625 C 8.988281 -5.023438 8.441406 -5.035156 7.890625 -5.046875 C 7.347656 -5.054688 6.804688 -5.0625 6.265625 -5.0625 C 6.179688 -5.0625 6.097656 -5.054688 6.015625 -5.046875 C 5.941406 -5.035156 5.882812 -4.992188 5.84375 -4.921875 C 5.8125 -4.878906 5.789062 -4.832031 5.78125 -4.78125 C 5.78125 -4.726562 5.78125 -4.675781 5.78125 -4.625 C 5.78125 -3.882812 5.785156 -3.144531 5.796875 -2.40625 C 5.804688 -1.675781 5.8125 -0.941406 5.8125 -0.203125 C 5.8125 -0.171875 5.8125 -0.144531 5.8125 -0.125 C 5.8125 -0.101562 5.800781 -0.0820312 5.78125 -0.0625 C 5.757812 -0.0390625 5.722656 -0.03125 5.671875 -0.03125 C 5.484375 0 5.296875 0.015625 5.109375 0.015625 C 4.929688 0.015625 4.753906 0.015625 4.578125 0.015625 C 4.492188 0.015625 4.40625 0.00390625 4.3125 -0.015625 C 4.226562 -0.046875 4.160156 -0.0976562 4.109375 -0.171875 C 4.085938 -0.210938 4.078125 -0.253906 4.078125 -0.296875 C 4.078125 -0.347656 4.078125 -0.398438 4.078125 -0.453125 C 4.085938 -1.148438 4.097656 -1.847656 4.109375 -2.546875 C 4.128906 -3.242188 4.148438 -3.941406 4.171875 -4.640625 C 4.171875 -4.710938 4.160156 -4.785156 4.140625 -4.859375 C 4.117188 -4.941406 4.078125 -5 4.015625 -5.03125 C 3.984375 -5.050781 3.953125 -5.0625 3.921875 -5.0625 C 3.898438 -5.0625 3.875 -5.0625 3.84375 -5.0625 C 3.34375 -5.050781 2.847656 -5.039062 2.359375 -5.03125 C 1.867188 -5.03125 1.375 -5.023438 0.875 -5.015625 C 0.820312 -5.015625 0.757812 -5.015625 0.6875 -5.015625 C 0.625 -5.023438 0.566406 -5.054688 0.515625 -5.109375 Z M 0.515625 -5.109375 "/></g></g></g><g fill="#ec671b" fill-opacity="1"><g transform="translate(237.646407, 69.133131)"><g><path d="M 0.265625 -0.015625 C 0.222656 -0.0546875 0.222656 -0.113281 0.265625 -0.1875 C 0.304688 -0.257812 0.363281 -0.335938 0.4375 -0.421875 C 0.507812 -0.515625 0.578125 -0.59375 0.640625 -0.65625 C 0.710938 -0.726562 0.765625 -0.78125 0.796875 -0.8125 C 1.378906 -1.6875 1.960938 -2.5625 2.546875 -3.4375 C 3.128906 -4.3125 3.710938 -5.1875 4.296875 -6.0625 C 4.367188 -6.175781 4.476562 -6.257812 4.625 -6.3125 C 4.78125 -6.363281 4.945312 -6.394531 5.125 -6.40625 C 5.3125 -6.414062 5.492188 -6.421875 5.671875 -6.421875 C 5.847656 -6.421875 6 -6.429688 6.125 -6.453125 C 6.195312 -6.453125 6.269531 -6.453125 6.34375 -6.453125 C 6.425781 -6.460938 6.5 -6.453125 6.5625 -6.421875 C 6.707031 -6.378906 6.828125 -6.300781 6.921875 -6.1875 C 7.015625 -6.070312 7.097656 -5.945312 7.171875 -5.8125 C 7.742188 -4.851562 8.34375 -3.90625 8.96875 -2.96875 C 9.601562 -2.039062 10.253906 -1.128906 10.921875 -0.234375 C 10.953125 -0.191406 10.972656 -0.144531 10.984375 -0.09375 C 11.003906 -0.0507812 10.992188 -0.015625 10.953125 0.015625 C 10.941406 0.0234375 10.910156 0.03125 10.859375 0.03125 C 10.722656 0.03125 10.582031 0.03125 10.4375 0.03125 C 10.300781 0.0390625 10.164062 0.046875 10.03125 0.046875 C 9.894531 0.046875 9.753906 0.0390625 9.609375 0.03125 C 9.472656 0.0195312 9.351562 -0.03125 9.25 -0.125 C 9.15625 -0.207031 9.082031 -0.3125 9.03125 -0.4375 C 8.976562 -0.570312 8.914062 -0.695312 8.84375 -0.8125 C 8.78125 -0.9375 8.6875 -1.015625 8.5625 -1.046875 C 8.375 -1.085938 8.160156 -1.09375 7.921875 -1.0625 C 7.691406 -1.03125 7.484375 -1.015625 7.296875 -1.015625 C 7.046875 -1.003906 6.796875 -0.992188 6.546875 -0.984375 C 6.304688 -0.984375 6.0625 -0.984375 5.8125 -0.984375 C 5.3125 -0.984375 4.8125 -0.988281 4.3125 -1 C 3.820312 -1.007812 3.332031 -1.015625 2.84375 -1.015625 C 2.675781 -1.015625 2.550781 -0.96875 2.46875 -0.875 C 2.394531 -0.789062 2.328125 -0.6875 2.265625 -0.5625 C 2.210938 -0.4375 2.148438 -0.316406 2.078125 -0.203125 C 2.015625 -0.0976562 1.914062 -0.0234375 1.78125 0.015625 C 1.5625 0.0859375 1.332031 0.109375 1.09375 0.078125 C 0.851562 0.0546875 0.617188 0.0390625 0.390625 0.03125 C 0.367188 0.03125 0.347656 0.0234375 0.328125 0.015625 C 0.304688 0.015625 0.285156 0.00390625 0.265625 -0.015625 Z M 3.5625 -2.359375 C 3.582031 -2.304688 3.632812 -2.269531 3.71875 -2.25 C 3.769531 -2.226562 3.816406 -2.21875 3.859375 -2.21875 C 3.910156 -2.226562 3.960938 -2.234375 4.015625 -2.234375 C 4.421875 -2.285156 4.835938 -2.320312 5.265625 -2.34375 C 5.691406 -2.375 6.109375 -2.375 6.515625 -2.34375 C 6.578125 -2.34375 6.664062 -2.328125 6.78125 -2.296875 C 6.90625 -2.273438 7.035156 -2.253906 7.171875 -2.234375 C 7.316406 -2.222656 7.441406 -2.226562 7.546875 -2.25 C 7.648438 -2.269531 7.710938 -2.316406 7.734375 -2.390625 C 7.734375 -2.421875 7.722656 -2.453125 7.703125 -2.484375 C 7.691406 -2.523438 7.671875 -2.554688 7.640625 -2.578125 C 7.441406 -2.835938 7.25 -3.101562 7.0625 -3.375 C 6.875 -3.644531 6.6875 -3.914062 6.5 -4.1875 C 6.46875 -4.25 6.410156 -4.351562 6.328125 -4.5 C 6.253906 -4.644531 6.171875 -4.796875 6.078125 -4.953125 C 5.984375 -5.117188 5.890625 -5.253906 5.796875 -5.359375 C 5.703125 -5.472656 5.617188 -5.515625 5.546875 -5.484375 C 5.503906 -5.472656 5.453125 -5.410156 5.390625 -5.296875 C 5.335938 -5.191406 5.285156 -5.082031 5.234375 -4.96875 C 5.179688 -4.863281 5.140625 -4.789062 5.109375 -4.75 C 5.035156 -4.625 4.957031 -4.5 4.875 -4.375 C 4.800781 -4.25 4.722656 -4.128906 4.640625 -4.015625 C 4.484375 -3.773438 4.320312 -3.539062 4.15625 -3.3125 C 3.988281 -3.082031 3.816406 -2.859375 3.640625 -2.640625 C 3.609375 -2.609375 3.582031 -2.578125 3.5625 -2.546875 C 3.550781 -2.523438 3.539062 -2.492188 3.53125 -2.453125 C 3.53125 -2.421875 3.539062 -2.390625 3.5625 -2.359375 Z M 3.5625 -2.359375 "/></g></g></g><g fill="#ec671b" fill-opacity="1"><g transform="translate(248.870175, 69.133131)"><g><path d="M 0.890625 0 C 0.953125 0.0507812 1.023438 0.078125 1.109375 0.078125 C 1.203125 0.078125 1.289062 0.0546875 1.375 0.015625 C 1.457031 -0.015625 1.546875 -0.0234375 1.640625 -0.015625 C 1.890625 -0.015625 2.140625 -0.0078125 2.390625 0 C 2.648438 0.0078125 2.898438 0.0078125 3.140625 0 C 3.890625 0 4.640625 0.00390625 5.390625 0.015625 C 6.140625 0.0234375 6.882812 0.0195312 7.625 0 C 7.925781 -0.0078125 8.226562 -0.015625 8.53125 -0.015625 C 8.84375 -0.0234375 9.148438 -0.00390625 9.453125 0.046875 C 9.515625 0.046875 9.582031 0.0351562 9.65625 0.015625 C 9.738281 0.00390625 9.773438 -0.046875 9.765625 -0.140625 C 9.765625 -0.171875 9.757812 -0.195312 9.75 -0.21875 C 9.75 -0.25 9.742188 -0.28125 9.734375 -0.3125 C 9.703125 -0.425781 9.695312 -0.535156 9.71875 -0.640625 C 9.738281 -0.742188 9.757812 -0.851562 9.78125 -0.96875 C 9.789062 -1.03125 9.789062 -1.109375 9.78125 -1.203125 C 9.78125 -1.296875 9.738281 -1.351562 9.65625 -1.375 C 9.59375 -1.394531 9.523438 -1.390625 9.453125 -1.359375 C 9.378906 -1.328125 9.304688 -1.3125 9.234375 -1.3125 C 9.117188 -1.3125 9.039062 -1.316406 9 -1.328125 C 8.957031 -1.335938 8.875 -1.34375 8.75 -1.34375 C 8.632812 -1.34375 8.515625 -1.34375 8.390625 -1.34375 C 8.265625 -1.34375 8.140625 -1.34375 8.015625 -1.34375 C 7.640625 -1.332031 7.257812 -1.328125 6.875 -1.328125 C 6.5 -1.328125 6.125 -1.328125 5.75 -1.328125 C 5.382812 -1.328125 5.019531 -1.320312 4.65625 -1.3125 C 4.300781 -1.3125 3.941406 -1.316406 3.578125 -1.328125 C 3.484375 -1.328125 3.390625 -1.332031 3.296875 -1.34375 C 3.203125 -1.351562 3.109375 -1.347656 3.015625 -1.328125 C 2.953125 -1.316406 2.878906 -1.296875 2.796875 -1.265625 C 2.722656 -1.242188 2.65625 -1.257812 2.59375 -1.3125 C 2.5625 -1.34375 2.539062 -1.378906 2.53125 -1.421875 C 2.53125 -1.460938 2.53125 -1.503906 2.53125 -1.546875 C 2.550781 -1.691406 2.566406 -1.832031 2.578125 -1.96875 C 2.585938 -2.113281 2.59375 -2.257812 2.59375 -2.40625 C 2.59375 -2.5625 2.59375 -2.71875 2.59375 -2.875 C 2.59375 -3.039062 2.585938 -3.203125 2.578125 -3.359375 C 2.578125 -3.660156 2.570312 -3.960938 2.5625 -4.265625 C 2.5625 -4.578125 2.566406 -4.882812 2.578125 -5.1875 C 2.578125 -5.34375 2.578125 -5.492188 2.578125 -5.640625 C 2.585938 -5.785156 2.601562 -5.9375 2.625 -6.09375 C 2.632812 -6.125 2.640625 -6.15625 2.640625 -6.1875 C 2.640625 -6.21875 2.640625 -6.25 2.640625 -6.28125 C 2.617188 -6.34375 2.582031 -6.378906 2.53125 -6.390625 C 2.476562 -6.410156 2.421875 -6.414062 2.359375 -6.40625 C 2.304688 -6.394531 2.253906 -6.382812 2.203125 -6.375 C 2.148438 -6.363281 2.09375 -6.359375 2.03125 -6.359375 C 1.90625 -6.359375 1.773438 -6.359375 1.640625 -6.359375 C 1.515625 -6.367188 1.382812 -6.382812 1.25 -6.40625 C 1.175781 -6.414062 1.097656 -6.421875 1.015625 -6.421875 C 0.929688 -6.421875 0.875 -6.378906 0.84375 -6.296875 C 0.8125 -6.203125 0.8125 -6.097656 0.84375 -5.984375 C 0.875 -5.867188 0.894531 -5.765625 0.90625 -5.671875 C 0.914062 -5.554688 0.921875 -5.4375 0.921875 -5.3125 C 0.921875 -5.1875 0.921875 -5.0625 0.921875 -4.9375 C 0.921875 -4.695312 0.914062 -4.457031 0.90625 -4.21875 C 0.90625 -3.988281 0.90625 -3.753906 0.90625 -3.515625 C 0.90625 -3.078125 0.90625 -2.644531 0.90625 -2.21875 C 0.90625 -1.789062 0.898438 -1.359375 0.890625 -0.921875 C 0.890625 -0.816406 0.890625 -0.710938 0.890625 -0.609375 C 0.898438 -0.503906 0.890625 -0.398438 0.859375 -0.296875 C 0.847656 -0.234375 0.835938 -0.175781 0.828125 -0.125 C 0.828125 -0.0820312 0.847656 -0.0390625 0.890625 0 Z M 0.890625 0 "/></g></g></g></svg>