<svg width="20" height="22" viewBox="0 0 20 22" fill="none" xmlns="http://www.w3.org/2000/svg">
<path d="M11 12.5137V19.5137C11 19.9796 11 20.2126 10.9239 20.3964C10.8224 20.6414 10.6277 20.8361 10.3827 20.9376C10.1989 21.0137 9.96594 21.0137 9.5 21.0137C9.03406 21.0137 8.80109 21.0137 8.61732 20.9376C8.37229 20.8361 8.17761 20.6414 8.07612 20.3964C8 20.2126 8 19.9796 8 19.5137V12.5137C8 12.0478 8 11.8148 8.07612 11.631C8.17761 11.386 8.37229 11.1913 8.61732 11.0898C8.80109 11.0137 9.03406 11.0137 9.5 11.0137C9.96594 11.0137 10.1989 11.0137 10.3827 11.0898C10.6277 11.1913 10.8224 11.386 10.9239 11.631C11 11.8148 11 12.0478 11 12.5137Z" stroke="white" stroke-width="1.5" stroke-linecap="square" stroke-linejoin="round"/>
<path d="M4 14.5137V19.5132C4 19.9791 4 20.2121 3.9239 20.3959C3.8224 20.6409 3.6277 20.8356 3.3827 20.9371C3.1989 21.0132 2.9659 21.0132 2.5 21.0132C2.0341 21.0132 1.8011 21.0132 1.6173 20.9371C1.3723 20.8356 1.1776 20.6409 1.0761 20.3959C1 20.2121 1 19.9791 1 19.5132V14.5137C1 14.0478 1 13.8148 1.0761 13.631C1.1776 13.386 1.3723 13.1913 1.6173 13.0898C1.8011 13.0137 2.0341 13.0137 2.5 13.0137C2.9659 13.0137 3.1989 13.0137 3.3827 13.0898C3.6277 13.1913 3.8224 13.386 3.9239 13.631C4 13.8148 4 14.0478 4 14.5137Z" stroke="white" stroke-width="1.5" stroke-linecap="square" stroke-linejoin="round"/>
<path d="M18 10.5137V19.5137C18 19.9796 18 20.2126 17.9239 20.3964C17.8224 20.6414 17.6277 20.8361 17.3827 20.9376C17.1989 21.0137 16.9659 21.0137 16.5 21.0137C16.0341 21.0137 15.8011 21.0137 15.6173 20.9376C15.3723 20.8361 15.1776 20.6414 15.0761 20.3964C15 20.2126 15 19.9796 15 19.5137V10.5137C15 10.0478 15 9.81482 15.0761 9.63105C15.1776 9.38602 15.3723 9.19134 15.6173 9.08985C15.8011 9.01373 16.0341 9.01373 16.5 9.01373C16.9659 9.01373 17.1989 9.01373 17.3827 9.08985C17.6277 9.19134 17.8224 9.38602 17.9239 9.63105C18 9.81482 18 10.0478 18 10.5137Z" stroke="white" stroke-width="1.5" stroke-linecap="square" stroke-linejoin="round"/>
<path d="M16.5 1L16.6973 1.53312C16.956 2.2322 17.0853 2.58174 17.3403 2.83673C17.5953 3.0917 17.9448 3.22105 18.6439 3.47972L19.177 3.677L18.6439 3.87428C17.9448 4.13296 17.5953 4.2623 17.3403 4.51729C17.0853 4.77226 16.956 5.12181 16.6973 5.82088L16.5 6.354L16.3027 5.82088C16.044 5.12181 15.9147 4.77226 15.6597 4.51729C15.4047 4.2623 15.0552 4.13296 14.3561 3.87428L13.823 3.677L14.3561 3.47972C15.0552 3.22105 15.4047 3.0917 15.6597 2.83672C15.9147 2.58174 16.044 2.2322 16.3027 1.53312L16.5 1Z" stroke="white" stroke-width="1.5" stroke-linejoin="round"/>
</svg>
