<svg width="22" height="18" viewBox="0 0 22 18" fill="none" xmlns="http://www.w3.org/2000/svg">
<path d="M11 1V4M17 4L15 6M5 4L7 6" stroke="white" stroke-width="1.5" stroke-linecap="round" stroke-linejoin="round"/>
<path d="M14.9212 14.2443L14.931 14.3024C15.0456 14.9806 15.1029 15.3198 15.2809 15.5938C15.3339 15.6753 15.3943 15.7518 15.4613 15.8221C15.6866 16.0586 16.0029 16.1923 16.6356 16.4598C17.5863 16.8617 18.0616 17.0627 18.5176 16.9827C18.6515 16.9592 18.7818 16.9184 18.9053 16.8613C19.3256 16.6669 19.605 16.2259 20.1637 15.344C20.7465 14.4243 21.0378 13.9644 20.9961 13.4396C20.9867 13.3219 20.9561 13.1728 20.9184 13.061C20.7504 12.5621 20.3553 12.2914 19.5653 11.7498C14.2168 8.0834 7.78319 8.0834 2.43474 11.7498C1.64467 12.2914 1.24964 12.5621 1.08155 13.061C1.04388 13.1728 1.0133 13.3219 1.00394 13.4396C0.962168 13.9644 1.25354 14.4243 1.83628 15.344C2.39504 16.2259 2.67442 16.6669 3.09473 16.8613C3.21816 16.9184 3.34846 16.9592 3.48236 16.9827C3.93835 17.0627 4.41371 16.8617 5.36443 16.4598C5.99706 16.1923 6.31337 16.0586 6.5387 15.8221C6.60574 15.7518 6.66613 15.6753 6.7191 15.5938C6.89713 15.3198 6.95443 14.9806 7.06903 14.3024L7.07883 14.2443C7.19712 13.5442 7.25626 13.1941 7.51567 12.8731C7.55197 12.8282 7.61802 12.7569 7.66002 12.7173C7.96021 12.4342 8.22512 12.3686 8.75492 12.2375C10.1819 11.8842 11.8181 11.8842 13.2451 12.2375C13.7749 12.3686 14.0398 12.4342 14.34 12.7173C14.382 12.7569 14.448 12.8282 14.4843 12.8731C14.7437 13.1941 14.8029 13.5442 14.9212 14.2443Z" stroke="white" stroke-width="1.5" stroke-linecap="square" stroke-linejoin="round"/>
</svg>
