<svg width="18" height="22" viewBox="0 0 18 22" fill="none" xmlns="http://www.w3.org/2000/svg">
<path d="M16 8.62069C16 11.1999 14.7302 13.1852 12.7983 14.4917C12.3483 14.796 12.1233 14.9482 12.0122 15.1212C11.9012 15.2942 11.8633 15.5214 11.7876 15.9757L11.7287 16.3288C11.5957 17.127 11.5292 17.526 11.2494 17.763C10.9697 18 10.5651 18 9.7559 18H7.1444C6.33528 18 5.93069 18 5.65095 17.763C5.3712 17.526 5.30469 17.127 5.17166 16.3288L5.11281 15.9757C5.03734 15.5229 4.99961 15.2965 4.88968 15.1243C4.77976 14.9521 4.55428 14.798 4.10332 14.4897C2.1919 13.1832 1 11.1986 1 8.62069C1 4.4119 4.35786 1 8.5 1C9.0137 1 9.5153 1.05248 10 1.15244" stroke="white" stroke-width="1.5" stroke-linecap="round" stroke-linejoin="round"/>
<path d="M13.5 1L13.7579 1.69703C14.0961 2.61102 14.2652 3.06802 14.5986 3.40139C14.932 3.73477 15.389 3.90387 16.303 4.24208L17 4.5L16.303 4.75792C15.389 5.09613 14.932 5.26524 14.5986 5.59861C14.2652 5.93198 14.0961 6.38898 13.7579 7.30297L13.5 8L13.2421 7.30297C12.9039 6.38898 12.7348 5.93198 12.4014 5.59861C12.068 5.26524 11.611 5.09613 10.697 4.75792L10 4.5L10.697 4.24208C11.611 3.90387 12.068 3.73477 12.4014 3.40139C12.7348 3.06802 12.9039 2.61102 13.2421 1.69703L13.5 1Z" stroke="white" stroke-width="1.5" stroke-linejoin="round"/>
<path d="M10.5 18V19C10.5 19.9428 10.5 20.4142 10.2071 20.7071C9.9142 21 9.4428 21 8.5 21C7.5572 21 7.0858 21 6.79289 20.7071C6.5 20.4142 6.5 19.9428 6.5 19V18" stroke="white" stroke-width="1.5" stroke-linejoin="round"/>
</svg>
