<svg width="23" height="23" viewBox="0 0 23 23" fill="none" xmlns="http://www.w3.org/2000/svg">
<path d="M19 9C19 5.22876 19 3.34315 17.8284 2.17157C16.6569 1 14.7712 1 11 1H9C5.22876 1 3.34315 1 2.17157 2.17157C1 3.34315 1 5.22876 1 9V11C1 14.7712 1 16.6569 2.17157 17.8284C3.23467 18.8915 4.8857 18.99 8 18.9991H8.5" stroke="white" stroke-width="1.5" stroke-linecap="round" stroke-linejoin="round"/>
<path d="M1 6H19" stroke="white" stroke-width="1.5" stroke-linejoin="round"/>
<path d="M5.99976 3.50696H6.00874" stroke="white" stroke-width="2" stroke-linecap="round" stroke-linejoin="round"/>
<path d="M9.99976 3.50696H10.0088" stroke="white" stroke-width="2" stroke-linecap="round" stroke-linejoin="round"/>
<path d="M15.7939 12.7301L19.1458 14.0418C21.0791 14.7983 22.0458 15.1765 22.0137 15.7766C21.9817 16.3766 20.9728 16.6517 18.9552 17.202C18.3544 17.3658 18.054 17.4478 17.8458 17.656C17.6376 17.8642 17.5557 18.1646 17.3918 18.7654C16.8415 20.783 16.5664 21.7919 15.9664 21.8239C15.3663 21.856 14.9881 20.8893 14.2316 18.956L12.9199 15.604C12.1279 13.5799 11.7319 12.5678 12.2448 12.0549C12.7577 11.542 13.7697 11.9381 15.7939 12.7301Z" stroke="white" stroke-width="1.5" stroke-linejoin="round"/>
</svg>
