<svg width="20" height="20" viewBox="0 0 20 20" fill="none" xmlns="http://www.w3.org/2000/svg">
<path d="M8 5L7.48415 6.39405C6.80774 8.222 6.46953 9.136 5.80278 9.8028C5.13603 10.4695 4.22204 10.8077 2.39405 11.4842L1 12L2.39405 12.5158C4.22204 13.1923 5.13603 13.5305 5.80278 14.1972C6.46953 14.864 6.80774 15.778 7.48415 17.6059L8 19L8.5158 17.6059C9.1923 15.778 9.5305 14.864 10.1972 14.1972C10.864 13.5305 11.778 13.1923 13.6059 12.5158L15 12L13.6059 11.4842C11.778 10.8077 10.864 10.4695 10.1972 9.8028C9.5305 9.136 9.1923 8.222 8.5158 6.39405L8 5Z" stroke="white" stroke-width="1.5" stroke-linejoin="round"/>
<path d="M16 1L15.7789 1.59745C15.489 2.38087 15.3441 2.77259 15.0583 3.05833C14.7726 3.34408 14.3809 3.48903 13.5975 3.77892L13 4L13.5975 4.22108C14.3809 4.51097 14.7726 4.65592 15.0583 4.94167C15.3441 5.22741 15.489 5.61913 15.7789 6.40255L16 7L16.2211 6.40255C16.511 5.61913 16.6559 5.22741 16.9417 4.94166C17.2274 4.65592 17.6191 4.51097 18.4025 4.22108L19 4L18.4025 3.77892C17.6191 3.48903 17.2274 3.34408 16.9417 3.05833C16.6559 2.77259 16.511 2.38087 16.2211 1.59745L16 1Z" stroke="white" stroke-width="1.5" stroke-linejoin="round"/>
</svg>
