<svg width="22" height="15" viewBox="0 0 22 15" fill="none" xmlns="http://www.w3.org/2000/svg">
<path d="M20.8966 2.13081C21.2168 3.02828 20.7678 3.64274 19.8986 4.248C19.1973 4.73636 18.3039 5.26542 17.3572 6.1699C16.4291 7.0566 15.5234 8.1246 14.7184 9.1758C13.743 10.4496 12.8206 11.7801 12.0087 13.1655C11.7026 13.6902 11.1521 14.0078 10.5619 13.9999C9.9716 13.9919 9.4293 13.6597 9.1364 13.1267C8.38765 11.764 7.80986 11.2259 7.5443 11.0326C6.8075 10.4963 6 10.4035 6 9.2335C6 8.2762 6.74623 7.5002 7.66675 7.5002C8.32548 7.5266 8.92854 7.8088 9.4559 8.1927C9.7981 8.4418 10.1605 8.7711 10.5375 9.2047C10.9799 8.551 11.5131 7.7968 12.1107 7.0163C12.9787 5.8829 14.0032 4.66689 15.1019 3.61719C16.1819 2.58531 17.4306 1.61941 18.7542 1.10872C19.6172 0.775729 20.5764 1.23333 20.8966 2.13081Z" stroke="white" stroke-width="1.5" stroke-linecap="round" stroke-linejoin="round"/>
<path d="M3.43961 7.5755C3.28117 7.5236 3.13796 7.4909 3.01252 7.4713C2.94995 7.4615 2.89226 7.455 2.83976 7.451L2.69887 7.4454C1.76061 7.4454 1 8.228 1 9.1933C1 10.0669 1.62294 10.7908 2.43675 10.9205C2.4652 10.9355 2.51137 10.9624 2.57407 11.0076C2.84474 11.2025 3.43367 11.7452 4.19686 13.1193C4.49542 13.6569 5.04811 13.9918 5.64983 13.9999C6.06202 14.0054 6.45518 13.8567 6.76226 13.5924M14 1C12.6509 1.515 11.3781 2.48904 10.2773 3.52963C9.8929 3.89299 9.5174 4.27611 9.1542 4.66884" stroke="white" stroke-width="1.5" stroke-linecap="round" stroke-linejoin="round"/>
</svg>
