<svg xmlns="http://www.w3.org/2000/svg" xmlns:xlink="http://www.w3.org/1999/xlink" width="250" zoomAndPan="magnify" viewBox="0 0 187.5 60" height="80" preserveAspectRatio="xMidYMid meet" version="1.0"><defs><clipPath id="6eaf23545f"><path d="M 0 0.078125 L 187 0.078125 L 187 59.917969 L 0 59.917969 Z M 0 0.078125 " clip-rule="nonzero"/></clipPath><clipPath id="cf752cbe79"><path d="M 0 0.078125 L 187 0.078125 L 187 59.917969 L 0 59.917969 Z M 0 0.078125 " clip-rule="nonzero"/></clipPath><clipPath id="0aaf6a7295"><path d="M 2.453125 -0.394531 L 184.597656 -0.394531 C 186.691406 -0.394531 188.390625 1.304688 188.390625 3.402344 L 188.390625 57.324219 C 188.390625 59.421875 186.691406 61.121094 184.597656 61.121094 L 2.453125 61.121094 C 0.355469 61.121094 -1.339844 59.421875 -1.339844 57.324219 L -1.339844 3.402344 C -1.339844 1.304688 0.355469 -0.394531 2.453125 -0.394531 Z M 2.453125 -0.394531 " clip-rule="nonzero"/></clipPath><clipPath id="eda7e0f84e"><path d="M 59 0.078125 L 61 0.078125 L 61 59.917969 L 59 59.917969 Z M 59 0.078125 " clip-rule="nonzero"/></clipPath></defs><g clip-path="url(#6eaf23545f)"><path fill="#ffffff" d="M 0 0.078125 L 187 0.078125 L 187 59.921875 L 0 59.921875 Z M 0 0.078125 " fill-opacity="1" fill-rule="nonzero"/><path fill="#ffffff" d="M 0 0.078125 L 187 0.078125 L 187 59.921875 L 0 59.921875 Z M 0 0.078125 " fill-opacity="1" fill-rule="nonzero"/></g><g clip-path="url(#cf752cbe79)"><g clip-path="url(#0aaf6a7295)"><path stroke-linecap="butt" transform="matrix(0.474384, 0, 0, 0.474384, -1.341654, -0.39342)" fill-opacity="1" fill="#000000" fill-rule="nonzero" stroke-linejoin="miter" d="M 7.999383 -0.00234255 L 391.959512 -0.00234255 C 396.373131 -0.00234255 399.955079 3.579606 399.955079 8.001459 L 399.955079 121.668623 C 399.955079 126.090476 396.373131 129.672425 391.959512 129.672425 L 7.999383 129.672425 C 3.57753 129.672425 0.0038163 126.090476 0.0038163 121.668623 L 0.0038163 8.001459 C 0.0038163 3.579606 3.57753 -0.00234255 7.999383 -0.00234255 Z M 7.999383 -0.00234255 " stroke="#0d4783" stroke-width="4" stroke-opacity="1" stroke-miterlimit="4"/></g></g><path fill="#f9f9f9" d="M 73.601562 27.070312 L 73.59375 21.714844 L 70.96875 26.125 L 70.035156 26.125 L 67.421875 21.824219 L 67.421875 27.070312 L 65.484375 27.070312 L 65.484375 18.136719 L 67.191406 18.136719 L 70.53125 23.691406 L 73.820312 18.136719 L 75.519531 18.136719 L 75.550781 27.070312 Z M 73.601562 27.070312 " fill-opacity="1" fill-rule="nonzero"/><path fill="#f9f9f9" d="M 84.25 23.660156 C 84.25 23.6875 84.234375 23.867188 84.210938 24.199219 L 79.023438 24.199219 C 79.113281 24.625 79.332031 24.960938 79.679688 25.210938 C 80.027344 25.457031 80.464844 25.582031 80.980469 25.582031 C 81.335938 25.582031 81.65625 25.527344 81.933594 25.421875 C 82.210938 25.316406 82.46875 25.148438 82.710938 24.914062 L 83.761719 26.066406 C 83.117188 26.800781 82.175781 27.171875 80.929688 27.171875 C 80.15625 27.171875 79.46875 27.019531 78.871094 26.722656 C 78.28125 26.421875 77.824219 25.996094 77.5 25.460938 C 77.175781 24.925781 77.015625 24.316406 77.015625 23.640625 C 77.015625 22.964844 77.171875 22.359375 77.492188 21.824219 C 77.808594 21.28125 78.246094 20.859375 78.804688 20.5625 C 79.363281 20.257812 79.992188 20.105469 80.683594 20.105469 C 81.351562 20.105469 81.957031 20.25 82.5 20.542969 C 83.042969 20.828125 83.46875 21.242188 83.78125 21.785156 C 84.09375 22.320312 84.25 22.945312 84.25 23.660156 Z M 80.691406 21.605469 C 80.238281 21.605469 79.859375 21.734375 79.546875 21.992188 C 79.242188 22.246094 79.058594 22.59375 78.992188 23.035156 L 82.371094 23.035156 C 82.304688 22.605469 82.117188 22.261719 81.816406 22.003906 C 81.507812 21.738281 81.132812 21.605469 80.691406 21.605469 Z M 80.691406 21.605469 " fill-opacity="1" fill-rule="nonzero"/><path fill="#f9f9f9" d="M 90.007812 26.742188 C 89.808594 26.882812 89.566406 26.988281 89.28125 27.0625 C 88.996094 27.132812 88.699219 27.171875 88.386719 27.171875 C 87.570312 27.171875 86.9375 26.960938 86.488281 26.542969 C 86.042969 26.125 85.824219 25.515625 85.824219 24.707031 L 85.824219 21.894531 L 84.757812 21.894531 L 84.757812 20.363281 L 85.824219 20.363281 L 85.824219 18.683594 L 87.808594 18.683594 L 87.808594 20.363281 L 89.519531 20.363281 L 89.519531 21.894531 L 87.808594 21.894531 L 87.808594 24.6875 C 87.808594 24.980469 87.882812 25.203125 88.027344 25.363281 C 88.179688 25.515625 88.390625 25.589844 88.664062 25.589844 C 88.984375 25.589844 89.25 25.503906 89.46875 25.332031 Z M 90.007812 26.742188 " fill-opacity="1" fill-rule="nonzero"/><path fill="#f9f9f9" d="M 93.898438 20.105469 C 94.964844 20.105469 95.78125 20.359375 96.351562 20.871094 C 96.921875 21.375 97.207031 22.136719 97.207031 23.15625 L 97.207031 27.070312 L 95.339844 27.070312 L 95.339844 26.214844 C 94.96875 26.851562 94.269531 27.171875 93.253906 27.171875 C 92.722656 27.171875 92.261719 27.082031 91.871094 26.902344 C 91.484375 26.722656 91.191406 26.480469 90.988281 26.167969 C 90.789062 25.847656 90.6875 25.492188 90.6875 25.09375 C 90.6875 24.457031 90.925781 23.957031 91.402344 23.59375 C 91.886719 23.222656 92.628906 23.035156 93.628906 23.035156 L 95.210938 23.035156 C 95.210938 22.605469 95.078125 22.277344 94.8125 22.042969 C 94.554688 21.804688 94.160156 21.683594 93.628906 21.683594 C 93.265625 21.683594 92.90625 21.742188 92.546875 21.863281 C 92.195312 21.976562 91.894531 22.128906 91.652344 22.320312 L 90.9375 20.929688 C 91.316406 20.671875 91.765625 20.46875 92.289062 20.324219 C 92.808594 20.179688 93.347656 20.105469 93.898438 20.105469 Z M 93.75 25.828125 C 94.085938 25.828125 94.386719 25.753906 94.652344 25.601562 C 94.917969 25.441406 95.105469 25.210938 95.210938 24.90625 L 95.210938 24.199219 L 93.847656 24.199219 C 93.035156 24.199219 92.625 24.46875 92.625 25.003906 C 92.625 25.261719 92.726562 25.464844 92.925781 25.609375 C 93.125 25.757812 93.398438 25.828125 93.75 25.828125 Z M 93.75 25.828125 " fill-opacity="1" fill-rule="nonzero"/><path fill="#f9f9f9" d="M 99 17.601562 L 100.996094 17.601562 L 100.996094 27.070312 L 99 27.070312 Z M 99 17.601562 " fill-opacity="1" fill-rule="nonzero"/><path fill="#f9f9f9" d="M 102.839844 17.601562 L 104.839844 17.601562 L 104.839844 27.070312 L 102.839844 27.070312 Z M 102.839844 17.601562 " fill-opacity="1" fill-rule="nonzero"/><path fill="#f9f9f9" d="M 110.746094 20.105469 C 111.382812 20.105469 111.960938 20.253906 112.488281 20.550781 C 113.007812 20.84375 113.421875 21.253906 113.71875 21.785156 C 114.019531 22.316406 114.167969 22.933594 114.167969 23.640625 C 114.167969 24.34375 114.019531 24.964844 113.71875 25.5 C 113.421875 26.03125 113.007812 26.441406 112.488281 26.734375 C 111.960938 27.027344 111.382812 27.171875 110.746094 27.171875 C 109.800781 27.171875 109.082031 26.871094 108.589844 26.277344 L 108.589844 27.070312 L 106.683594 27.070312 L 106.683594 17.601562 L 108.679688 17.601562 L 108.679688 20.929688 C 109.183594 20.378906 109.875 20.105469 110.746094 20.105469 Z M 110.398438 25.539062 C 110.910156 25.539062 111.328125 25.367188 111.652344 25.023438 C 111.984375 24.679688 112.148438 24.21875 112.148438 23.640625 C 112.148438 23.0625 111.984375 22.597656 111.652344 22.25 C 111.328125 21.90625 110.910156 21.734375 110.398438 21.734375 C 109.886719 21.734375 109.46875 21.90625 109.136719 22.25 C 108.8125 22.597656 108.652344 23.0625 108.652344 23.640625 C 108.652344 24.21875 108.8125 24.679688 109.136719 25.023438 C 109.46875 25.367188 109.886719 25.539062 110.398438 25.539062 Z M 110.398438 25.539062 " fill-opacity="1" fill-rule="nonzero"/><path fill="#f9f9f9" d="M 118.261719 20.105469 C 119.328125 20.105469 120.144531 20.359375 120.714844 20.871094 C 121.285156 21.375 121.570312 22.136719 121.570312 23.15625 L 121.570312 27.070312 L 119.703125 27.070312 L 119.703125 26.214844 C 119.332031 26.851562 118.632812 27.171875 117.617188 27.171875 C 117.085938 27.171875 116.625 27.082031 116.234375 26.902344 C 115.847656 26.722656 115.554688 26.480469 115.351562 26.167969 C 115.152344 25.847656 115.050781 25.492188 115.050781 25.09375 C 115.050781 24.457031 115.289062 23.957031 115.765625 23.59375 C 116.25 23.222656 116.992188 23.035156 117.992188 23.035156 L 119.574219 23.035156 C 119.574219 22.605469 119.441406 22.277344 119.175781 22.042969 C 118.917969 21.804688 118.523438 21.683594 117.992188 21.683594 C 117.628906 21.683594 117.269531 21.742188 116.910156 21.863281 C 116.558594 21.976562 116.257812 22.128906 116.015625 22.320312 L 115.300781 20.929688 C 115.679688 20.671875 116.128906 20.46875 116.652344 20.324219 C 117.171875 20.179688 117.710938 20.105469 118.261719 20.105469 Z M 118.113281 25.828125 C 118.449219 25.828125 118.75 25.753906 119.015625 25.601562 C 119.28125 25.441406 119.46875 25.210938 119.574219 24.90625 L 119.574219 24.199219 L 118.210938 24.199219 C 117.398438 24.199219 116.988281 24.46875 116.988281 25.003906 C 116.988281 25.261719 117.089844 25.464844 117.289062 25.609375 C 117.488281 25.757812 117.761719 25.828125 118.113281 25.828125 Z M 118.113281 25.828125 " fill-opacity="1" fill-rule="nonzero"/><path fill="#f9f9f9" d="M 130.28125 20.203125 L 130.28125 27.070312 L 128.390625 27.070312 L 128.390625 26.257812 C 128.132812 26.554688 127.816406 26.78125 127.449219 26.941406 C 127.082031 27.09375 126.6875 27.171875 126.265625 27.171875 C 125.363281 27.171875 124.648438 26.910156 124.117188 26.394531 C 123.59375 25.878906 123.332031 25.109375 123.332031 24.089844 L 123.332031 20.203125 L 125.320312 20.203125 L 125.320312 23.792969 C 125.320312 24.898438 125.785156 25.449219 126.710938 25.449219 C 127.191406 25.449219 127.570312 25.296875 127.855469 24.984375 C 128.144531 24.671875 128.292969 24.214844 128.292969 23.601562 L 128.292969 20.203125 Z M 130.28125 20.203125 " fill-opacity="1" fill-rule="nonzero"/><path fill="#f9f9f9" d="M 140.925781 20.105469 C 141.785156 20.105469 142.46875 20.359375 142.972656 20.871094 C 143.484375 21.375 143.738281 22.132812 143.738281 23.144531 L 143.738281 27.070312 L 141.742188 27.070312 L 141.742188 23.445312 C 141.742188 22.902344 141.628906 22.496094 141.402344 22.230469 C 141.175781 21.960938 140.855469 21.824219 140.441406 21.824219 C 139.976562 21.824219 139.605469 21.976562 139.335938 22.28125 C 139.0625 22.578125 138.929688 23.027344 138.929688 23.621094 L 138.929688 27.070312 L 136.929688 27.070312 L 136.929688 23.445312 C 136.929688 22.363281 136.496094 21.824219 135.628906 21.824219 C 135.171875 21.824219 134.808594 21.976562 134.535156 22.28125 C 134.261719 22.578125 134.128906 23.027344 134.128906 23.621094 L 134.128906 27.070312 L 132.132812 27.070312 L 132.132812 20.203125 L 134.039062 20.203125 L 134.039062 21 C 134.289062 20.707031 134.601562 20.488281 134.972656 20.332031 C 135.34375 20.179688 135.75 20.105469 136.195312 20.105469 C 136.679688 20.105469 137.113281 20.199219 137.507812 20.390625 C 137.898438 20.585938 138.214844 20.863281 138.453125 21.226562 C 138.730469 20.871094 139.082031 20.597656 139.515625 20.402344 C 139.945312 20.203125 140.414062 20.105469 140.925781 20.105469 Z M 140.925781 20.105469 " fill-opacity="1" fill-rule="nonzero"/><path fill="#f9f9f9" d="M 152.246094 23.660156 C 152.246094 23.6875 152.230469 23.867188 152.207031 24.199219 L 147.019531 24.199219 C 147.113281 24.625 147.328125 24.960938 147.675781 25.210938 C 148.027344 25.457031 148.460938 25.582031 148.976562 25.582031 C 149.335938 25.582031 149.652344 25.527344 149.929688 25.421875 C 150.210938 25.316406 150.46875 25.148438 150.707031 24.914062 L 151.761719 26.066406 C 151.117188 26.800781 150.171875 27.171875 148.925781 27.171875 C 148.152344 27.171875 147.464844 27.019531 146.871094 26.722656 C 146.277344 26.421875 145.820312 25.996094 145.5 25.460938 C 145.171875 24.925781 145.011719 24.316406 145.011719 23.640625 C 145.011719 22.964844 145.171875 22.359375 145.488281 21.824219 C 145.808594 21.28125 146.246094 20.859375 146.800781 20.5625 C 147.363281 20.257812 147.988281 20.105469 148.679688 20.105469 C 149.347656 20.105469 149.953125 20.25 150.496094 20.542969 C 151.039062 20.828125 151.46875 21.242188 151.78125 21.785156 C 152.089844 22.320312 152.246094 22.945312 152.246094 23.660156 Z M 148.6875 21.605469 C 148.238281 21.605469 147.855469 21.734375 147.546875 21.992188 C 147.242188 22.246094 147.054688 22.59375 146.988281 23.035156 L 150.367188 23.035156 C 150.300781 22.605469 150.113281 22.261719 149.8125 22.003906 C 149.507812 21.738281 149.132812 21.605469 148.6875 21.605469 Z M 148.6875 21.605469 " fill-opacity="1" fill-rule="nonzero"/><path fill="#f9f9f9" d="M 153.570312 20.203125 L 155.570312 20.203125 L 155.570312 27.070312 L 153.570312 27.070312 Z M 154.574219 19.25 C 154.210938 19.25 153.914062 19.144531 153.679688 18.929688 C 153.449219 18.71875 153.332031 18.453125 153.332031 18.136719 C 153.332031 17.824219 153.449219 17.566406 153.679688 17.351562 C 153.914062 17.132812 154.210938 17.023438 154.574219 17.023438 C 154.9375 17.023438 155.234375 17.128906 155.460938 17.332031 C 155.691406 17.539062 155.808594 17.792969 155.808594 18.097656 C 155.808594 18.429688 155.691406 18.703125 155.460938 18.921875 C 155.234375 19.140625 154.9375 19.25 154.574219 19.25 Z M 154.574219 19.25 " fill-opacity="1" fill-rule="nonzero"/><path fill="#f9f9f9" d="M 159.730469 27.171875 C 159.15625 27.171875 158.597656 27.101562 158.050781 26.960938 C 157.503906 26.824219 157.074219 26.648438 156.757812 26.433594 L 157.414062 25.003906 C 157.722656 25.203125 158.09375 25.367188 158.527344 25.492188 C 158.964844 25.609375 159.390625 25.667969 159.808594 25.667969 C 160.648438 25.667969 161.070312 25.460938 161.070312 25.042969 C 161.070312 24.84375 160.953125 24.707031 160.722656 24.625 C 160.488281 24.542969 160.136719 24.46875 159.660156 24.40625 C 159.101562 24.324219 158.636719 24.222656 158.269531 24.109375 C 157.902344 23.996094 157.585938 23.800781 157.3125 23.523438 C 157.046875 23.246094 156.917969 22.84375 156.917969 22.320312 C 156.917969 21.890625 157.039062 21.503906 157.292969 21.167969 C 157.542969 20.828125 157.910156 20.570312 158.386719 20.382812 C 158.871094 20.199219 159.441406 20.105469 160.097656 20.105469 C 160.578125 20.105469 161.0625 20.160156 161.539062 20.261719 C 162.019531 20.371094 162.421875 20.515625 162.738281 20.699219 L 162.074219 22.121094 C 161.46875 21.777344 160.8125 21.605469 160.097656 21.605469 C 159.671875 21.605469 159.355469 21.664062 159.140625 21.785156 C 158.929688 21.902344 158.824219 22.058594 158.824219 22.25 C 158.824219 22.464844 158.9375 22.613281 159.164062 22.699219 C 159.394531 22.777344 159.761719 22.855469 160.265625 22.9375 C 160.828125 23.03125 161.285156 23.128906 161.636719 23.234375 C 161.996094 23.339844 162.304688 23.539062 162.570312 23.820312 C 162.835938 24.097656 162.96875 24.492188 162.96875 24.992188 C 162.96875 25.417969 162.839844 25.796875 162.582031 26.125 C 162.328125 26.460938 161.957031 26.71875 161.46875 26.902344 C 160.976562 27.082031 160.398438 27.171875 159.730469 27.171875 Z M 159.730469 27.171875 " fill-opacity="1" fill-rule="nonzero"/><path fill="#f9f9f9" d="M 168.621094 26.742188 C 168.421875 26.882812 168.179688 26.988281 167.898438 27.0625 C 167.609375 27.132812 167.3125 27.171875 167.003906 27.171875 C 166.1875 27.171875 165.554688 26.960938 165.105469 26.542969 C 164.660156 26.125 164.4375 25.515625 164.4375 24.707031 L 164.4375 21.894531 L 163.375 21.894531 L 163.375 20.363281 L 164.4375 20.363281 L 164.4375 18.683594 L 166.425781 18.683594 L 166.425781 20.363281 L 168.136719 20.363281 L 168.136719 21.894531 L 166.425781 21.894531 L 166.425781 24.6875 C 166.425781 24.980469 166.5 25.203125 166.644531 25.363281 C 166.796875 25.515625 167.007812 25.589844 167.28125 25.589844 C 167.597656 25.589844 167.867188 25.503906 168.085938 25.332031 Z M 168.621094 26.742188 " fill-opacity="1" fill-rule="nonzero"/><path fill="#f9f9f9" d="M 176.46875 23.660156 C 176.46875 23.6875 176.453125 23.867188 176.429688 24.199219 L 171.242188 24.199219 C 171.335938 24.625 171.554688 24.960938 171.898438 25.210938 C 172.25 25.457031 172.683594 25.582031 173.199219 25.582031 C 173.558594 25.582031 173.875 25.527344 174.152344 25.421875 C 174.433594 25.316406 174.691406 25.148438 174.929688 24.914062 L 175.984375 26.066406 C 175.339844 26.800781 174.394531 27.171875 173.148438 27.171875 C 172.375 27.171875 171.691406 27.019531 171.09375 26.722656 C 170.5 26.421875 170.042969 25.996094 169.722656 25.460938 C 169.394531 24.925781 169.234375 24.316406 169.234375 23.640625 C 169.234375 22.964844 169.394531 22.359375 169.710938 21.824219 C 170.03125 21.28125 170.46875 20.859375 171.023438 20.5625 C 171.585938 20.257812 172.210938 20.105469 172.902344 20.105469 C 173.570312 20.105469 174.175781 20.25 174.71875 20.542969 C 175.261719 20.828125 175.691406 21.242188 176.003906 21.785156 C 176.3125 22.320312 176.46875 22.945312 176.46875 23.660156 Z M 172.910156 21.605469 C 172.460938 21.605469 172.078125 21.734375 171.769531 21.992188 C 171.464844 22.246094 171.277344 22.59375 171.210938 23.035156 L 174.589844 23.035156 C 174.523438 22.605469 174.339844 22.261719 174.035156 22.003906 C 173.730469 21.738281 173.355469 21.605469 172.910156 21.605469 Z M 172.910156 21.605469 " fill-opacity="1" fill-rule="nonzero"/><path fill="#f9f9f9" d="M 179.703125 21.109375 C 179.941406 20.777344 180.261719 20.527344 180.667969 20.363281 C 181.070312 20.191406 181.535156 20.105469 182.058594 20.105469 L 182.058594 21.941406 C 181.839844 21.921875 181.691406 21.914062 181.609375 21.914062 C 181.039062 21.914062 180.59375 22.078125 180.269531 22.398438 C 179.949219 22.71875 179.792969 23.195312 179.792969 23.832031 L 179.792969 27.070312 L 177.792969 27.070312 L 177.792969 20.203125 L 179.703125 20.203125 Z M 179.703125 21.109375 " fill-opacity="1" fill-rule="nonzero"/><path fill="#f9f9f9" d="M 131.582031 40.910156 L 127.4375 40.910156 L 126.652344 42.828125 L 124.527344 42.828125 L 128.511719 33.894531 L 130.550781 33.894531 L 134.542969 42.828125 L 132.378906 42.828125 Z M 130.9375 39.339844 L 129.515625 35.921875 L 128.105469 39.339844 Z M 130.9375 39.339844 " fill-opacity="1" fill-rule="nonzero"/><path fill="#f9f9f9" d="M 135.335938 33.359375 L 137.332031 33.359375 L 137.332031 42.828125 L 135.335938 42.828125 Z M 135.335938 33.359375 " fill-opacity="1" fill-rule="nonzero"/><path fill="#f9f9f9" d="M 143.242188 35.863281 C 143.878906 35.863281 144.457031 36.011719 144.980469 36.308594 C 145.503906 36.601562 145.914062 37.011719 146.214844 37.542969 C 146.511719 38.074219 146.660156 38.691406 146.660156 39.402344 C 146.660156 40.105469 146.511719 40.722656 146.214844 41.257812 C 145.914062 41.789062 145.503906 42.199219 144.980469 42.492188 C 144.457031 42.785156 143.878906 42.929688 143.242188 42.929688 C 142.292969 42.929688 141.574219 42.628906 141.085938 42.035156 L 141.085938 42.828125 L 139.175781 42.828125 L 139.175781 33.359375 L 141.175781 33.359375 L 141.175781 36.6875 C 141.675781 36.136719 142.367188 35.863281 143.242188 35.863281 Z M 142.894531 41.300781 C 143.402344 41.300781 143.820312 41.128906 144.148438 40.78125 C 144.476562 40.4375 144.644531 39.976562 144.644531 39.402344 C 144.644531 38.820312 144.476562 38.355469 144.148438 38.007812 C 143.820312 37.667969 143.402344 37.492188 142.894531 37.492188 C 142.382812 37.492188 141.960938 37.667969 141.632812 38.007812 C 141.308594 38.355469 141.144531 38.820312 141.144531 39.402344 C 141.144531 39.976562 141.308594 40.4375 141.632812 40.78125 C 141.960938 41.128906 142.382812 41.300781 142.894531 41.300781 Z M 142.894531 41.300781 " fill-opacity="1" fill-rule="nonzero"/><path fill="#f9f9f9" d="M 149.890625 36.867188 C 150.128906 36.535156 150.449219 36.289062 150.855469 36.121094 C 151.257812 35.949219 151.722656 35.863281 152.246094 35.863281 L 152.246094 37.703125 C 152.027344 37.679688 151.878906 37.671875 151.800781 37.671875 C 151.226562 37.671875 150.78125 37.835938 150.457031 38.160156 C 150.140625 38.476562 149.980469 38.953125 149.980469 39.589844 L 149.980469 42.828125 L 147.984375 42.828125 L 147.984375 35.960938 L 149.890625 35.960938 Z M 149.890625 36.867188 " fill-opacity="1" fill-rule="nonzero"/><path fill="#f9f9f9" d="M 160.210938 39.421875 C 160.210938 39.449219 160.199219 39.625 160.171875 39.957031 L 154.984375 39.957031 C 155.078125 40.382812 155.296875 40.71875 155.640625 40.972656 C 155.992188 41.21875 156.425781 41.339844 156.941406 41.339844 C 157.300781 41.339844 157.617188 41.285156 157.898438 41.179688 C 158.175781 41.074219 158.433594 40.90625 158.671875 40.671875 L 159.726562 41.824219 C 159.082031 42.5625 158.136719 42.929688 156.894531 42.929688 C 156.117188 42.929688 155.433594 42.78125 154.835938 42.480469 C 154.246094 42.179688 153.789062 41.757812 153.464844 41.21875 C 153.136719 40.683594 152.976562 40.078125 152.976562 39.402344 C 152.976562 38.726562 153.136719 38.117188 153.453125 37.582031 C 153.773438 37.039062 154.210938 36.617188 154.765625 36.320312 C 155.328125 36.015625 155.953125 35.863281 156.644531 35.863281 C 157.3125 35.863281 157.917969 36.007812 158.464844 36.300781 C 159.003906 36.585938 159.433594 37 159.746094 37.542969 C 160.054688 38.078125 160.210938 38.703125 160.210938 39.421875 Z M 156.652344 37.363281 C 156.203125 37.363281 155.820312 37.492188 155.511719 37.75 C 155.207031 38.003906 155.019531 38.351562 154.953125 38.792969 L 158.332031 38.792969 C 158.265625 38.363281 158.082031 38.019531 157.777344 37.761719 C 157.472656 37.496094 157.097656 37.363281 156.652344 37.363281 Z M 156.652344 37.363281 " fill-opacity="1" fill-rule="nonzero"/><path fill="#f9f9f9" d="M 164.855469 42.929688 C 164.125 42.929688 163.46875 42.78125 162.886719 42.480469 C 162.304688 42.179688 161.847656 41.757812 161.515625 41.21875 C 161.191406 40.683594 161.03125 40.078125 161.03125 39.402344 C 161.03125 38.71875 161.191406 38.109375 161.515625 37.570312 C 161.847656 37.035156 162.304688 36.617188 162.886719 36.320312 C 163.46875 36.015625 164.125 35.863281 164.855469 35.863281 C 165.578125 35.863281 166.207031 36.015625 166.746094 36.320312 C 167.285156 36.617188 167.683594 37.050781 167.9375 37.613281 L 166.386719 38.4375 C 166.027344 37.808594 165.515625 37.492188 164.847656 37.492188 C 164.328125 37.492188 163.898438 37.667969 163.554688 38.007812 C 163.214844 38.347656 163.046875 38.8125 163.046875 39.402344 C 163.046875 39.984375 163.214844 40.449219 163.554688 40.792969 C 163.898438 41.128906 164.328125 41.300781 164.847656 41.300781 C 165.527344 41.300781 166.042969 40.984375 166.386719 40.355469 L 167.9375 41.199219 C 167.683594 41.742188 167.285156 42.167969 166.746094 42.472656 C 166.207031 42.777344 165.578125 42.929688 164.855469 42.929688 Z M 164.855469 42.929688 " fill-opacity="1" fill-rule="nonzero"/><path fill="#f9f9f9" d="M 173.253906 35.863281 C 174.109375 35.863281 174.796875 36.117188 175.320312 36.628906 C 175.84375 37.140625 176.105469 37.898438 176.105469 38.902344 L 176.105469 42.828125 L 174.109375 42.828125 L 174.109375 39.203125 C 174.109375 38.660156 173.988281 38.253906 173.75 37.988281 C 173.511719 37.71875 173.167969 37.582031 172.71875 37.582031 C 172.21875 37.582031 171.824219 37.738281 171.523438 38.050781 C 171.226562 38.363281 171.078125 38.820312 171.078125 39.429688 L 171.078125 42.828125 L 169.078125 42.828125 L 169.078125 33.359375 L 171.078125 33.359375 L 171.078125 36.675781 C 171.339844 36.414062 171.660156 36.210938 172.03125 36.070312 C 172.410156 35.933594 172.816406 35.863281 173.253906 35.863281 Z M 173.253906 35.863281 " fill-opacity="1" fill-rule="nonzero"/><path fill="#f9f9f9" d="M 182.332031 42.5 C 182.132812 42.640625 181.886719 42.746094 181.605469 42.820312 C 181.320312 42.890625 181.019531 42.929688 180.710938 42.929688 C 179.894531 42.929688 179.261719 42.71875 178.8125 42.300781 C 178.367188 41.886719 178.148438 41.273438 178.148438 40.464844 L 178.148438 37.652344 L 177.082031 37.652344 L 177.082031 36.121094 L 178.148438 36.121094 L 178.148438 34.441406 L 180.132812 34.441406 L 180.132812 36.121094 L 181.84375 36.121094 L 181.84375 37.652344 L 180.132812 37.652344 L 180.132812 40.445312 C 180.132812 40.738281 180.207031 40.960938 180.351562 41.121094 C 180.503906 41.273438 180.714844 41.347656 180.988281 41.347656 C 181.308594 41.347656 181.574219 41.265625 181.792969 41.089844 Z M 182.332031 42.5 " fill-opacity="1" fill-rule="nonzero"/><path fill="#f9f9f9" d="M 23.199219 6.1875 L 51.277344 22.699219 L 51.316406 38.910156 L 56.144531 36.132812 L 50.957031 33.035156 L 50.933594 31.898438 L 57.769531 36.015625 L 57.769531 38.09375 L 29.542969 54.539062 L 1.085938 38.328125 L 1.078125 35.894531 L 12.359375 29.375 L 2.339844 27.453125 C 2.042969 27.089844 2.210938 26.714844 2.441406 26.535156 L 32.320312 31.875 L 32.660156 31.875 L 32.984375 31.925781 L 31.636719 30.484375 L 33.433594 31.125 L 34.140625 29.574219 L 34.828125 31.238281 L 36.300781 30.398438 L 35.648438 31.734375 L 37.4375 32.449219 L 35.476562 33.042969 L 36.300781 34.011719 L 35.164062 33.8125 L 34.117188 35.277344 L 33.714844 33.753906 L 32.132812 34.613281 L 32.660156 33.15625 L 31.863281 32.730469 L 13.589844 29.542969 L 2.746094 35.953125 L 29.402344 51.390625 L 46.882812 41.394531 L 34.625 34.003906 L 35.15625 33.832031 L 36.28125 34.011719 L 35.480469 33.015625 L 36.441406 32.75 L 47.9375 39.359375 L 47.964844 24.9375 L 21.246094 9.1875 L 21.085938 24.453125 L 33.425781 31.285156 L 31.867188 30.582031 L 32.984375 31.925781 L 20.886719 25.078125 L 14.882812 28.804688 L 13.59375 28.648438 L 20.375 24.59375 L 20.488281 8.410156 Z M 23.199219 6.1875 " fill-opacity="1" fill-rule="nonzero"/><g clip-path="url(#eda7e0f84e)"><path stroke-linecap="butt" transform="matrix(0.636046, 0, 0, 0.636046, -48.461826, -93.475087)" fill="none" stroke-linejoin="miter" d="M 170.371635 146.342543 L 170.371635 243.058264 Z M 170.371635 146.342543 " stroke="#ffffff" stroke-width="1.318" stroke-opacity="1" stroke-miterlimit="4"/></g></svg>