<svg xmlns="http://www.w3.org/2000/svg" xmlns:xlink="http://www.w3.org/1999/xlink" width="500" zoomAndPan="magnify" viewBox="0 0 375 107.04" height="133" preserveAspectRatio="xMidYMid meet" version="1.0"><defs><clipPath id="07666f6869"><path d="M 1.667969 0 L 373.332031 0 L 373.332031 98.863281 L 1.667969 98.863281 Z M 1.667969 0 " clip-rule="nonzero"/></clipPath><clipPath id="1ff3db4c7b"><path d="M 132.6875 1 L 248.339844 1 L 248.339844 26 L 132.6875 26 Z M 132.6875 1 " clip-rule="nonzero"/></clipPath><clipPath id="987a129784"><path d="M 145.367188 39.878906 L 228.804688 39.878906 L 228.804688 95.511719 L 145.367188 95.511719 Z M 145.367188 39.878906 " clip-rule="nonzero"/></clipPath><clipPath id="fe64061303"><path d="M 120.824219 12.148438 L 144.550781 12.148438 L 144.550781 35.882812 L 120.824219 35.882812 Z M 120.824219 12.148438 " clip-rule="nonzero"/></clipPath><clipPath id="231c728c12"><path d="M 132.6875 12.148438 C 126.132812 12.148438 120.824219 17.464844 120.824219 24.011719 C 120.824219 30.566406 126.132812 35.882812 132.6875 35.882812 C 139.242188 35.882812 144.550781 30.566406 144.550781 24.011719 C 144.550781 17.464844 139.242188 12.148438 132.6875 12.148438 Z M 132.6875 12.148438 " clip-rule="nonzero"/></clipPath><clipPath id="b4aabb9419"><path d="M 122.113281 17 L 142.613281 17 L 142.613281 31.621094 L 122.113281 31.621094 Z M 122.113281 17 " clip-rule="nonzero"/></clipPath><clipPath id="2c6c9b14f3"><path d="M 230.457031 12.148438 L 254.1875 12.148438 L 254.1875 35.882812 L 230.457031 35.882812 Z M 230.457031 12.148438 " clip-rule="nonzero"/></clipPath><clipPath id="709fc929e1"><path d="M 242.324219 12.148438 C 235.769531 12.148438 230.457031 17.464844 230.457031 24.011719 C 230.457031 30.566406 235.769531 35.882812 242.324219 35.882812 C 248.878906 35.882812 254.1875 30.566406 254.1875 24.011719 C 254.1875 17.464844 248.878906 12.148438 242.324219 12.148438 Z M 242.324219 12.148438 " clip-rule="nonzero"/></clipPath><clipPath id="78457e77fb"><path d="M 231.75 17 L 252.25 17 L 252.25 31.621094 L 231.75 31.621094 Z M 231.75 17 " clip-rule="nonzero"/></clipPath><clipPath id="0c0c5d4fd9"><path d="M 145.367188 39.878906 L 183.425781 39.878906 L 183.425781 95.511719 L 145.367188 95.511719 Z M 145.367188 39.878906 " clip-rule="nonzero"/></clipPath><clipPath id="9218636b71"><path d="M 178.152344 43 L 183.425781 43 L 183.425781 89 L 178.152344 89 Z M 178.152344 43 " clip-rule="nonzero"/></clipPath></defs><g clip-path="url(#07666f6869)"><path fill="#ffffff" d="M 1.667969 0 L 373.332031 0 L 373.332031 98.863281 L 1.667969 98.863281 Z M 1.667969 0 " fill-opacity="1" fill-rule="nonzero"/><path fill="#ffffff" d="M 1.667969 0 L 373.332031 0 L 373.332031 98.863281 L 1.667969 98.863281 Z M 1.667969 0 " fill-opacity="1" fill-rule="nonzero"/></g><g clip-path="url(#1ff3db4c7b)"><path fill="#000000" d="M 171.929688 12.785156 C 177.085938 21.0625 171.53125 24.011719 169.746094 19.554688 C 168.839844 17.160156 169.722656 14.167969 171.929688 12.785156 Z M 148.078125 1.3125 C 142.816406 2.207031 137.765625 4.988281 134.570312 9.296875 C 133.824219 10.34375 133.140625 11.394531 132.832031 12.625 C 132.773438 13.363281 133.632812 13.449219 133.933594 12.832031 C 134.132812 12.503906 134.253906 12.132812 134.414062 11.789062 C 134.929688 10.75 135.597656 9.789062 136.328125 8.890625 C 138.664062 6.195312 141.761719 4.179688 145.15625 3.058594 C 148.15625 2 151.328125 1.8125 154.464844 2.183594 C 161.1875 2.929688 167.617188 6.539062 171.484375 12.109375 C 168.792969 13.792969 167.804688 17.558594 169.1875 20.386719 C 169.683594 21.421875 170.644531 22.34375 171.835938 22.445312 C 173.082031 22.613281 174.148438 21.660156 174.582031 20.554688 C 174.839844 19.902344 174.886719 19.1875 174.871094 18.488281 C 174.71875 16.296875 173.703125 14.261719 172.574219 12.417969 C 174.625 11.441406 177.03125 11.632812 179.183594 12.140625 C 185.921875 13.855469 190.125 19.949219 196.003906 23.214844 C 199.792969 25.34375 204.792969 26.386719 208.757812 24.152344 C 211.96875 22.261719 212.746094 19.464844 213.707031 16.128906 C 214.507812 13.441406 216.359375 11.097656 218.769531 9.667969 C 226.945312 4.863281 236.707031 8.515625 242.683594 15.085938 C 244.050781 16.558594 245.234375 18.171875 246.289062 19.863281 C 246.710938 20.507812 247.132812 21.15625 247.507812 21.832031 C 247.609375 22.015625 247.871094 22.070312 248.046875 21.960938 C 248.230469 21.847656 248.277344 21.609375 248.171875 21.421875 C 246.585938 18.511719 244.671875 15.769531 242.285156 13.449219 C 238.449219 9.691406 233.324219 7.023438 227.914062 6.648438 C 224.378906 6.441406 220.738281 7.316406 217.765625 9.25 C 215.597656 10.671875 213.90625 12.792969 213.054688 15.246094 C 212.433594 16.957031 212.101562 18.789062 211.195312 20.394531 C 210.234375 22.144531 208.511719 23.511719 206.597656 24.058594 C 202.695312 25.140625 198.5625 23.835938 195.257812 21.722656 C 191.738281 19.472656 188.804688 16.445312 185.332031 14.140625 C 182.941406 12.519531 180.21875 11.296875 177.316406 11.011719 C 175.5625 10.828125 173.726562 10.941406 172.128906 11.742188 C 166.878906 4.1875 157.183594 0.0390625 148.078125 1.3125 Z M 148.078125 1.3125 " fill-opacity="1" fill-rule="nonzero"/></g><path fill="#000000" d="M 57.074219 94.433594 L 45.273438 94.433594 L 18.195312 43.933594 L 38.265625 43.933594 L 50.589844 71.195312 L 62.699219 43.933594 L 74.6875 43.933594 L 86.796875 71.195312 L 99.121094 43.933594 L 119.191406 43.933594 L 92.113281 94.433594 L 80.3125 94.433594 L 68.691406 68.335938 Z M 57.074219 94.433594 " fill-opacity="1" fill-rule="nonzero"/><path fill="#000000" d="M 124.796875 15.777344 C 126.839844 13.75 129.269531 12.734375 132.082031 12.734375 C 134.910156 12.734375 137.335938 13.75 139.367188 15.777344 C 141.410156 17.808594 142.4375 20.234375 142.4375 23.0625 C 142.4375 25.890625 141.410156 28.320312 139.367188 30.347656 C 137.335938 32.375 134.910156 33.390625 132.082031 33.390625 C 129.269531 33.390625 126.839844 32.375 124.796875 30.347656 C 122.769531 28.320312 121.753906 25.890625 121.753906 23.0625 C 121.753906 20.234375 122.769531 17.808594 124.796875 15.777344 Z M 123.136719 43.933594 L 123.136719 94.433594 L 140.5625 94.433594 L 140.5625 43.933594 Z M 123.136719 43.933594 " fill-opacity="1" fill-rule="nonzero"/><path fill="#050505" d="M 235.171875 15.777344 C 237.214844 13.75 239.644531 12.734375 242.457031 12.734375 C 245.285156 12.734375 247.714844 13.75 249.742188 15.777344 C 251.785156 17.808594 252.816406 20.234375 252.816406 23.0625 C 252.816406 25.890625 251.785156 28.320312 249.742188 30.347656 C 247.714844 32.375 245.285156 33.390625 242.457031 33.390625 C 239.644531 33.390625 237.214844 32.375 235.171875 30.347656 C 233.144531 28.320312 232.128906 25.890625 232.128906 23.0625 C 232.128906 20.234375 233.144531 17.808594 235.171875 15.777344 Z M 233.511719 43.933594 L 233.511719 94.433594 L 250.941406 94.433594 L 250.941406 43.933594 Z M 233.511719 43.933594 " fill-opacity="1" fill-rule="nonzero"/><path fill="#050505" d="M 263.246094 9.753906 L 280.671875 9.753906 L 280.671875 94.433594 L 263.246094 94.433594 Z M 263.246094 9.753906 " fill-opacity="1" fill-rule="nonzero"/><path fill="#050505" d="M 295.929688 88.191406 C 291.210938 83.027344 288.859375 76.710938 288.859375 69.230469 C 288.859375 61.753906 291.210938 55.421875 295.929688 50.234375 C 300.660156 45.054688 306.664062 42.457031 313.941406 42.457031 C 320.640625 42.457031 326.15625 44.5625 330.507812 48.757812 L 330.507812 43.933594 L 347.902344 43.933594 L 347.902344 94.433594 L 330.691406 94.433594 L 330.691406 88.714844 L 330.507812 88.714844 C 326.15625 93.511719 320.640625 95.90625 313.941406 95.90625 C 306.664062 95.90625 300.660156 93.339844 295.929688 88.191406 Z M 310.742188 60.652344 C 308.484375 62.890625 307.363281 65.746094 307.363281 69.230469 C 307.363281 72.71875 308.4375 75.550781 310.589844 77.742188 C 312.757812 79.941406 315.613281 81.03125 319.164062 81.03125 C 322.585938 81.03125 325.390625 79.925781 327.585938 77.710938 C 329.777344 75.484375 330.875 72.65625 330.875 69.230469 C 330.875 65.746094 329.738281 62.890625 327.464844 60.652344 C 325.203125 58.425781 322.4375 57.304688 319.164062 57.304688 C 315.824219 57.304688 313.019531 58.425781 310.742188 60.652344 Z M 310.742188 60.652344 " fill-opacity="1" fill-rule="nonzero"/><g clip-path="url(#987a129784)"><path fill="#050505" d="M 228.351562 44.359375 C 228.144531 42.929688 227.371094 41.878906 226.125 41.179688 C 224.550781 40.289062 222.859375 40.066406 221.070312 39.996094 C 217.988281 39.871094 215.035156 40.441406 212.238281 41.632812 C 206.546875 44.054688 201.226562 47.117188 196.550781 51.207031 C 193.667969 53.71875 191.394531 56.707031 189.839844 60.226562 C 189.1875 58.046875 188.6875 56.839844 188.472656 56.347656 C 188.617188 56.207031 188.742188 56.046875 188.839844 55.863281 C 188.871094 55.800781 188.902344 55.746094 188.925781 55.6875 C 188.925781 55.6875 188.933594 55.679688 188.933594 55.679688 C 188.957031 55.617188 188.980469 55.5625 188.996094 55.503906 C 189.003906 55.496094 189.003906 55.488281 189.011719 55.480469 C 189.027344 55.425781 189.042969 55.371094 189.050781 55.316406 C 189.058594 55.300781 189.058594 55.285156 189.066406 55.269531 C 189.074219 55.226562 189.078125 55.164062 189.085938 55.109375 C 189.085938 55.09375 189.09375 55.078125 189.09375 55.0625 C 189.101562 54.996094 189.101562 54.917969 189.101562 54.847656 C 189.101562 54.773438 189.101562 54.703125 189.09375 54.632812 C 189.09375 54.617188 189.085938 54.609375 189.085938 54.601562 C 189.078125 54.542969 189.074219 54.480469 189.058594 54.417969 C 189.058594 54.410156 189.058594 54.410156 189.058594 54.402344 C 188.972656 53.988281 188.757812 53.621094 188.464844 53.34375 C 189.441406 50.898438 191.578125 46.726562 195.433594 44.390625 C 195.664062 44.253906 195.742188 43.960938 195.605469 43.730469 C 195.464844 43.5 195.164062 43.429688 194.933594 43.570312 C 190.871094 46.027344 188.648438 50.261719 187.613281 52.84375 C 187.527344 52.8125 187.4375 52.796875 187.34375 52.78125 C 187.328125 52.78125 187.304688 52.773438 187.28125 52.773438 C 187.25 52.765625 187.21875 52.765625 187.191406 52.757812 C 187.128906 52.757812 187.074219 52.75 187.011719 52.75 C 186.796875 52.75 186.597656 52.78125 186.414062 52.84375 C 185.375 50.269531 183.148438 46.027344 179.082031 43.570312 C 178.851562 43.429688 178.5625 43.5 178.421875 43.730469 C 178.285156 43.960938 178.351562 44.253906 178.582031 44.390625 C 182.441406 46.726562 184.585938 50.898438 185.5625 53.34375 C 185.160156 53.71875 184.914062 54.257812 184.914062 54.847656 C 184.914062 55.441406 185.160156 55.96875 185.554688 56.347656 C 185.332031 56.839844 184.832031 58.046875 184.175781 60.226562 C 182.632812 56.707031 180.351562 53.71875 177.46875 51.207031 C 172.789062 47.117188 167.472656 44.054688 161.777344 41.632812 C 158.980469 40.441406 156.03125 39.871094 152.957031 39.996094 C 151.160156 40.066406 149.46875 40.289062 147.894531 41.179688 C 146.65625 41.878906 145.871094 42.929688 145.664062 44.359375 C 145.441406 45.875 145.71875 47.339844 146.296875 48.710938 C 147.1875 50.824219 148.171875 52.890625 149.167969 54.949219 C 149.753906 56.179688 150.191406 57.429688 150.375 58.773438 C 150.605469 60.480469 150.773438 62.203125 151.097656 63.894531 C 151.882812 68.035156 155.824219 71.5625 160.625 70.871094 C 160.734375 70.855469 160.839844 70.871094 160.847656 70.871094 C 159.640625 71.882812 158.390625 72.898438 157.175781 73.964844 C 156.347656 74.695312 155.90625 75.664062 155.730469 76.757812 C 155.492188 78.199219 155.699219 79.613281 156.117188 80.996094 C 157.398438 85.199219 159.796875 88.71875 162.871094 91.800781 C 164.078125 93.015625 165.414062 94.074219 166.980469 94.8125 C 167.917969 95.257812 169.371094 95.296875 170.398438 95.136719 C 172.597656 94.789062 174.019531 93.929688 175.777344 92.59375 C 177.484375 91.292969 178.820312 89.648438 180.105469 87.953125 C 181.980469 85.476562 183.761719 82.941406 185.007812 80.082031 L 185.015625 80.089844 C 185.015625 80.089844 185.152344 88.917969 187.011719 88.917969 C 188.863281 88.917969 189.011719 80.089844 189.011719 80.089844 L 189.011719 80.082031 C 190.253906 82.941406 192.039062 85.476562 193.914062 87.953125 C 195.195312 89.648438 196.535156 91.292969 198.238281 92.59375 C 200 93.929688 201.421875 94.789062 203.617188 95.136719 C 204.648438 95.296875 206.101562 95.257812 207.039062 94.8125 C 208.605469 94.074219 209.941406 93.015625 211.148438 91.800781 C 214.222656 88.71875 216.621094 85.199219 217.902344 80.996094 C 218.316406 79.613281 218.523438 78.199219 218.285156 76.757812 C 218.109375 75.664062 217.679688 74.695312 216.84375 73.964844 C 215.636719 72.898438 214.375 71.882812 213.167969 70.871094 C 213.175781 70.871094 213.285156 70.855469 213.390625 70.871094 C 218.195312 71.5625 222.136719 68.035156 222.921875 63.894531 C 223.242188 62.203125 223.414062 60.480469 223.644531 58.773438 C 223.828125 57.429688 224.265625 56.179688 224.847656 54.949219 C 225.847656 52.890625 226.839844 50.824219 227.722656 48.710938 C 228.300781 47.339844 228.574219 45.875 228.351562 44.359375 Z M 228.351562 44.359375 " fill-opacity="1" fill-rule="nonzero"/></g><path fill="#050505" d="M 195.605469 43.730469 C 195.464844 43.5 195.164062 43.429688 194.933594 43.570312 C 190.871094 46.027344 188.648438 50.269531 187.605469 52.84375 C 187.421875 52.78125 187.21875 52.75 187.011719 52.75 C 186.796875 52.75 186.597656 52.78125 186.414062 52.84375 C 185.375 50.269531 183.148438 46.027344 179.082031 43.570312 C 178.851562 43.429688 178.5625 43.5 178.421875 43.730469 C 178.285156 43.960938 178.351562 44.253906 178.582031 44.390625 C 182.441406 46.726562 184.585938 50.898438 185.5625 53.34375 C 185.160156 53.71875 184.914062 54.257812 184.914062 54.847656 C 184.914062 55.433594 185.160156 55.96875 185.546875 56.347656 C 185.332031 56.839844 184.832031 58.046875 184.175781 60.21875 L 185.007812 80.089844 C 185.007812 80.089844 185.152344 88.917969 187.011719 88.917969 C 188.863281 88.917969 189.011719 80.089844 189.011719 80.089844 L 189.839844 60.21875 C 189.1875 58.046875 188.6875 56.839844 188.472656 56.347656 C 188.855469 55.96875 189.101562 55.433594 189.101562 54.847656 C 189.101562 54.257812 188.855469 53.71875 188.457031 53.34375 C 189.433594 50.898438 191.578125 46.726562 195.433594 44.390625 C 195.664062 44.253906 195.734375 43.960938 195.605469 43.730469 Z M 195.605469 43.730469 " fill-opacity="1" fill-rule="nonzero"/><g clip-path="url(#fe64061303)"><g clip-path="url(#231c728c12)"><path fill="#000000" d="M 120.824219 12.148438 L 144.550781 12.148438 L 144.550781 35.882812 L 120.824219 35.882812 Z M 120.824219 12.148438 " fill-opacity="1" fill-rule="nonzero"/></g></g><g clip-path="url(#b4aabb9419)"><path fill="#ffffff" d="M 143.183594 18.121094 C 143.128906 17.757812 142.929688 17.488281 142.613281 17.3125 C 142.214844 17.082031 141.785156 17.027344 141.332031 17.011719 C 140.546875 16.980469 139.800781 17.121094 139.085938 17.425781 C 137.644531 18.042969 136.296875 18.820312 135.109375 19.855469 C 134.378906 20.492188 133.792969 21.253906 133.402344 22.144531 C 133.238281 21.59375 133.109375 21.285156 133.054688 21.160156 C 133.09375 21.125 133.125 21.085938 133.148438 21.039062 C 133.15625 21.023438 133.164062 21.007812 133.171875 20.992188 C 133.179688 20.976562 133.1875 20.960938 133.1875 20.945312 C 133.195312 20.945312 133.195312 20.9375 133.195312 20.9375 C 133.195312 20.925781 133.203125 20.917969 133.203125 20.902344 C 133.203125 20.894531 133.203125 20.894531 133.210938 20.886719 C 133.210938 20.878906 133.210938 20.863281 133.210938 20.847656 C 133.210938 20.839844 133.21875 20.839844 133.21875 20.832031 C 133.21875 20.816406 133.21875 20.800781 133.21875 20.777344 C 133.21875 20.761719 133.21875 20.738281 133.21875 20.722656 C 133.21875 20.722656 133.21875 20.714844 133.21875 20.714844 C 133.210938 20.699219 133.210938 20.6875 133.210938 20.671875 C 133.210938 20.671875 133.203125 20.671875 133.203125 20.671875 C 133.1875 20.5625 133.132812 20.46875 133.054688 20.394531 C 133.300781 19.777344 133.847656 18.71875 134.824219 18.125 C 134.882812 18.089844 134.898438 18.019531 134.871094 17.957031 C 134.832031 17.902344 134.753906 17.882812 134.699219 17.917969 C 133.664062 18.542969 133.101562 19.617188 132.839844 20.269531 C 132.816406 20.261719 132.792969 20.261719 132.773438 20.253906 C 132.765625 20.253906 132.765625 20.253906 132.757812 20.253906 C 132.75 20.253906 132.742188 20.246094 132.734375 20.246094 C 132.71875 20.246094 132.703125 20.246094 132.6875 20.246094 C 132.632812 20.246094 132.578125 20.253906 132.535156 20.269531 C 132.273438 19.617188 131.703125 18.542969 130.671875 17.917969 C 130.613281 17.882812 130.542969 17.902344 130.503906 17.957031 C 130.472656 18.019531 130.488281 18.089844 130.542969 18.125 C 131.527344 18.71875 132.070312 19.777344 132.316406 20.402344 C 132.21875 20.492188 132.15625 20.632812 132.15625 20.777344 C 132.15625 20.929688 132.21875 21.0625 132.316406 21.160156 C 132.257812 21.285156 132.132812 21.59375 131.964844 22.144531 C 131.574219 21.253906 130.996094 20.492188 130.265625 19.855469 C 129.074219 18.820312 127.722656 18.042969 126.277344 17.425781 C 125.570312 17.121094 124.828125 16.980469 124.042969 17.011719 C 123.589844 17.027344 123.160156 17.082031 122.757812 17.3125 C 122.445312 17.488281 122.246094 17.757812 122.191406 18.121094 C 122.136719 18.503906 122.207031 18.871094 122.351562 19.226562 C 122.574219 19.757812 122.828125 20.285156 123.082031 20.808594 C 123.226562 21.117188 123.34375 21.4375 123.390625 21.777344 C 123.441406 22.207031 123.488281 22.644531 123.566406 23.074219 C 123.765625 24.128906 124.773438 25.019531 125.988281 24.84375 C 126.015625 24.84375 126.039062 24.84375 126.046875 24.84375 C 125.742188 25.105469 125.417969 25.367188 125.109375 25.632812 C 124.902344 25.820312 124.796875 26.066406 124.75 26.339844 C 124.6875 26.710938 124.742188 27.0625 124.839844 27.417969 C 125.171875 28.484375 125.777344 29.375 126.554688 30.160156 C 126.863281 30.46875 127.207031 30.738281 127.601562 30.921875 C 127.839844 31.035156 128.207031 31.042969 128.46875 31.003906 C 129.03125 30.921875 129.390625 30.699219 129.835938 30.359375 C 130.265625 30.03125 130.605469 29.613281 130.933594 29.183594 C 131.410156 28.554688 131.863281 27.910156 132.179688 27.1875 C 132.179688 27.1875 132.21875 29.429688 132.6875 29.429688 C 133.15625 29.429688 133.195312 27.1875 133.195312 27.1875 C 133.507812 27.910156 133.960938 28.554688 134.4375 29.183594 C 134.761719 29.613281 135.101562 30.03125 135.539062 30.359375 C 135.984375 30.699219 136.34375 30.921875 136.90625 31.003906 C 137.160156 31.042969 137.535156 31.035156 137.765625 30.921875 C 138.164062 30.738281 138.503906 30.46875 138.8125 30.160156 C 139.59375 29.375 140.203125 28.484375 140.523438 27.417969 C 140.632812 27.0625 140.6875 26.710938 140.625 26.339844 C 140.578125 26.066406 140.472656 25.820312 140.253906 25.632812 C 139.949219 25.367188 139.632812 25.105469 139.324219 24.84375 C 139.324219 24.84375 139.355469 24.84375 139.378906 24.84375 C 140.601562 25.019531 141.601562 24.128906 141.800781 23.074219 C 141.882812 22.644531 141.921875 22.207031 141.984375 21.777344 C 142.03125 21.4375 142.136719 21.117188 142.292969 20.808594 C 142.546875 20.285156 142.792969 19.757812 143.023438 19.226562 C 143.167969 18.871094 143.238281 18.503906 143.183594 18.121094 Z M 143.183594 18.121094 " fill-opacity="1" fill-rule="nonzero"/></g><path fill="#000000" d="M 134.871094 17.957031 C 134.832031 17.902344 134.753906 17.882812 134.699219 17.917969 C 133.664062 18.542969 133.101562 19.617188 132.839844 20.269531 C 132.785156 20.253906 132.742188 20.246094 132.6875 20.246094 C 132.632812 20.246094 132.578125 20.253906 132.535156 20.269531 C 132.273438 19.617188 131.703125 18.542969 130.671875 17.917969 C 130.613281 17.882812 130.542969 17.902344 130.503906 17.957031 C 130.472656 18.019531 130.488281 18.089844 130.542969 18.125 C 131.527344 18.71875 132.070312 19.777344 132.316406 20.402344 C 132.21875 20.492188 132.15625 20.632812 132.15625 20.777344 C 132.15625 20.929688 132.21875 21.0625 132.316406 21.160156 C 132.257812 21.285156 132.132812 21.59375 131.964844 22.144531 L 132.179688 27.1875 C 132.179688 27.1875 132.210938 29.429688 132.6875 29.429688 C 133.15625 29.429688 133.195312 27.1875 133.195312 27.1875 L 133.402344 22.144531 C 133.238281 21.59375 133.109375 21.285156 133.054688 21.160156 C 133.15625 21.0625 133.21875 20.929688 133.21875 20.777344 C 133.21875 20.632812 133.15625 20.492188 133.054688 20.402344 C 133.300781 19.777344 133.847656 18.71875 134.824219 18.125 C 134.882812 18.089844 134.898438 18.019531 134.871094 17.957031 Z M 134.871094 17.957031 " fill-opacity="1" fill-rule="nonzero"/><g clip-path="url(#2c6c9b14f3)"><g clip-path="url(#709fc929e1)"><path fill="#050505" d="M 230.457031 12.148438 L 254.1875 12.148438 L 254.1875 35.882812 L 230.457031 35.882812 Z M 230.457031 12.148438 " fill-opacity="1" fill-rule="nonzero"/></g></g><g clip-path="url(#78457e77fb)"><path fill="#050505" d="M 252.820312 18.121094 C 252.765625 17.757812 252.566406 17.488281 252.25 17.3125 C 251.851562 17.082031 251.421875 17.027344 250.96875 17.011719 C 250.183594 16.980469 249.4375 17.121094 248.722656 17.425781 C 247.277344 18.042969 245.933594 18.820312 244.742188 19.855469 C 244.011719 20.492188 243.4375 21.253906 243.042969 22.144531 C 242.875 21.59375 242.746094 21.285156 242.691406 21.160156 C 242.730469 21.125 242.761719 21.085938 242.785156 21.039062 C 242.800781 21.023438 242.800781 21.007812 242.804688 20.992188 C 242.804688 20.992188 242.804688 20.992188 242.8125 20.992188 C 242.8125 20.976562 242.820312 20.960938 242.828125 20.945312 C 242.828125 20.945312 242.828125 20.9375 242.828125 20.9375 C 242.828125 20.925781 242.835938 20.917969 242.835938 20.902344 C 242.835938 20.894531 242.84375 20.894531 242.84375 20.886719 C 242.84375 20.878906 242.84375 20.863281 242.851562 20.847656 C 242.851562 20.839844 242.851562 20.839844 242.851562 20.832031 C 242.851562 20.816406 242.851562 20.800781 242.851562 20.777344 C 242.851562 20.761719 242.851562 20.738281 242.851562 20.722656 C 242.851562 20.722656 242.851562 20.714844 242.851562 20.714844 C 242.84375 20.699219 242.84375 20.6875 242.84375 20.671875 C 242.820312 20.5625 242.769531 20.46875 242.691406 20.394531 C 242.9375 19.777344 243.484375 18.71875 244.457031 18.125 C 244.519531 18.089844 244.535156 18.019531 244.503906 17.957031 C 244.464844 17.902344 244.390625 17.882812 244.335938 17.917969 C 243.296875 18.542969 242.738281 19.617188 242.476562 20.269531 C 242.453125 20.261719 242.429688 20.261719 242.40625 20.253906 C 242.398438 20.253906 242.398438 20.253906 242.390625 20.253906 C 242.382812 20.253906 242.375 20.246094 242.367188 20.246094 C 242.351562 20.246094 242.335938 20.246094 242.324219 20.246094 C 242.269531 20.246094 242.214844 20.253906 242.167969 20.269531 C 241.90625 19.617188 241.339844 18.542969 240.308594 17.917969 C 240.253906 17.882812 240.179688 17.902344 240.140625 17.957031 C 240.109375 18.019531 240.125 18.089844 240.1875 18.125 C 241.164062 18.71875 241.707031 19.777344 241.953125 20.402344 C 241.855469 20.492188 241.792969 20.632812 241.792969 20.777344 C 241.792969 20.929688 241.855469 21.0625 241.953125 21.160156 C 241.890625 21.285156 241.769531 21.59375 241.601562 22.144531 C 241.207031 21.253906 240.632812 20.492188 239.902344 19.855469 C 238.710938 18.820312 237.367188 18.042969 235.914062 17.425781 C 235.207031 17.121094 234.460938 16.980469 233.679688 17.011719 C 233.226562 17.027344 232.792969 17.082031 232.394531 17.3125 C 232.078125 17.488281 231.878906 17.757812 231.824219 18.121094 C 231.773438 18.503906 231.839844 18.871094 231.988281 19.226562 C 232.210938 19.757812 232.464844 20.285156 232.71875 20.808594 C 232.863281 21.117188 232.980469 21.4375 233.023438 21.777344 C 233.085938 22.207031 233.125 22.644531 233.210938 23.074219 C 233.402344 24.128906 234.40625 25.019531 235.628906 24.84375 C 235.652344 24.84375 235.683594 24.84375 235.683594 24.84375 C 235.375 25.105469 235.054688 25.367188 234.746094 25.632812 C 234.539062 25.820312 234.429688 26.066406 234.386719 26.339844 C 234.324219 26.710938 234.378906 27.0625 234.484375 27.417969 C 234.808594 28.484375 235.414062 29.375 236.199219 30.160156 C 236.503906 30.46875 236.84375 30.738281 237.234375 30.921875 C 237.472656 31.035156 237.84375 31.042969 238.105469 31.003906 C 238.664062 30.921875 239.027344 30.699219 239.472656 30.359375 C 239.902344 30.03125 240.246094 29.613281 240.570312 29.183594 C 241.046875 28.554688 241.5 27.910156 241.816406 27.1875 C 241.816406 27.1875 241.855469 29.429688 242.324219 29.429688 C 242.792969 29.429688 242.828125 27.1875 242.828125 27.1875 C 243.144531 27.910156 243.597656 28.554688 244.074219 29.183594 C 244.398438 29.613281 244.734375 30.03125 245.171875 30.359375 C 245.617188 30.699219 245.980469 30.921875 246.542969 31.003906 C 246.792969 31.042969 247.171875 31.035156 247.402344 30.921875 C 247.800781 30.738281 248.140625 30.46875 248.445312 30.160156 C 249.230469 29.375 249.835938 28.484375 250.160156 27.417969 C 250.269531 27.0625 250.320312 26.710938 250.261719 26.339844 C 250.214844 26.066406 250.105469 25.820312 249.890625 25.632812 C 249.582031 25.367188 249.269531 25.105469 248.960938 24.84375 C 248.960938 24.84375 248.992188 24.84375 249.015625 24.84375 C 250.238281 25.019531 251.234375 24.128906 251.4375 23.074219 C 251.519531 22.644531 251.558594 22.207031 251.621094 21.777344 C 251.667969 21.4375 251.773438 21.117188 251.925781 20.808594 C 252.179688 20.285156 252.425781 19.757812 252.65625 19.226562 C 252.804688 18.871094 252.871094 18.503906 252.820312 18.121094 Z M 252.820312 18.121094 " fill-opacity="1" fill-rule="nonzero"/></g><path fill="#ffffff" d="M 244.503906 17.957031 C 244.464844 17.902344 244.390625 17.882812 244.335938 17.917969 C 243.296875 18.542969 242.738281 19.617188 242.476562 20.269531 C 242.421875 20.253906 242.375 20.246094 242.324219 20.246094 C 242.269531 20.246094 242.214844 20.253906 242.167969 20.269531 C 241.90625 19.617188 241.339844 18.542969 240.308594 17.917969 C 240.253906 17.882812 240.179688 17.902344 240.140625 17.957031 C 240.109375 18.019531 240.125 18.089844 240.1875 18.125 C 241.164062 18.71875 241.707031 19.777344 241.953125 20.402344 C 241.855469 20.492188 241.792969 20.632812 241.792969 20.777344 C 241.792969 20.929688 241.855469 21.0625 241.953125 21.160156 C 241.890625 21.285156 241.769531 21.59375 241.601562 22.144531 L 241.816406 27.1875 C 241.816406 27.1875 241.855469 29.429688 242.324219 29.429688 C 242.792969 29.429688 242.828125 27.1875 242.828125 27.1875 L 243.042969 22.144531 C 242.875 21.59375 242.746094 21.285156 242.691406 21.160156 C 242.792969 21.0625 242.851562 20.929688 242.851562 20.777344 C 242.851562 20.632812 242.792969 20.492188 242.691406 20.402344 C 242.9375 19.777344 243.484375 18.71875 244.457031 18.125 C 244.519531 18.089844 244.535156 18.019531 244.503906 17.957031 Z M 244.503906 17.957031 " fill-opacity="1" fill-rule="nonzero"/><g clip-path="url(#0c0c5d4fd9)"><path fill="#000000" d="M 228.351562 44.359375 C 228.144531 42.929688 227.371094 41.878906 226.125 41.179688 C 224.550781 40.289062 222.859375 40.066406 221.070312 39.996094 C 217.988281 39.871094 215.035156 40.441406 212.238281 41.632812 C 206.546875 44.054688 201.226562 47.117188 196.550781 51.207031 C 193.667969 53.71875 191.394531 56.707031 189.839844 60.226562 C 189.1875 58.046875 188.6875 56.839844 188.472656 56.347656 C 188.617188 56.207031 188.742188 56.046875 188.839844 55.863281 C 188.871094 55.800781 188.902344 55.746094 188.925781 55.6875 C 188.925781 55.6875 188.933594 55.679688 188.933594 55.679688 C 188.957031 55.617188 188.980469 55.5625 188.996094 55.503906 C 189.003906 55.496094 189.003906 55.488281 189.011719 55.480469 C 189.027344 55.425781 189.042969 55.371094 189.050781 55.316406 C 189.058594 55.300781 189.058594 55.285156 189.066406 55.269531 C 189.074219 55.226562 189.078125 55.164062 189.085938 55.109375 C 189.085938 55.09375 189.09375 55.078125 189.09375 55.0625 C 189.101562 54.996094 189.101562 54.917969 189.101562 54.847656 C 189.101562 54.773438 189.101562 54.703125 189.09375 54.632812 C 189.09375 54.617188 189.085938 54.609375 189.085938 54.601562 C 189.078125 54.542969 189.074219 54.480469 189.058594 54.417969 C 189.058594 54.410156 189.058594 54.410156 189.058594 54.402344 C 188.972656 53.988281 188.757812 53.621094 188.464844 53.34375 C 189.441406 50.898438 191.578125 46.726562 195.433594 44.390625 C 195.664062 44.253906 195.742188 43.960938 195.605469 43.730469 C 195.464844 43.5 195.164062 43.429688 194.933594 43.570312 C 190.871094 46.027344 188.648438 50.261719 187.613281 52.84375 C 187.527344 52.8125 187.4375 52.796875 187.34375 52.78125 C 187.328125 52.78125 187.304688 52.773438 187.28125 52.773438 C 187.25 52.765625 187.21875 52.765625 187.191406 52.757812 C 187.128906 52.757812 187.074219 52.75 187.011719 52.75 C 186.796875 52.75 186.597656 52.78125 186.414062 52.84375 C 185.375 50.269531 183.148438 46.027344 179.082031 43.570312 C 178.851562 43.429688 178.5625 43.5 178.421875 43.730469 C 178.285156 43.960938 178.351562 44.253906 178.582031 44.390625 C 182.441406 46.726562 184.585938 50.898438 185.5625 53.34375 C 185.160156 53.71875 184.914062 54.257812 184.914062 54.847656 C 184.914062 55.441406 185.160156 55.96875 185.554688 56.347656 C 185.332031 56.839844 184.832031 58.046875 184.175781 60.226562 C 182.632812 56.707031 180.351562 53.71875 177.46875 51.207031 C 172.789062 47.117188 167.472656 44.054688 161.777344 41.632812 C 158.980469 40.441406 156.03125 39.871094 152.957031 39.996094 C 151.160156 40.066406 149.46875 40.289062 147.894531 41.179688 C 146.65625 41.878906 145.871094 42.929688 145.664062 44.359375 C 145.441406 45.875 145.71875 47.339844 146.296875 48.710938 C 147.1875 50.824219 148.171875 52.890625 149.167969 54.949219 C 149.753906 56.179688 150.191406 57.429688 150.375 58.773438 C 150.605469 60.480469 150.773438 62.203125 151.097656 63.894531 C 151.882812 68.035156 155.824219 71.5625 160.625 70.871094 C 160.734375 70.855469 160.839844 70.871094 160.847656 70.871094 C 159.640625 71.882812 158.390625 72.898438 157.175781 73.964844 C 156.347656 74.695312 155.90625 75.664062 155.730469 76.757812 C 155.492188 78.199219 155.699219 79.613281 156.117188 80.996094 C 157.398438 85.199219 159.796875 88.71875 162.871094 91.800781 C 164.078125 93.015625 165.414062 94.074219 166.980469 94.8125 C 167.917969 95.257812 169.371094 95.296875 170.398438 95.136719 C 172.597656 94.789062 174.019531 93.929688 175.777344 92.59375 C 177.484375 91.292969 178.820312 89.648438 180.105469 87.953125 C 181.980469 85.476562 183.761719 82.941406 185.007812 80.082031 L 185.015625 80.089844 C 185.015625 80.089844 185.152344 88.917969 187.011719 88.917969 C 188.863281 88.917969 189.011719 80.089844 189.011719 80.089844 L 189.011719 80.082031 C 190.253906 82.941406 192.039062 85.476562 193.914062 87.953125 C 195.195312 89.648438 196.535156 91.292969 198.238281 92.59375 C 200 93.929688 201.421875 94.789062 203.617188 95.136719 C 204.648438 95.296875 206.101562 95.257812 207.039062 94.8125 C 208.605469 94.074219 209.941406 93.015625 211.148438 91.800781 C 214.222656 88.71875 216.621094 85.199219 217.902344 80.996094 C 218.316406 79.613281 218.523438 78.199219 218.285156 76.757812 C 218.109375 75.664062 217.679688 74.695312 216.84375 73.964844 C 215.636719 72.898438 214.375 71.882812 213.167969 70.871094 C 213.175781 70.871094 213.285156 70.855469 213.390625 70.871094 C 218.195312 71.5625 222.136719 68.035156 222.921875 63.894531 C 223.242188 62.203125 223.414062 60.480469 223.644531 58.773438 C 223.828125 57.429688 224.265625 56.179688 224.847656 54.949219 C 225.847656 52.890625 226.839844 50.824219 227.722656 48.710938 C 228.300781 47.339844 228.574219 45.875 228.351562 44.359375 Z M 228.351562 44.359375 " fill-opacity="1" fill-rule="nonzero"/></g><g clip-path="url(#9218636b71)"><path fill="#050505" d="M 195.605469 43.730469 C 195.464844 43.5 195.164062 43.429688 194.933594 43.570312 C 190.871094 46.027344 188.648438 50.269531 187.605469 52.84375 C 187.421875 52.78125 187.21875 52.75 187.011719 52.75 C 186.796875 52.75 186.597656 52.78125 186.414062 52.84375 C 185.375 50.269531 183.148438 46.027344 179.082031 43.570312 C 178.851562 43.429688 178.5625 43.5 178.421875 43.730469 C 178.285156 43.960938 178.351562 44.253906 178.582031 44.390625 C 182.441406 46.726562 184.585938 50.898438 185.5625 53.34375 C 185.160156 53.71875 184.914062 54.257812 184.914062 54.847656 C 184.914062 55.433594 185.160156 55.96875 185.546875 56.347656 C 185.332031 56.839844 184.832031 58.046875 184.175781 60.21875 L 185.007812 80.089844 C 185.007812 80.089844 185.152344 88.917969 187.011719 88.917969 C 188.863281 88.917969 189.011719 80.089844 189.011719 80.089844 L 189.839844 60.21875 C 189.1875 58.046875 188.6875 56.839844 188.472656 56.347656 C 188.855469 55.96875 189.101562 55.433594 189.101562 54.847656 C 189.101562 54.257812 188.855469 53.71875 188.457031 53.34375 C 189.433594 50.898438 191.578125 46.726562 195.433594 44.390625 C 195.664062 44.253906 195.734375 43.960938 195.605469 43.730469 Z M 195.605469 43.730469 " fill-opacity="1" fill-rule="nonzero"/></g></svg>